<svg xmlns="http://www.w3.org/2000/svg" xmlns:xlink="http://www.w3.org/1999/xlink" width="277" height="249" viewBox="0 0 277 249"><defs><path id="prefix__a" d="M0 0H277V248.832H0z"/><path id="prefix__c" d="M0 0H202.752V248.832H0z"/><path id="prefix__e" d="M.417 170.252h25.977c1.3-2.7 2.502-5.496 3.802-8.235 3.832-8.071 6-17.719 6.654-28.988.435-7.51-.286-15.048-.95-22.652-.652-7.446-1.03-15.02-.95-22.492.034-3.336-.09-7.567.157-11.246.52-7.744 1.382-14.064 3.168-20.592.858-3.13 1.838-6.154 2.694-9.186C43.5 37.88 45.1 27.588 46.038 16.29c.33-4.016.313-8.217-.952-10.613-.073-.138-.391-.191-.475-.317-.285-.583-.659-1.117-1.108-1.585-.884-.735-2.521-1.22-4.12-1.9C37.956 1.254 36.47.776 34.949.45c-7.19-1.45-14.773.836-19.326 3.642-1.172.758-2.284 1.605-3.325 2.535-1.229 1.071-2.19 2.105-2.535 3.328-.804 2.84-.241 6.759-.475 10.454-.646 10.225-1.292 20.283-2.376 30.097-.717 6.474-1.453 12.885-2.535 19.166-1.05 6.088-2.425 12.135-3.328 18.216-2.454 16.566.158 34.91.158 52.275 0 6.144.172 12.47-.317 19.64-.113 1.673-.237 3.36-.317 5.07-.08 1.769-.1 3.646-.156 5.38z"/><path id="prefix__g" d="M.954 7.162c1.526-.332 1.87 1.329 2.218 2.535 1.542-.8 2.735.35 3.169 1.584.413-.341.219-.621.633-.95.329-.26.73-.098 1.11-.317.525-.303.86-1.028 1.901-.95 1.67.123 2.012 1.923 2.691 3.327 3.227-2.807 7.003-4.911 11.088-6.178 2.253-.696 4.684-1.345 7.129-1.267 2.425.078 4.79.85 7.286.95.193-1.986-1.147-5.427.634-5.86 1.43-.35 2.293 2.008 2.851 3.801 2.72 8.742 3.557 18.254 4.435 28.513.362 4.23.634 8.319.634 12.512 0 4.4-.283 8.718-.475 12.831-.123 4.182.09 8.366.633 12.514.887 7.864 3.033 14.616 4.752 21.543 1.683 6.783 3.666 13.692 6.019 20.434 2.319 6.642 4.591 13.337 6.02 20.275 1.665 7.964 2.25 16.115 1.741 24.235-.26 3.767-1.254 7.549-2.06 11.087-.857 3.766-1.67 7.336-2.534 10.613H37.545c-2.481-17.067-7.253-32.574-11.725-47.68-2.604-8.802-5.57-18.317-7.126-28.035-1.072-6.693-1.44-14.49-1.901-21.7-.359-5.603-.918-10.95-2.06-15.682-1.883-7.8-3.578-15.183-5.544-23.92-.973-4.312-2.223-9.233-3.01-14.572-.272-1.85-.849-4.729-.633-5.227.382-.888 1.056-.501 1.741-.475-.175-.996-.175-2.015 0-3.01.205-.782.364-1.576.476-2.376.027-.744-.08-2.075-.317-2.377-.051-.063-.397.039-.476 0-.2-.094-.289-.344-.791-.474-2.169-.564-1.843.893-1.741 2.692.205 3.645.4 7.39.634 10.772-.248.184-.568-.903-.792-1.426-1.766-4.113-3.042-8.42-3.802-12.831-.3-1.628-1.119-4.562.476-4.91z"/><path id="prefix__i" d="M0 56.269c.812.147 1.52-.123 2.218-.158.699-.036 2.003-.276 2.376 0 .138.102.145 1.996.318 2.375.778 1.711 2.9 1.824 4.592 2.852-.263.848-.606 1.037-.634 1.74-.027.768.687 1.534.476 2.217-.094.298-.257.57-.476.792-.347.232-.554-.102-.95.158-2.493 1.628-.232 4.99 1.109 7.604.536 1.042.892 2.022 1.426 2.851 1.145 1.678 2.416 3.267 3.801 4.753 2.053 2.316 3.908 3.993 6.178 6.651 2.688 3.15 4.583 6.686 6.97 10.138 1.116 1.616 2.304 3.409 3.8 4.752 2.183 1.958 5.139 3.862 9.505 3.328 2.159-.264 4.927-2.077 6.81-3.328.204-.135.511-.543.792-.793 2.44-2.078 4.526-4.538 6.178-7.285.578-.895 1.056-1.851 1.426-2.851.625-2.103.215-2.813-.475-3.01-1.383-.393-1.401 1.069-2.06 1.74-.548-.696-.086-1.574 0-2.377.46-4.312.563-9.725-.16-14.097-.401-2.44-.853-4.202-2.534-5.228-.281-.172.174-1.96.114-2.08-.335-.686-1.185-.864-1.222-1.722-.187-4.449-.512-10.81-.792-15.84-.108-1.945-.041-4.005-.475-5.068-.227-.557-1.081-1.037-1.426-1.741-.542-1.113-.343-2.536-.949-3.328-.574-.612-1.378-.957-2.218-.95 1.767-12.805 5.361-24.7 12.198-33.265 1.072-1.343 3.756-3.211 2.06-4.593-4.82 4.343-8.702 9.625-11.406 15.523-2.78 5.91-5.34 12.475-6.653 19.958-.37 2.104-.887 4.208-1.11 6.336-.593 5.704.014 12.496.476 18.692.057.759.272 2.378.157 2.534-.234.324-2.4-1.606-2.85-1.9-.508-.334-2.253-1.214-3.168-1.741-2.182-1.237-4.459-2.297-6.81-3.169-6.451-2.627-12.493-4.68-21.225-4.118-.772.051-1.717.051-2.694.157-.798.05-1.592.156-2.376.318-.29.338.104 2.69-.317 3.173z"/><path id="prefix__k" d="M.05 43.41c.549-9.639 4.28-17.459 7.445-24.71 2.554-5.854 6.564-12.949 11.088-17.107C19.421.822 20.367-.1 21.116.009c2.266.329-.607 3.301-1.11 3.8-1.105 1.106-1.88 1.741-2.532 2.852.665-.41 1.811.234 2.217.633.311.308.161.558.475.634.335.083 1.195-.269 1.9-.317.844-.06 1.691-.06 2.535 0 .595.06 1.474.445 1.901.317.27-.08.21-.527.475-.791.249-.183.514-.342.792-.476 2.54-.705 3.575 1.653 4.751 2.218 1.039.497 3.077.643 4.911.95.903.154 1.784.179 2.693.317.927.14 1.978.597 2.535.476.576-.126 1.252-1.16 2.06-1.584.946-.5 2.53-1.052 3.642-.95.227.02 1.415.695 1.583.633.327-.12.173-.979.634-.95.127.55-.235.609-.157 1.109.796-.054 1.595 0 2.376.158-.922-.553-1.391-1.911-.16-1.9.666.004.63.457 1.268.316 1.465-.324 1.239 1.066 1.901 1.426-.134-1.024.726-1.57 1.267-1.268.424.239.418 1.414.317 2.377-.095.895-.53 1.547-.476 1.74 1.308.738 3.5-.46 4.752.16.37.55.688 1.133.95 1.741.816 1.751 1.545 3.686 2.219 5.226.457 1.046-1.502 1.057-2.693 1.268-1.145.204-2.569.435-3.168.475-1.19.08-4.972-.355-5.386.159.012-.014.12.73.158.95.563 3.187-.764 6.873-.95 11.088-.092 2.117-.092 4.29 0 6.336.55 12.109 3.32 24.917 6.653 34.848.575 1.71 1.348 3.44 1.268 4.752-.104 1.995-1.654 3.613-3.643 3.801-.9.089-1.931-.39-2.376-.317-.477.08-.656.436-.952.634-1.363.922-3.543.672-4.436-.158-.11-.105-.358-.051-.474-.159-.404-.375-.57-1.51-1.109-1.74-.29-.126-1.126.2-1.584.157-.76-.069-1.167-.543-1.74-.474.419 1.1 1.119 2.684 1.9 4.434.662 1.48 1.653 3.243 1.741 4.595.176 2.638-1.592 3.524-3.328 4.117 1.97 1.28 4.25 2.236 6.493 3.485.543.303 1.61 1.286 2.06 1.267.154-.005.457-.415.793-.633 1-.664 2.138-1.097 3.328-1.267 1.97-.241 3.965.147 5.7 1.108 1.09.69 1.977 2.268 2.854 2.851.8.498 1.543 1.082 2.217 1.741.19.196.386.655.792.634.24-1.237.29-2.667 1.109-3.328-.087 5.716.606 11.418 2.06 16.947.138.52 1.154 4.026 1.108 4.118-.068.139-2.342.788-3.802 1.11-13.306 2.929-28.36 4.808-43.56 4.118-6.771-.33-13.476-1.5-19.958-3.485.933-4.096 1.881-8.728 2.534-13.623.957-7.171 2.339-14.345 1.901-22.175-.41-7.326-2.966-13.543-4.91-19.96-.958-3.158-1.917-6.243-3.01-9.346C.969 53.058-.265 48.927.049 43.41z"/><path id="prefix__m" d="M0 .034c.294 1.577 1.772 2.51 3.01 3.328 2.232 1.462 4.696 2.534 7.287 3.169-.131.423-.921.606-1.426 1.108-.641.8-1.223 1.647-1.74 2.534-1.162 1.708-2.077 2.984-3.328 5.069-.384.64-1.508 2.29-.95 2.85.541.545 2.619-1.03 3.169-1.425 1.209-.87 1.653-1.493 2.535-2.218.134 1.127 1.476 1.3 2.057 2.218.263.413.15 1.148.476 1.584.463.454.998.829 1.584 1.108.552.32 1.246.714 1.74.95 1.191.595 2.48.971 3.803 1.11.021-.816-.304-1.277-.792-2.06-.227-.364-1.193-1.349-1.11-1.584-.084.24.963-.475.952-.475.58.004 1.097.78 1.583 1.268.405.405.797 1.019 1.268 1.425 1.433 1.24 5.075 3.587 8.078 4.119 1.247.22 3.584.6 4.595 0 .153-.093.072-.303.157-.475.077-.154.256-.209.318-.317.117-.213.183-.823.316-.95.276-.266.758-.141 1.11-.317.902-.492 1.307-1.572.949-2.535.665-.139 1.785.405 2.06-.476.279-.897-.804-1.533-1.901-1.74.495-.657 1.42-.564 1.267-1.585-.18-1.21-2.337-.89-3.643-1.267-.96-.277-1.886-1.014-2.853-1.584-1.822-1.037-3.568-2.202-5.225-3.485-.824-.593-1.618-1.227-2.377-1.9-.88-.874-1.592-2.37-3.01-2.851-.802-.273-1.787-.273-2.692-.476-3.856-.866-8.48-1.781-12.356-3.01C3.277.625 1.724-.175 0 .035z"/><path id="prefix__o" d="M9.194 29.026h.318c2.471-.64 4.787-1.771 6.81-3.328.639-.492 1.22-1.126 1.901-1.582.407-.273.811-.288 1.108-.476.324-.197.596-.468.793-.792 1.1-1.71.032-2.44-.95-3.802-1.11-1.567-2.015-3.27-2.693-5.068-1.615-3.783-2.912-7.157-4.278-11.404-.149-.461-.603-2.913-1.425-2.535-.906.416.075 2.839.158 3.168.369 1.469.572 2.7.791 3.167-.463.045-.808-.78-1.425-.317-.563.425-.15 1.286-.316 1.902-1.568-.388-1.956 1.14-2.694 1.425-.393.151-.87-.131-1.266.158-.326.321-.594.697-.791 1.11-.043.14.09.526 0 .634-.248.289-.694.153-.952.316-.258.224-.473.492-.634.792-.237.436-.07 1.219-.316 1.584-.068.102-.644.292-.951.476-.048.028.043.274 0 .317-.312.076-.63.129-.95.157C.857 14.885.89 13.817.007 13.82c-.106 1.293.9 2.065 1.427 3.01.882 1.645 1.675 3.337 2.375 5.068.247.575.695 1.107.95 1.741.25.618.313 2.016.651 2.287.462.174.933.32 1.412.44.076.01.321.713.476.713.475 0 .205.345.63.52.897.37.782.662 1.267 1.427z"/><path id="prefix__r" d="M49.966 1.35c.274.318 1.16-.138 1.563.005-.095.478-.903.636-1.28.759-.67.233-1.302.563-1.876.978-6.52 4.514-7.877 14.523-6.81 25.661.706 7.615 2.52 15.086 5.385 22.177.797 1.696 1.486 3.442 2.06 5.226.7 2.458 1.485 5.729 2.535 7.92-.62.017-1.536-.43-2.377-.792-6.173-2.777-12.874-4.182-19.642-4.119-6.28 0-12.61.922-19.483.95-.794.004-1.974-.069-3.169-.157-.948-.072-2.816-.432-3.009-.317-.165.097-.826 2.892-.95 3.328-.723 2.523-1.219 3.95-1.9 6.494-.265.99-1.01 3.393-1.01 3.393s.8.621 1.484 1.201c1.23 1.043 2.6 2.534 3.802 3.485 5.632 4.46 11.59 8.566 17.265 12.196 5.966 3.816 12.037 7.367 19.484 9.98 2.557.896 5.053 1.85 7.761 2.059 2.47.19 4.773-.121 6.969 0 3.563.202 7.082.895 10.456 2.06 1.555.521 3.182 1.121 4.752 1.583 2.277.671 4.468 1.3 7.444 1.108 1.546-.174 3.08-.438 4.594-.792 2.906-.542 4.953-.955 6.97-2.375 4.08-2.86 6.505-7.532 6.495-12.514.07-3.461-.87-7.335-1.109-10.772-.086-1.245.087-2.546 0-3.801-.335-4.239-1.464-8.376-3.328-12.197-1.632-3.473-3.54-6.81-5.702-9.98-2.017-2.963-4.199-5.998-6.019-9.504-1.904-3.67-2.73-8.133-3.485-12.197-.734-3.953-2.406-8.086-3.959-11.563-1.94-4.248-4.482-8.195-7.545-11.72-.487-.567-.875-1.215-1.387-1.76-.512-.545-1.136-.986-1.686-1.498-.606-.567-1.06-1.26-1.618-1.868-.592-.622-1.307-1.113-2.099-1.442-.772-.349-1.448-.832-2.199-1.21-.707-.353-1.484-.533-2.216-.827-.578-.28-1.203-.452-1.843-.508-1.194-.021-2.304.812-3.318 1.35z"/><path id="prefix__t" d="M17.004 0H.688L0 1.322S16.364 25.43 19.38 29.938h15.522c-.095-.704.753-1.594.634-2.377-.014-.102-.676-1.096-1.109-1.74-.384-.574-.972-1.151-1.267-1.585C27.558 16.008 22.3 7.919 17.004 0z"/><path id="prefix__v" d="M2.094.2c.019.003-.364-.308-.476-.16C.89 1.02.157 3.983.035 5.9c-.252 3.95.856 5.978 2.85 8.08.757.796 1.437 1.712 2.219 2.218 1.527.988 4.175 1.576 6.336 1.74 1.248.097 3.167.202 4.119-.158.665-.252 1.312-1.2 1.9-2.059.569-.83 1.251-1.644 1.267-2.692.03-1.909-1.653-3.084-2.852-4.436-.5-.563-1.145-1.229-1.74-1.9-.548-.615-.997-1.47-1.742-1.741-.506-.187-1.245-.06-1.9-.16-1.45-.219-3.711-.374-5.069-.95C3.938 3.213 3.177 1.524 2.255.514c-.02-.015-.158-.315-.16-.315z"/><path id="prefix__x" d="M28.24 22.244c-.404-.553-.687-.716-1.587-.475 1.071-3.552 1.849-6.6 1.587-9.821C27.732 5.765 21.552.641 15.41.07 10.355-.4 6.715 1.689 3.846 4.664 1.691 6.899-.328 9.9.045 14.8c.05.686.197 1.472.316 2.218.782 4.343 2.169 8.555 4.119 12.514 1.406 2.906 3.078 6.413 5.385 9.028 1.388 1.572 1.98 2.887 4.753 2.535 2.16-.275 5.43-2.647 7.127-4.118 1.494-1.298 2.473-2.772 3.643-4.277.034.455-.039.804-.316.95.47.18.554-.487.791-.792.343-.44 1.093-.874.634-1.741-.092-.176.051-.261-.158-.317-.024-.007-.318 0-.318 0 .018-.4.777-1.549 1.267-2.537.938-1.886 1.587-2.735 2.22-5.068.232-.863.596-2.72 0-3.01-.903-.438-1.195 1.696-1.268 2.058z"/><path id="prefix__z" d="M0 8.695c1.132.307 2.133.974 2.85 1.901.401.532.615 1.226.793 1.268.484.112.953-1.02 2.217-1.11.324.002.645.056.952.159.274.077.54.183.791.317.394-.065 1.233-1.14 1.901-1.268 1.406-.269 2.58.673 3.8.634.663-.021 1.311-.506 1.742-.476 2.688.192 3.225 3.493 4.277 5.703 1.132 2.174 2.457 4.242 3.96 6.178.645.891 1.214 2.16 2.534 2.376.602-.523-.343-.748-.475-1.267-.123-.481-.275-1.201.159-1.426 2.273-1.174.9 5.155 1.9 5.069.085-.007.799-.595 1.109 0 .807 1.549-2.167 3.738-2.535 4.277-.477.87-.9 1.77-1.267 2.693-.44.867-.811 1.767-1.108 2.693-2.176 7.395.006 12.788 3.481 17.583 3.398 4.683 9.173 8.078 17.425 8.078 3.574 0 6.554-1.075 9.503-1.9 2.174-.61 4.396-1.453 6.81-1.11 2.522.36 5.854 2.235 7.762 3.644 1.86 1.36 3.423 3.084 4.594 5.069.896-7.1-5.924-9.381-7.762-14.098-.297-.762-.23-2.214-.318-3.328-.375-4.762-3.52-7.975-6.81-9.82-3.824-2.145-8.833-2.045-12.67-3.96-.628-.29-1.214-.664-1.742-1.11-.9-.961-1.6-2.093-2.058-3.328-.431-1.444-.697-2.932-.793-4.435-.286-3.17-.205-6.586-.95-9.505-.686-2.688-1.992-5.162-3.244-7.62-.95-1.862-1.895-3.705-3.393-5.198-2.51-2.496-5.855-3.92-9.197-4.905-.985-.312-2.01-.471-3.043-.474-1.86.122-3.68.6-5.359 1.407-1.016.399-1.975.931-2.85 1.584-.736.575-.646.55-1.74.476-1.948-.093-3.892.231-5.704.95C2.982 5.383 1.628 6.66 0 8.696zm42.609 50.688c1.943.245 3.906.298 5.86.16 3.175-.329 6.42-2.427 9.82-1.585-4.3.343-8.269 2.51-12.988 2.693-7.18.283-12.823-2.626-16.473-6.494-.036-.199-.247-.324.158-.317 3.123 2.743 8.147 5.002 13.623 5.543z"/><radialGradient id="prefix__q" cx="18.5%" cy="-37.6%" r="68.495%" fx="18.5%" fy="-37.6%" gradientTransform="scale(-.85371 -1) rotate(-22.088 1.91 1.03)"><stop offset="9.2%" stop-color="#F26C6C"/><stop offset="34%" stop-color="#FBCACF"/><stop offset="42.6%" stop-color="#FCDDE0"/><stop offset="54.2%" stop-color="#FDF0F1"/><stop offset="66.2%" stop-color="#FEFBFB"/><stop offset="79%" stop-color="#FFF"/></radialGradient></defs><g fill="none" fill-rule="evenodd"><mask id="prefix__b" fill="#fff"><use xlink:href="#prefix__a"/></mask><g mask="url(#prefix__b)"><g><path fill="#FFC9B9" d="M125.653 78.035s-12.304 21.763-51.908 30.597C34.14 117.465.049 142.755.185 183.784c.136 41.03 44.944 108.58 153.786 106.79 108.843-1.79 116.854-43.035 116.854-43.035L271.422.607S159.488-8.854 125.653 78.035z" transform="translate(5.882 -10.545)"/><path fill="#FFAA97" fill-rule="nonzero" d="M247.503 153.903c-4.991 0-10.276 9.68-19.516 28.558-7.556 15.436-4.293 33.82-13.096 44.482-11.606-11.715-17.651-20.883-23.603-31.367-6.026-10.614-10.4-15.747-14.384-15.748-4.751 0-8.945 7.297-14.73 21.304-3.846 9.312-22.023 40.842-36.44 66.181-.082-.026-14.802-.056-14.886-.081-1.075-.338-3.042-.274-2.237-1.901.113-.228.531-.404.671-.56 1.49-1.66 3.461-3.824 3.356-7.046-.13-3.965-3.584-6.758-6.263-8.275-2.793-1.515-5.886-2.394-9.059-2.573-.35-.029-2.063-.064-2.125-.11-.184-.141 1.166-2.128 1.342-2.462.874-1.646 1.777-4.433.783-6.598-.11-.241-.325-.373-.447-.559-1.631-2.465-4.902-3.895-8.388-4.697-2.08-.444-4.201-.664-6.328-.654-1.137-.005-2.273.063-3.401.205-.375.048-1.178.223-1.229.223-.142-.112.035-2.382 0-2.797-.381-4.361-3.533-7.1-6.935-8.834-2.267-1.137-4.77-1.727-7.307-1.72-.39 0-.788.014-1.193.042-3.21.184-6.204 1.682-8.277 4.14-1.894 2.253-3.02 5.257-3.355 9.058-1.983-.57-4.03-.889-6.093-.947-1.075-.006-2.147.124-3.19.388-3.005.775-5.69 3.123-6.554 6.14-.425 1.697-.322 3.484.296 5.122.369 1.09 1.331 3.768 2.424 4.357-.34-.17-.718-.252-1.099-.24-.86.071-1.713.212-2.55.423-.727.122-1.464.263-2.202.417 23.878 23.851 62.68 42.834 119.26 42.834 1.398 0 2.8-.012 4.22-.035 108.842-1.792 116.854-43.035 116.854-43.035l.11-45.643c-3.297-8.63-5.615-16.538-11.447-29.854-5.33-12.17-9.068-18.138-12.986-18.138" opacity=".6" transform="translate(5.882 -10.545)"/><path fill="#FFF" d="M244.7 229.618c-5.266.343-10.346.795-15.277 1.066-14.115.855-28.28.347-42.298-1.518-8.368-1.215-16.62-3.13-24.667-5.726-23.357-7.385-42.393-20.438-59.022-36.996-11.076-11.028-20.866-23.627-28.586-38.97-4.214-8.243-7.395-16.975-9.472-25.997-.696-3.128-1.29-6.47-1.792-9.867-11.847 3.703-22.902 8.974-32.32 15.793.986 4.524 2.158 8.893 3.425 12.916 4.02 12.575 9.605 24.594 16.624 35.775 10.474 16.878 23.48 32.047 38.562 44.975 14.756 12.56 30.858 23.095 49.418 30.657 3.71 1.511 7.403 2.98 11.272 4.278 7.945 2.591 16.063 4.616 24.293 6.06 8.813 1.6 17.721 2.62 26.667 3.054 14.024.698 28.585.557 44.617-1.901 5.08-.778 10.156-1.957 15.12-3.146 1.245-.298 2.48-.605 3.707-.922 5.873-6.6 6.852-11.611 6.852-11.611l.051-21.598c-8.961 1.856-18.041 3.084-27.173 3.678z" opacity=".07" transform="translate(5.882 -10.545)"/><path fill="#FFF" d="M271.946 197.416c-5.508 1.298-11.097 2.228-16.73 2.781-10.808 1.04-19.994.567-29.77-.224-12.429-1.006-24.378-3.13-35.035-6.626-21.369-7.012-39.066-18.799-54.387-34.014-6.854-6.76-13.075-14.132-18.585-22.025-3.948-5.67-7.815-11.89-11.299-18.162-3.217-5.79-6.113-11.803-8.891-17.935-4.013 1.821-8.135 3.392-12.342 4.704 1.657 4.121 3.38 7.979 4.993 11.49 5.187 11.27 10.54 20.684 17.193 29.94 4.657 6.44 9.751 12.554 15.246 18.296 2.619 2.737 5.577 5.552 8.467 8.186.404.367.703.713 1.138 1.1.248.218.486.442.806.725.917.815 2.168 1.85 3.203 2.768.436.39 1.049.827 1.59 1.315 2.073 1.87 4.734 3.672 7.09 5.437 13.478 10.101 28.673 18.108 46.215 22.98 11.567 3.213 24.233 5.14 37.862 5.8 12.562.609 29.423-.49 43.207-4.286l.029-12.25z" opacity=".175" transform="translate(5.882 -10.545)"/><g opacity=".54"><path fill="#FFF" fill-rule="nonzero" d="M208.646 7.866c-10.146 3.16-26.56 6.817-42.215 19.635.124.352 1.839 2.596 1.964 2.945 2.595 7.256 4.183 10.547 7.914 16.727 1.853 3.072 3.953 5.99 6.01 8.895 1.81 2.551 3.675 5.156 5.53 7.454.33.407.863.87 1.084 1.202.079.118.161.143.24.24 10.086 12.472 22.672 22.866 37.095 29.93 4.076 1.978 8.26 3.725 12.533 5.232 10.519 3.8 21.611 5.77 32.795 5.823h.57l.078-31.832c-1.132-.19-2.258-.39-3.366-.612-7.49-1.504-14.285-3.523-19.837-6.612-11.392-6.343-19.618-15.49-26.208-26.569-5.244-8.977-9.516-18.488-12.743-28.372-.937-2.803-1.81-5.761-2.704-8.46" opacity=".219" transform="translate(5.882 -10.545)"/></g></g></g><g transform="translate(4.608)"><mask id="prefix__d" fill="#fff"><use xlink:href="#prefix__c"/></mask><g mask="url(#prefix__d)"><g><g transform="translate(46.149 22.636) translate(46.244 153.409)"><path fill="#0D64DE" d="M.417 170.252h25.977c1.3-2.7 2.502-5.496 3.802-8.235 3.832-8.071 6-17.719 6.654-28.988.435-7.51-.286-15.048-.95-22.652-.652-7.446-1.03-15.02-.95-22.492.034-3.336-.09-7.567.157-11.246.52-7.744 1.382-14.064 3.168-20.592.858-3.13 1.838-6.154 2.694-9.186C43.5 37.88 45.1 27.588 46.038 16.29c.33-4.016.313-8.217-.952-10.613-.073-.138-.391-.191-.475-.317-.285-.583-.659-1.117-1.108-1.585-.884-.735-2.521-1.22-4.12-1.9C37.956 1.254 36.47.776 34.949.45c-7.19-1.45-14.773.836-19.326 3.642-1.172.758-2.284 1.605-3.325 2.535-1.229 1.071-2.19 2.105-2.535 3.328-.804 2.84-.241 6.759-.475 10.454-.646 10.225-1.292 20.283-2.376 30.097-.717 6.474-1.453 12.885-2.535 19.166-1.05 6.088-2.425 12.135-3.328 18.216-2.454 16.566.158 34.91.158 52.275 0 6.144.172 12.47-.317 19.64-.113 1.673-.237 3.36-.317 5.07-.08 1.769-.1 3.646-.156 5.38z"/><mask id="prefix__f" fill="#fff"><use xlink:href="#prefix__e"/></mask><g mask="url(#prefix__f)"><g><path fill="#FFF" d="M4.069 171.071h7.13c2.473-6.565 4.515-12.906 4.593-20.275.078-7.472-1.745-15.062-2.535-22.493-.423-3.993-1.039-7.844-.95-11.562.089-3.643.922-7.223 1.587-10.93.311-1.74.666-3.498.95-5.226.304-1.858.486-3.707.792-5.544 1.178-7.039 3.277-13.414 5.544-19.324 1.17-3.236 2.018-6.578 2.534-9.98 1.25-7.246.657-15.917-.318-23.126-1.22-8.564-3.235-16.995-6.018-25.186-.516-1.543-1-3.216-1.584-4.752-.516-1.357-1.448-2.69-2.06-4.119-.674-1.579-1.13-3.262-1.9-4.435-.554-.763-1.254-1.41-2.06-1.901-.27-.18-.633-.066-.791-.158C8.27 1.646 8.446.677 7.716.16c-.405.465-.25.964-.476 1.425-.256.417-.577.79-.95 1.109-.749.83-1.218 1.218-1.586 2.375-.647 2.048-.704 6.872-.475 9.505.266 3.04 1.342 6.115 2.218 9.187.848 2.977 1.632 6.052 2.377 9.027 1.562 6.26 2.951 12.743 3.481 19.326.3 3.708.526 7.454.16 10.93-1.102 10.417-4.836 17.906-6.178 28.037-.452 3.403-.827 6.755-1.267 10.138-.439 3.354-.941 6.765-1.268 10.137-1.33 13.777 4.809 27.42 4.277 40.707-.202 3.36-.68 6.698-1.426 9.98-.631 3.035-1.702 6.223-2.534 9.028z" opacity=".3" transform="translate(-8.704 -4.096)"/><path fill="#000" fill-rule="nonzero" d="M28.487 173.437h1.108c3.945-10.36 6.699-21.98 8.238-34.688.863-6.722 1.128-13.507.791-20.275-.365-6.468-1.39-12.881-2.218-19.324-2.625-20.48-.205-41.33 4.119-57.974.744-2.864 1.416-5.772 2.218-8.555.819-2.851 2.32-5.562 2.217-8.554-4.066 10.222-7 21.858-8.712 34.373-.87 6.387-1.741 13.024-1.741 19.8 0 6.827.109 13.68.95 20.593.805 6.601 1.808 12.957 2.218 19.325.37 6.82.105 13.661-.793 20.433-1.53 12.63-4.424 24.885-8.395 34.846z" opacity=".5" transform="translate(-8.704 -4.096)"/><path fill="#000" fill-rule="nonzero" d="M26.202 172.213H43.15c.988-2.713 1.536-6.365 2.058-9.663.273-1.194.38-2.42.318-3.643-.126-1.017-.867-1.856-.952-2.85-.186-2.238 1.121-5.129 1.741-7.763 1.827-8.147 3.15-16.4 3.96-24.71.602-5.663.829-11.846 1.268-17.899.215-2.98.335-6.017.475-9.029.146-3.153.623-6.303.476-9.186-.003-1.126-.163-2.246-.476-3.328-.39-.785-.993-1.445-1.741-1.901-.24-.182-.922-.347-1.108-.634-.286-.442-.142-.76 0-1.584.021-.658.102-.033.317 0 .65 1.137 2.16 1.788 2.851 2.693.223.29.194.983.634.95-.086-1.603.931-2.975 1.267-4.593.787-3.804-.027-8.09-.634-11.722 4.409 1.825 7.168-1.539 6.652-5.544-.329-2.56-1.853-4.962-3.009-7.444-3.261-7-7.287-15.59-9.98-21.86 2.951-.372 5.922-.238 8.238-1.267.852-.378 1.833-1.686 3.01-2.217 2.439-1.102 5.751-1.287 8.078-2.693 1.659-1.002 3.29-2.93 3.168-5.227-.127-2.362-2.692-4.358-5.543-4.435-1.615-.044-3.514.605-5.228 1.108-4.962 1.457-10.65 3.191-15.365 4.118-.341-1.916-1.694-2.143-2.693-3.009-1.04-.904-1.583-2.341-3.328-2.377-.98-.02-1.73.695-2.218 1.11-.901.768-2.94.233-4.593.158-1.248-.057-2.556-.061-3.801-.158-2.58-.2-5.348-.653-7.287-.159-.595.187-1.138.513-1.583.95-.497.407-.593.76-.952.951-.21.113-1.484-.176-2.058-.158-1.82.055-2.979 1.082-3.328 2.376-.313 1.163.102 1.82.159 2.693.057.874-.22 1.82 0 2.534.434 1.42 2.18 2.461 3.481 3.01 1.85.777 5.735 1.218 9.356 1.83 2.347.365 4.67.864 6.96 1.496.188.154 3.127 10.427 3.168 11.246.051 1.087-.297 2.509-.476 3.802-.176 1.275-.336 2.549-.474 3.8-2.025 18.228-2.432 38.683-1.74 58.61.409 11.878 1.65 22.765.792 33.421-.41 5.028-1.259 10.01-2.535 14.89-.727 2.802-1.75 5.861-2.535 8.237-.577 1.762-1.198 3.669-1.737 5.07z" opacity=".5" transform="translate(-8.704 -4.096)"/></g></g></g><g transform="translate(46.149 22.636) translate(73.617 143.962)"><path fill="#0D64DE" d="M.954 7.162c1.526-.332 1.87 1.329 2.218 2.535 1.542-.8 2.735.35 3.169 1.584.413-.341.219-.621.633-.95.329-.26.73-.098 1.11-.317.525-.303.86-1.028 1.901-.95 1.67.123 2.012 1.923 2.691 3.327 3.227-2.807 7.003-4.911 11.088-6.178 2.253-.696 4.684-1.345 7.129-1.267 2.425.078 4.79.85 7.286.95.193-1.986-1.147-5.427.634-5.86 1.43-.35 2.293 2.008 2.851 3.801 2.72 8.742 3.557 18.254 4.435 28.513.362 4.23.634 8.319.634 12.512 0 4.4-.283 8.718-.475 12.831-.123 4.182.09 8.366.633 12.514.887 7.864 3.033 14.616 4.752 21.543 1.683 6.783 3.666 13.692 6.019 20.434 2.319 6.642 4.591 13.337 6.02 20.275 1.665 7.964 2.25 16.115 1.741 24.235-.26 3.767-1.254 7.549-2.06 11.087-.857 3.766-1.67 7.336-2.534 10.613H37.545c-2.481-17.067-7.253-32.574-11.725-47.68-2.604-8.802-5.57-18.317-7.126-28.035-1.072-6.693-1.44-14.49-1.901-21.7-.359-5.603-.918-10.95-2.06-15.682-1.883-7.8-3.578-15.183-5.544-23.92-.973-4.312-2.223-9.233-3.01-14.572-.272-1.85-.849-4.729-.633-5.227.382-.888 1.056-.501 1.741-.475-.175-.996-.175-2.015 0-3.01.205-.782.364-1.576.476-2.376.027-.744-.08-2.075-.317-2.377-.051-.063-.397.039-.476 0-.2-.094-.289-.344-.791-.474-2.169-.564-1.843.893-1.741 2.692.205 3.645.4 7.39.634 10.772-.248.184-.568-.903-.792-1.426-1.766-4.113-3.042-8.42-3.802-12.831-.3-1.628-1.119-4.562.476-4.91z"/><mask id="prefix__h" fill="#fff"><use xlink:href="#prefix__g"/></mask><g mask="url(#prefix__h)"><g><g opacity=".22"><path fill="#FFF" d="M12.521 71.534c.628-.553.2-1.086.475-1.74.094-.224.563-.604.793-.952.24-.362.42-.838.633-1.107.509-.646 1.238-1.094 1.583-1.741.563-1.059.897-2.583 1.267-3.96 1.083-4.018 1.275-9.144 1.741-13.78.635-6.281 1.182-13.181.158-19.484-.87-5.376-3.574-10.58-5.86-14.89-1.042-1.964-2.533-4.07-3.801-6.494C7.997 4.498 6.987 1.288 4.44.258 1.941-.754.131 1.436.005 3.586c-.07 1.196.37 2.419.792 3.642 2.106 6.1 6.39 11.876 7.92 18.375 1.272 5.405.665 10.692.159 16.157-.25 2.69-.512 5.392-.793 8.079-.286 2.73-.792 5.445-.792 7.92.01 2.784.603 5.537 1.74 8.079 1.029 2.052 3.257 3.137 3.49 5.696zM62.098 145.824h7.604c.71-7.209 1.133-14.179.633-21.385-.483-6.981-1.583-13.729-1.583-21.225.021-10.799.656-21.587 1.901-32.314.398-3.464 1.178-6.924 1.109-10.296-.073-3.536-1.024-8.14-4.436-8.236-3.352-.092-5.46 4.29-6.336 6.652-1.09 2.943-1.46 6.38-1.901 9.821-.46 3.605-.737 7.297-.95 10.93-.665 11.27-1.03 23.615.475 33.894.51 3.482 1.036 6.838 1.584 10.297 1.106 6.986 1.11 14.487 1.9 21.862z" transform="translate(-2.56 11.776) translate(1.665 17.93)"/></g><path fill="#000" fill-rule="nonzero" d="M7.859 22.732c.158.333-.657.59-.16 1.426.43.716 4.093 1.115 5.387 1.267 6.81.8 15.608.628 22.016 0 .99-.098 2.555-.402 3.01-.159.256.136 1.316 7.198 3.035 15.28 2.585 12.16 6.358 27.713 8.688 34.141 2.75 7.59 5.99 13.655 10.138 20.433 1.966 3.214 3.942 6.405 5.86 9.505 1.485 2.398 2.803 4.695 4.436 6.97 1.576 2.196 2.714 3.461 5.228 4.91.709.41 1.96 1.345 2.533.95.367-.253.299-4.164.158-5.07-.245-1.587-1.2-3.46-2.059-5.068-1.24-2.317-2.587-4.235-3.959-6.493-.847-1.394-1.756-2.774-2.694-4.277-.47-.755-.85-1.568-1.267-2.218-1.177-1.832-2.323-3.405-3.481-5.226-2.318-3.63-4.332-7.446-6.025-11.406-.22-.516-.637-1.024-.633-1.108.017-.438.512-.611.792-1.11.57-1.007.748-2.45.475-4.117-.342-2.102-1.21-4.288-1.9-6.496-1.937-6.189-3.65-13.376-5.544-19.642.25-.443.567.855.95.317.851-1.606 1.401-2.406 1.583-4.119.467-4.373-.547-8.635-1.267-12.512-.205-1.098-.679-2.381-.475-2.694.154-.233 1.594-.307 1.901-.474.917-.495 2.01-2.296 0-3.328 1.076-.94 2.094-1.395 2.535-3.168.061-.243.162-.953.159-.95.15-.163 2.85-.804 3.328-.95 6.562-2.012 12.804-3.91 16.79-8.554.794-.925 1.718-2.017 2.059-3.328.156-.601.039-1.28.159-1.902.064-.575.283-1.123.634-1.584-1.57.133-2.43-1.374-3.802-1.74-.907-.244-3.666-.266-5.07-.16-2.645.202-5.324 1.139-7.918 2.06-2.437.864-4.91 1.74-7.445 2.534-5.092 1.593-10.563 2.843-15.84 3.96-9.766 2.069-19.626 4.191-31.047 2.693-1.538-.204-2.99-.63-4.435-.475-3.036.326-5.258 2.83-4.118 6.178 1.11 3.265 4.846 4.768 7.285 5.704z" opacity=".29" transform="translate(-2.56 11.776)"/><path fill="#000" fill-rule="nonzero" d="M43.549 9.07c-.256-.046-.273.148-.476.157.205 11.619 1.21 23.21 3.01 34.69 1.207 7.943 2.503 16.309 4.752 23.603.522 1.693.926 3.824 1.901 5.226.197.283.574.999 1.108.793.08-2.532-1.192-4.794-1.901-7.127-2.16-7.127-3.414-14.729-4.751-23.127-1.234-7.747-2.407-16.123-2.694-25.344-.043-1.413-.23-2.918-.316-4.277-.111-1.74.036-3.287-.633-4.594z" opacity=".5" transform="translate(-2.56 11.776)"/></g></g></g><path fill="#010814" d="M52.446 39.189c-.476-.043-.669-.686-.95-1.108-.817-1.223-1.627-2.936-2.535-4.119-.139 2.25 1.024 3.694 2.06 5.386.541.888.997 1.75 1.584 2.535 1.433 1.877 2.169 4.196 2.08 6.556-.12 2.436.362 4.864 1.404 7.069 1.366 2.695 3.4 4.389 6.494 4.115.81-.053 1.61-.213 2.377-.476.265-.106.711-.727 1.11-.791.962-.154 2.094.558 3.009.317.576-.234 1.033-.691 1.267-1.268.22-.979-.717-.747-.318-1.9-.706.646-1.454-.26-2.693 0 .576-.48 1.502-.61 2.218-.95-.399-1.132-1.595-1.844-2.534-2.852-1.54-1.651-3.087-4.004-4.436-6.019-.778-1.164-1.321-2.468-2.058-3.168-.375-.358-1.469-1.15-2.06-.634-.054.047-.122.458-.158.475-.205.099-.615-.168-.95 0-.43.216-.196.59-.635.634-.557-1.295-.734-3.163-1.583-4.435-.089-.134-.39-.187-.475-.317-1.008-1.562-1.787-3.473-2.852-5.069-.25-.374-.471-.746-.634-.95-.307-.385-2.443-2.829-2.692-1.11-.704-.682-.86-1.447-1.267-2.216-.084-.158-.385-.278-.476-.476-.115-.25-.064-.436-.158-.634-.523-1.217-.895-2.494-1.108-3.801-.158-.973-.268-2.055-.318-2.852-.055-.864.297-2.524 0-3.168-.018-.04-.422.022-.475 0-.273-.109-.197-.575-.475-.792-.3-.234-.519.052-.792-.316-.091-.123-.219-.167-.317-.317-.087-.132-.354-2.718-.88-2.498-.255 8.103 2.907 13.936 5.79 18.337.172.012.34-.051.46-.173.122-.121.185-.289.173-.46 1.383 2.37 2.507 4.993 3.803 7.445z" transform="translate(46.149 22.636)"/><path fill="#01844E" d="M5.063 110.326c.812.147 1.52-.123 2.218-.158.699-.036 2.003-.276 2.376 0 .138.102.145 1.996.318 2.375.779 1.711 2.9 1.824 4.592 2.852-.263.848-.606 1.037-.634 1.74-.027.768.687 1.534.476 2.217-.094.298-.257.57-.476.792-.347.232-.554-.102-.95.158-2.493 1.628-.232 4.99 1.109 7.604.536 1.042.892 2.022 1.426 2.851 1.145 1.678 2.416 3.267 3.801 4.753 2.053 2.316 3.908 3.993 6.178 6.651 2.689 3.15 4.583 6.686 6.97 10.138 1.116 1.616 2.304 3.409 3.8 4.752 2.183 1.958 5.139 3.862 9.505 3.328 2.159-.264 4.927-2.077 6.81-3.328.204-.135.511-.543.792-.793 2.44-2.078 4.526-4.538 6.178-7.285.578-.895 1.057-1.851 1.426-2.851.625-2.103.215-2.813-.475-3.01-1.382-.394-1.401 1.069-2.06 1.74-.548-.696-.086-1.574 0-2.377.461-4.312.563-9.725-.159-14.097-.402-2.44-.854-4.202-2.534-5.228-.282-.172.506-2.67.446-2.792-.335-.686-1.518-.154-1.555-1.01-.187-4.449-.512-10.81-.792-15.84-.108-1.945-.041-4.005-.475-5.068-.227-.557-1.081-1.037-1.426-1.741-.543-1.113-.343-2.536-.95-3.328-.574-.612-1.378-.957-2.217-.95 1.767-12.806 5.361-24.7 12.197-33.265 1.072-1.343 3.756-3.211 2.06-4.593-4.82 4.343-8.701 9.625-11.405 15.523-2.78 5.91-5.34 12.475-6.654 19.958-.369 2.104-.887 4.208-1.11 6.336-.592 5.704.015 12.496.476 18.691.057.76.272 2.38.158 2.535-.234.323-2.4-1.606-2.85-1.9-.509-.334-2.253-1.214-3.169-1.741-2.18-1.237-4.458-2.297-6.81-3.169-6.45-2.627-12.492-4.68-21.225-4.118-.772.051-1.717.051-2.693.157-.799.05-1.593.156-2.376.318-.29.338.105 2.69-.317 3.173z" transform="translate(46.149 22.636)"/><g transform="translate(46.149 22.636) translate(5.063 54.057)"><mask id="prefix__j" fill="#fff"><use xlink:href="#prefix__i"/></mask><g mask="url(#prefix__j)"><g><path fill="#006B3F" d="M36.59 0h-.79c-1.024.996.116 1.704.79 2.218 4.25 3.228 7.504 7.594 10.298 12.197.186.307.3.678.475.95.574.896 1.24 1.775 1.74 2.693 1.423 2.671 2.692 5.422 3.802 8.237.557 1.365 1.08 2.82 1.74 4.277-.42-5.922-2.287-11.512-4.591-15.364-.525-.878-1.055-1.726-1.588-2.534C45.436 8.044 41.384 2.64 36.591 0zM22.494 12.04c-2.201-.294-4.051 2.396-5.862 3.484-1.45.87-4.467 2.132-7.126 1.425-2.728-.724-3.795-4.274-6.81-3.96C1.45 13.12.05 14.585.003 16c-.087 2.537 3.962 5.623 5.86 6.494 4.963 2.28 10.419.17 13.94-2.535 1.822-1.4 5.222-4.127 4.435-6.81-.195-.66-.67-.966-1.744-1.109zM45.62 45.145c-.096-.072-.204-.126-.318-.16-4.39-.346-8.86 1.989-10.77 3.803-.797.755-3.138 3.43-3.329 4.752-.49 3.443 2.446 4.253 5.07 3.482.728-.214 1.586-.635 2.375-.95.822-.329 1.703-.952 2.217-.95.743 0 1.358.697 2.059.791 1.056.142 1.93-.252 3.01-.475 2.461-.508 4.866-.727 7.128-1.584.865-.328 1.42-.708 1.9-.316.448.364.814 1.382 1.741 1.108 2.274-.669.06-4.002-.633-5.069-.942-1.451-1.2-1.508-3.168-2.376-1.969-.868-4.781-1.873-7.282-2.056z" transform="translate(-5.071 52.226)"/></g></g></g><g transform="translate(46.149 22.636) translate(47.764 48.827)"><path fill="#04A66D" d="M.05 43.41c.549-9.639 4.28-17.459 7.445-24.71 2.554-5.854 6.564-12.949 11.088-17.107C19.421.822 20.367-.1 21.116.009c2.266.329-.607 3.301-1.11 3.8-1.105 1.106-1.88 1.741-2.532 2.852.665-.41 1.811.234 2.217.633.311.308.161.558.475.634.335.083 1.195-.269 1.9-.317.844-.06 1.691-.06 2.535 0 .595.06 1.474.445 1.901.317.27-.08.21-.527.475-.791.249-.183.514-.342.792-.476 2.54-.705 3.575 1.653 4.751 2.218 1.039.497 3.077.643 4.911.95.903.154 1.784.179 2.693.317.927.14 1.978.597 2.535.476.576-.126 1.252-1.16 2.06-1.584.946-.5 2.53-1.052 3.642-.95.227.02 1.415.695 1.583.633.327-.12.173-.979.634-.95.127.55-.235.609-.157 1.109.796-.054 1.595 0 2.376.158-.922-.553-1.391-1.911-.16-1.9.666.004.63.457 1.268.316 1.465-.324 1.239 1.066 1.901 1.426-.134-1.024.726-1.57 1.267-1.268.424.239.418 1.414.317 2.377-.095.895-.53 1.547-.476 1.74 1.308.738 3.5-.46 4.752.16.37.55.688 1.133.95 1.741.816 1.751 1.545 3.686 2.219 5.226.457 1.046-1.502 1.057-2.693 1.268-1.145.204-2.569.435-3.168.475-1.19.08-4.972-.355-5.386.159.012-.014.12.73.158.95.563 3.187-.764 6.873-.95 11.088-.092 2.117-.092 4.29 0 6.336.55 12.109 3.32 24.917 6.653 34.848.575 1.71 1.348 3.44 1.268 4.752-.104 1.995-1.654 3.613-3.643 3.801-.9.089-1.931-.39-2.376-.317-.477.08-.656.436-.952.634-1.363.922-3.543.672-4.436-.158-.11-.105-.358-.051-.474-.159-.404-.375-.57-1.51-1.109-1.74-.29-.126-1.126.2-1.584.157-.76-.069-1.167-.543-1.74-.474.419 1.1 1.119 2.684 1.9 4.434.662 1.48 1.653 3.243 1.741 4.595.176 2.638-1.592 3.524-3.328 4.117 1.97 1.28 4.25 2.236 6.493 3.485.543.303 1.61 1.286 2.06 1.267.154-.005.457-.415.793-.633 1-.664 2.138-1.097 3.328-1.267 1.97-.241 3.965.147 5.7 1.108 1.09.69 1.977 2.268 2.854 2.851.8.498 1.543 1.082 2.217 1.741.19.196.386.655.792.634.24-1.237.29-2.667 1.109-3.328-.087 5.716.606 11.418 2.06 16.947.138.52 1.154 4.026 1.108 4.118-.068.139-2.342.788-3.802 1.11-13.306 2.929-28.36 4.808-43.56 4.118-6.771-.33-13.476-1.5-19.958-3.485.933-4.096 1.881-8.728 2.534-13.623.957-7.171 2.339-14.345 1.901-22.175-.41-7.326-2.966-13.543-4.91-19.96-.958-3.158-1.917-6.243-3.01-9.346C.969 53.058-.265 48.927.049 43.41z"/><mask id="prefix__l" fill="#fff"><use xlink:href="#prefix__k"/></mask><g mask="url(#prefix__l)"><g><path fill="#01844E" d="M61.332 12.011c-.688.148-.665-.496-1.267-.317-.334.099-1.244 1.532-1.74 1.74-.418.085-.842.138-1.268.16-3.49.815-5.683 7.21-7.285 10.454-2.847 5.55-5.231 11.324-7.13 17.266-.641 2.037-1.258 4.198-1.74 6.335-1.008 4.448-1.883 9.29-1.901 14.257.052 4.666.745 9.303 2.06 13.78 1.135 4.125 2.457 8.168 3.8 12.04 2.751 7.91 6.304 15.323 8.712 22.966 1.266 4.02 2.58 8.006 3.644 12.197 1.126 4.47 1.868 9.027 2.217 13.624.614 7.59.614 15.218 0 22.81-.205 2.552-.645 5.677-.158 7.919.437 2.103 1.483 4.03 3.009 5.543 1.674 1.698 4.45 3.397 8.08 2.694 1.898-.433 3.647-1.363 5.068-2.694.186-.181.233-.512.476-.791.545-.579 1.023-1.216 1.425-1.901 1.525-2.826 1.74-7.193 1.901-11.406.605 1.927.433 3.718.634 5.386.395 3.277 1.73 5.87 4.118 7.604 2.118 1.489 4.724 2.112 7.286 1.74 1.61-.225 3.687-1.516 4.753-2.533.054-.051.263.051.317 0 .053-.051-.052-.266 0-.318.516-.432.993-.91 1.425-1.425 2.335-3.491 1.776-8.988 1.108-13.939-.67-5.494-1.89-10.907-3.642-16.157-.189-.563-1.111-2.801-.952-3.01.11-.14 2.69-.103 3.328-.317.445-.163.87-.375 1.267-.634 2.21-1.368 3.328-3.942 3.01-8.078-.354-4.597-2.696-8.141-5.543-12.197-7.182-10.23-14.37-21.483-20.118-33.106-2.03-4.045-3.777-8.226-5.226-12.513-.758-2.287-1.393-4.614-1.9-6.97-.493-2.447-.627-5.089-.952-7.92-.661-5.521-.715-11.098-.158-16.631.278-2.611.657-5.281 1.109-7.763.48-2.647 1.251-5.181 1.425-7.444.121-1.576-.285-3.698-.158-4.594.167-.443.38-.867.634-1.267.491-1.149 1.255-2.838.949-4.752-.374-2.331-2.783-4.22-5.86-3.643-1.314.344-2.55.935-3.643 1.74-.4.262-1.08.59-1.11.634-.499.74.297.374-.004 1.431z" transform="translate(-16.384 -14.848)"/><g opacity=".5" style="mix-blend-mode:soft-light"><path fill="#006B3F" d="M30.932.022C28.01-.244 25.541 1.954 25.39 5.09c-.084 1.701.686 3.722 1.108 4.911 1.39 3.916 4.13 8.649 6.652 11.404.209.228.259.517.634.792.75.5 1.442 1.083 2.06 1.74.287.296.552.614.791.95.23.424.16.843.476 1.268.768 1.034 2.323 2.005 3.484 2.851 4.206 3 9.247 4.607 14.414 4.594 6.737.012 11.072-2.126 15.048-5.386 1.63-1.336 3.627-3.115 2.376-5.544-.732-1.088-1.876-1.832-3.168-2.06-2.631-.38-4.842.914-6.178 1.267-2.17.556-4.415.77-6.652.634-5.957-.426-9.83-4.232-12.83-7.92-1.54-1.998-2.918-4.117-4.12-6.336-1.125-2.155-2.566-4.13-4.275-5.86-.139-.141-.17-.343-.318-.477-1.06-1.07-2.46-1.74-3.959-1.896z" transform="translate(-16.384 -14.848) translate(.15 .014)"/><path fill="#06AB73" d="M62.612 66.867c1.859-.832 3.512.208 4.75 1.11.085.06.615.75.635.157-2.399-6.092-1.424-18.315-1.424-28.036 0-2.518.53-7.598-1.901-6.97-1.081.28-1.274 2.918-1.426 4.435-.223 2.234-.366 3.896-.475 5.227-.632 7.617-1.74 16.482-.159 24.077zM90.807 130.544c1.501-.98 2.092-1.497 1.901-3.328-.234-2.232-2.586-2.774-5.228-3.485-4.82-1.298-8.798-2.529-13.621-3.485-2.463-.488-5.292-1.072-7.762-.791-.54.037-1.072.143-1.584.317-.54.221-.676.627-1.108.634-.33.003-1.213-.564-2.06-.95-4.417-2.027-9.464-4.673-13.62-6.81-4.298-2.211-8.468-4.848-12.988-7.446-1.8-1.035-1.712-.875-2.06-3.328-.502-3.337-1.297-6.623-2.375-9.821-1.134-3.523-2.51-6.963-4.12-10.295-3.934-8.407-9.747-16.053-11.088-27.722-.512-4.486-.504-7.6-3.642-8.87-2.69-1.088-4.643 1.485-5.385 3.169-.677 1.67-1.104 3.431-1.267 5.226-.808 11.1 3.088 19.954 6.335 27.085 1.741 3.822 3.613 7.606 5.07 11.721 1.494 4.22 2.754 8.625 2.534 14.098-.193 4.844-1.69 9.401-3.168 13.622-2.096 5.915-4.804 11.595-8.079 16.947-.65 1.094-1.156 2.18-1.9 3.328-2.304 3.547-5.159 8.495-5.544 14.097-.154 2.262.093 3.058.951 4.436.265.425.742 1.317 1.267 1.583.716.23 1.466.336 2.217.317.752.007 1.5-.1 2.22-.317 1.89-.573 4.138-2.298 5.7-3.642 4.93-4.243 7.997-10.313 11.247-16.316 4.004-7.395 7.349-15.463 8.87-25.82.109-.739.38-1.958.318-1.9.363-.339 1.056.64 1.424.95 6.369 5.365 14.818 11.546 23.128 15.207 5.154 2.188 10.594 3.628 16.156 4.276 3.387.416 5.718.672 8.397 1.901 1.187.545 2.355.985 3.485 1.584 1.068.657 2.18 1.238 3.328 1.741 1.626.587 3.219.273 3.96 1.267.369.493-.277.575.634.792 1.356.323 2.89-1.45 3.01-2.693.191-1.978-1.093-2.834-2.376-4.118-1.156-1.141-2.107-2.323-3.177-3.161z" transform="translate(-16.384 -14.848) translate(.15 .014)"/><path fill="#06AB73" d="M53.266 85.24c-1.658-.886-4.206-1.86-6.177-2.85-.157-.026-.317-.026-.474 0-1.453.399-5.438 1.487-5.07 3.01.419 1.735 6.174.098 7.603 0 1.55-.105 2.699.006 4.118-.16zM77.976 89.202c-.512-.124-1.213.29-1.9.475-1.081.291-1.305-.168-1.585.475-.557 1.288-.515.735.951 1.426 1.564.738 4.591 3.26 6.654 1.74 1.271-.934.849-3.305-.476-4.276-.442-.323-1.313-.496-1.901-.792-.692-.347-1.37-1.05-1.9-.792-.177.58-.12 1.205.157 1.744zM72.908 92.37c-1.364.776-3.18 1.67-5.386 1.109.355 1.2.822 2.426 1.9 2.693 2.2.54 3.63-1.394 3.486-3.803z" transform="translate(-16.384 -14.848) translate(.15 .014)"/></g></g></g></g><path fill="#64558B" d="M63.713 49.884c-.43-.067-1.567 2.289-1.108 2.692.026.373.079.744.157 1.11-.087-.18.857.7.95.791.246.38.578.695.968.922.695.292 1.633.211 1.726.028.209-.418-.09-1.592-.476-2.059-.245-.298-.844-.328-.95-.475-.237-.329-.051-.695-.16-.95-.083-.2-.388-.183-.474-.318-.27-.416-.301-1.198-.633-1.741z" transform="translate(46.149 22.636)"/><g transform="translate(46.149 22.636) translate(20.849 103.493)"><path fill="#FFD7BC" d="M0 .034c.294 1.577 1.772 2.51 3.01 3.328 2.232 1.462 4.696 2.534 7.287 3.169-.131.423-.921.606-1.426 1.108-.641.8-1.223 1.647-1.74 2.534-1.162 1.708-2.077 2.984-3.328 5.069-.384.64-1.508 2.29-.95 2.85.541.545 2.619-1.03 3.169-1.425 1.209-.87 1.653-1.493 2.535-2.218.134 1.127 1.476 1.3 2.057 2.218.263.413.15 1.148.476 1.584.463.454.998.829 1.584 1.108.552.32 1.246.714 1.74.95 1.191.595 2.48.971 3.803 1.11.021-.816-.304-1.277-.792-2.06-.227-.364-1.193-1.349-1.11-1.584-.084.24.963-.475.952-.475.58.004 1.097.78 1.583 1.268.405.405.797 1.019 1.268 1.425 1.433 1.24 5.075 3.587 8.078 4.119 1.247.22 3.584.6 4.595 0 .153-.093.072-.303.157-.475.077-.154.256-.209.318-.317.117-.213.183-.823.316-.95.276-.266.758-.141 1.11-.317.902-.492 1.307-1.572.949-2.535.665-.139 1.785.405 2.06-.476.279-.897-.804-1.533-1.901-1.74.495-.657 1.42-.564 1.267-1.585-.18-1.21-2.337-.89-3.643-1.267-.96-.277-1.886-1.014-2.853-1.584-1.822-1.037-3.568-2.202-5.225-3.485-.824-.593-1.618-1.227-2.377-1.9-.88-.874-1.592-2.37-3.01-2.851-.802-.273-1.787-.273-2.692-.476-3.856-.866-8.48-1.781-12.356-3.01C3.277.625 1.724-.175 0 .035z"/><mask id="prefix__n" fill="#fff"><use xlink:href="#prefix__m"/></mask><g mask="url(#prefix__n)" opacity=".63"><g><path fill="#F8816D" d="M5.699 2.693c.415.84 1.683.06 1.425 1.11 1.443-.437 4.352-.315 6.335 0-.22-.64-1.25-.829-1.9-.952-1.708-.324-3.922-.077-5.86-.158zM4.747 13.465c1.038-.581 1.326-1.828 1.9-2.851C7.655 8.826 9.44 7.142 9.342 4.91c-1.326.055-1.792 1.506-2.534 2.535-1.349 1.99-2.946 3.8-4.753 5.386-.448.395-.871.819-1.267 1.267-.102.117-1.178.879-.634 1.425.712.713 1.946-.64 2.377-.95.891-.645 1.41-.934 1.9-1.585.585-.374-.067.197.317.476zM11.242 8.553c-1.28-.07-1.862 1.454-2.535 2.694-.581 1.072-1.576 2.468-.791 3.328.614-.256.607-.995.791-1.425.14-.328.185-.545.316-.793.602-1.135 1.774-2.306 2.219-3.804zM15.518 15.048c.585.072.817.784 1.267 1.267.978 1.05 2.099 1.956 3.328 2.693-1.216 1.618 1.573 2.547 3.328 2.693.55.045 1.202-.178 1.901-.158.638.017 2.087.352 2.06.317.227.295-.445 1.53-.159 2.376.236.388.562.714.95.95 1.613.463 2.198-1.137 2.693-2.218.113-.243.461-1.097.477-1.108.344-.24 1.311.024 1.9-.16.605-.188 1.548-.622 1.584-1.424.043-.96-1.067-1.6-2.375-1.584.602-3.189 2.213-5.288 3.168-8.397.675-2.198 1.36-4.305 1.583-6.654.194-2.034-.545-3.65-2.217-3.643-1.966.01-2.142 1.964-2.693 3.802-.23.763-.556 1.516-.793 2.218-.512 1.52-.792 3.17-1.267 4.91-.375 1.377-.86 3.243-1.74 4.436-.45.604-2.42 2.63-3.329 2.692-.625.043-1.868-.637-2.692-1.11-1.514-.922-2.899-2.041-4.119-3.327-1.134-1.135-1.888-2.322-4.278-1.584-.031.01-.215.12-.316.159-.547.09-1.08.25-1.587.474-.307.332.03.81-.158 1.268-.493.706-1.224 1.212-2.059 1.426-.781.04-.563-.283-1.426-.476.06.522.103.725.475.95.399.24 1.052.004 1.267.16-.193-.14.804 1.224.793 1.108.032.304-.681.553-.475 1.267.247.861 1.61 1.66 3.01 1.267.335-.094.559-.38.95-.475.598-.148 1.3.05 1.584-.159 1.24-.906.407-2.871-.635-3.956z" transform="translate(2.183 3.394)"/></g></g></g><g transform="translate(46.149 22.636) translate(60.083 30.003)"><path fill="#FABF9B" d="M9.194 29.026h.318c2.471-.64 4.787-1.771 6.81-3.328.639-.492 1.22-1.126 1.901-1.582.407-.273.811-.288 1.108-.476.324-.197.596-.468.793-.792 1.1-1.71.032-2.44-.95-3.802-1.11-1.567-2.015-3.27-2.693-5.068-1.615-3.783-2.912-7.157-4.278-11.404-.149-.461-.603-2.913-1.425-2.535-.906.416.075 2.839.158 3.168.369 1.469.572 2.7.791 3.167-.463.045-.808-.78-1.425-.317-.563.425-.15 1.286-.316 1.902-1.568-.388-1.956 1.14-2.694 1.425-.393.151-.87-.131-1.266.158-.326.321-.594.697-.791 1.11-.043.14.09.526 0 .634-.248.289-.694.153-.952.316-.258.224-.473.492-.634.792-.237.436-.07 1.219-.316 1.584-.068.102-.644.292-.951.476-.048.028.043.274 0 .317-.312.076-.63.129-.95.157C.857 14.885.89 13.817.007 13.82c-.106 1.293.9 2.065 1.427 3.01.882 1.645 1.675 3.337 2.375 5.068.247.575.695 1.107.95 1.741.25.618.313 2.016.651 2.287.462.174.933.32 1.412.44.076.01.321.713.476.713.475 0 .205.345.63.52.897.37.782.662 1.267 1.427z"/><mask id="prefix__p" fill="#fff"><use xlink:href="#prefix__o"/></mask><g mask="url(#prefix__p)"><g><path fill="url(#prefix__q)" d="M1.601 35.896c4.894 12.077 21.09 16.914 36.17 10.803 15.08-6.11 23.333-20.857 18.44-32.934C51.316 1.687 35.122-3.151 20.04 2.96 4.96 9.074-3.295 23.818 1.601 35.896z" style="mix-blend-mode:multiply" transform="translate(-23.04 -12.288)"/><path fill="#F06655" d="M41.288 37.11c-.307-1.148-1.58-1.639-2.533-2.218-2.348-1.435-4.482-3.194-6.337-5.227-.37-.396-1.104-.95-1.11-1.108-.002-.074 1.869-2.355 2.219-2.851 2.602-3.523 3.942-7.82 3.802-12.197-.02-.585-.307-1.28-.318-1.9-.021-1.1.64-2.741 0-3.803-.32-.532-1.213-.688-2.058-.95-.607-.187-1.852-.79-2.535-.474-.89.41-.819 2.616-.952 3.642-.128 1.437-.34 2.864-.633 4.277-.696 2.362-2.747 4.243-4.277 6.02-1.024 1.19-2.33 2.784-3.96 3.8-.515.322-1.382.222-1.584.951-.267.98.696 1.003.634 1.425-.036.25-2.457 1.814-2.851 2.06-.82.512-2.36.957-2.693 2.218-.084.32-.31 1.669.16 2.533.363.671 1.874 1.155 3.168.95.331-.05.697-.39 1.108-.474 1.547-.315 2.936-.227 4.118-.95.281-.172.18.004.318-.317.35-.815 1.541-.919 2.878-1.575.66-.37 1.287-.797 1.873-1.277.223-.162.725-.503.725-.503s.54.727 1.178 1.454c2.151 2.461 5.326 5.851 9.66 6.494z" transform="translate(-23.04 -12.288)"/></g></g></g><path fill="#04A66D" d="M99.362 57.95c.274.318 1.16-.138 1.563.005-.095.478-.903.636-1.28.759-.67.233-1.302.563-1.876.979-6.52 4.513-7.877 14.522-6.81 25.66.707 7.615 2.52 15.086 5.385 22.177.798 1.696 1.486 3.442 2.06 5.226.7 2.458 1.485 5.729 2.535 7.92-.62.017-1.536-.43-2.377-.792-6.172-2.777-12.874-4.182-19.642-4.119-6.28 0-12.61.922-19.482.95-.795.004-1.975-.069-3.17-.157-.948-.072-2.816-.432-3.009-.317-.165.097-.826 2.892-.95 3.328-.723 2.523-1.219 3.95-1.9 6.494-.265.99-1.01 3.393-1.01 3.393s.8.621 1.485 1.201c1.228 1.043 2.6 2.534 3.801 3.485 5.632 4.46 11.59 8.566 17.265 12.196 5.966 3.816 12.037 7.367 19.484 9.98 2.557.896 5.053 1.85 7.761 2.059 2.47.19 4.773-.121 6.97 0 3.563.202 7.081.895 10.455 2.06 1.555.521 3.182 1.121 4.752 1.583 2.277.671 4.468 1.3 7.445 1.108 1.545-.174 3.079-.438 4.593-.792 2.906-.541 4.953-.955 6.97-2.375 4.08-2.86 6.505-7.532 6.495-12.514.07-3.461-.87-7.335-1.109-10.772-.086-1.245.087-2.546 0-3.801-.335-4.238-1.464-8.376-3.328-12.197-1.632-3.473-3.539-6.81-5.702-9.98-2.017-2.963-4.199-5.998-6.018-9.504-1.905-3.67-2.73-8.133-3.485-12.197-.735-3.953-2.407-8.086-3.96-11.563-1.94-4.248-4.481-8.195-7.545-11.72-.487-.567-.875-1.215-1.387-1.76-.512-.545-1.136-.986-1.686-1.498-.606-.566-1.06-1.26-1.618-1.868-.591-.621-1.306-1.113-2.099-1.442-.772-.348-1.448-.832-2.198-1.21-.708-.353-1.485-.533-2.217-.827-.578-.28-1.203-.452-1.843-.508-1.194-.02-2.303.812-3.318 1.35z" transform="translate(46.149 22.636)"/><g transform="translate(46.149 22.636) translate(49.396 56.6)"><mask id="prefix__s" fill="#fff"><use xlink:href="#prefix__r"/></mask><g mask="url(#prefix__s)"><g><g opacity=".11"><path fill="#FFF" d="M19.85 22.969c-1.079 1.168-2.515 2.044-3.802 3.168-2.524 2.13-4.76 4.58-6.652 7.287-.781 1.018-1.42 2.138-1.9 3.328-.458 1.217-.543 2.974-.635 4.91 3.154-1.123 5.347-2.777 7.604-4.91 1.17-1.106 2.29-2.449 3.482-3.643 1.521-1.52 3.665-3.465 5.702-5.227.796-.69 1.434-1.536 1.901-1.584.396-.04 1.2.623 2.06.95 5.088 1.934 10.727 2.728 17.899 2.217 3.813-.271 6.779-.794 10.454-1.266 2.048-.263 5.565-.154 8.396-.159 1.182 0 2.373-.062 2.535-.317.226-.353-1.59-4.147-1.74-4.276-.286-.242-1.122-.323-1.741-.477-.586-.07-1.168-.176-1.741-.316-.647-.353-.077-.314-.316-.792-.087-.173-.404-.592-.634-.633-.987-.175-.921.948-1.426 1.108-.832.263-1.915-.158-2.376-.158-1.838 0-3.134.09-4.752.158-5.888.249-11.198.384-15.84-.475-8.004-1.48-13.536-5.944-18.85-10.296-.633-.518-1.086-.8-1.741-1.426-1.452-1.383-3.461-2.804-5.069-4.277-.675-.618-1.42-1.36-2.06-2.058-.97-1.06-1.68-2.134-3.009-3.01C3.751-.427.582-.446.056 2.22-.16 3.31.353 5.222.848 6.18c1.032 1.997 2.787 3.262 4.277 4.752 4.483 4.507 9.417 8.54 14.725 12.037zM89.704 75.083c.232 2.198.656 4.371 1.268 6.495.65 2.34 1.835 6.482 5.862 5.702 1.028-.342 1.918-1.01 2.534-1.901 1.308-2.216.805-6.574 1.74-9.346.08-.233.874-2.413 1.11-2.535.735.099 1.476.152 2.218.159 1.82-.339 3.985-3.24 5.226-4.436.824-.792 1.556-1.609 2.376-2.375.83-.773 1.99-1.332 2.218-2.535 1.429 1.237 4.397 1.639 4.118-1.426-.075-.4-.237-.778-.475-1.108-.205-.39-.626-1.075-.634-.95.018-.346 1.915-2.052 2.218-2.535 1.212-2.019 1.919-4.3 2.059-6.652 0-1.855-1.09-5.7-3.643-3.96-.825.563-1.084 3.04-1.427 4.276-.277 1.004-.915 3.396-2.057 3.644-.685.148-3.2-1.043-4.12-1.267-3.552-.865-7.526-.7-10.454.634-.78.346-1.523.77-2.218 1.267-2.22 1.596-4.031 3.91-5.543 6.335-1.062 1.702-2.225 3.482-3.644 4.752-.774.677-1.625 1.262-2.535 1.741-.552.248-1.14.408-1.74.475-3.954.41-6.884-2.378-11.722-1.584-.938.153-2.347.932-2.534 1.584-.734 2.55 3.386 4.933 4.91 5.544 1.34.484 2.717.855 4.119 1.11 1.452.365 2.938.577 4.435.633 2.656-.014 4.314-.815 6.335-1.741z" transform="translate(-29.184 -15.36) translate(12.945 51.488)"/></g><g opacity=".902"><path fill="#008751" d="M80.308.202c-.15.037-.685-.57-.474.159.173.44.385.864.633 1.267.35.72.579 1.521.79 1.9.564 1 1.654 1.86 2.535 2.851.139.157.184.334.318.476 2.262 2.42 4.951 5.28 6.81 8.396 3.971 6.648 6.005 19.5 10.454 26.77 1.846 2.94 3.968 5.698 6.336 8.237.919.994 1.667 2.226 3.328 3.328.822.546 1.572 1.14 2.852.792 2.063-.56 1.316-2.878.473-4.277-.677-1.098-1.417-2.155-2.217-3.167-1.698-2.338-2.995-3.964-4.435-6.336-5.734-9.453-6.29-21.568-12.355-30.413-1.423-2.124-3.069-4.088-4.91-5.86C88.607 2.61 86.076.807 83.79.364c-1.127-.22-2.326-.017-3.168-.16-.104-.017-.21-.018-.314-.003z" transform="translate(-29.184 -15.36) translate(.48 .507)"/><path fill="#1FAF7D" d="M113.89 58.652c-.792-.066-1.054-.057-1.268.95-.321 1.51.981 2.87 1.587 4.119.872 1.9 1.613 3.858 2.216 5.86 1.443 4.315 2.4 8.778 2.852 13.305.25 2.658.41 5 .792 7.287.338 2.139.978 4.218 1.9 6.178 1.792 3.81 3.485 7.442 3.485 12.514 0 2.468-.84 5.155-.634 7.286.142 1.451 1.178 3.563 1.426 3.643.249.079 1.946-.886 2.376-1.268 2.088-1.859 3.11-6.246 2.851-10.93-.28-4.509-1.58-8.896-3.801-12.83-1.043-1.842-1.841-3.813-2.376-5.86-.529-2.13-.708-4.497-1.11-7.128-1.128-7.424-2.758-13.187-6.019-18.691-1.01-1.703-2.552-4.293-4.277-4.435z" transform="translate(-29.184 -15.36) translate(.48 .507)"/><path fill="#01844E" d="M0 85.263c.845.645 1.401 1.536 2.216 2.217 3.892 3.243 10.427 4.147 16.158 5.862 4.487 1.342 8.921 2.918 12.672 4.91 1.86 1.058 3.658 2.221 5.385 3.485 3.464 2.395 6.912 4.926 10.613 7.128 5.483 3.26 11.97 5.504 19.958 6.494 5.399.67 10.101 2.632 15.795 3.367 4.727.61 9.83 0 13.352 2.652 1.648 1.345 3.395 2.562 5.227 3.643.829.45 5.674 2.69 6.02-.158.223-1.843-2.865-2.791-3.802-3.485-.774-.647-1.515-1.334-2.218-2.058-2.04-1.877-4.332-3.908-6.97-5.386-3.494-1.96-7.662-3.156-12.988-3.643-5.11-.469-10.295-.784-15.048-1.587-4.332-.745-8.543-2.077-12.514-3.96-7.723-3.598-13.309-9.114-20.433-12.83-1.845-1.012-3.75-1.911-5.703-2.693-1.936-.737-4.006-1.377-6.178-2.06-4.187-1.318-8.766-2.986-13.147-3.327-2.137-.166-4.389-.073-6.018.476-.813.275-1.41 1.16-2.377.953z" transform="translate(-29.184 -15.36) translate(.48 .507)"/></g><g opacity=".502"><path fill="#01844E" fill-rule="nonzero" d="M75.423 74.47c.218-.001.435.033.642.102 3.2 1.1 6.277 3.042 9.187 4.91 3 1.882 5.766 4.115 8.237 6.653 2.768 2.848 5.36 5.863 7.76 9.028 1.565 2.141 2.964 4.301 4.277 6.495-1.343-1.02-2.565-2.189-3.643-3.485-3.537-3.878-6.665-7.518-10.613-11.087-4.433-4.01-9.734-7.114-15.049-10.296-.413-.25-2.15-.922-1.74-1.901.21-.308.575-.47.943-.42" opacity=".902" transform="translate(-29.184 -15.36)"/></g></g></g></g><path fill="#FEF6E6" d="M71.994 50.942c-.441-.3.404-.64.158-1.267-.732.07-1.215.863-1.743 1.425-.492.513-1.021.989-1.583 1.425-.505.502-1.034.978-1.587 1.426-.61.408-1.245.778-1.9 1.108-.49 0-2.238-1.452-2.377-2.059-.16-.702.468-2.212.468-2.212s-.25-.636-.505-1.114c-.58 1.229-.922 4.7-.437 7.285.263 1.238.746 2.418 1.425 3.485.262.448 1.69 2.745 2.217 2.218.332-.332-.123-.546-.315-1.426-.298-1.566-.352-3.169-.16-4.751 1.096 1.267 2.052 2.647 2.854 4.117.28.486.596 1.353.791 1.425.795.294 3.148-1.13 4.119-1.74.602-.392 1.183-.815 1.74-1.268.603-.481 1.28-.97 1.584-1.267.345-.338 1.362-1.434 1.426-1.74.097-.478-.65-.99-.16-1.109-.405-.281-.279.544-.633.634-.239.06-.529-.344-1.267-.634-.41-.16-1.204-.147-1.425-.317-.267-.204-.08-.563-.317-.95-.388-.408-.812-.78-1.267-1.11-.152-.114-.31-.22-.475-.315-.136-.288.334-.322.316-.793.007.157-.625-.5-.316-.95-.412-.046-.68.056-.631.474z" transform="translate(46.149 22.636)"/><g transform="translate(46.149 22.636) translate(0 100.05)"><path fill="#6F6F6F" d="M17.004 0H.688L0 1.322S16.364 25.43 19.38 29.938h15.522c-.095-.704.753-1.594.634-2.377-.014-.102-.676-1.096-1.109-1.74-.384-.574-.972-1.151-1.267-1.585C27.558 16.008 22.3 7.919 17.004 0z"/><mask id="prefix__u" fill="#fff"><use xlink:href="#prefix__t"/></mask><g mask="url(#prefix__u)" opacity=".42"><path fill="#FFF" fill-rule="nonzero" d="M15.856-1.865c.855 0 1.527 1.378 2.15 2.22 3.148 4.243 6.014 8.463 9.03 12.832.938 1.356 1.738 2.62 2.694 3.96 1.374 1.926 3.003 4.249 4.434 6.336 2.944 4.292 5.776 8.51 8.87 12.988.3.432.666.83.952 1.267.61.971 1.04 2.045 1.267 3.169.141.59.436 1.728.316 1.9-.036.052-.096.082-.159.079-.414 0-1.286-.93-1.424-1.029-.801-.574-1.397-.778-1.74-1.11-.292-.404-.557-.827-.792-1.267-6.52-9.003-25.508-38.184-25.508-38.184L-.5 1.254s-2.386.122-4.436.122c-.797 0-1.545-.018-2.081-.07-.87-.084-1.604-.13-2.218-.792v-.638c.585-.502 1.298-.831 2.06-.95.972-.118 1.95-.17 2.93-.157 2.355 0 5.236.19 7.998.316 2.635.119 5.508.05 8.079.157.831.036 1.942.173 2.375.173.054.003.107-.002.16-.014.41-.135.326.072.475-.316.211-.553.122-.884.95-.95h.066"/></g></g><g transform="translate(46.149 22.636) translate(3.757 110.04)"><path fill="#FFD7BC" d="M2.094.2c.019.003-.364-.308-.476-.16C.89 1.02.157 3.983.035 5.9c-.252 3.95.856 5.978 2.85 8.08.757.796 1.437 1.712 2.219 2.218 1.527.988 4.175 1.576 6.336 1.74 1.248.097 3.167.202 4.119-.158.665-.252 1.312-1.2 1.9-2.059.569-.83 1.251-1.644 1.267-2.692.03-1.909-1.653-3.084-2.852-4.436-.5-.563-1.145-1.229-1.74-1.9-.548-.615-.997-1.47-1.742-1.741-.506-.187-1.245-.06-1.9-.16-1.45-.219-3.711-.374-5.069-.95C3.938 3.213 3.177 1.524 2.255.514c-.02-.015-.158-.315-.16-.315z"/><mask id="prefix__w" fill="#fff"><use xlink:href="#prefix__v"/></mask><g mask="url(#prefix__w)" opacity=".63"><path fill="#F8816D" d="M-8.09 9.017c.815 1.753 2.677 2.564 4.276 3.486 1.59.917 3.259 1.956 5.068 2.534-.495.242-1.097.161-1.267.634-.454 1.258 3.824 1.994 4.751 2.218 1.87.517 3.776.888 5.703 1.108 2.155.165 3.929.359 5.18-.44.247-.11.502-.2.764-.268.717-.313 1.818-.723 1.501-1.984-.04-.157.54-.366.603-.717.073-.41-.133-.763.189-1.343.301-.547 1.16-1.996.633-2.533-.038-.04-.46-.135-.475-.159-.188-.399.214-.753-.158-1.108-.714.351-.945 1.155-1.308 1.796-.428.754-.975 1.434-1.62 2.013-.364.333-.779.607-1.229.812-1.721.756-3.691.784-5.532.606-1.811-.172-3.596-.553-5.32-1.136-1.642-.574-3.235-1.277-4.766-2.103-.812-.43-1.613-.885-2.402-1.356-.573-.34-1.14-.763-1.74-1.108-1.034-.593-1.493-.9-2.852-.952z"/></g></g><g transform="translate(46.149 22.636) translate(44.33 6.027)"><path fill="#F5BF9B" d="M28.24 22.244c-.404-.553-.687-.716-1.587-.475 1.071-3.552 1.849-6.6 1.587-9.821C27.732 5.765 21.552.641 15.41.07 10.355-.4 6.715 1.689 3.846 4.664 1.691 6.899-.328 9.9.045 14.8c.05.686.197 1.472.316 2.218.782 4.343 2.169 8.555 4.119 12.514 1.406 2.906 3.078 6.413 5.385 9.028 1.388 1.572 1.98 2.887 4.753 2.535 2.16-.275 5.43-2.647 7.127-4.118 1.494-1.298 2.473-2.772 3.643-4.277.034.455-.039.804-.316.95.47.18.554-.487.791-.792.343-.44 1.093-.874.634-1.741-.092-.176.051-.261-.158-.317-.024-.007-.318 0-.318 0 .018-.4.777-1.549 1.267-2.537.938-1.886 1.587-2.735 2.22-5.068.232-.863.596-2.72 0-3.01-.903-.438-1.195 1.696-1.268 2.058z"/><mask id="prefix__y" fill="#fff"><use xlink:href="#prefix__x"/></mask><g mask="url(#prefix__y)"><g fill="#F7816D"><path d="M8.08 9.717c.694 2.223 3.55 1.428 5.544 2.218.806.319 1.34.937 2.059 1.267 1.555.632 3.234.903 4.91.791.422-.01.908.043 1.267 0 .444-.05.83-.283 1.267-.316 2.96-.22 5.873.614 7.762 2.06.42.32 1.021 1.098 1.584 1.583.332.287 2.4 1.888 2.375-.159-.004-.386-.358-.644-.316-.95.048-.343.606-.24.475-1.109-.116-.772-.87-1.277-1.425-1.9-1.82-2.05-3.446-3.867-4.911-6.494-.305-.395-.57-.82-.792-1.267-.133-.627.224-1.411 0-2.06-.484-1.403-1.806-3.217-2.376-3.328-3.163-.615-.858 4.154-.475 5.069.234.558.635 1.614.951 2.217.23.442 1.206 1.69 1.109 1.901-.13.275-1.522.354-1.901.475-1.356.431-3.692 1.792-5.069 1.9-1.076.04-2.15-.122-3.168-.474-1.069-.33-1.84-1.075-3.168-1.267-1.147-.166-2.248.085-3.328 0-.788-.062-1.521-.539-2.375-.157zm21.067 2.218c-.467.006-.92-.164-1.267-.476.225-.14.503-.168.75-.075.25.093.44.297.517.55z" transform="translate(-8.98 1.978)"/><path d="M24.712 14.786c-1.702-.24-2.96.05-3.486.791-.114.16-.681 1.61-.475 2.377.114.423.235.219.634.634.286.297.47.642.634.634.883-.052 1.126-2.35 1.583-2.694-.256.193 1.716-.484 1.584-.475.497-.032 2.107.866 2.376.158.332-.874-2.221-1.337-2.85-1.425zM8.397 15.894c-2.029.686-4.659.804-6.81 1.901-.382.195-1.622.87-1.586 1.267.043.444 1.103.864 1.74.95 2.263.308 5.7-.995 7.762-1.424-.61-.779-.993-1.711-1.106-2.694zM13.307 21.28c.759.034.6.984 1.583.792.35-1.031-1.728-2.955-3.325-2.85-.82.05-2.643 1.152-2.06 2.375.325.682 3.595.765 3.802-.317z" transform="translate(-8.98 1.978)"/></g></g></g><path fill="#97181F" d="M60.382 37.117c-.455.235-1.178.603-1.901.95-1.21.582-2.337.72-2.693 2.06-1.014-.226-2.293-.948-3.485-.476.672.86 1.474 1.608 2.377 2.218.62.477 2.016 1.067 3.01.316.591-.447 2.178-2.978 2.533-3.96.103-.36.156-.733.159-1.108z" transform="translate(46.149 22.636)"/><path fill="#F56D60" d="M52.321 28.892c-.134-.03-.15.062-.158.158-.05 1.744.002 3.49.158 5.227.111 1.782-.392 2.83 1.901 2.535 1.579-.205 1.25-.739.634-2.376-.72-1.912-1.523-4.35-2.535-5.544z" transform="translate(46.149 22.636)"/><g fill="#FEF6E7"><path d="M16.203 0c-1.983.211-3.755 1.335-4.791 3.039-.788.024-.693-.698-1.267-.317-.399.512-.399 1.229 0 1.74.332.33 1.446.41 2.216.318.933-.217 1.802-.651 2.535-1.268.642-.59 1.178-1.286 1.584-2.058.048-.302.055-.61.021-.913-.027-.316-.204-.343-.298-.541zM2.856 5.73c-.573-.124-1.167-.124-1.74 0-.379.138-.749.297-1.109.477-.095.232.865 1.72 1.426 1.9.906.294 3.197-.307 3.325-.792.089-.33-.563-1.05-.634-1.108-.376-.262-.812-.425-1.268-.476z" transform="translate(46.149 22.636) translate(46.608 23.698)"/></g><g fill="#402723"><path d="M9.37 3.294c.042.028.092.042.142.04.205 0 .348-.166.523-.24.197-.082.394-.175.587-.27.414-.2.824-.41 1.252-.578.308-.122.62-.23.938-.323.711-.21 3.584-.571 3.643-1.108.089-.82-2.582-.859-3.168-.793-.784.083-1.545.315-2.242.684-.665.307-1.224.804-1.607 1.429-.098.214-.338.976-.068 1.16zM3.467 4.774c-.42-.204-.904-.229-1.342-.07-.527.107-1.021.338-1.439.677-.193.184-.233.477-.097.706.084.175.302.536.502.588.134.035.275-.169.634-.317.628-.26 2.916-.704 1.742-1.584z" transform="translate(46.149 22.636) translate(44.871 21.208)"/></g><g fill="#25262F"><path d="M9.966 3.084c-.066.55 1.037.24 1.037.24.054.284.033.576-.061.848.587-.024.466-.895.793-.95.435-.074 1.271 1.777 2.218 1.74.946-.036 1.25-1.366.791-2.534-.015-.039-.3-.534-.316-.476.226-.805 1.865-1.131 3.325-1.425V.052c-2.762-.345-4.762 1.006-6.56 2.242-.366.254-1.17.608-1.227.79zM.013 7.024c.545.53 1.163-.177 1.74 0C2.19 7.157 3.216 9.01 4.13 8.45c.466-.286.316-.998.16-1.74.195-.387 1.04-.124 1.197.054.219-.63-1.47-1.442-2.465-1.48-.979-.038-1.385.478-2.06.95-.377.265-1.064.306-.948.79z" transform="translate(46.149 22.636) translate(45.4 23.514)"/></g><path fill="#021A4B" d="M44.866 9.207c1.131.307 2.132.974 2.85 1.901.4.532.614 1.226.792 1.268.484.112.953-1.02 2.217-1.11.324.002.645.056.952.159.275.077.54.183.792.317.394-.065 1.232-1.14 1.9-1.268 1.406-.269 2.58.673 3.801.634.662-.021 1.31-.506 1.741-.476 2.688.192 3.226 3.493 4.278 5.703 1.131 2.174 2.457 4.242 3.96 6.178.644.891 1.214 2.16 2.533 2.376.602-.523-.342-.748-.475-1.267-.122-.481-.274-1.201.16-1.426 2.273-1.174.899 5.155 1.9 5.069.084-.007.798-.595 1.108 0 .808 1.549-2.166 3.738-2.534 4.277-.477.87-.9 1.77-1.267 2.693-.441.867-.812 1.767-1.109 2.693-2.176 7.395.007 12.788 3.482 17.583 3.397 4.683 9.173 8.078 17.425 8.078 3.573 0 6.553-1.075 9.503-1.9 2.173-.61 4.077-1.172 6.492-.827 2.522.358 5.716 2.076 7.625 3.481 1.953 1.436 3.61 3.237 4.877 5.304.896-7.1-5.751-9.739-7.589-14.456-.297-.762-.23-2.213-.318-3.328-.375-4.761-3.52-7.975-6.81-9.82-3.824-2.145-8.833-2.045-12.67-3.96-.628-.29-1.214-.663-1.742-1.11-.9-.96-1.6-2.092-2.058-3.327-.431-1.444-.697-2.932-.793-4.436-.286-3.17-.205-6.586-.95-9.504-.686-2.688-1.992-5.163-3.244-7.62-.95-1.862-1.895-3.706-3.393-5.199-2.51-2.496-5.855-3.92-9.197-4.905-.985-.311-2.01-.471-3.043-.474-1.86.122-3.68.6-5.359 1.407-1.016.4-1.975.932-2.85 1.584-.736.575-.646.55-1.74.476-1.948-.092-3.892.232-5.704.95-2.562.97-3.915 2.247-5.543 4.282zm42.608 50.688c1.944.245 3.907.298 5.861.16 3.174-.329 6.42-2.427 9.82-1.585-4.3.343-8.27 2.51-12.988 2.693-7.181.283-12.824-2.626-16.474-6.494-.035-.199-.246-.324.158-.317 3.123 2.743 8.147 5.002 13.623 5.543z" transform="translate(46.149 22.636)"/><g transform="translate(46.149 22.636) translate(44.866 .512)"><mask id="prefix__A" fill="#fff"><use xlink:href="#prefix__z"/></mask><g mask="url(#prefix__A)"><g fill-rule="nonzero"><path fill="#FFF" d="M50.486 2.866c.785 0 1.598.032 2.44.098 1.413.111 4.693.307 4.116 1.74-.145.366-.67.467-1.256.467-.655 0-1.387-.126-1.753-.15-.9-.057-1.755-.087-2.571-.087-3.03 0-5.498.414-7.566 1.355-4.301 1.956-5.921 5.556-9.662 8.397-1.432 1.057-2.972 1.96-4.594 2.692-1.81.847-3.73 1.433-5.703 1.741-1.474.2-2.96.298-4.449.29-5.113-.027-10.189-.874-15.034-2.508-1.468-.53-4.636-1.32-4.276-3.168.185-.953 1.727-1.117 3.167-1.267 1.01-.106 2.026-.158 3.042-.158 4.683 0 8.431 1.08 13.432 1.108h.331c4.627 0 7.438-.55 10.599-2.219 2.982-1.575 5.248-3.686 7.921-5.227 3.582-2.095 7.668-3.17 11.817-3.108" opacity=".25" transform="translate(-20.48 -1.024)"/><g fill="#010814"><path d="M4.276 7.61c-.529-.779-1.11-1.52-1.74-2.219C2.062 4.858.003 3.35 0 2.856c-.003-.68.743-.754 1.267-1.267C1.03 1.142.627.857.634.164.66.057.764-.014.874 0" transform="translate(-20.48 -1.024) translate(31.422 .148)"/><path d="M.873 0C.9 0 .924.002.95.006c-.026.377.59.307.634.792.003.036-.278.225-.158.475.227.47.653.913.95 1.426.295.512.56 1.041.792 1.584M18.872 20.732c.047-.001.094.007.137.024 2.41 1.076 3.148 2.9 3.009 4.91-.265 3.848-3.545 5.796-6.02 7.604-.806.59-2.201 1.674-2.78 1.674-.294 0-.378-.279-.07-1.04.283-.703.472-.738.95-1.11.415-.32.788-.693 1.109-1.108.039-.052.375-.277.475-.477.17-.338-.004-.6.159-.791.433-.376.911-.695 1.425-.95.555-.27 1.085-.588 1.584-.95.808-.791 1.98-4.014 1.584-5.386-.302-1.043-2.177-1.28-2.06-2.376.037.011.075.017.113.016.064-.002.128-.009.192-.02.064-.012.128-.018.193-.02" transform="translate(-20.48 -1.024) translate(31.422 .148)"/></g></g></g></g><path fill="#021A4B" d="M70.745 21.123c.153-.832-.444-1.434-.95-2.06-.49-.663-1.077-1.25-1.741-1.74-.546-.335-1.865-.724-1.902-.792-.115-.217.247-1.99.159-2.534-.256-1.59-1.703-2.947-2.85-3.643-1.581-.929-3.4-1.371-5.231-1.27-.922.05-1.956.643-3.168.633-.97-.112-1.925-.324-2.85-.634-1.522-.378-2.814-1.085-5.07-.95.065-.688.757-.846 1.268-1.11.51-.263 6.32-3.018 5.273-2.949-1.803.12-5.584 1.48-6.302 1.954-1.699 1.1-3.112 2.586-4.124 4.338-.815 1.37-1.157 2.97-.973 4.553.08.562.237 1.11.468 1.628.255.625.678 1.166 1.222 1.565 1.265.814 3.434.132 5.384.317 2.571.243 3.966 2.04 6.97 2.376 1.002.087 2.01.087 3.01 0 .685-.055 1.537-.407 2.693-.317 1.2.13 2.346.567 3.328 1.267 2.067 1.525 2.453 3.265 4.118 4.435.43.301 1.549 1.147 2.06.475.372-.49-.856-2.104-1.11-2.534-.575-.977-1.313-2.079-1.108-2.534.292-.652.73.327 1.426-.474z" transform="translate(46.149 22.636)"/><path fill="#F5BF9B" d="M68.78 27.652c-.014-.035-.03-.069-.046-.102.058-.087.095-.186.11-.29-.122-.147-.228-.306-.318-.474-.213-.97.168-1.043.476-1.426.437-.544.419-1.325.633-2.059.669-2.288 1.667-4.21 4.12-3.802 2.555.426 3.133 2.854 3.167 4.435.068 3.277-2.954 5.911-5.068 6.178-.57.076-1.15.043-1.708-.097-.534-.74-.992-1.53-1.366-2.363z" transform="translate(46.149 22.636)"/><path fill="#C53E31" d="M70.67 25.838c.676.133.444-.922.634-1.585.328-1.139.78-2.974 2.218-3.01.977-.025 1.313 1.267 1.741.792.428-.474-1.01-1.4-1.583-1.425-.879-.04-1.792.736-2.376 1.852-.748 1.433-1.014 3.3-.634 3.376z" transform="translate(46.149 22.636)"/></g></g></g></g></svg>