<?xml version="1.0" standalone="no"?>
<!DOCTYPE svg PUBLIC "-//W3C//DTD SVG 20010904//EN"
 "http://www.w3.org/TR/2001/REC-SVG-20010904/DTD/svg10.dtd">
<svg version="1.0" xmlns="http://www.w3.org/2000/svg"
 width="126.000000pt" height="67.000000pt" viewBox="0 0 126.000000 67.000000"
 preserveAspectRatio="xMidYMid meet">

<g transform="translate(0.000000,67.000000) scale(0.100000,-0.100000)"
fill="#cdcdcd" stroke="none">
<path d="M295 571 c-116 -30 -188 -122 -189 -241 0 -119 74 -211 194 -240 101
-24 214 27 265 121 85 157 -14 345 -191 363 -27 3 -62 1 -79 -3z m43 -163 c9
-9 15 -9 24 0 31 31 88 -1 88 -51 0 -23 -11 -41 -46 -74 -26 -24 -50 -43 -54
-43 -4 0 -28 19 -54 43 -34 32 -46 51 -46 72 0 51 56 85 88 53z"/>
<path d="M820 423 c0 -10 -3 -28 -6 -41 -6 -22 -5 -23 28 -17 28 5 37 3 42
-11 9 -24 -19 -53 -36 -36 -7 7 -18 12 -25 12 -22 0 -14 -20 12 -32 37 -17 75
3 75 40 0 34 -16 52 -47 52 -14 0 -23 6 -23 15 0 10 10 15 30 15 17 0 30 5 30
10 0 6 -18 10 -40 10 -31 0 -40 -4 -40 -17z"/>
<path d="M940 423 c0 -10 -3 -28 -6 -41 -6 -22 -5 -23 28 -17 28 5 37 3 42
-11 9 -24 -19 -53 -36 -36 -7 7 -18 12 -25 12 -22 0 -14 -20 12 -32 37 -17 75
3 75 40 0 34 -16 52 -47 52 -14 0 -23 6 -23 15 0 10 10 15 30 15 17 0 30 5 30
10 0 6 -18 10 -40 10 -31 0 -40 -4 -40 -17z"/>
<path d="M1090 400 c0 -13 -7 -20 -20 -20 -11 0 -20 -4 -20 -10 0 -5 9 -10 20
-10 15 0 20 -7 20 -25 0 -31 17 -33 22 -2 2 14 11 23 26 25 30 5 28 22 -3 22
-18 0 -25 5 -25 20 0 11 -4 20 -10 20 -5 0 -10 -9 -10 -20z"/>
</g>
</svg>
