<?xml version="1.0" encoding="iso-8859-1"?>
<!-- Generator: Adobe Illustrator 19.0.0, SVG Export Plug-In . SVG Version: 6.00 Build 0)  -->
<svg version="1.1" id="Layer_1" xmlns="http://www.w3.org/2000/svg" xmlns:xlink="http://www.w3.org/1999/xlink" x="0px" y="0px"
	 viewBox="0 0 481.882 481.882" style="enable-background:new 0 0 481.882 481.882;" xml:space="preserve">
<path style="fill:#44C4A1;" d="M346.353,159.624c2.409-8.433,3.614-17.468,3.614-27.106s-1.205-18.071-3.614-27.106l16.866-15.059
	c2.409-2.409,3.614-6.626,1.807-9.638l-17.468-30.118c-1.807-3.012-5.421-4.819-9.035-3.614l-21.082,7.228
	c-13.252-12.047-29.515-21.082-46.984-26.504L266.24,6.024C265.638,2.409,262.626,0,259.012,0h-34.936
	c-3.614,0-6.626,2.409-7.228,6.024l-4.216,21.685c-18.071,4.819-33.732,14.456-46.381,27.106l-21.082-7.228
	c-3.614-1.205-7.228,0-9.035,3.614l-18.673,30.118c-1.807,3.012-1.205,7.228,1.807,9.638l16.264,14.456
	c-2.409,8.433-3.614,17.468-3.614,27.106s1.205,18.071,3.614,27.106l-16.866,15.059c-2.409,2.409-3.614,6.626-1.807,9.638
	l17.468,30.118c1.807,3.012,5.421,4.819,9.035,3.614l21.082-7.228c12.649,12.649,28.913,21.685,46.381,27.106l4.216,21.685
	c0.602,3.614,3.614,6.024,7.228,6.024h34.936c3.614,0,6.626-2.409,7.228-6.024l4.216-21.685
	c18.071-4.819,33.732-14.456,46.381-27.106l21.082,7.228c3.614,1.205,7.228,0,9.035-3.614l17.468-30.118
	c1.807-3.012,1.205-7.228-1.807-9.638L346.353,159.624z M240.941,209.619c-42.165,0-77.101-34.334-77.101-77.101
	s34.334-77.101,77.101-77.101c42.165,0,77.101,34.334,77.101,77.101S283.106,209.619,240.941,209.619z"/>
<g>
	<path style="fill:#3EA69B;" d="M240.941,214.438c-45.176,0-81.92-36.744-81.92-81.92s36.744-81.92,81.92-81.92
		s81.92,36.744,81.92,81.92S286.118,214.438,240.941,214.438z M240.941,59.633c-39.755,0-72.885,32.527-72.885,72.885
		s32.527,72.885,72.885,72.885s72.885-32.527,72.885-72.885S280.696,59.633,240.941,59.633z"/>
	<circle style="fill:#3EA69B;" cx="240.941" cy="132.518" r="39.153"/>
</g>
<path style="fill:#3A556A;" d="M458.993,136.734v304.188H22.889V136.734c0-6.024,4.819-11.445,11.445-11.445h413.816
	C454.174,125.289,458.993,130.108,458.993,136.734z"/>
<rect y="440.32" style="fill:#EBF0F3;" width="481.882" height="31.322"/>
<g>
	<polygon style="fill:#D5D6DB;" points="481.28,471.642 0.602,471.642 33.732,481.882 448.151,481.882 	"/>
	<rect x="207.209" y="452.367" style="fill:#D5D6DB;" width="67.464" height="7.228"/>
</g>
<rect x="49.393" y="149.384" style="fill:#64798A;" width="383.096" height="266.842"/>
<g>
	<path style="fill:#FFFFFF;" d="M156.009,308.405l-9.638,21.685h-16.866l42.165-95.172h16.866l42.165,95.172h-16.866l-9.638-21.685
		H156.009z M196.969,293.948l-17.468-39.153l-17.468,39.153H196.969z"/>
	<path style="fill:#FFFFFF;" d="M307.802,243.351c6.626,5.421,9.638,13.854,9.638,25.299c0,11.445-3.614,19.878-10.24,25.299
		c-6.626,5.421-16.866,7.831-31.322,7.831h-16.866v27.708h-16.264v-94.569h32.527C290.334,234.918,301.176,237.929,307.802,243.351z
		 M296.358,282.504c3.012-3.614,4.819-8.433,4.819-15.059c0-6.626-1.807-11.445-6.024-13.854c-4.216-3.012-10.24-4.216-19.275-4.216
		h-16.264v37.948h18.673C287.322,287.925,293.346,286.118,296.358,282.504z"/>
	<path style="fill:#FFFFFF;" d="M336.715,234.918h15.661v95.172h-16.264v-95.172H336.715z"/>
</g>
<g>
	<rect x="85.534" y="187.332" style="fill:#FCD462;" width="33.732" height="18.673"/>
	<rect x="139.746" y="187.332" style="fill:#FCD462;" width="252.988" height="18.673"/>
	<rect x="362.616" y="359.785" style="fill:#FCD462;" width="33.732" height="18.673"/>
	<rect x="85.835" y="359.785" style="fill:#FCD462;" width="252.988" height="18.673"/>
</g>
<g>
</g>
<g>
</g>
<g>
</g>
<g>
</g>
<g>
</g>
<g>
</g>
<g>
</g>
<g>
</g>
<g>
</g>
<g>
</g>
<g>
</g>
<g>
</g>
<g>
</g>
<g>
</g>
<g>
</g>
</svg>
