<svg enable-background="new 0 0 32 32" height="512" viewBox="0 0 32 32" width="512" xmlns="http://www.w3.org/2000/svg"><g id="BG"><path d="m26 32h-20c-3.314 0-6-2.686-6-6v-20c0-3.314 2.686-6 6-6h20c3.314 0 6 2.686 6 6v20c0 3.314-2.686 6-6 6z" fill="#f5e6fe"/></g><g id="bold"><path d="m16 16.167c-.276 0-.5-.224-.5-.5v-1.322c0-.276.224-.5.5-.5s.5.224.5.5v1.322c0 .276-.224.5-.5.5z" fill="#d9a4fc"/><path d="m18.652 19.667 1.243-1.611c.122-.158.138-.374.041-.549s-.287-.273-.488-.254l-2.135.22-.86-1.851c-.164-.352-.743-.352-.907 0l-.86 1.851-2.135-.22c-.2-.019-.391.08-.488.254s-.081.39.041.549l1.243 1.611-1.243 1.611c-.122.158-.138.374-.041.549s.289.274.488.254l2.135-.22.86 1.851c.083.175.259.288.454.288s.371-.113.453-.289l.86-1.851 2.135.22c.201.02.391-.08.488-.254s.081-.39-.041-.549z" fill="#d9a4fc"/><g fill="#be63f9"><path d="m22.167 8h-2.833v5.774l2.65-.725c.795-.217 1.35-.945 1.35-1.769v-2.113c-.001-.644-.524-1.167-1.167-1.167z"/><path d="m12.667 8h-2.834c-.643 0-1.166.523-1.166 1.167v2.114c0 .824.555 1.551 1.35 1.769l2.65.725z"/><path d="m18.333 14.002v-6.002h-4.667v6.002c0 .015-.007.028-.009.042l2.21.604c.043.012.088.018.132.018s.089-.006.132-.018l2.21-.604c0-.014-.008-.027-.008-.042z"/></g></g></svg>