<?xml version="1.0" standalone="no"?>
<!DOCTYPE svg PUBLIC "-//W3C//DTD SVG 20010904//EN"
 "http://www.w3.org/TR/2001/REC-SVG-20010904/DTD/svg10.dtd">
<svg version="1.0" xmlns="http://www.w3.org/2000/svg"
 width="303.000000pt" height="84.000000pt" viewBox="0 0 303.000000 84.000000"
 preserveAspectRatio="xMidYMid meet">
<metadata>
Created by potrace 1.10, written by Peter Selinger 2001-2011
</metadata>
<g transform="translate(0.000000,84.000000) scale(0.100000,-0.100000)"
fill="#cdcdcd" fill-rule="evenodd" stroke="none">
<path d="M1699 741 l-39 -39 0 -93 0 -93 -47 -48 -47 -48 47 -48 47 -48 0 -88
0 -88 39 -39 39 -39 532 0 532 0 39 39 39 39 0 277 0 277 -39 39 -39 39 -532
0 -532 0 -39 -39z m1111 -31 c19 -19 20 -33 20 -285 0 -252 -1 -266 -20 -285
-19 -19 -33 -20 -540 -20 -610 0 -560 -10 -560 115 0 80 -14 119 -59 164 l-23
23 41 42 41 42 0 92 c0 144 -58 130 558 131 509 1 522 1 542 -19z"/>
<path d="M1942 558 c-13 -13 -16 -116 -4 -135 6 -9 19 -8 54 5 44 16 48 15 67
-2 24 -22 27 -53 7 -78 -8 -12 -30 -18 -72 -20 -51 -3 -59 -6 -59 -23 0 -18 8
-20 67 -23 62 -3 68 -1 92 25 20 22 26 38 26 75 0 65 -22 86 -92 90 -46 3 -53
6 -56 26 -4 23 9 27 75 23 44 -3 78 16 62 35 -15 18 -149 20 -167 2z"/>
<path d="M2208 541 c-33 -29 -33 -31 -33 -118 0 -79 2 -91 24 -115 20 -23 33
-28 70 -28 63 0 101 36 101 96 0 64 -32 94 -98 94 -28 0 -53 4 -57 9 -8 13 44
51 61 44 23 -9 84 7 84 21 0 18 -22 26 -76 26 -34 0 -51 -6 -76 -29z m94 -118
c18 -16 24 -59 10 -79 -17 -26 -51 -26 -77 0 -25 25 -31 50 -19 80 8 21 62 21
86 -1z"/>
<path d="M2483 498 c-4 -7 -8 -29 -8 -48 0 -28 -4 -35 -20 -36 -40 -2 -45 -4
-45 -19 0 -15 5 -17 45 -19 16 -1 20 -8 20 -38 0 -42 14 -62 39 -52 14 5 16
14 11 45 -7 38 -6 39 23 39 40 0 62 9 62 25 0 16 -22 25 -62 25 -29 0 -30 1
-23 36 4 26 2 39 -7 45 -18 12 -25 11 -35 -3z"/>
<path d="M139 711 l-39 -39 0 -262 0 -262 39 -39 39 -39 562 0 562 0 39 39 39
39 0 262 0 262 -39 39 -39 39 -562 0 -562 0 -39 -39z m1168 -33 c23 -21 23
-23 23 -267 0 -237 -1 -245 -22 -268 l-21 -23 -546 0 c-519 1 -547 2 -568 19
-23 19 -23 22 -23 267 0 241 1 248 22 271 l21 23 546 0 545 0 23 -22z"/>
<path d="M705 545 l-48 -55 -1 -115 c-1 -63 1 -115 4 -115 3 -1 54 -2 115 -3
130 -2 145 5 145 78 0 24 8 63 17 86 16 41 16 42 -6 60 -18 15 -34 17 -91 12
-66 -6 -70 -5 -70 14 0 11 7 26 15 33 8 7 15 23 15 36 0 44 -42 30 -95 -31z"/>
<path d="M547 482 c-14 -15 -17 -40 -17 -119 0 -100 0 -101 26 -107 58 -15 62
-6 60 112 -1 60 -6 114 -10 120 -11 18 -41 15 -59 -6z"/>
</g>
</svg>
