<?xml version="1.0" encoding="iso-8859-1"?>
<!-- Generator: Adobe Illustrator 19.1.0, SVG Export Plug-In . SVG Version: 6.00 Build 0)  -->
<svg xmlns="http://www.w3.org/2000/svg" xmlns:xlink="http://www.w3.org/1999/xlink" version="1.1" id="Capa_1" x="0px" y="0px" viewBox="0 0 333.829 333.829" style="enable-background:new 0 0 333.829 333.829;" xml:space="preserve" width="28px" height="28px">
<g>
	<path d="M166.911,333.826C74.879,333.826,0,258.953,0,166.915S74.879,0.003,166.911,0.003c92.045,0,166.918,74.879,166.918,166.918   S258.956,333.826,166.911,333.826z M166.911,12.857c-84.95,0-154.058,69.108-154.058,154.064   c0,84.943,69.108,154.058,154.058,154.058s154.064-69.114,154.064-154.058C320.975,81.965,251.868,12.857,166.911,12.857z    M205.672,97.325c-10.656,0-19.293,8.631-19.293,19.293c0,10.649,8.638,19.293,19.293,19.293s19.293-8.644,19.293-19.293   C224.965,105.956,216.327,97.325,205.672,97.325z M125.336,97.325c-10.656,0-19.293,8.631-19.293,19.293   c0,10.649,8.638,19.293,19.293,19.293s19.293-8.644,19.293-19.293C144.629,105.956,135.998,97.325,125.336,97.325z M97.347,229.833   c19.152-17.385,43.966-26.961,69.853-26.961c25.817,0,50.56,9.525,69.686,26.813c3.953,3.567,10.045,3.265,13.618-0.688   c3.567-3.94,3.265-10.045-0.688-13.618c-22.68-20.489-52.019-31.781-82.617-31.781c-30.688,0-60.104,11.363-82.81,31.973   c-3.94,3.58-4.242,9.666-0.662,13.606c1.902,2.095,4.512,3.162,7.134,3.162C93.189,232.327,95.503,231.504,97.347,229.833z" fill="#FFFFFF"/>
</g>
<g>
</g>
<g>
</g>
<g>
</g>
<g>
</g>
<g>
</g>
<g>
</g>
<g>
</g>
<g>
</g>
<g>
</g>
<g>
</g>
<g>
</g>
<g>
</g>
<g>
</g>
<g>
</g>
<g>
</g>
</svg>
