<svg xmlns="http://www.w3.org/2000/svg" width="100" height="99" viewBox="0 0 100 99"><g fill="#F3D0D0"><path d="M56.159 14.751c-.638 1.65-2.34 2.633-4.088 2.36-.545-.093-1.062.273-1.156.818-.093.545.273 1.062.818 1.156 2.705.47 5.359-1.062 6.304-3.64.124-.336.06-.712-.169-.987s-.587-.407-.94-.347c-.352.06-.645.305-.77.64zm-6.305-.62c.531.14 1.077-.175 1.22-.705.142-.532-.173-1.078-.704-1.221-1.593-.383-3.207.549-3.672 2.12-.125.354-.04.748.218 1.02.259.273.648.378 1.009.271.36-.107.63-.406.699-.775.068-.258.236-.478.467-.612.23-.133.506-.168.763-.098zm6.578-5.426c-1.593-.383-3.207.549-3.672 2.12-.096.513.22 1.014.724 1.149.505.135 1.028-.14 1.202-.633.068-.258.236-.478.467-.612.231-.133.506-.168.763-.098.532.14 1.077-.175 1.221-.705.14-.532-.174-1.078-.705-1.221zM48 5.34C43.217 8.1 41.578 14.217 44.34 19c2.761 4.783 8.877 6.422 13.66 3.66C62.783 19.9 64.422 13.783 61.66 9c-1.326-2.297-3.51-3.973-6.072-4.66-2.562-.686-5.291-.326-7.588 1zm9 15.588c-3.826 2.21-8.72.898-10.928-2.928-2.21-3.826-.898-8.72 2.928-10.928 3.826-2.21 8.72-.898 10.928 2.928 1.061 1.837 1.349 4.021.8 6.07-.55 2.05-1.89 3.797-3.728 4.858zM18.392 35.042c-3.18-.676-6.376 1.076-7.517 4.12-3.44-.219-6.464 2.258-6.927 5.673-.463 3.415 1.793 6.607 5.166 7.312l10.802 2.304c.273.059.559.007.793-.145.234-.153.398-.392.455-.665l2.29-10.806c.362-1.704.033-3.483-.917-4.945-.949-1.462-2.44-2.486-4.145-2.848zm3.012 7.35l-2.08 9.782-9.781-2.079c-2.308-.462-3.86-2.638-3.547-4.97.314-2.334 2.386-4.022 4.734-3.858l.78 4.49c.045.3.218.566.474.73.263.157.582.192.873.094l2.833-.965.42 3.338c.032.276.174.528.394.7.219.171.498.249.774.215.158-.02.31-.076.444-.164.336-.217.519-.607.47-1.005l-.524-4.656c-.042-.313-.222-.59-.491-.755-.272-.162-.601-.2-.902-.101l-2.892.99-.66-3.805c.554-2.402 2.951-3.9 5.353-3.346 2.402.555 3.9 2.952 3.346 5.354l-.018.011zM44.218 76.066c-.885-.08-1.76.236-2.39.863l-3.224 3.224-.615-1.407c-.565-1.233-1.698-2.11-3.033-2.347-1.336-.237-2.702.196-3.656 1.16-.278.278-.366.693-.227 1.06l2.518 6.548-1.662 1.661c-1.172 1.172-1.172 3.071 0 4.243l4.95 4.95c1.171 1.171 3.07 1.171 4.242 0l9.002-9.002c1.023-1.024 1.17-2.633.346-3.825l-4.051-5.848c-.507-.732-1.313-1.2-2.2-1.28zm-3.097 17.126l-1.414 1.415c-.39.39-1.024.39-1.414 0l-4.95-4.95c-.39-.39-.39-1.024 0-1.414l1.414-1.415 6.364 6.364zm3.663-14.722l4.052 5.848c.278.403.224.947-.127 1.287l-6.173 6.173-6.923-6.922-2.404-6.251c.517-.284 1.129-.338 1.688-.15.558.188 1.013.601 1.253 1.14l.637 1.386c.271.596.818 1.02 1.462 1.138.644.117 1.305-.09 1.77-.551l3.224-3.225c.21-.21.502-.317.799-.29.297.022.57.175.742.417zM90.218 49.934c-.885.08-1.76-.236-2.39-.863l-3.224-3.224-.615 1.407c-.565 1.233-1.698 2.11-3.033 2.347-1.336.237-2.702-.196-3.656-1.16-.278-.278-.366-.693-.227-1.06l2.518-6.548-1.662-1.661c-1.172-1.172-1.172-3.071 0-4.243l4.95-4.95c1.171-1.171 3.07-1.171 4.242 0l9.002 9.002c1.023 1.024 1.17 2.633.346 3.825l-4.051 5.848c-.507.732-1.313 1.2-2.2 1.28zm-3.097-17.126l-1.414-1.415c-.39-.39-1.024-.39-1.414 0l-4.95 4.95c-.39.39-.39 1.024 0 1.414l1.414 1.415 6.364-6.364zm3.663 14.722l4.052-5.848c.278-.403.224-.947-.127-1.287l-6.173-6.173-6.923 6.922-2.404 6.251c.517.284 1.129.338 1.688.15.558-.188 1.013-.601 1.253-1.14l.637-1.386c.271-.596.818-1.02 1.462-1.138.644-.117 1.305.09 1.77.551l3.224 3.225c.21.21.502.317.799.29.297-.022.57-.175.742-.417zM55.661 60.233c-.168.464.068.976.53 1.15.223.083.471.074.688-.026.218-.1.386-.283.469-.507.573-1.485 2.105-2.37 3.678-2.124.208.035.42-.003.603-.109.323-.19.494-.562.428-.931-.065-.37-.353-.66-.721-.729-2.426-.375-4.787.988-5.675 3.276zm-1.493-4.115c.479.126.97-.157 1.1-.635.126-.478-.157-.97-.635-1.099-1.434-.344-2.886.494-3.305 1.908-.112.319-.037.674.196.92.233.244.584.338.908.242.324-.095.568-.365.63-.697.06-.233.212-.43.42-.55.208-.12.455-.153.686-.09zM52.5 48.206c-4.305 2.485-5.78 7.99-3.294 12.294 2.485 4.305 7.99 5.78 12.294 3.294 4.305-2.485 5.78-7.99 3.294-12.294-1.193-2.067-3.159-3.576-5.465-4.193-2.305-.618-4.762-.295-6.829.899zm8.1 14.03c-3.444 1.988-7.847.808-9.835-2.636-1.989-3.444-.809-7.847 2.635-9.835 3.444-1.989 7.847-.809 9.835 2.635.955 1.654 1.214 3.619.72 5.463-.495 1.845-1.701 3.418-3.355 4.372zm-.511-11.002c-1.434-.344-2.886.494-3.305 1.908-.086.462.198.913.652 1.035.454.121.925-.127 1.082-.57.06-.233.212-.43.42-.55.208-.12.455-.153.686-.09.479.127.97-.156 1.1-.634.126-.478-.157-.97-.635-1.099zM85.119 74.74c-2.71-.73-5.547.625-6.683 3.19-2.957-.344-5.677 1.655-6.23 4.58-.554 2.924 1.247 5.78 4.124 6.54l7.68 2.064c1.33.345 2.69-.44 3.056-1.764l2.052-7.683c.798-3.016-.988-6.11-4-6.927zm2.27 6.484l-2.057 7.675c-.046.177-.162.329-.321.42-.159.092-.348.117-.525.068l-7.689-2.08c-2.032-.568-3.238-2.657-2.714-4.701.56-2.039 2.656-3.249 4.701-2.714.233.063.482.03.69-.09.21-.12.362-.32.423-.553.56-2.039 2.655-3.248 4.701-2.714 2.04.541 3.274 2.614 2.777 4.665l.014.024z"/></g></svg>