<svg xmlns="http://www.w3.org/2000/svg" width="120" height="50" viewBox="0 0 120 50"><defs><style>.a,.b{fill:#cdcdcd;}.a{font-size:17px;font-weight:600;font-family: -apple-system,BlinkMacSystemFont,"Segoe UI",Roboto,Oxygen-Sans,Ubuntu,Cantarell,"Helvetica Neue",sans-serif}.c,.e{fill:none;}.c{stroke:#cdcdcd;}.d{stroke:none;}</style></defs><g transform="translate(-1023 -500)"><g transform="translate(270)"><text class="a" transform="translate(813 533)"><tspan x="0" y="0">321+</tspan></text><path class="b" d="M32.057,10.728c-.469-5.159-4.12-8.9-8.69-8.9a8.638,8.638,0,0,0-7.4,4.264A8.325,8.325,0,0,0,8.743,1.826c-4.569,0-8.221,3.743-8.689,8.9a9.179,9.179,0,0,0,.273,3.383,14.51,14.51,0,0,0,4.446,7.419L15.959,31.681,27.338,21.53a14.512,14.512,0,0,0,4.446-7.419A9.2,9.2,0,0,0,32.057,10.728Z" transform="translate(765.556 508.919)"/></g><g class="c" transform="translate(1023 500)"><rect class="d" width="120" height="50" rx="6"/><rect class="e" x="0.5" y="0.5" width="119" height="49" rx="5.5"/></g></g></svg>