<?xml version="1.0" standalone="no"?>
<!DOCTYPE svg PUBLIC "-//W3C//DTD SVG 20010904//EN"
 "http://www.w3.org/TR/2001/REC-SVG-20010904/DTD/svg10.dtd">
<svg version="1.0" xmlns="http://www.w3.org/2000/svg"
 width="252.000000pt" height="111.000000pt" viewBox="0 0 252.000000 111.000000"
 preserveAspectRatio="xMidYMid meet">
<metadata>
Created by potrace 1.10, written by Peter Selinger 2001-2011
</metadata>
<g transform="translate(0.000000,111.000000) scale(0.100000,-0.100000)"
fill="#cdcdcd" fill-rule="evenodd" stroke="none">
<path d="M209 955 c-68 -44 -69 -52 -69 -436 l0 -342 50 -49 49 -48 1041 0
c916 0 1041 2 1046 15 4 8 14 15 23 15 22 0 41 19 41 42 0 11 -7 18 -18 18
-23 0 -42 -19 -42 -42 0 -21 -4 -22 -31 -5 -17 9 -23 9 -26 0 -5 -15 -63 -18
-63 -3 0 6 -7 10 -15 10 -8 0 -15 -4 -15 -10 0 -5 -13 -10 -30 -10 -16 0 -30
5 -30 10 0 6 -7 10 -15 10 -8 0 -15 -4 -15 -10 0 -5 -13 -10 -30 -10 -16 0
-30 5 -30 10 0 6 -7 10 -15 10 -8 0 -15 -4 -15 -10 0 -5 -13 -10 -30 -10 -16
0 -30 5 -30 10 0 6 -7 10 -15 10 -8 0 -15 -4 -15 -10 0 -5 -13 -10 -30 -10
-16 0 -30 5 -30 10 0 6 -7 10 -15 10 -8 0 -15 -4 -15 -10 0 -5 -13 -10 -30
-10 -16 0 -30 5 -30 10 0 6 -7 10 -15 10 -8 0 -15 -4 -15 -10 0 -5 -13 -10
-30 -10 -16 0 -30 5 -30 10 0 6 -7 10 -15 10 -8 0 -15 -4 -15 -10 0 -5 -13
-10 -30 -10 -16 0 -30 5 -30 10 0 6 -7 10 -15 10 -8 0 -15 -4 -15 -10 0 -5
-13 -10 -30 -10 -16 0 -30 5 -30 10 0 6 -7 10 -15 10 -8 0 -15 -4 -15 -10 0
-5 -13 -10 -30 -10 -16 0 -30 5 -30 10 0 6 -7 10 -15 10 -8 0 -15 -4 -15 -10
0 -5 -13 -10 -30 -10 -16 0 -30 5 -30 10 0 6 -7 10 -15 10 -8 0 -15 -4 -15
-10 0 -13 -53 -13 -67 1 -8 8 -13 8 -17 0 -9 -14 -66 -15 -66 -1 0 6 -7 10
-15 10 -8 0 -15 -4 -15 -10 0 -5 -13 -10 -30 -10 -16 0 -30 5 -30 10 0 6 -7
10 -15 10 -8 0 -15 -4 -15 -10 0 -5 -13 -10 -30 -10 -16 0 -30 5 -30 10 0 6
-7 10 -15 10 -8 0 -15 -4 -15 -10 0 -5 -13 -10 -30 -10 -16 0 -30 5 -30 10 0
6 -7 10 -15 10 -8 0 -15 -4 -15 -10 0 -5 -13 -10 -30 -10 -16 0 -30 5 -30 10
0 6 -7 10 -15 10 -8 0 -15 -4 -15 -10 0 -5 -13 -10 -30 -10 -16 0 -30 5 -30
10 0 6 -7 10 -15 10 -8 0 -15 -4 -15 -10 0 -5 -13 -10 -30 -10 -16 0 -30 5
-30 10 0 6 -7 10 -15 10 -8 0 -15 -4 -15 -10 0 -5 -13 -10 -30 -10 -16 0 -30
5 -30 10 0 6 -7 10 -15 10 -8 0 -15 -4 -15 -10 0 -5 -13 -10 -30 -10 -16 0
-30 5 -30 10 0 6 -7 10 -15 10 -8 0 -15 -4 -15 -10 0 -5 -13 -10 -30 -10 -16
0 -30 5 -30 10 0 6 -7 10 -15 10 -8 0 -15 -4 -15 -10 0 -23 -49 -8 -83 27 -35
34 -50 83 -27 83 6 0 10 7 10 15 0 8 -4 15 -10 15 -5 0 -10 14 -10 30 0 17 5
30 10 30 6 0 10 7 10 15 0 8 -4 15 -10 15 -5 0 -10 14 -10 30 0 17 5 30 10 30
6 0 10 7 10 15 0 8 -4 15 -10 15 -5 0 -10 14 -10 30 0 17 5 30 10 30 6 0 10 7
10 15 0 8 -4 15 -10 15 -5 0 -10 14 -10 30 0 17 5 30 10 30 6 0 10 7 10 15 0
8 -4 15 -10 15 -5 0 -10 14 -10 30 0 17 5 30 10 30 6 0 10 7 10 15 0 8 -4 15
-10 15 -5 0 -10 14 -10 30 0 17 5 30 10 30 6 0 10 7 10 15 0 8 -4 15 -10 15
-16 0 -12 57 5 64 8 3 15 17 15 31 0 28 24 35 34 9 3 -8 11 -12 17 -8 9 5 7
11 -4 19 -40 29 0 49 44 23 17 -10 23 -10 26 0 5 14 63 17 63 2 0 -5 7 -10 15
-10 8 0 15 5 15 10 0 6 14 10 30 10 17 0 30 -4 30 -10 0 -5 7 -10 15 -10 8 0
15 5 15 10 0 6 14 10 30 10 17 0 30 -4 30 -10 0 -5 7 -10 15 -10 8 0 15 5 15
10 0 6 14 10 30 10 17 0 30 -4 30 -10 0 -5 7 -10 15 -10 8 0 15 5 15 10 0 6
14 10 30 10 17 0 30 -4 30 -10 0 -5 7 -10 15 -10 8 0 15 5 15 10 0 6 14 10 30
10 17 0 30 -4 30 -10 0 -5 7 -10 15 -10 8 0 15 5 15 10 0 6 14 10 30 10 17 0
30 -4 30 -10 0 -5 7 -10 15 -10 8 0 15 5 15 10 0 6 14 10 30 10 17 0 30 -4 30
-10 0 -5 7 -10 15 -10 8 0 15 5 15 10 0 18 57 11 65 -7 6 -17 7 -17 19 0 14
18 66 24 66 7 0 -5 7 -10 15 -10 8 0 15 5 15 10 0 6 14 10 30 10 17 0 30 -4
30 -10 0 -5 7 -10 15 -10 8 0 15 5 15 10 0 6 14 10 30 10 17 0 30 -4 30 -10 0
-5 7 -10 15 -10 8 0 15 5 15 10 0 6 14 10 30 10 17 0 30 -4 30 -10 0 -5 7 -10
15 -10 8 0 15 5 15 10 0 6 14 10 30 10 17 0 30 -4 30 -10 0 -5 7 -10 15 -10 8
0 15 5 15 10 0 6 14 10 30 10 17 0 30 -4 30 -10 0 -5 7 -10 15 -10 8 0 15 5
15 10 0 6 14 10 30 10 17 0 30 -4 30 -10 0 -5 7 -10 15 -10 8 0 15 5 15 10 0
6 14 10 30 10 17 0 30 -4 30 -10 0 -5 7 -10 15 -10 8 0 15 5 15 10 0 6 14 10
30 10 17 0 30 -4 30 -10 0 -5 7 -10 15 -10 8 0 15 5 15 10 0 6 14 10 30 10 17
0 30 -4 30 -10 0 -5 7 -10 15 -10 8 0 15 5 15 10 0 6 14 10 30 10 17 0 30 -4
30 -10 0 -5 7 -10 15 -10 8 0 15 5 15 10 0 6 14 10 30 10 17 0 30 -4 30 -10 0
-5 7 -10 15 -10 8 0 15 5 15 10 0 23 52 9 79 -21 18 -19 31 -27 35 -20 4 6 0
14 -8 17 -17 7 -22 34 -6 34 5 0 26 -16 45 -36 28 -27 34 -39 25 -48 -8 -8
-14 -7 -21 7 -6 9 -15 15 -21 11 -6 -4 3 -18 21 -35 30 -27 44 -79 21 -79 -5
0 -10 -7 -10 -15 0 -8 5 -15 10 -15 6 0 10 -13 10 -30 0 -16 -4 -30 -10 -30
-5 0 -10 -7 -10 -15 0 -8 5 -15 10 -15 6 0 10 -13 10 -30 0 -16 -4 -30 -10
-30 -5 0 -10 -7 -10 -15 0 -8 5 -15 10 -15 18 0 11 -57 -7 -65 -17 -6 -17 -7
0 -19 9 -7 17 -25 17 -39 0 -14 -7 -28 -17 -32 -17 -6 -17 -7 0 -19 9 -7 17
-25 17 -39 0 -14 -7 -28 -17 -32 -17 -6 -17 -7 0 -19 20 -15 23 -62 5 -69 -17
-6 3 -42 23 -42 12 0 14 59 17 348 2 303 0 348 -13 353 -8 4 -15 14 -15 25 0
10 -17 30 -37 44 l-38 25 -1035 -1 -1035 0 -36 -24z"/>
<path d="M327 913 c-3 -5 26 -38 63 -76 38 -37 71 -64 73 -60 3 5 -26 38 -63
76 -38 37 -71 64 -73 60z"/>
<path d="M416 913 c-7 -8 92 -106 103 -101 5 2 -15 26 -44 55 -29 29 -55 50
-59 46z"/>
<path d="M507 913 c-7 -11 41 -58 50 -50 3 4 -6 18 -20 32 -14 14 -28 22 -30
18z"/>
<path d="M597 913 c-3 -5 5 -19 18 -31 13 -12 26 -19 28 -15 3 5 -5 19 -18 31
-13 12 -26 19 -28 15z"/>
<path d="M687 913 c-7 -11 41 -58 50 -50 3 4 -6 18 -20 32 -14 14 -28 22 -30
18z"/>
<path d="M776 912 c-3 -6 -1 -14 5 -17 15 -10 25 3 12 16 -7 7 -13 7 -17 1z"/>
<path d="M867 913 c-7 -11 41 -58 50 -50 3 4 -6 18 -20 32 -14 14 -28 22 -30
18z"/>
<path d="M957 913 c-3 -4 47 -59 109 -121 63 -63 114 -109 114 -102 0 15 -217
233 -223 223z"/>
<path d="M1047 913 c-3 -5 26 -38 63 -76 38 -37 71 -64 73 -60 3 5 -26 38 -63
76 -38 37 -71 64 -73 60z"/>
<path d="M1137 913 c-7 -11 41 -58 50 -50 3 4 -6 18 -20 32 -14 14 -28 22 -30
18z"/>
<path d="M1317 913 c-4 -3 32 -44 79 -91 46 -46 87 -82 91 -79 3 4 -33 45 -79
91 -47 47 -88 83 -91 79z"/>
<path d="M1407 913 c-3 -5 33 -45 78 -91 46 -45 86 -79 88 -75 3 5 -33 45 -78
91 -46 45 -86 79 -88 75z"/>
<path d="M1490 914 c0 -12 141 -147 147 -141 3 4 -26 38 -65 77 -66 66 -82 78
-82 64z"/>
<path d="M1587 913 c-4 -3 32 -44 79 -91 46 -46 87 -82 91 -79 3 4 -33 45 -79
91 -47 47 -88 83 -91 79z"/>
<path d="M1677 913 c-3 -5 33 -45 78 -91 46 -45 86 -79 88 -75 3 5 -33 45 -78
91 -46 45 -86 79 -88 75z"/>
<path d="M1760 914 c0 -12 231 -237 237 -231 6 6 -219 237 -231 237 -3 0 -6
-3 -6 -6z"/>
<path d="M1857 913 c-4 -3 106 -118 244 -256 137 -137 252 -247 256 -244 3 4
-107 119 -244 256 -138 138 -253 248 -256 244z"/>
<path d="M1947 913 c-3 -5 87 -99 198 -211 112 -111 206 -199 208 -195 3 5
-87 99 -198 211 -112 111 -206 199 -208 195z"/>
<path d="M2037 913 c-3 -5 67 -79 153 -166 87 -86 161 -154 163 -150 3 5 -67
79 -153 166 -87 86 -161 154 -163 150z"/>
<path d="M2127 913 c-3 -5 46 -59 108 -121 63 -62 116 -109 118 -105 3 5 -46
59 -108 121 -63 62 -116 109 -118 105z"/>
<path d="M2217 913 c-3 -5 26 -38 63 -76 38 -37 71 -64 73 -60 3 5 -26 38 -63
76 -38 37 -71 64 -73 60z"/>
<path d="M260 884 c0 -11 161 -166 167 -161 5 6 -150 167 -161 167 -3 0 -6 -3
-6 -6z"/>
<path d="M207 853 c-3 -4 40 -52 94 -106 55 -55 99 -94 99 -87 0 15 -187 203
-193 193z"/>
<path d="M1200 846 c0 -9 5 -16 10 -16 13 0 13 -57 1 -64 -5 -4 -3 -20 6 -37
14 -27 14 -33 0 -46 -13 -13 -13 -18 0 -45 14 -27 14 -32 0 -45 -13 -13 -13
-18 0 -45 14 -27 14 -32 0 -45 -13 -13 -13 -18 0 -45 14 -27 14 -32 0 -45 -13
-13 -13 -18 1 -45 14 -28 13 -32 -2 -43 -17 -13 -22 -35 -7 -35 16 0 20 -40 5
-54 -19 -19 -18 -32 4 -41 21 -8 28 -5 24 11 -1 6 4 17 12 23 12 10 12 16 -1
42 -14 27 -14 33 0 46 13 13 13 18 0 45 -14 27 -14 32 0 45 13 14 13 18 -2 44
-15 26 -15 30 0 45 15 14 15 19 2 46 -14 27 -14 32 0 45 13 13 13 18 0 45 -14
26 -13 31 3 49 12 13 15 23 7 27 -19 13 -24 48 -8 62 10 8 12 17 6 24 -5 6
-11 22 -13 36 -4 29 -48 43 -48 16z"/>
<path d="M1287 853 c-3 -5 33 -45 78 -91 46 -45 86 -79 88 -75 3 5 -33 45 -78
91 -46 45 -86 79 -88 75z"/>
<path d="M207 763 c-4 -3 32 -44 79 -91 46 -46 87 -82 91 -79 3 4 -33 45 -79
91 -47 47 -88 83 -91 79z"/>
<path d="M1290 760 c0 -15 129 -145 137 -137 3 4 -26 38 -66 78 -39 39 -71 66
-71 59z"/>
<path d="M563 712 c-35 -30 -68 -112 -59 -148 7 -28 70 -93 121 -126 49 -31
82 -67 87 -93 5 -32 44 -31 56 2 15 39 27 52 107 112 79 59 94 80 95 133 0 73
-61 148 -122 148 -29 0 -78 -35 -78 -55 0 -16 -35 -29 -50 -20 -5 3 -10 12
-10 19 0 7 -10 22 -23 34 -33 31 -84 29 -124 -6z m247 -139 c-1 -20 -38 -53
-66 -59 -25 -5 -37 -1 -53 15 -39 39 -28 51 49 51 39 0 70 -3 70 -7z"/>
<path d="M1852 729 c2 -7 10 -15 17 -17 8 -3 12 1 9 9 -2 7 -10 15 -17 17 -8
3 -12 -1 -9 -9z"/>
<path d="M1070 704 c0 -3 25 -31 55 -61 30 -30 55 -50 55 -44 0 7 -22 34 -49
62 -46 46 -61 57 -61 43z"/>
<path d="M207 673 c-3 -5 53 -65 123 -136 71 -70 131 -124 133 -120 3 5 -53
65 -123 136 -71 70 -131 124 -133 120z"/>
<path d="M1290 670 c0 -15 129 -145 137 -137 3 4 -26 38 -66 78 -39 39 -71 66
-71 59z"/>
<path d="M1518 654 c-39 -12 -2 -50 38 -40 14 4 34 4 45 1 21 -7 26 -44 7 -46
-7 -1 -24 -2 -38 -2 -36 -3 -41 -37 -5 -37 43 0 65 -17 65 -50 0 -27 -3 -30
-32 -31 -18 -1 -46 0 -61 1 -25 1 -28 -2 -25 -22 3 -21 9 -23 63 -26 58 -3 62
-1 84 28 18 25 21 39 17 65 -4 18 -14 36 -23 39 -14 6 -14 8 1 24 19 22 20 51
2 75 -14 19 -102 32 -138 21z"/>
<path d="M1795 645 c-35 -18 -67 -53 -60 -65 3 -5 21 -6 39 -3 l34 5 0 -63
c-1 -35 -6 -70 -11 -78 -9 -10 -6 -17 8 -27 47 -35 54 -18 51 131 -3 121 -7
128 -61 100z"/>
<path d="M1990 555 c0 -43 -1 -44 -35 -51 -55 -10 -41 -44 19 -44 17 0 22 -6
21 -27 0 -18 6 -29 18 -31 13 -3 17 3 17 23 0 16 7 28 18 31 56 18 64 24 52
39 -7 9 -24 14 -39 13 -24 -3 -26 0 -23 31 3 36 -12 61 -34 61 -10 0 -14 -13
-14 -45z"/>
<path d="M207 583 c-3 -5 94 -106 214 -226 119 -119 220 -214 222 -210 3 5
-94 106 -214 226 -119 119 -220 214 -222 210z"/>
<path d="M1107 583 c-3 -4 13 -25 34 -47 21 -21 39 -33 39 -27 0 17 -67 84
-73 74z"/>
<path d="M1290 580 c0 -15 127 -143 133 -133 3 4 -26 39 -64 76 -38 38 -69 64
-69 57z"/>
<path d="M1077 523 c-3 -5 19 -32 48 -61 30 -29 56 -49 58 -45 3 5 -19 32 -48
61 -30 29 -56 49 -58 45z"/>
<path d="M207 493 c-3 -5 73 -86 168 -181 96 -95 176 -169 178 -165 3 5 -73
86 -168 181 -96 95 -176 169 -178 165z"/>
<path d="M1290 490 c0 -15 337 -353 343 -343 3 5 -74 86 -169 181 -96 96 -174
169 -174 162z"/>
<path d="M2187 493 c-4 -3 32 -44 79 -91 46 -46 87 -82 91 -79 3 4 -33 45 -79
91 -47 47 -88 83 -91 79z"/>
<path d="M1047 463 c-3 -5 26 -38 63 -76 38 -37 71 -64 73 -60 3 5 -26 38 -63
76 -38 37 -71 64 -73 60z"/>
<path d="M2157 433 c-3 -5 39 -52 93 -106 54 -53 101 -94 103 -90 3 5 -39 52
-93 106 -54 53 -101 94 -103 90z"/>
<path d="M207 403 c-4 -3 52 -64 124 -136 71 -71 132 -127 136 -124 3 4 -53
65 -124 136 -72 72 -133 128 -136 124z"/>
<path d="M1010 404 c0 -12 167 -173 173 -167 6 6 -155 173 -167 173 -3 0 -6
-3 -6 -6z"/>
<path d="M1290 400 c0 -15 247 -263 253 -253 3 4 -53 66 -124 136 -71 71 -129
124 -129 117z"/>
<path d="M2100 394 c0 -11 217 -223 223 -217 6 6 -206 223 -217 223 -3 0 -6
-3 -6 -6z"/>
<path d="M957 373 c-3 -5 46 -59 108 -121 63 -62 116 -109 118 -105 3 5 -46
59 -108 121 -63 62 -116 109 -118 105z"/>
<path d="M1707 343 c-4 -3 39 -51 94 -106 55 -55 102 -97 106 -94 3 4 -39 51
-94 106 -55 55 -103 98 -106 94z"/>
<path d="M1880 344 c0 -12 197 -203 203 -197 6 6 -185 203 -197 203 -3 0 -6
-3 -6 -6z"/>
<path d="M2060 344 c0 -12 197 -203 203 -197 6 6 -185 203 -197 203 -3 0 -6
-3 -6 -6z"/>
<path d="M207 313 c-3 -5 33 -45 78 -91 46 -45 86 -79 88 -75 3 5 -33 45 -78
91 -46 45 -86 79 -88 75z"/>
<path d="M927 313 c-3 -5 33 -45 78 -91 46 -45 86 -79 88 -75 3 5 -33 45 -78
91 -46 45 -86 79 -88 75z"/>
<path d="M1290 310 c0 -15 157 -173 163 -163 3 4 -33 46 -79 91 -46 46 -84 79
-84 72z"/>
<path d="M1640 314 c0 -12 167 -173 173 -167 6 6 -155 173 -167 173 -3 0 -6
-3 -6 -6z"/>
<path d="M1827 313 c-3 -5 33 -45 78 -91 46 -45 86 -79 88 -75 3 5 -33 45 -78
91 -46 45 -86 79 -88 75z"/>
<path d="M2000 314 c0 -12 167 -173 173 -167 6 6 -155 173 -167 173 -3 0 -6
-3 -6 -6z"/>
<path d="M1632 226 c45 -46 87 -82 91 -79 10 6 -148 163 -163 163 -7 0 26 -38
72 -84z"/>
<path d="M590 284 c0 -12 137 -143 143 -137 4 3 -25 37 -62 74 -65 65 -81 77
-81 63z"/>
<path d="M867 283 c-3 -5 26 -38 63 -76 38 -37 71 -64 73 -60 3 5 -26 38 -63
76 -38 37 -71 64 -73 60z"/>
<path d="M207 223 c-3 -5 5 -19 18 -31 13 -12 26 -19 28 -15 3 5 -5 19 -18 31
-13 12 -26 19 -28 15z"/>
<path d="M830 224 c0 -12 77 -83 83 -77 4 3 -11 23 -32 44 -37 37 -51 46 -51
33z"/>
<path d="M1287 223 c-3 -5 12 -25 33 -46 21 -21 41 -34 43 -30 3 5 -12 25 -33
46 -21 21 -41 34 -43 30z"/>
<path d="M770 193 c0 -13 47 -53 53 -46 4 3 -4 16 -16 29 -22 24 -37 30 -37
17z"/>
</g>
</svg>
