<svg height="512pt" viewBox="0 -16 512.00012 512" width="512pt" xmlns="http://www.w3.org/2000/svg"><path d="m293.273438 135.921875h-96.636719l-74.941407 291.996094c-2.066406 7.460937 3.546876 14.835937 11.289063 14.835937h223.941406c7.742188 0 13.355469-7.375 11.289063-14.835937zm0 0" fill="#fa503c"/><path d="m269.777344 480.0625c-11.398438 0-20.640625-9.238281-20.640625-20.636719v-164.957031c0-11.398438 9.242187-20.640625 20.640625-20.640625 11.394531 0 20.636718 9.242187 20.636718 20.640625v164.957031c0 11.398438-9.238281 20.636719-20.636718 20.636719zm0 0" fill="#414b82"/><path d="m219.957031 480.0625c-11.398437 0-20.636719-9.238281-20.636719-20.636719v-164.957031c0-11.398438 9.238282-20.640625 20.636719-20.640625 11.394531 0 20.636719 9.242187 20.636719 20.640625v164.957031c0 11.398438-9.242188 20.636719-20.636719 20.636719zm0 0" fill="#5f6e9b"/><path d="m357.839844 197.183594-34.125-49.113282c-8.011719-11.53125-21.183594-18.417968-35.226563-18.417968-13.351562 0-74.058593 0-87.085937 0-14.847656 0-28.878906 7.878906-36.613282 20.554687l-32.855468 53.847657c-4.644532 7.613281-2.703125 17.507812 4.472656 22.800781l41.882812 30.886719c6.476563 4.777343 15.117188 4.300781 21.03125-.5v37.222656h91.09375v-35.640625c.980469 1.929687 2.339844 3.707031 4.078126 5.207031 7.214843 6.226562 18.070312 5.378906 24.253906-1.785156l37.988281-44.011719c5.128906-5.945313 5.582031-14.605469 1.105469-21.050781zm-159.136719 32.875-29.203125-21.535156 24.648438-40.402344c.019531-.027344.035156-.054688.054687-.082032 1.464844-2.339843 5.117187-1.210937 5.117187 1.550782v60.972656c-.207031-.167969-.402343-.34375-.617187-.503906zm94.003906 9.714844c-.925781 1.074218-1.675781 2.238281-2.292969 3.445312v-73.882812c0-2.675782 3.472657-3.875 5.015626-1.6875.011718.015624.023437.035156.035156.050781l26.515625 38.15625zm0 0" fill="#64afff"/><path d="m53.035156 443.351562c-10.542968 0-19.089844-8.546874-19.089844-19.089843v-152.589844c0-10.542969 8.546876-19.09375 19.089844-19.09375 10.542969 0 19.089844 8.550781 19.089844 19.09375v152.589844c0 10.542969-8.546875 19.089843-19.089844 19.089843zm0 0" fill="#748488"/><path d="m99.09375 443.3125c-10.542969 0-19.089844-8.546875-19.089844-19.089844v-152.59375c0-10.542968 8.546875-19.089844 19.089844-19.089844s19.089844 8.546876 19.089844 19.089844v152.59375c0 10.542969-8.546875 19.089844-19.089844 19.089844zm0 0" fill="#55696e"/><path d="m112.132812 94.96875c0 18.210938-14.761718 32.972656-32.972656 32.972656-18.210937 0-32.972656-14.761718-32.972656-32.972656s14.761719-32.972656 32.972656-32.972656c18.210938 0 32.972656 14.761718 32.972656 32.972656zm0 0" fill="#ba6746"/><path d="m172.480469 16.570312c-7.777344-2.289062-15.941407 2.152344-18.234375 9.933594l-19.195313 65.105469-38.148437 43.511719h-37.894532l-29.417968-40.699219 3.339844-71.230469c.378906-8.101562-5.878907-14.972656-13.980469-15.355468-8.109375-.386719-14.972657 5.878906-15.351563 13.980468l-3.582031 76.359375c-.15625 3.320313.820313 6.59375 2.769531 9.289063l31.152344 43.097656v121.109375h84.265625v-116.304687l41.058594-46.824219c1.402343-1.601563 2.441406-3.488281 3.039062-5.527344l20.113281-68.207031c2.292969-7.78125-2.15625-15.945313-9.933593-18.238282zm0 0" fill="#ffda52"/><path d="m182.414062 34.804688c2.292969-7.777344-2.15625-15.941407-9.933593-18.234376-7.773438-2.289062-15.941407 2.152344-18.230469 9.933594zm0 0" fill="#ba6746"/><path d="m32.929688 23.191406c.378906-8.101562-5.878907-14.976562-13.980469-15.355468-8.113281-.386719-14.972657 5.878906-15.351563 13.976562zm0 0" fill="#ba6746"/><path d="m402.132812 444.234375c-10.542968 0-19.089843-8.546875-19.089843-19.089844v-152.59375c0-10.542969 8.546875-19.089843 19.089843-19.089843 10.542969 0 19.089844 8.546874 19.089844 19.089843v152.59375c0 10.542969-8.546875 19.089844-19.089844 19.089844zm0 0" fill="#748488"/><path d="m448.203125 444.21875c-10.542969 0-19.089844-8.546875-19.089844-19.089844v-152.59375c0-10.542968 8.546875-19.089844 19.089844-19.089844 10.546875 0 19.09375 8.546876 19.09375 19.089844v152.59375c0 10.542969-8.546875 19.089844-19.09375 19.089844zm0 0" fill="#55696e"/><path d="m511.855469 97.695312-11.980469-85.058593c-1.132812-8.027344-8.546875-13.625-16.585938-12.492188-8.03125 1.132813-13.621093 8.558594-12.488281 16.585938l11.039063 78.394531-35.839844 40.875h-41.152344l-52.527344-24.933594 6.023438-69.367187c.699219-8.078125-5.28125-15.195313-13.359375-15.898438-8.0625-.699219-15.195313 5.277344-15.898437 13.355469l-6.902344 79.53125c-.53125 6.109375 2.789062 11.902344 8.332031 14.535156l52.519531 24.929688v114.398437h84.265625v-116.304687l41.054688-46.824219c2.820312-3.214844 4.097656-7.496094 3.5-11.726563zm0 0" fill="#fa503c"/><path d="m499.875 12.636719c-1.132812-8.027344-8.546875-13.625-16.585938-12.492188-8.03125 1.132813-13.621093 8.558594-12.488281 16.585938zm0 0" fill="#80391b"/><path d="m358.34375 41.699219c.699219-8.078125-5.28125-15.195313-13.359375-15.898438-8.0625-.699219-15.191406 5.277344-15.894531 13.359375zm0 0" fill="#80391b"/><path d="m402.132812 444.234375c-10.542968 0-19.089843-8.546875-19.089843-19.089844v-152.59375c0-10.542969 8.546875-19.089843 19.089843-19.089843 10.542969 0 19.089844 8.546874 19.089844 19.089843v152.59375c0 10.542969-8.546875 19.089844-19.089844 19.089844zm0 0" fill="#748488"/><path d="m448.203125 444.21875c-10.542969 0-19.089844-8.546875-19.089844-19.089844v-152.59375c0-10.542968 8.546875-19.089844 19.089844-19.089844 10.546875 0 19.09375 8.546876 19.09375 19.089844v152.59375c0 10.542969-8.546875 19.089844-19.09375 19.089844zm0 0" fill="#55696e"/><path d="m458.3125 95.851562c0 18.210938-14.761719 32.972657-32.972656 32.972657-18.207032 0-32.972656-14.761719-32.972656-32.972657 0-18.210937 14.765624-32.972656 32.972656-32.972656 18.210937 0 32.972656 14.761719 32.972656 32.972656zm0 0" fill="#80391b"/><path d="m511.855469 97.695312-11.980469-85.058593c-1.132812-8.027344-8.546875-13.625-16.585938-12.492188-8.03125 1.132813-13.621093 8.558594-12.488281 16.585938l11.039063 78.394531-35.839844 40.875h-41.152344l-52.527344-24.933594 6.023438-69.367187c.699219-8.078125-5.28125-15.195313-13.359375-15.898438-8.0625-.699219-15.195313 5.277344-15.898437 13.355469l-6.902344 79.53125c-.53125 6.109375 2.789062 11.902344 8.332031 14.535156l52.519531 24.929688v114.398437h84.265625v-116.304687l41.054688-46.824219c2.820312-3.214844 4.097656-7.496094 3.5-11.726563zm0 0" fill="#fa503c"/><path d="m499.875 12.636719c-1.132812-8.027344-8.546875-13.625-16.585938-12.492188-8.03125 1.132813-13.621093 8.558594-12.488281 16.585938zm0 0" fill="#80391b"/><path d="m358.34375 41.699219c.699219-8.078125-5.28125-15.195313-13.359375-15.898438-8.0625-.699219-15.191406 5.277344-15.894531 13.359375zm0 0" fill="#80391b"/><path d="m280.597656 85.644531c0 19.6875-15.957031 35.644531-35.644531 35.644531-19.683594 0-35.644531-15.957031-35.644531-35.644531 0-19.683593 15.960937-35.640625 35.644531-35.640625 19.6875 0 35.644531 15.957032 35.644531 35.640625zm0 0" fill="#ffac91"/><path d="m265.992188 177.160156c0 11.617188-9.417969 21.035156-21.039063 21.035156-11.617187 0-21.035156-9.417968-21.035156-21.035156 0-11.621094 9.417969-21.039062 21.035156-21.039062 11.621094 0 21.039063 9.417968 21.039063 21.039062zm0 0" fill="#fff"/><path d="m198.703125 230.058594-20.414063 27.683594c7.691407 5.671874 18.449219 3.960937 24.046876-3.632813 5.636718-7.644531 4.011718-18.414063-3.632813-24.050781zm0 0" fill="#ffac91"/><path d="m292.707031 239.773438c-6.207031 7.191406-5.40625 18.050781 1.785157 24.257812 7.214843 6.226562 18.070312 5.378906 24.253906-1.785156zm0 0" fill="#ffac91"/><path d="m78.285156 150.46875c8.375 0 15.167969-6.789062 15.167969-15.164062 0-.0625-.011719-.121094-.011719-.183594h-30.3125c0 .0625-.007812.121094-.007812.183594 0 8.375 6.789062 15.164062 15.164062 15.164062zm0 0" fill="#ba6746"/><path d="m425.796875 152.480469c8.949219 0 16.203125-7.253907 16.203125-16.203125 0-.09375-.011719-.183594-.011719-.277344h-32.386719c0 .09375-.011718.183594-.011718.277344 0 8.949218 7.253906 16.203125 16.207031 16.203125zm0 0" fill="#80391b"/></svg>