<?xml version="1.0" standalone="no"?>
<!DOCTYPE svg PUBLIC "-//W3C//DTD SVG 20010904//EN"
 "http://www.w3.org/TR/2001/REC-SVG-20010904/DTD/svg10.dtd">
<svg version="1.0" xmlns="http://www.w3.org/2000/svg"
 width="156.000000pt" height="99.000000pt" viewBox="0 0 156.000000 99.000000"
 preserveAspectRatio="xMidYMid meet">
<metadata>
Created by potrace 1.10, written by Peter Selinger 2001-2011
</metadata>
<g transform="translate(0.000000,99.000000) scale(0.100000,-0.100000)"
fill="#cdcdcd" fill-rule="evenodd" stroke="none">
<path d="M163 775 c-23 -22 -23 -25 -23 -302 l0 -279 28 -27 28 -27 575 0 575
0 27 28 27 28 0 274 0 274 -27 28 -27 28 -580 -1 -581 -1 -22 -23z m1181 -37
c13 -26 16 -72 16 -272 -1 -224 -2 -243 -20 -264 l-20 -24 -549 0 c-498 1
-552 2 -575 17 l-26 17 0 254 0 253 25 26 26 25 554 0 554 0 15 -32z"/>
<path d="M785 658 c-11 -6 -25 -19 -31 -27 -7 -9 -25 -31 -40 -49 -28 -32 -29
-35 -29 -149 l1 -116 114 -1 c136 -2 150 6 150 79 0 24 7 63 16 85 15 38 15
42 -1 60 -16 17 -26 19 -91 13 -70 -6 -74 -5 -74 14 0 11 7 26 16 33 16 14 16
61 -1 66 -5 2 -19 -2 -30 -8z"/>
<path d="M577 542 c-14 -15 -17 -40 -17 -120 0 -93 2 -101 21 -107 11 -4 31
-4 43 -1 23 6 23 9 21 114 -1 60 -5 114 -9 120 -11 18 -41 15 -59 -6z"/>
</g>
</svg>
