<?xml version="1.0" encoding="iso-8859-1"?>
<!-- Generator: Adobe Illustrator 19.1.0, SVG Export Plug-In . SVG Version: 6.00 Build 0)  -->
<svg xmlns="http://www.w3.org/2000/svg" xmlns:xlink="http://www.w3.org/1999/xlink" version="1.1" id="Capa_1" x="0px" y="0px" viewBox="0 0 333.842 333.842" style="enable-background:new 0 0 333.842 333.842;" xml:space="preserve" width="28px" height="28px">
<g>
	<path d="M166.911,333.835C74.879,333.835,0,258.963,0,166.931C0,74.892,74.873,0.006,166.911,0.006   c92.045,0,166.931,74.879,166.931,166.924C333.835,258.963,258.956,333.835,166.911,333.835z M166.911,12.867   c-84.95,0-154.058,69.114-154.058,154.07c0,84.95,69.108,154.051,154.058,154.051c84.956,0,154.077-69.101,154.077-154.051   C320.982,81.974,251.868,12.867,166.911,12.867z M205.672,97.341c-10.656,0-19.293,8.625-19.293,19.293   c0,10.643,8.638,19.293,19.293,19.293s19.293-8.651,19.293-19.293C224.965,105.966,216.327,97.341,205.672,97.341z M125.336,97.341   c-10.656,0-19.293,8.625-19.293,19.293c0,10.643,8.638,19.293,19.293,19.293s19.293-8.651,19.293-19.293   C144.629,105.966,135.992,97.341,125.336,97.341z M244.875,201.501c-14.396-3.4-30.797-24.216-46.106-26.434   c-19.409-2.147-28.58,6.324-31.845,14.55c-3.271-8.22-12.455-16.697-31.851-14.55c-15.302,2.224-31.71,23.034-46.113,26.434   c-14.403,3.4-22.61-9.402-22.61-9.402s11.607,43.002,53.812,42.803c31.813-0.148,43.175-16.999,46.755-28.291   c3.573,11.298,14.93,28.143,46.742,28.291c42.205,0.199,53.812-42.803,53.812-42.803S259.278,204.9,244.875,201.501z" fill="#FFFFFF"/>
</g>
<g>
</g>
<g>
</g>
<g>
</g>
<g>
</g>
<g>
</g>
<g>
</g>
<g>
</g>
<g>
</g>
<g>
</g>
<g>
</g>
<g>
</g>
<g>
</g>
<g>
</g>
<g>
</g>
<g>
</g>
</svg>
