<?xml version="1.0" encoding="utf-8"?>
<!-- Generator: Adobe Illustrator 21.0.0, SVG Export Plug-In . SVG Version: 6.00 Build 0)  -->
<svg xmlns="http://www.w3.org/2000/svg" xmlns:xlink="http://www.w3.org/1999/xlink" version="1.1" id="Layer_1" x="0px" y="0px" viewBox="0 0 256 256" style="enable-background:new 0 0 256 256;" xml:space="preserve" width="512" height="512">
<style type="text/css">
	.st0{fill:#FFCD29;}
	.st1{fill:#FFAE2C;}
	.st2{fill:#FC9322;}
	.st3{fill:#55ACD5;}
	.st4{fill:#EA4647;}
	.st5{fill:#6DCC6D;}
	.st6{fill:#231F20;}
</style>
<g id="Layer_14">
	<path class="st0" d="M182.8,142.8c0.6-0.6,0.6-1.5,0-2.1c-0.2-0.2-0.5-0.4-0.8-0.4l-35.6-5.2c-0.5-0.1-0.9-0.4-1.1-0.8L129.3,102   c-0.4-0.7-1.2-1-2-0.7c-0.3,0.1-0.5,0.4-0.7,0.7l-15.9,32.3c-0.2,0.4-0.6,0.7-1.1,0.8L74,140.3c-0.8,0.1-1.3,0.9-1.2,1.7   c0,0.3,0.2,0.6,0.4,0.8L99,167.9c0.3,0.3,0.5,0.8,0.4,1.3l-6.1,35.5c-0.1,0.8,0.4,1.5,1.2,1.7c0.3,0.1,0.6,0,0.9-0.1l31.9-16.8   c0.4-0.2,0.9-0.2,1.4,0l31.9,16.8c0.7,0.4,1.6,0.1,2-0.6c0.1-0.3,0.2-0.6,0.1-0.9l-6.1-35.5c-0.1-0.5,0.1-1,0.4-1.3L182.8,142.8z"/>
	<path class="st1" d="M236,137.2c0.5-0.5,0.5-1.2,0-1.7c-0.2-0.2-0.4-0.3-0.7-0.3l-28.6-4.2c-0.4-0.1-0.7-0.3-0.9-0.6L193,104.5   c-0.3-0.6-1-0.8-1.6-0.5c-0.2,0.1-0.4,0.3-0.5,0.5l-12.8,25.9c-0.2,0.3-0.5,0.6-0.9,0.6l-28.6,4.2c-0.1,0-0.3,0.1-0.4,0.1l33.7,4.9   c0.8,0.1,1.3,0.9,1.2,1.7c0,0.3-0.2,0.6-0.4,0.8l-14.5,14.2l0.5,0.5c0.3,0.3,0.4,0.7,0.3,1l-4.9,28.5c-0.1,0.6,0.3,1.2,1,1.4   c0.3,0,0.5,0,0.7-0.1l25.6-13.5c0.3-0.2,0.7-0.2,1.1,0l25.6,13.5c0.6,0.3,1.3,0.1,1.6-0.5c0.1-0.2,0.2-0.5,0.1-0.7l-4.9-28.5   c-0.1-0.4,0.1-0.8,0.3-1L236,137.2z"/>
	<path class="st1" d="M86.9,158.4c-0.1-0.4,0.1-0.8,0.3-1l0.5-0.5l-14.5-14.2c-0.6-0.6-0.6-1.5,0-2.1c0.2-0.2,0.5-0.4,0.8-0.4   l33.7-4.9c-0.1-0.1-0.2-0.1-0.4-0.1l-28.6-4.2c-0.4-0.1-0.7-0.3-0.9-0.6L65,104.5c-0.3-0.6-1-0.8-1.6-0.5c-0.2,0.1-0.4,0.3-0.5,0.5   l-12.8,25.9c-0.2,0.3-0.5,0.6-0.9,0.6l-28.6,4.2c-0.6,0.1-1.1,0.7-1,1.3c0,0.3,0.2,0.5,0.3,0.7l20.7,20.2c0.3,0.3,0.4,0.7,0.3,1   l-4.9,28.5c-0.1,0.6,0.3,1.2,1,1.4c0.3,0,0.5,0,0.7-0.1l25.6-13.5c0.3-0.2,0.7-0.2,1.1,0l25.6,13.5c0.6,0.3,1.3,0.1,1.6-0.5   c0.1-0.2,0.2-0.5,0.1-0.7L86.9,158.4z"/>
	<path class="st2" d="M253.3,122.6c0.3-0.3,0.3-0.8,0-1.1c-0.1-0.1-0.3-0.2-0.4-0.2l-18.4-2.7c-0.2,0-0.5-0.2-0.6-0.4l-8.2-16.6   c-0.2-0.4-0.6-0.5-1-0.3c-0.1,0.1-0.3,0.2-0.3,0.3l-8.2,16.6c-0.1,0.2-0.3,0.4-0.6,0.4l-14.5,2.1l4.8,9.7c0.2,0.3,0.5,0.6,0.9,0.6   l28.6,4.2c0.6,0.1,1.1,0.7,1,1.3c0,0.3-0.2,0.5-0.3,0.7l-10,9.8l15.8,8.3c0.4,0.2,0.8,0.1,1-0.3c0.1-0.1,0.1-0.3,0.1-0.5l-3.1-18.3   c0-0.2,0-0.5,0.2-0.7L253.3,122.6z"/>
	<path class="st2" d="M40.4,118.7c-0.2,0-0.5-0.2-0.6-0.4l-8.2-16.6c-0.2-0.4-0.6-0.5-1-0.3c-0.1,0.1-0.3,0.2-0.3,0.3l-8.2,16.6   c-0.1,0.2-0.3,0.4-0.6,0.4l-18.4,2.7c-0.4,0.1-0.7,0.4-0.6,0.9c0,0.2,0.1,0.3,0.2,0.4l13.3,13c0.2,0.2,0.3,0.4,0.2,0.7l-3.1,18.3   c-0.1,0.4,0.2,0.8,0.6,0.9c0.2,0,0.3,0,0.5-0.1L30,147l-10-9.8c-0.5-0.5-0.5-1.2,0-1.7c0.2-0.2,0.4-0.3,0.7-0.3l28.6-4.2   c0.4-0.1,0.7-0.3,0.9-0.6l4.8-9.7L40.4,118.7z"/>
	<path class="st3" d="M60.3,203.3h-1.8v-1.8c0-1.4-1.1-2.5-2.5-2.5s-2.5,1.1-2.5,2.5v1.8h-1.8c-1.4,0-2.5,1.1-2.5,2.5   s1.1,2.5,2.5,2.5h1.8v1.8c0,1.4,1.1,2.5,2.5,2.5s2.5-1.1,2.5-2.5v-1.8h1.8c1.4,0,2.5-1.1,2.5-2.5S61.7,203.3,60.3,203.3z"/>
	<path class="st4" d="M117.6,217c-0.1-0.3-0.2-0.6-0.4-0.9c-0.1-0.1-0.2-0.3-0.3-0.4c-1-0.9-2.5-0.9-3.5,0c-0.1,0.1-0.2,0.2-0.3,0.4   c-0.1,0.1-0.2,0.3-0.2,0.4c-0.1,0.2-0.1,0.3-0.1,0.5c-0.1,0.3-0.1,0.7,0,1c0,0.2,0.1,0.3,0.1,0.5c0.1,0.1,0.1,0.3,0.2,0.4   c0.1,0.1,0.2,0.3,0.3,0.4c1,1,2.5,1,3.5,0c0,0,0,0,0,0c0.1-0.1,0.2-0.2,0.3-0.4c0.1-0.1,0.2-0.3,0.2-0.4c0.1-0.1,0.1-0.3,0.1-0.5   C117.7,217.7,117.7,217.3,117.6,217z"/>
	<path class="st0" d="M159.6,17.4c-0.1-0.3-0.2-0.6-0.4-0.9c-0.1-0.1-0.2-0.3-0.3-0.4c-1-0.9-2.5-0.9-3.5,0   c-0.1,0.1-0.2,0.2-0.3,0.4c-0.1,0.1-0.2,0.3-0.2,0.4c-0.1,0.2-0.1,0.3-0.1,0.5c-0.1,0.3-0.1,0.7,0,1c0,0.2,0.1,0.3,0.1,0.5   c0.1,0.1,0.1,0.3,0.2,0.4c0.1,0.1,0.2,0.3,0.3,0.4c1,1,2.5,1,3.5,0c0,0,0,0,0,0c0.1-0.1,0.2-0.2,0.3-0.4c0.1-0.1,0.2-0.3,0.2-0.4   c0.1-0.1,0.1-0.3,0.1-0.5C159.7,18,159.7,17.7,159.6,17.4z"/>
	<path class="st5" d="M192.3,34.9c-4.1-0.8-7.2-4-8-8c0-0.1-0.1-0.2-0.2-0.2c-0.1,0-0.1,0.1-0.2,0.2c-0.8,4.1-4,7.2-8,8   c-0.1,0-0.2,0.1-0.2,0.2c0,0.1,0.1,0.1,0.2,0.2c4.1,0.8,7.2,4,8,8c0,0.1,0.1,0.2,0.2,0.2c0.1,0,0.1-0.1,0.2-0.2c0.8-4.1,4-7.2,8-8   c0.1,0,0.2-0.1,0.2-0.2C192.5,35,192.4,34.9,192.3,34.9z"/>
	<path class="st0" d="M97.3,232.1c-4.1-0.8-7.2-4-8-8c0-0.1-0.1-0.2-0.2-0.2c-0.1,0-0.1,0.1-0.2,0.2c-0.8,4.1-4,7.2-8,8   c-0.1,0-0.2,0.1-0.2,0.2c0,0.1,0.1,0.1,0.2,0.2c4.1,0.8,7.2,4,8,8c0,0.1,0.1,0.2,0.2,0.2c0.1,0,0.1-0.1,0.2-0.2c0.8-4.1,4-7.2,8-8   c0.1,0,0.2-0.1,0.2-0.2C97.4,232.2,97.4,232.1,97.3,232.1z"/>
	<path class="st6" d="M185.5,140.5c-0.5-1.4-1.7-2.5-3.2-2.7l-35.1-5.1l-15.7-31.8l0,0c-0.7-1.4-2-2.2-3.5-2.2l0,0   c-1.5,0-2.9,0.9-3.5,2.2l-15.7,31.8l-35.1,5.1c-2.2,0.3-3.7,2.3-3.3,4.5c0.1,0.9,0.5,1.7,1.2,2.3l25.4,24.7l-6,34.9   c-0.4,2.2,1.1,4.2,3.2,4.6c0.9,0.1,1.7,0,2.5-0.4l31.4-16.5l31.4,16.5c1.9,1,4.3,0.3,5.3-1.7c0.4-0.8,0.5-1.7,0.4-2.5l-6-34.9   l25.4-24.7C185.6,143.5,186,141.9,185.5,140.5z M155.2,166.1c-0.9,0.9-1.4,2.2-1.1,3.5l5.7,33.4l-30-15.8c-1.2-0.6-2.5-0.6-3.7,0   l-30,15.8l5.7-33.4c0.2-1.3-0.2-2.6-1.1-3.5l-24.3-23.7l33.5-4.9c1.3-0.2,2.4-1,3-2.2l15-30.4l15,30.4c0.6,1.2,1.7,2,3,2.2   l33.5,4.9L155.2,166.1z"/>
	<path class="st6" d="M238.7,135.3c-0.4-1.3-1.6-2.3-3-2.5l-27.9-4.1l-12.5-25.3c-0.6-1.3-1.9-2-3.3-2l0,0c-1.4,0-2.7,0.8-3.3,2   l-12.5,25.3l-27.9,4.1c-0.4,0.1-0.8,0.2-1.2,0.4c-1.2,0.7-1.7,2.2-1,3.4c0.4,0.7,1.1,1.2,1.8,1.3l31.6,4.6l-13,12.7   c-1,1-1,2.5,0,3.5c0,0,0,0,0,0l-4.8,27.8c-0.3,2,1,3.9,3,4.2c0.8,0.1,1.6,0,2.3-0.4l25-13.1l25,13.1c1.8,0.9,4,0.3,5-1.5   c0.4-0.7,0.5-1.5,0.4-2.3l-4.8-27.8l20.2-19.7C238.7,138,239.1,136.6,238.7,135.3z M213.5,155.6c-0.9,0.8-1.3,2.1-1.1,3.2l4.4,25.8   l-23.2-12.2c-1.1-0.6-2.3-0.6-3.4,0l-23.2,12.2l4.4-25.8c0.1-0.5,0.1-1.1-0.1-1.6l13.1-12.7c1.6-1.5,1.6-4,0.1-5.6   c-0.6-0.6-1.4-1-2.3-1.2l-16.9-2.5l12.2-1.8c1.2-0.2,2.2-0.9,2.8-2L192,108l11.6,23.5c0.5,1.1,1.6,1.8,2.8,2l25.9,3.8L213.5,155.6z   "/>
	<path class="st6" d="M108.9,133.2c-0.4-0.2-0.8-0.3-1.2-0.4l-27.9-4.1l-12.5-25.3c-0.9-1.8-3.1-2.6-4.9-1.7   c-0.7,0.4-1.3,0.9-1.7,1.7l-12.5,25.3l-27.9,4.1c-2,0.3-3.4,2.2-3.1,4.2c0.1,0.8,0.5,1.5,1.1,2.1l20.2,19.7l-4.8,27.8   c-0.3,2,1,3.9,3,4.2c0.8,0.1,1.6,0,2.3-0.4l25-13.1l25,13.1c1.8,0.9,4,0.3,5-1.5c0.4-0.7,0.5-1.5,0.4-2.3l-4.8-27.8   c1-1,1-2.6,0-3.5c0,0,0,0,0,0l-13-12.7l31.6-4.6c1.4-0.2,2.3-1.5,2.1-2.8C110.1,134.2,109.6,133.5,108.9,133.2L108.9,133.2z    M89.4,158L89.4,158z M73.7,137.8c-2.2,0.3-3.7,2.3-3.3,4.5c0.1,0.9,0.5,1.7,1.2,2.3l13.1,12.7c-0.1,0.5-0.2,1.1-0.1,1.6l4.4,25.8   l-23.2-12.2c-1.1-0.6-2.3-0.6-3.4,0l-23.2,12.2l4.4-25.8c0.2-1.2-0.2-2.4-1.1-3.2l-18.8-18.3l25.9-3.8c1.2-0.2,2.2-0.9,2.8-2   L64,108l11.6,23.5c0.5,1.1,1.6,1.8,2.8,2l12.2,1.8L73.7,137.8z"/>
	<path class="st6" d="M255.8,121.1c-0.4-1.2-1.4-2-2.6-2.2l-17.5-2.5l-7.8-15.8c-0.5-1.1-1.7-1.8-2.9-1.8l0,0   c-1.2,0-2.4,0.7-2.9,1.8l-7.8,15.8l-13.6,2c-1.4,0.2-2.3,1.5-2.1,2.8c0,0.3,0.1,0.5,0.2,0.7l4.8,9.7c0.5,1.1,1.6,1.8,2.8,2   l25.9,3.8l-8.1,7.9c-1,1-1,2.5,0,3.5c0.2,0.2,0.4,0.3,0.6,0.5l15.8,8.3c1.6,0.8,3.6,0.2,4.4-1.4c0.3-0.6,0.4-1.4,0.3-2.1l-3-17.4   l12.6-12.3l0,0C255.9,123.5,256.2,122.3,255.8,121.1z M230.2,146.4l7.5-7.3l2.1,12.4L230.2,146.4z M238.2,133.8   c-0.1,0.1-0.2,0.2-0.2,0.3c-0.6-0.7-1.4-1.1-2.3-1.3l-27.9-4.1l-2.9-6l11.1-1.6c1.1-0.2,2-0.8,2.4-1.8l6.6-13.5l6.7,13.5   c0.5,1,1.4,1.6,2.4,1.8l14.9,2.2L238.2,133.8z"/>
	<path class="st6" d="M57.1,119.6c-0.4-0.7-1.1-1.2-1.9-1.3l-13.6-2l-7.8-15.8c-0.8-1.6-2.7-2.3-4.4-1.5c-0.6,0.3-1.2,0.8-1.5,1.5   l-7.8,15.8l-17.5,2.5c-1.8,0.3-3,1.9-2.7,3.7c0.1,0.7,0.4,1.4,0.9,1.9l12.6,12.3l-3,17.4c-0.3,1.8,0.9,3.4,2.6,3.8   c0.7,0.1,1.4,0,2.1-0.3l15.8-8.3c1.2-0.6,1.7-2.2,1-3.4c-0.1-0.2-0.3-0.4-0.5-0.6l-8.1-7.9l25.9-3.8c1.2-0.2,2.2-0.9,2.8-2l4.8-9.7   C57.5,121.2,57.5,120.3,57.1,119.6z M25.8,146.4l-9.7,5.1l2.1-12.4L25.8,146.4z M48.2,128.7l-27.9,4.1c-0.9,0.1-1.7,0.6-2.3,1.3   c-0.1-0.1-0.1-0.2-0.2-0.3L7,123.3l14.9-2.2c1.1-0.2,2-0.8,2.4-1.8l6.6-13.5l6.6,13.5c0.5,1,1.4,1.6,2.4,1.8l11.1,1.6L48.2,128.7z"/>
	<path class="st6" d="M128,49.4c-1.4,0-2.5,1.1-2.5,2.5v14.9c0,1.4,1.1,2.5,2.5,2.5c1.4,0,2.5-1.1,2.5-2.5V51.9   C130.5,50.5,129.4,49.4,128,49.4z"/>
	<path class="st6" d="M157.7,52.6c-1.3-0.3-2.7,0.5-3,1.9c0,0,0,0,0,0l-3.4,14.5c-0.3,1.3,0.5,2.7,1.8,3c1.3,0.3,2.7-0.5,3-1.8   c0,0,0,0,0,0l3.4-14.5C159.9,54.2,159.1,52.9,157.7,52.6z"/>
	<path class="st6" d="M185.2,61.8c-1.2-0.7-2.7-0.2-3.4,1c0,0,0,0,0,0l-7.1,13.1c-0.7,1.2-0.2,2.7,1,3.4s2.7,0.2,3.4-1l7.1-13.1   C186.8,63.9,186.4,62.4,185.2,61.8z"/>
	<path class="st6" d="M208.4,81.5c-0.8-1.2-2.3-1.5-3.5-0.7L192.5,89c-1.2,0.7-1.5,2.3-0.8,3.5s2.3,1.5,3.5,0.8c0,0,0,0,0.1,0   l12.4-8.2C208.8,84.2,209.1,82.7,208.4,81.5z"/>
	<path class="st6" d="M104.7,68.9l-3.4-14.5c-0.3-1.3-1.7-2.2-3-1.8c-1.3,0.3-2.1,1.7-1.8,3L99.8,70c0.3,1.3,1.6,2.2,3,1.9   S105,70.3,104.7,68.9C104.7,68.9,104.7,68.9,104.7,68.9z"/>
	<path class="st6" d="M81.3,75.8l-7.1-13.1c-0.7-1.2-2.2-1.7-3.4-1c-1.2,0.7-1.7,2.2-1,3.4l7.1,13.1c0.7,1.2,2.2,1.7,3.4,1   C81.5,78.6,81.9,77.1,81.3,75.8z"/>
	<path class="st6" d="M63.5,89l-12.4-8.2c-1.2-0.8-2.7-0.4-3.5,0.7c-0.8,1.2-0.4,2.7,0.7,3.5l12.4,8.2c1.1,0.8,2.7,0.5,3.5-0.7   C65,91.4,64.7,89.8,63.5,89C63.5,89,63.5,89,63.5,89L63.5,89z"/>
</g>
</svg>
