<svg id="Capa_1" enable-background="new 0 0 512 512" height="512" viewBox="0 0 512 512" width="512" xmlns="http://www.w3.org/2000/svg"><g><path d="m475.058 0h-438.116c-9.825 0-17.791 7.878-17.791 17.596v109.938c0 9.718 7.965 17.596 17.791 17.596h178.85c2.353 0 4.549 1.183 5.845 3.148l28.519 43.266c2.766 4.197 8.923 4.197 11.689 0l28.519-43.266c1.295-1.965 3.491-3.148 5.845-3.148h178.85c9.825 0 17.791-7.878 17.791-17.596v-109.938c-.002-9.718-7.967-17.596-17.792-17.596z" fill="#eaf6ff"/><g><g fill="#ffde5c"><path d="m94.891 39.936 7.698 15.428c.746 1.496 2.189 2.532 3.858 2.772l17.214 2.474c4.203.604 5.881 5.712 2.84 8.644l-12.456 12.009c-1.208 1.164-1.759 2.842-1.474 4.486l2.941 16.957c.718 4.14-3.675 7.297-7.435 5.342l-15.397-8.006c-1.493-.776-3.276-.776-4.769 0l-15.397 8.006c-3.759 1.955-8.152-1.202-7.435-5.342l2.941-16.957c.285-1.644-.266-3.321-1.474-4.486l-12.455-12.009c-3.041-2.932-1.363-8.04 2.84-8.644l17.214-2.474c1.669-.24 3.112-1.277 3.858-2.772l7.698-15.428c1.88-3.767 7.311-3.767 9.19 0z"/><path d="m177.743 39.936 7.698 15.428c.746 1.496 2.189 2.532 3.858 2.772l17.214 2.474c4.203.604 5.881 5.712 2.84 8.644l-12.456 12.009c-1.208 1.164-1.759 2.842-1.474 4.486l2.941 16.957c.718 4.14-3.675 7.297-7.435 5.342l-15.397-8.006c-1.493-.776-3.276-.776-4.769 0l-15.397 8.006c-3.759 1.955-8.152-1.202-7.435-5.342l2.941-16.957c.285-1.644-.266-3.321-1.474-4.486l-12.456-12.009c-3.041-2.932-1.363-8.04 2.84-8.644l17.214-2.474c1.669-.24 3.112-1.277 3.858-2.772l7.698-15.428c1.881-3.767 7.311-3.767 9.191 0z"/><path d="m260.595 39.936 7.698 15.428c.746 1.496 2.189 2.532 3.858 2.772l17.214 2.474c4.203.604 5.881 5.712 2.84 8.644l-12.456 12.009c-1.208 1.164-1.759 2.842-1.474 4.486l2.941 16.957c.718 4.14-3.675 7.297-7.435 5.342l-15.397-8.006c-1.493-.776-3.276-.776-4.769 0l-15.397 8.006c-3.759 1.955-8.152-1.202-7.435-5.342l2.941-16.957c.285-1.644-.266-3.321-1.474-4.486l-12.456-12.009c-3.041-2.932-1.363-8.04 2.84-8.644l17.214-2.474c1.669-.24 3.112-1.277 3.858-2.772l7.698-15.428c1.881-3.767 7.311-3.767 9.191 0z"/><path d="m343.447 39.936 7.698 15.428c.746 1.496 2.189 2.532 3.858 2.772l17.214 2.474c4.203.604 5.881 5.712 2.84 8.644l-12.456 12.009c-1.208 1.164-1.759 2.842-1.474 4.486l2.941 16.957c.718 4.14-3.675 7.297-7.435 5.342l-15.397-8.006c-1.493-.776-3.276-.776-4.769 0l-15.397 8.006c-3.759 1.955-8.152-1.202-7.435-5.342l2.941-16.957c.285-1.644-.266-3.321-1.474-4.486l-12.456-12.009c-3.041-2.932-1.363-8.04 2.84-8.644l17.214-2.474c1.669-.24 3.112-1.277 3.858-2.772l7.698-15.428c1.881-3.767 7.311-3.767 9.191 0z"/><path d="m426.298 39.936 7.698 15.428c.746 1.496 2.189 2.532 3.858 2.772l17.214 2.474c4.203.604 5.881 5.712 2.84 8.644l-12.456 12.009c-1.208 1.164-1.759 2.842-1.474 4.486l2.941 16.957c.718 4.14-3.675 7.297-7.435 5.342l-15.397-8.006c-1.493-.776-3.276-.776-4.769 0l-15.397 8.006c-3.759 1.955-8.152-1.202-7.435-5.342l2.941-16.957c.285-1.644-.266-3.321-1.474-4.486l-12.456-12.009c-3.041-2.932-1.363-8.04 2.84-8.644l17.214-2.474c1.669-.24 3.112-1.277 3.858-2.772l7.698-15.428c1.881-3.767 7.312-3.767 9.191 0z"/></g></g><path d="m367.2 454.797h9.683c10.695 0 19.366 8.67 19.366 19.366 0 10.695-8.67 19.366-19.366 19.366h-121.546c-5.249 0-10.413-1.624-14.566-4.834-10.994-8.498-22.623-10.289-36.77-11.129l-11.731-13.848v-95.303l11.731-13.995c33.145-37.87 75.156-41.399 72.137-98.082-.523-9.823 6.917-17.85 16.754-17.85h.339c7.537 0 14.183 4.936 16.378 12.146 7.819 25.678 10.452 51.187 2.906 77.448-1.513 5.266 2.393 10.522 7.872 10.522h77.343c10.695 0 19.366 8.67 19.366 19.366 0 10.695-8.67 19.366-19.366 19.366h-24.091 17.534c10.695 0 19.366 8.67 19.366 19.366 0 10.695-8.67 19.366-19.366 19.366h-17.534 11.096c10.695 0 19.366 8.67 19.366 19.366 0 10.695-8.67 19.366-19.366 19.366h-17.535z" fill="#ffcebf"/><path d="m299.935 256.488c2.789 53.668-34.884 59.6-67.036 92.417-3.272 3.34-5.11 7.835-5.11 12.51v100.401c0 8.513 6.1 15.786 14.475 17.31 7.956 1.447 15.174 4.113 22.133 9.453 4.151 3.176 9.218 4.948 14.451 4.948h-23.788c-5.233 0-10.3-1.772-14.451-4.948-10.942-8.397-22.527-10.181-36.608-11.013l-11.731-13.849v-95.303l11.731-13.994c33.112-37.833 75.084-41.39 72.146-97.932-.511-9.788 7.291-17.995 17.079-17.995 3.746 0 7.291 1.213 10.169 3.318.618.452 1.201.952 1.748 1.487-3.436 3.294-5.482 8.028-5.208 13.19z" fill="#ffb09e"/><g><path d="m384.735 424.986h-11.096c-4.927 0-8.92-3.993-8.92-8.92s3.993-8.92 8.92-8.92h11.096c4.927 0 8.92 3.993 8.92 8.92s-3.993 8.92-8.92 8.92z" fill="#ffb09e"/></g><g><path d="m391.173 386.254h-17.534c-4.927 0-8.92-3.993-8.92-8.92s3.993-8.92 8.92-8.92h17.534c4.927 0 8.92 3.993 8.92 8.92s-3.993 8.92-8.92 8.92z" fill="#ffb09e"/></g><g><path d="m376.883 463.717h-9.682c-4.927 0-8.92-3.993-8.92-8.92s3.993-8.92 8.92-8.92h9.682c4.927 0 8.92 3.993 8.92 8.92s-3.993 8.92-8.92 8.92z" fill="#ffb09e"/></g><path d="m167.012 493.528h28.777c4.535 0 8.212-3.676 8.212-8.211v-138.556c0-4.535-3.676-8.212-8.212-8.212h-28.777l-11.731 13.522v127.865z" fill="#f5fcff"/><path d="m190.801 338.555v154.974h-23.787l-11.731-13.593v-127.865l11.731-13.516z" fill="#d8ecfe"/><path d="m93.803 319.178h66.844c3.866 0 7 3.134 7 7v178.822c0 3.866-3.134 7-7 7h-66.844z" fill="#8cbdf9"/><path d="m93.802 319.181h23.787v192.819h-23.787z" fill="#73a2da"/></g></svg>