<?xml version="1.0" encoding="iso-8859-1"?>
<!-- Generator: Adobe Illustrator 19.1.0, SVG Export Plug-In . SVG Version: 6.00 Build 0)  -->
<svg xmlns="http://www.w3.org/2000/svg" xmlns:xlink="http://www.w3.org/1999/xlink" version="1.1" id="Capa_1" x="0px" y="0px" viewBox="0 0 333.842 333.842" style="enable-background:new 0 0 333.842 333.842;" xml:space="preserve" width="28px" height="28px">
<g>
	<path d="M166.911,0.006C74.879,0.006,0,74.885,0,166.924s74.873,166.911,166.911,166.911c92.045,0,166.931-74.873,166.931-166.911   S258.956,0.006,166.911,0.006z M166.911,320.975c-84.95,0-154.058-69.114-154.058-154.058c0-84.95,69.108-154.064,154.058-154.064   c84.956,0,154.077,69.108,154.077,154.064C320.982,251.868,251.868,320.975,166.911,320.975z M276.09,183.904   c-10.585,51.717-56.64,89.262-109.513,89.262c-52.025,0-96.75-35.296-108.761-85.856c-1.234-5.174,1.967-10.367,7.147-11.6   c5.199-1.279,10.379,1.973,11.607,7.14c9.949,41.826,46.961,71.036,90.008,71.036c43.754,0,81.865-31.054,90.625-73.844   c1.073-5.225,6.189-8.573,11.382-7.519C273.796,173.589,277.157,178.685,276.09,183.904z M186.378,116.621   c0-10.662,8.638-19.293,19.293-19.293s19.293,8.631,19.293,19.293c0,10.649-8.638,19.293-19.293,19.293   S186.378,127.271,186.378,116.621z M106.043,116.621c0-10.662,8.638-19.293,19.293-19.293s19.293,8.631,19.293,19.293   c0,10.649-8.638,19.293-19.293,19.293S106.043,127.271,106.043,116.621z" fill="#FFFFFF"/>
</g>
<g>
</g>
<g>
</g>
<g>
</g>
<g>
</g>
<g>
</g>
<g>
</g>
<g>
</g>
<g>
</g>
<g>
</g>
<g>
</g>
<g>
</g>
<g>
</g>
<g>
</g>
<g>
</g>
<g>
</g>
</svg>
