<svg xmlns="http://www.w3.org/2000/svg" height="582.875pt" version="1.1" viewBox="1 1 582.875 582.875" width="582.875pt">
<g id="surface1">
<path d="M 172.25 344.5 C 179.566406 344.5 185.5 350.433594 185.5 357.75 L 185.5 543.25 C 185.5 550.566406 179.566406 556.5 172.25 556.5 C 164.933594 556.5 159 550.566406 159 543.25 L 159 357.75 C 159 350.433594 164.933594 344.5 172.25 344.5 Z M 172.25 344.5 " style=" stroke:none;fill-rule:nonzero;fill:rgb(33.333333%,14.509804%,3.921569%);fill-opacity:1;" />
<path d="M 106 0 L 477 0 C 506.269531 0 530 23.730469 530 53 L 530 265 C 530 294.269531 506.269531 318 477 318 L 106 318 C 76.726562 318 53 294.269531 53 265 L 53 53 C 53 23.730469 76.726562 0 106 0 Z M 106 0 " style=" stroke:none;fill-rule:nonzero;fill:rgb(87.058824%,88.235294%,78.431373%);fill-opacity:1;" />
<path d="M 79.5 61.023438 L 79.5 97.976562 C 79.5 117.042969 94.957031 132.5 114.023438 132.5 L 122.046875 132.5 C 128.863281 132.5 135.527344 130.480469 141.199219 126.699219 L 196.625 89.75 C 206.230469 83.34375 212 72.566406 212 61.023438 C 212 41.957031 196.542969 26.5 177.476562 26.5 L 114.023438 26.5 C 94.957031 26.5 79.5 41.957031 79.5 61.023438 Z M 79.5 61.023438 " style=" stroke:none;fill-rule:nonzero;fill:rgb(93.333333%,93.72549%,88.235294%);fill-opacity:1;" />
<path d="M 132.492188 424 L 53.722656 424 C 40.769531 424 29.714844 414.636719 27.585938 401.855469 L 0.367188 295.855469 C -2.039062 281.421875 7.714844 267.765625 22.148438 265.359375 C 23.589844 265.121094 25.046875 265 26.507812 265 L 105.277344 265 C 118.230469 265 129.285156 274.367188 131.414062 287.144531 L 158.632812 393.144531 C 161.039062 407.582031 151.285156 421.234375 136.851562 423.640625 C 135.410156 423.878906 133.953125 424 132.492188 424 Z M 132.492188 424 " style=" stroke:none;fill-rule:nonzero;fill:rgb(55.686275%,39.607843%,11.764706%);fill-opacity:1;" />
<path d="M 15.492188 288.195312 C 8.167969 288.195312 2.234375 294.136719 2.234375 301.460938 C 2.234375 302.554688 2.371094 303.648438 2.640625 304.710938 L 22.433594 381.789062 C 24.277344 388.871094 31.511719 393.121094 38.59375 391.277344 C 45.660156 389.4375 49.90625 382.226562 48.089844 375.15625 L 28.316406 298.152344 C 26.8125 292.296875 21.539062 288.203125 15.492188 288.195312 Z M 15.492188 288.195312 " style=" stroke:none;fill-rule:nonzero;fill:rgb(61.176471%,47.058824%,22.745098%);fill-opacity:1;" />
<path d="M 225.25 424 L 39.75 424 C 32.433594 424 26.5 418.066406 26.5 410.75 C 26.5 403.433594 32.433594 397.5 39.75 397.5 L 225.25 397.5 C 232.566406 397.5 238.5 403.433594 238.5 410.75 C 238.5 418.066406 232.566406 424 225.25 424 Z M 225.25 424 " style=" stroke:none;fill-rule:nonzero;fill:rgb(73.333333%,63.529412%,46.666667%);fill-opacity:1;" />
<path d="M 119.25 424 L 39.75 424 C 32.433594 424 26.5 418.066406 26.5 410.75 C 26.5 403.433594 32.433594 397.5 39.75 397.5 L 119.25 397.5 C 126.566406 397.5 132.5 403.433594 132.5 410.75 C 132.5 418.066406 126.566406 424 119.25 424 Z M 119.25 424 " style=" stroke:none;fill-rule:nonzero;fill:rgb(61.176471%,47.058824%,22.745098%);fill-opacity:1;" />
<path d="M 79.5 424 L 79.5 450.5 L 185.5 450.5 C 200.136719 450.5 212 462.363281 212 477 L 212 503.5 C 212 518.132812 200.136719 530 185.5 530 L 79.5 530 L 79.5 556.5 L 185.5 556.5 C 214.769531 556.5 238.5 532.769531 238.5 503.5 L 238.5 477 C 238.5 447.726562 214.769531 424 185.5 424 Z M 79.5 424 " style=" stroke:none;fill-rule:nonzero;fill:rgb(87.058824%,88.235294%,78.431373%);fill-opacity:1;" />
<path d="M 92.75 424 L 172.25 424 C 179.566406 424 185.5 429.933594 185.5 437.25 C 185.5 444.566406 179.566406 450.5 172.25 450.5 L 92.75 450.5 C 85.433594 450.5 79.5 444.566406 79.5 437.25 C 79.5 429.933594 85.433594 424 92.75 424 Z M 92.75 424 " style=" stroke:none;fill-rule:nonzero;fill:rgb(70.980392%,67.843137%,51.764706%);fill-opacity:1;" />
<path d="M 119.25 556.5 L 66.25 556.5 C 58.933594 556.5 53 550.566406 53 543.25 C 53 535.933594 58.933594 530 66.25 530 L 119.25 530 C 126.566406 530 132.5 535.933594 132.5 543.25 C 132.5 550.566406 126.566406 556.5 119.25 556.5 Z M 119.25 556.5 " style=" stroke:none;fill-rule:nonzero;fill:rgb(70.980392%,67.843137%,51.764706%);fill-opacity:1;" />
<path d="M 53 424 L 53 450.5 L 79.5 450.5 C 94.136719 450.5 106 462.363281 106 477 L 106 503.5 C 106 518.132812 94.136719 530 79.5 530 L 26.5 530 L 26.5 556.5 L 79.5 556.5 C 108.769531 556.5 132.5 532.769531 132.5 503.496094 L 132.5 477 C 132.5 447.726562 108.769531 423.996094 79.5 423.996094 L 53 423.996094 Z M 53 424 " style=" stroke:none;fill-rule:nonzero;fill:rgb(93.333333%,93.72549%,88.235294%);fill-opacity:1;" />
<path d="M 39.75 556.5 L 13.25 556.5 C 5.933594 556.5 0 550.566406 0 543.25 C 0 535.933594 5.933594 530 13.25 530 L 39.75 530 C 47.066406 530 53 535.933594 53 543.25 C 53 550.566406 47.066406 556.5 39.75 556.5 Z M 39.75 556.5 " style=" stroke:none;fill-rule:nonzero;fill:rgb(93.333333%,93.72549%,88.235294%);fill-opacity:1;" />
<path d="M 66.25 450.5 L 39.75 450.5 C 32.433594 450.5 26.5 444.566406 26.5 437.25 C 26.5 429.933594 32.433594 424 39.75 424 L 66.25 424 C 73.566406 424 79.5 429.933594 79.5 437.25 C 79.5 444.566406 73.566406 450.5 66.25 450.5 Z M 66.25 450.5 " style=" stroke:none;fill-rule:nonzero;fill:rgb(87.058824%,88.235294%,78.431373%);fill-opacity:1;" />
<path d="M 450.507812 424 L 529.277344 424 C 542.230469 424 553.285156 414.636719 555.414062 401.855469 L 582.632812 295.855469 C 585.039062 281.421875 575.285156 267.765625 560.851562 265.359375 C 559.410156 265.121094 557.953125 265 556.492188 265 L 477.722656 265 C 464.769531 265 453.714844 274.367188 451.585938 287.144531 L 424.367188 393.144531 C 421.960938 407.582031 431.714844 421.234375 446.148438 423.640625 C 447.589844 423.878906 449.046875 424 450.507812 424 Z M 450.507812 424 " style=" stroke:none;fill-rule:nonzero;fill:rgb(55.686275%,39.607843%,11.764706%);fill-opacity:1;" />
<path d="M 490.25 265 L 543.25 265 C 550.566406 265 556.5 270.933594 556.5 278.25 C 556.5 285.566406 550.566406 291.5 543.25 291.5 L 490.25 291.5 C 482.933594 291.5 477 285.566406 477 278.25 C 477 270.933594 482.933594 265 490.25 265 Z M 490.25 265 " style=" stroke:none;fill-rule:nonzero;fill:rgb(66.27451%,54.117647%,32.941176%);fill-opacity:1;" />
<path d="M 567.507812 288.195312 C 561.460938 288.203125 556.1875 292.296875 554.683594 298.152344 L 534.910156 375.15625 C 533.089844 382.242188 537.363281 389.464844 544.449219 391.28125 C 551.519531 393.097656 558.726562 388.851562 560.566406 381.789062 L 580.359375 304.710938 C 582.15625 297.609375 577.859375 290.398438 570.757812 288.601562 C 569.695312 288.332031 568.605469 288.195312 567.507812 288.195312 Z M 567.507812 288.195312 " style=" stroke:none;fill-rule:nonzero;fill:rgb(45.882353%,29.803922%,1.176471%);fill-opacity:1;" />
<path d="M 437.25 371 L 516.75 371 C 524.066406 371 530 376.933594 530 384.25 C 530 391.566406 524.066406 397.5 516.75 397.5 L 437.25 397.5 C 429.933594 397.5 424 391.566406 424 384.25 C 424 376.933594 429.933594 371 437.25 371 Z M 437.25 371 " style=" stroke:none;fill-rule:nonzero;fill:rgb(45.882353%,29.803922%,1.176471%);fill-opacity:1;" />
<path d="M 66.25 371 L 145.75 371 C 153.066406 371 159 376.933594 159 384.25 C 159 391.566406 153.066406 397.5 145.75 397.5 L 66.25 397.5 C 58.933594 397.5 53 391.566406 53 384.25 C 53 376.933594 58.933594 371 66.25 371 Z M 66.25 371 " style=" stroke:none;fill-rule:nonzero;fill:rgb(45.882353%,29.803922%,1.176471%);fill-opacity:1;" />
<path d="M 357.75 397.5 L 543.25 397.5 C 550.566406 397.5 556.5 403.433594 556.5 410.75 C 556.5 418.066406 550.566406 424 543.25 424 L 357.75 424 C 350.433594 424 344.5 418.066406 344.5 410.75 C 344.5 403.433594 350.433594 397.5 357.75 397.5 Z M 357.75 397.5 " style=" stroke:none;fill-rule:nonzero;fill:rgb(73.333333%,63.529412%,46.666667%);fill-opacity:1;" />
<path d="M 463.75 397.5 L 543.25 397.5 C 550.566406 397.5 556.5 403.433594 556.5 410.75 C 556.5 418.066406 550.566406 424 543.25 424 L 463.75 424 C 456.433594 424 450.5 418.066406 450.5 410.75 C 450.5 403.433594 456.433594 397.5 463.75 397.5 Z M 463.75 397.5 " style=" stroke:none;fill-rule:nonzero;fill:rgb(61.176471%,47.058824%,22.745098%);fill-opacity:1;" />
<path d="M 503.5 424 L 503.5 450.5 L 397.5 450.5 C 382.863281 450.5 371 462.363281 371 477 L 371 503.5 C 371 518.132812 382.863281 530 397.5 530 L 450.5 530 L 450.5 556.5 L 397.5 556.5 C 368.230469 556.5 344.5 532.769531 344.5 503.5 L 344.5 477 C 344.5 447.726562 368.230469 424 397.5 424 Z M 503.5 424 " style=" stroke:none;fill-rule:nonzero;fill:rgb(87.058824%,88.235294%,78.431373%);fill-opacity:1;" />
<path d="M 463.75 424 L 543.25 424 C 550.566406 424 556.5 429.933594 556.5 437.25 C 556.5 444.566406 550.566406 450.5 543.25 450.5 L 463.75 450.5 C 456.433594 450.5 450.5 444.566406 450.5 437.25 C 450.5 429.933594 456.433594 424 463.75 424 Z M 463.75 424 " style=" stroke:none;fill-rule:nonzero;fill:rgb(70.980392%,67.843137%,51.764706%);fill-opacity:1;" />
<path d="M 357.75 477 C 365.066406 477 371 482.933594 371 490.25 L 371 516.75 C 371 524.066406 365.066406 530 357.75 530 C 350.433594 530 344.5 524.066406 344.5 516.75 L 344.5 490.25 C 344.5 482.933594 350.433594 477 357.75 477 Z M 357.75 477 " style=" stroke:none;fill-rule:nonzero;fill:rgb(70.980392%,67.843137%,51.764706%);fill-opacity:1;" />
<path d="M 437.25 530 L 516.75 530 C 524.066406 530 530 535.933594 530 543.25 C 530 550.566406 524.066406 556.5 516.75 556.5 L 437.25 556.5 C 429.933594 556.5 424 550.566406 424 543.25 C 424 535.933594 429.933594 530 437.25 530 Z M 437.25 530 " style=" stroke:none;fill-rule:nonzero;fill:rgb(87.058824%,88.235294%,78.431373%);fill-opacity:1;" />
<path d="M 463.75 530 L 543.25 530 C 550.566406 530 556.5 535.933594 556.5 543.25 C 556.5 550.566406 550.566406 556.5 543.25 556.5 L 463.75 556.5 C 456.433594 556.5 450.5 550.566406 450.5 543.25 C 450.5 535.933594 456.433594 530 463.75 530 Z M 463.75 530 " style=" stroke:none;fill-rule:nonzero;fill:rgb(70.980392%,67.843137%,51.764706%);fill-opacity:1;" />
<path d="M 530 424 L 530 450.5 L 503.5 450.5 C 488.863281 450.5 477 462.363281 477 477 L 477 503.5 C 477 518.132812 488.863281 530 503.5 530 L 556.5 530 L 556.5 556.5 L 503.5 556.5 C 474.230469 556.5 450.5 532.769531 450.5 503.5 L 450.5 477 C 450.5 447.726562 474.230469 424 503.5 424 Z M 530 424 " style=" stroke:none;fill-rule:nonzero;fill:rgb(93.333333%,93.72549%,88.235294%);fill-opacity:1;" />
<path d="M 543.25 530 L 569.75 530 C 577.066406 530 583 535.933594 583 543.25 C 583 550.566406 577.066406 556.5 569.75 556.5 L 543.25 556.5 C 535.933594 556.5 530 550.566406 530 543.25 C 530 535.933594 535.933594 530 543.25 530 Z M 543.25 530 " style=" stroke:none;fill-rule:nonzero;fill:rgb(93.333333%,93.72549%,88.235294%);fill-opacity:1;" />
<path d="M 516.75 424 L 543.25 424 C 550.566406 424 556.5 429.933594 556.5 437.25 C 556.5 444.566406 550.566406 450.5 543.25 450.5 L 516.75 450.5 C 509.433594 450.5 503.5 444.566406 503.5 437.25 C 503.5 429.933594 509.433594 424 516.75 424 Z M 516.75 424 " style=" stroke:none;fill-rule:nonzero;fill:rgb(93.333333%,93.72549%,88.235294%);fill-opacity:1;" />
<path d="M 39.75 344.5 C 47.066406 344.5 53 350.433594 53 357.75 L 53 543.25 C 53 550.566406 47.066406 556.5 39.75 556.5 C 32.433594 556.5 26.5 550.566406 26.5 543.25 L 26.5 357.75 C 26.5 350.433594 32.433594 344.5 39.75 344.5 Z M 39.75 344.5 " style=" stroke:none;fill-rule:nonzero;fill:rgb(33.333333%,14.509804%,3.921569%);fill-opacity:1;" />
<path d="M 13.25 344.5 L 569.75 344.5 C 577.066406 344.5 583 350.433594 583 357.75 C 583 365.066406 577.066406 371 569.75 371 L 13.25 371 C 5.933594 371 0 365.066406 0 357.75 C 0 350.433594 5.933594 344.5 13.25 344.5 Z M 13.25 344.5 " style=" stroke:none;fill-rule:nonzero;fill:rgb(43.921569%,23.137255%,14.509804%);fill-opacity:1;" />
<path d="M 384.25 344.5 L 569.75 344.5 C 577.066406 344.5 583 350.433594 583 357.75 C 583 365.066406 577.066406 371 569.75 371 L 384.25 371 C 376.933594 371 371 365.066406 371 357.75 C 371 350.433594 376.933594 344.5 384.25 344.5 Z M 384.25 344.5 " style=" stroke:none;fill-rule:nonzero;fill:rgb(33.333333%,14.509804%,3.921569%);fill-opacity:1;" />
<path d="M 225.25 424 L 384.25 424 C 391.566406 424 397.5 429.933594 397.5 437.25 C 397.5 444.566406 391.566406 450.5 384.25 450.5 L 225.25 450.5 C 217.933594 450.5 212 444.566406 212 437.25 C 212 429.933594 217.933594 424 225.25 424 Z M 225.25 424 " style=" stroke:none;fill-rule:nonzero;fill:rgb(55.686275%,39.607843%,11.764706%);fill-opacity:1;" />
<path d="M 238.5 291.5 L 318 291.5 C 332.636719 291.5 344.5 303.363281 344.5 318 L 344.5 424 C 344.5 438.632812 332.636719 450.5 318 450.5 L 238.5 450.5 C 223.863281 450.5 212 438.632812 212 424 L 212 318 C 212 303.363281 223.863281 291.5 238.5 291.5 Z M 238.5 291.5 " style=" stroke:none;fill-rule:nonzero;fill:rgb(45.882353%,29.803922%,1.176471%);fill-opacity:1;" />
<path d="M 331.25 318 C 338.566406 318 344.5 323.933594 344.5 331.25 L 344.5 410.75 C 344.5 418.066406 338.566406 424 331.25 424 C 323.933594 424 318 418.066406 318 410.75 L 318 331.25 C 318 323.933594 323.933594 318 331.25 318 Z M 331.25 318 " style=" stroke:none;fill-rule:nonzero;fill:rgb(41.568627%,23.529412%,0%);fill-opacity:1;" />
<path d="M 318 450.5 L 318 477 L 344.5 477 C 359.136719 477 371 488.863281 371 503.5 L 371 530 C 371 544.632812 359.136719 556.5 344.5 556.5 L 291.5 556.5 L 291.5 582.996094 L 344.5 582.996094 C 373.769531 582.996094 397.5 559.269531 397.5 529.996094 L 397.5 503.496094 C 397.5 474.226562 373.769531 450.496094 344.5 450.496094 L 318 450.496094 Z M 318 450.5 " style=" stroke:none;fill-rule:nonzero;fill:rgb(78.039216%,77.254902%,63.529412%);fill-opacity:1;" />
<path d="M 304.75 583 L 278.25 583 C 270.933594 583 265 577.066406 265 569.75 C 265 562.433594 270.933594 556.5 278.25 556.5 L 304.75 556.5 C 312.066406 556.5 318 562.433594 318 569.75 C 318 577.066406 312.066406 583 304.75 583 Z M 304.75 583 " style=" stroke:none;fill-rule:nonzero;fill:rgb(93.333333%,93.72549%,88.235294%);fill-opacity:1;" />
<path d="M 331.25 477 L 304.75 477 C 297.433594 477 291.5 471.066406 291.5 463.75 C 291.5 456.433594 297.433594 450.5 304.75 450.5 L 331.25 450.5 C 338.566406 450.5 344.5 456.433594 344.5 463.75 C 344.5 471.066406 338.566406 477 331.25 477 Z M 331.25 477 " style=" stroke:none;fill-rule:nonzero;fill:rgb(93.333333%,93.72549%,88.235294%);fill-opacity:1;" />
<path d="M 238.5 450.5 L 238.5 477 L 265 477 C 279.636719 477 291.5 488.863281 291.5 503.5 L 291.5 530 C 291.5 544.632812 279.636719 556.5 265 556.5 L 212 556.5 L 212 582.996094 L 265 582.996094 C 294.269531 582.996094 318 559.269531 318 529.996094 L 318 503.496094 C 318 474.226562 294.269531 450.496094 265 450.496094 L 238.5 450.496094 Z M 238.5 450.5 " style=" stroke:none;fill-rule:nonzero;fill:rgb(70.980392%,67.843137%,51.764706%);fill-opacity:1;" />
<path d="M 318 490.25 C 318 497.566406 312.066406 503.5 304.75 503.5 C 297.433594 503.5 291.5 497.566406 291.5 490.25 C 291.5 482.933594 297.433594 477 304.75 477 C 312.066406 477 318 482.933594 318 490.25 Z M 318 490.25 " style=" stroke:none;fill-rule:nonzero;fill:rgb(65.098039%,61.176471%,41.960784%);fill-opacity:1;" />
<path d="M 225.25 583 L 198.75 583 C 191.433594 583 185.5 577.066406 185.5 569.75 C 185.5 562.433594 191.433594 556.5 198.75 556.5 L 225.25 556.5 C 232.566406 556.5 238.5 562.433594 238.5 569.75 C 238.5 577.066406 232.566406 583 225.25 583 Z M 225.25 583 " style=" stroke:none;fill-rule:nonzero;fill:rgb(93.333333%,93.72549%,88.235294%);fill-opacity:1;" />
<path d="M 357.75 477 L 225.25 477 C 217.933594 477 212 471.066406 212 463.75 C 212 456.433594 217.933594 450.5 225.25 450.5 L 357.75 450.5 C 365.066406 450.5 371 456.433594 371 463.75 C 371 471.066406 365.066406 477 357.75 477 Z M 357.75 477 " style=" stroke:none;fill-rule:nonzero;fill:rgb(78.039216%,77.254902%,63.529412%);fill-opacity:1;" />
<path d="M 344.5 583 L 198.75 583 C 191.433594 583 185.5 577.066406 185.5 569.75 C 185.5 562.433594 191.433594 556.5 198.75 556.5 L 344.5 556.5 C 351.816406 556.5 357.75 562.433594 357.75 569.75 C 357.75 577.066406 351.816406 583 344.5 583 Z M 344.5 583 " style=" stroke:none;fill-rule:nonzero;fill:rgb(78.039216%,77.254902%,63.529412%);fill-opacity:1;" />
<path d="M 410.75 344.5 C 418.066406 344.5 424 350.433594 424 357.75 L 424 543.25 C 424 550.566406 418.066406 556.5 410.75 556.5 C 403.433594 556.5 397.5 550.566406 397.5 543.25 L 397.5 357.75 C 397.5 350.433594 403.433594 344.5 410.75 344.5 Z M 410.75 344.5 " style=" stroke:none;fill-rule:nonzero;fill:rgb(33.333333%,14.509804%,3.921569%);fill-opacity:1;" />
<path d="M 543.25 344.5 C 550.566406 344.5 556.5 350.433594 556.5 357.75 L 556.5 543.25 C 556.5 550.566406 550.566406 556.5 543.25 556.5 C 535.933594 556.5 530 550.566406 530 543.25 L 530 357.75 C 530 350.433594 535.933594 344.5 543.25 344.5 Z M 543.25 344.5 " style=" stroke:none;fill-rule:nonzero;fill:rgb(33.333333%,14.509804%,3.921569%);fill-opacity:1;" />
<path d="M 291.5 159 C 291.5 217.542969 244.042969 265 185.5 265 C 126.957031 265 79.5 217.542969 79.5 159 C 79.5 100.457031 126.957031 53 185.5 53 C 244.042969 53 291.5 100.457031 291.5 159 Z M 291.5 159 " style=" stroke:none;fill-rule:nonzero;fill:rgb(19.607843%,62.745098%,39.607843%);fill-opacity:1;" />
<path d="M 291.5 159 L 185.5 159 L 185.5 265 C 244.042969 265 291.5 217.542969 291.5 159 Z M 291.5 159 " style=" stroke:none;fill-rule:nonzero;fill:rgb(27.058824%,9.411765%,0%);fill-opacity:1;" />
<path d="M 185.5 159 L 291.5 159 C 291.535156 130.878906 280.363281 103.90625 260.453125 84.046875 Z M 185.5 159 " style=" stroke:none;fill-rule:nonzero;fill:rgb(39.215686%,81.568627%,70.588235%);fill-opacity:1;" />
<path d="M 344.5 53 C 359.136719 53 371 64.863281 371 79.5 C 371 94.136719 359.136719 106 344.5 106 C 329.863281 106 318 94.136719 318 79.5 C 318 64.863281 329.863281 53 344.5 53 Z M 344.5 53 " style=" stroke:none;fill-rule:nonzero;fill:rgb(19.607843%,62.745098%,39.607843%);fill-opacity:1;" />
<path d="M 344.5 132.5 C 359.136719 132.5 371 144.363281 371 159 C 371 173.636719 359.136719 185.5 344.5 185.5 C 329.863281 185.5 318 173.636719 318 159 C 318 144.363281 329.863281 132.5 344.5 132.5 Z M 344.5 132.5 " style=" stroke:none;fill-rule:nonzero;fill:rgb(39.215686%,81.568627%,70.588235%);fill-opacity:1;" />
<path d="M 344.5 212 C 359.136719 212 371 223.863281 371 238.5 C 371 253.132812 359.136719 265 344.5 265 C 329.863281 265 318 253.132812 318 238.5 C 318 223.863281 329.863281 212 344.5 212 Z M 344.5 212 " style=" stroke:none;fill-rule:nonzero;fill:rgb(27.058824%,9.411765%,0%);fill-opacity:1;" />
<path d="M 410.75 53 L 490.25 53 C 497.566406 53 503.5 58.933594 503.5 66.25 C 503.5 73.566406 497.566406 79.5 490.25 79.5 L 410.75 79.5 C 403.433594 79.5 397.5 73.566406 397.5 66.25 C 397.5 58.933594 403.433594 53 410.75 53 Z M 410.75 53 " style=" stroke:none;fill-rule:nonzero;fill:rgb(70.980392%,67.843137%,51.764706%);fill-opacity:1;" />
<path d="M 410.75 132.5 L 490.25 132.5 C 497.566406 132.5 503.5 138.433594 503.5 145.75 C 503.5 153.066406 497.566406 159 490.25 159 L 410.75 159 C 403.433594 159 397.5 153.066406 397.5 145.75 C 397.5 138.433594 403.433594 132.5 410.75 132.5 Z M 410.75 132.5 " style=" stroke:none;fill-rule:nonzero;fill:rgb(70.980392%,67.843137%,51.764706%);fill-opacity:1;" />
<path d="M 410.75 212 L 490.25 212 C 497.566406 212 503.5 217.933594 503.5 225.25 C 503.5 232.566406 497.566406 238.5 490.25 238.5 L 410.75 238.5 C 403.433594 238.5 397.5 232.566406 397.5 225.25 C 397.5 217.933594 403.433594 212 410.75 212 Z M 410.75 212 " style=" stroke:none;fill-rule:nonzero;fill:rgb(70.980392%,67.843137%,51.764706%);fill-opacity:1;" />
<path d="M 53 384.25 C 53 391.566406 47.066406 397.5 39.75 397.5 C 32.433594 397.5 26.5 391.566406 26.5 384.25 C 26.5 376.933594 32.433594 371 39.75 371 C 47.066406 371 53 376.933594 53 384.25 Z M 53 384.25 " style=" stroke:none;fill-rule:nonzero;fill:rgb(27.058824%,9.411765%,0%);fill-opacity:1;" />
<path d="M 185.5 384.25 C 185.5 391.566406 179.566406 397.5 172.25 397.5 C 164.933594 397.5 159 391.566406 159 384.25 C 159 376.933594 164.933594 371 172.25 371 C 179.566406 371 185.5 376.933594 185.5 384.25 Z M 185.5 384.25 " style=" stroke:none;fill-rule:nonzero;fill:rgb(20.784314%,4.313725%,0%);fill-opacity:1;" />
<path d="M 556.5 384.25 C 556.5 391.566406 550.566406 397.5 543.25 397.5 C 535.933594 397.5 530 391.566406 530 384.25 C 530 376.933594 535.933594 371 543.25 371 C 550.566406 371 556.5 376.933594 556.5 384.25 Z M 556.5 384.25 " style=" stroke:none;fill-rule:nonzero;fill:rgb(27.058824%,9.411765%,0%);fill-opacity:1;" />
<path d="M 424 384.25 C 424 391.566406 418.066406 397.5 410.75 397.5 C 403.433594 397.5 397.5 391.566406 397.5 384.25 C 397.5 376.933594 403.433594 371 410.75 371 C 418.066406 371 424 376.933594 424 384.25 Z M 424 384.25 " style=" stroke:none;fill-rule:nonzero;fill:rgb(27.058824%,9.411765%,0%);fill-opacity:1;" />
<path d="M 39.75 265 L 92.75 265 C 100.066406 265 106 270.933594 106 278.25 C 106 285.566406 100.066406 291.5 92.75 291.5 L 39.75 291.5 C 32.433594 291.5 26.5 285.566406 26.5 278.25 C 26.5 270.933594 32.433594 265 39.75 265 Z M 39.75 265 " style=" stroke:none;fill-rule:nonzero;fill:rgb(66.27451%,54.117647%,32.941176%);fill-opacity:1;" />
<path d="M 371 92.75 C 371 100.066406 365.066406 106 357.75 106 C 350.433594 106 344.5 100.066406 344.5 92.75 C 344.5 85.433594 350.433594 79.5 357.75 79.5 C 365.066406 79.5 371 85.433594 371 92.75 Z M 371 92.75 " style=" stroke:none;fill-rule:nonzero;fill:rgb(0%,44.313725%,25.098039%);fill-opacity:1;" />
<path d="M 371 172.25 C 371 179.566406 365.066406 185.5 357.75 185.5 C 350.433594 185.5 344.5 179.566406 344.5 172.25 C 344.5 164.933594 350.433594 159 357.75 159 C 365.066406 159 371 164.933594 371 172.25 Z M 371 172.25 " style=" stroke:none;fill-rule:nonzero;fill:rgb(0%,65.490196%,53.72549%);fill-opacity:1;" />
<path d="M 371 251.75 C 371 259.066406 365.066406 265 357.75 265 C 350.433594 265 344.5 259.066406 344.5 251.75 C 344.5 244.433594 350.433594 238.5 357.75 238.5 C 365.066406 238.5 371 244.433594 371 251.75 Z M 371 251.75 " style=" stroke:none;fill-rule:nonzero;fill:rgb(20.784314%,4.313725%,0%);fill-opacity:1;" />
<path d="M 185.5 79.5 C 141.59375 79.5 106 115.09375 106 159 L 106 159.785156 L 106.003906 159.898438 L 106.003906 160.164062 L 106.007812 160.277344 L 106.007812 160.421875 L 106.011719 160.535156 L 106.011719 160.652344 L 106.015625 160.683594 L 106.015625 160.796875 L 106.019531 160.910156 L 106.019531 160.941406 L 106.023438 161.03125 L 106.023438 161.058594 L 106.027344 161.171875 L 106.027344 161.289062 L 106.03125 161.320312 L 106.03125 161.445312 L 106.035156 161.546875 L 106.035156 161.578125 L 106.039062 161.6875 L 106.039062 161.691406 L 106.042969 161.808594 L 106.046875 161.832031 L 106.050781 161.933594 L 106.050781 161.953125 L 106.054688 162.066406 L 106.054688 162.09375 L 106.058594 162.183594 L 106.0625 162.210938 L 106.066406 162.324219 L 106.066406 162.335938 L 106.070312 162.441406 L 106.070312 162.46875 L 106.074219 162.574219 L 106.078125 162.585938 L 106.082031 162.699219 L 106.082031 162.726562 L 106.085938 162.816406 L 106.085938 162.847656 L 106.09375 162.957031 L 106.09375 162.980469 L 106.097656 163.070312 L 106.101562 163.105469 L 106.105469 163.21875 L 106.105469 163.222656 L 106.113281 163.332031 L 106.113281 163.359375 L 106.121094 163.46875 L 106.121094 163.472656 L 106.125 163.589844 L 106.128906 163.613281 L 106.132812 163.710938 L 106.132812 163.730469 L 106.140625 163.847656 L 106.144531 163.863281 L 106.148438 163.964844 L 106.148438 163.988281 L 106.15625 164.105469 L 106.164062 164.21875 L 106.164062 164.246094 L 106.171875 164.355469 L 106.171875 164.359375 L 106.179688 164.476562 L 106.183594 164.5 L 106.1875 164.597656 L 106.191406 164.617188 L 106.199219 164.734375 L 106.199219 164.742188 L 106.207031 164.851562 L 106.207031 164.875 L 106.226562 165.105469 L 106.226562 165.132812 L 106.234375 165.230469 L 106.234375 165.246094 L 106.246094 165.359375 L 106.246094 165.382812 L 106.253906 165.476562 L 106.257812 165.503906 L 106.265625 165.617188 L 106.269531 165.632812 L 106.277344 165.730469 L 106.277344 165.757812 L 106.296875 165.988281 L 106.300781 166.007812 L 106.308594 166.113281 L 106.308594 166.125 L 106.320312 166.242188 L 106.320312 166.257812 L 106.332031 166.359375 L 106.332031 166.382812 L 106.34375 166.496094 L 106.34375 166.503906 L 106.355469 166.609375 L 106.359375 166.636719 L 106.378906 166.867188 L 106.382812 166.886719 L 106.390625 166.988281 L 106.394531 167.003906 L 106.40625 167.117188 L 106.40625 167.140625 L 106.417969 167.238281 L 106.417969 167.257812 L 106.441406 167.492188 L 106.445312 167.507812 C 106.453125 167.585938 106.460938 167.664062 106.46875 167.742188 L 106.472656 167.761719 L 106.484375 167.867188 L 106.484375 167.878906 L 106.496094 167.996094 L 106.5 168.011719 L 106.511719 168.109375 L 106.515625 168.136719 L 106.539062 168.363281 L 106.542969 168.386719 L 106.570312 168.617188 L 106.574219 168.636719 L 106.585938 168.746094 L 106.585938 168.75 L 106.601562 168.871094 L 106.601562 168.878906 L 106.617188 168.988281 L 106.617188 169.003906 L 106.648438 169.238281 L 106.652344 169.253906 L 106.683594 169.488281 L 106.683594 169.5 L 106.699219 169.613281 L 106.699219 169.617188 L 106.734375 169.859375 L 106.734375 169.871094 L 106.765625 170.105469 L 106.769531 170.121094 L 106.804688 170.359375 L 106.804688 170.363281 L 106.820312 170.484375 C 106.832031 170.566406 106.84375 170.644531 106.855469 170.726562 L 106.855469 170.734375 L 106.890625 170.972656 L 106.894531 170.984375 L 106.929688 171.222656 L 106.929688 171.230469 L 106.949219 171.347656 L 106.988281 171.589844 L 106.988281 171.597656 L 107.027344 171.835938 L 107.027344 171.84375 C 107.039062 171.925781 107.054688 172.003906 107.066406 172.085938 L 107.066406 172.089844 C 107.101562 172.292969 107.136719 172.492188 107.171875 172.699219 L 107.171875 172.703125 C 107.191406 172.824219 107.214844 172.945312 107.234375 173.066406 C 107.25 173.148438 107.265625 173.226562 107.277344 173.308594 L 107.28125 173.3125 C 107.296875 173.394531 107.308594 173.472656 107.324219 173.554688 L 107.324219 173.558594 C 107.363281 173.761719 107.398438 173.960938 107.4375 174.164062 L 107.441406 174.167969 C 107.496094 174.453125 107.550781 174.730469 107.609375 175.015625 L 107.609375 175.019531 C 112.351562 197.992188 126.980469 217.707031 147.597656 228.898438 L 147.601562 228.898438 C 147.667969 228.9375 147.738281 228.976562 147.808594 229.011719 L 147.816406 229.015625 C 147.882812 229.050781 147.953125 229.089844 148.019531 229.125 L 148.027344 229.128906 C 148.097656 229.167969 148.164062 229.203125 148.234375 229.238281 L 148.238281 229.242188 L 148.335938 229.292969 L 148.34375 229.296875 C 148.414062 229.335938 148.480469 229.371094 148.550781 229.40625 L 148.558594 229.410156 L 148.765625 229.519531 L 148.773438 229.523438 L 148.867188 229.574219 L 148.875 229.578125 L 148.976562 229.632812 L 148.988281 229.636719 L 149.078125 229.683594 L 149.09375 229.6875 L 149.125 229.707031 C 155.628906 233.054688 163.621094 230.496094 166.972656 223.992188 C 170.320312 217.488281 167.761719 209.496094 161.257812 206.144531 C 135.222656 192.753906 124.972656 160.792969 138.367188 134.757812 C 147.449219 117.097656 165.636719 105.996094 185.492188 105.992188 C 192.8125 105.988281 198.742188 100.054688 198.734375 92.734375 C 198.738281 85.429688 192.8125 79.503906 185.5 79.5 Z M 185.5 79.5 " style=" stroke:none;fill-rule:nonzero;fill:rgb(54.509804%,78.823529%,65.490196%);fill-opacity:1;" />
<path d="M 276.160156 165.367188 C 269.921875 165.375 264.535156 169.730469 263.21875 175.832031 C 256.058594 209.332031 228.171875 234.429688 194.105469 238.042969 C 186.828125 238.820312 181.5625 245.355469 182.34375 252.628906 C 183.066406 259.355469 188.738281 264.457031 195.503906 264.46875 C 195.964844 264.46875 196.421875 264.445312 196.878906 264.398438 C 223.539062 261.539062 248.121094 248.660156 265.648438 228.371094 L 265.652344 228.367188 C 265.792969 228.207031 265.929688 228.050781 266.066406 227.890625 L 266.070312 227.886719 C 266.207031 227.726562 266.34375 227.566406 266.480469 227.40625 L 266.480469 227.402344 C 266.566406 227.300781 266.652344 227.203125 266.734375 227.101562 L 266.886719 226.917969 L 266.890625 226.914062 C 267.027344 226.753906 267.160156 226.589844 267.292969 226.429688 L 267.300781 226.421875 C 267.570312 226.097656 267.835938 225.769531 268.097656 225.441406 L 268.101562 225.4375 L 268.199219 225.316406 C 268.332031 225.152344 268.464844 224.988281 268.59375 224.824219 L 268.597656 224.816406 L 268.742188 224.632812 L 268.746094 224.628906 L 268.890625 224.449219 L 268.902344 224.433594 L 268.988281 224.324219 L 268.996094 224.316406 L 269.136719 224.132812 L 269.140625 224.128906 L 269.285156 223.945312 L 269.292969 223.933594 L 269.386719 223.808594 L 269.523438 223.632812 L 269.535156 223.617188 L 269.621094 223.507812 L 269.628906 223.5 L 269.671875 223.441406 L 269.6875 223.421875 L 269.761719 223.324219 L 269.777344 223.304688 C 269.820312 223.246094 269.863281 223.1875 269.910156 223.128906 L 269.925781 223.105469 L 270 223.011719 L 270.015625 222.992188 L 270.058594 222.933594 L 270.070312 222.914062 L 270.144531 222.816406 L 270.164062 222.792969 L 270.25 222.679688 L 270.292969 222.621094 L 270.308594 222.601562 L 270.382812 222.503906 L 270.398438 222.480469 L 270.4375 222.429688 L 270.464844 222.394531 L 270.523438 222.3125 L 270.550781 222.28125 L 270.613281 222.195312 L 270.632812 222.164062 L 270.671875 222.113281 L 270.695312 222.082031 L 270.757812 221.996094 L 270.78125 221.96875 L 270.816406 221.917969 L 270.847656 221.875 L 270.902344 221.796875 L 270.925781 221.769531 L 270.988281 221.683594 L 271.011719 221.652344 L 271.050781 221.601562 L 271.074219 221.566406 L 271.132812 221.488281 L 271.160156 221.449219 L 271.191406 221.40625 L 271.277344 221.289062 L 271.308594 221.246094 L 271.351562 221.183594 L 271.390625 221.132812 L 271.425781 221.085938 L 271.507812 220.96875 L 271.535156 220.933594 L 271.570312 220.886719 L 271.621094 220.816406 L 271.683594 220.730469 L 271.726562 220.667969 L 271.765625 220.613281 L 271.796875 220.570312 L 271.832031 220.519531 L 271.878906 220.457031 L 271.910156 220.410156 L 271.941406 220.371094 L 271.992188 220.296875 L 272.023438 220.253906 L 272.054688 220.207031 L 272.097656 220.148438 L 272.136719 220.09375 L 272.167969 220.046875 L 272.207031 219.996094 L 272.25 219.933594 L 272.28125 219.886719 L 272.308594 219.847656 L 272.363281 219.773438 L 272.390625 219.730469 L 272.425781 219.683594 L 272.46875 219.621094 L 272.503906 219.570312 L 272.535156 219.523438 L 272.570312 219.472656 L 272.617188 219.410156 L 272.648438 219.363281 L 272.675781 219.324219 L 272.726562 219.253906 L 272.757812 219.203125 L 272.789062 219.160156 L 272.832031 219.097656 L 272.871094 219.042969 L 272.898438 219.003906 L 272.949219 218.933594 L 272.976562 218.890625 L 273.011719 218.835938 L 273.039062 218.800781 L 273.089844 218.722656 L 273.117188 218.6875 L 273.160156 218.621094 L 273.1875 218.582031 L 273.234375 218.511719 L 273.257812 218.480469 L 273.3125 218.398438 L 273.332031 218.367188 L 273.378906 218.296875 L 273.394531 218.277344 L 273.453125 218.1875 L 273.472656 218.160156 L 273.53125 218.074219 L 273.59375 217.980469 L 273.613281 217.949219 L 273.671875 217.863281 L 273.683594 217.84375 L 273.738281 217.765625 L 273.75 217.746094 L 273.808594 217.65625 L 273.828125 217.628906 L 273.878906 217.550781 L 273.898438 217.519531 L 273.949219 217.445312 L 273.964844 217.417969 L 274.023438 217.332031 L 274.09375 217.226562 L 274.101562 217.210938 L 274.164062 217.121094 L 274.179688 217.09375 L 274.238281 217.003906 L 274.300781 216.910156 L 274.320312 216.882812 L 274.375 216.796875 L 274.390625 216.773438 L 274.441406 216.695312 L 274.453125 216.675781 L 274.511719 216.585938 L 274.527344 216.5625 L 274.585938 216.46875 L 274.59375 216.457031 L 274.652344 216.367188 L 274.664062 216.351562 L 274.722656 216.257812 L 274.734375 216.238281 L 274.796875 216.144531 L 274.796875 216.140625 L 274.875 216.023438 L 274.933594 215.929688 L 274.996094 215.835938 L 275.011719 215.808594 L 275.070312 215.71875 L 275.082031 215.699219 L 275.140625 215.605469 L 275.144531 215.601562 L 275.203125 215.503906 L 275.21875 215.484375 L 275.277344 215.390625 L 275.285156 215.375 L 275.339844 215.285156 L 275.351562 215.269531 L 275.410156 215.175781 L 275.421875 215.15625 L 275.542969 214.960938 L 275.558594 214.9375 L 275.617188 214.84375 L 275.625 214.832031 L 275.679688 214.742188 L 275.691406 214.722656 L 275.75 214.628906 L 275.757812 214.613281 L 275.882812 214.410156 L 275.894531 214.394531 L 275.953125 214.296875 L 275.960938 214.285156 L 276.019531 214.1875 L 276.023438 214.183594 L 276.085938 214.082031 L 276.097656 214.066406 C 276.136719 213.996094 276.179688 213.929688 276.222656 213.859375 L 276.226562 213.851562 L 276.289062 213.746094 L 276.292969 213.742188 L 276.355469 213.636719 L 276.355469 213.632812 L 276.421875 213.527344 L 276.425781 213.519531 L 276.550781 213.308594 L 276.558594 213.300781 L 276.617188 213.199219 L 276.625 213.1875 L 276.683594 213.085938 L 276.6875 213.085938 L 276.75 212.980469 L 276.753906 212.96875 C 276.796875 212.898438 276.835938 212.828125 276.878906 212.761719 L 276.882812 212.75 L 276.945312 212.644531 L 276.949219 212.636719 L 277.011719 212.535156 L 277.011719 212.53125 L 277.074219 212.425781 L 277.078125 212.417969 C 277.121094 212.347656 277.164062 212.273438 277.203125 212.203125 L 277.207031 212.199219 L 277.269531 212.089844 L 277.269531 212.085938 L 277.398438 211.867188 L 277.398438 211.863281 C 282.867188 202.382812 286.828125 192.105469 289.128906 181.40625 C 290.664062 174.246094 286.101562 167.195312 278.941406 165.660156 C 278.027344 165.464844 277.09375 165.367188 276.160156 165.367188 Z M 276.160156 165.367188 " style=" stroke:none;fill-rule:nonzero;fill:rgb(20.784314%,4.313725%,0%);fill-opacity:1;" />
<path d="M 260.0625 90.589844 C 252.746094 90.597656 246.816406 96.535156 246.824219 103.851562 C 246.828125 106.691406 247.738281 109.449219 249.425781 111.730469 C 257.34375 122.417969 262.445312 134.925781 264.261719 148.101562 C 265.15625 154.660156 270.753906 159.550781 277.371094 159.558594 C 277.980469 159.558594 278.582031 159.519531 279.183594 159.4375 C 286.429688 158.445312 291.503906 151.769531 290.515625 144.519531 L 290.515625 144.507812 L 290.503906 144.421875 L 290.5 144.378906 L 290.492188 144.324219 L 290.484375 144.277344 L 290.476562 144.226562 L 290.472656 144.1875 L 290.464844 144.125 L 290.453125 144.054688 L 290.4375 143.953125 L 290.433594 143.910156 L 290.425781 143.859375 L 290.421875 143.816406 L 290.390625 143.625 L 290.386719 143.589844 L 290.378906 143.535156 L 290.375 143.492188 L 290.367188 143.4375 L 290.359375 143.40625 L 290.339844 143.269531 L 290.332031 143.207031 L 290.328125 143.171875 L 290.316406 143.113281 L 290.3125 143.089844 L 290.28125 142.878906 L 290.277344 142.851562 L 290.265625 142.785156 L 290.265625 142.765625 L 290.253906 142.695312 L 290.25 142.683594 L 290.214844 142.453125 L 290.214844 142.445312 L 290.203125 142.371094 L 290.199219 142.355469 C 290.183594 142.25 290.167969 142.144531 290.148438 142.039062 L 290.148438 142.03125 C 288.007812 128.714844 283.324219 115.929688 276.359375 104.378906 L 276.359375 104.375 C 276.292969 104.265625 276.222656 104.148438 276.15625 104.039062 L 276.148438 104.027344 C 276.105469 103.960938 276.066406 103.898438 276.027344 103.832031 L 275.992188 103.769531 L 275.980469 103.753906 C 275.929688 103.671875 275.878906 103.585938 275.828125 103.503906 L 275.8125 103.484375 L 275.78125 103.429688 L 275.769531 103.414062 L 275.734375 103.355469 L 275.730469 103.347656 L 275.660156 103.234375 L 275.648438 103.214844 L 275.617188 103.164062 L 275.570312 103.09375 L 275.554688 103.0625 C 275.519531 103.007812 275.488281 102.957031 275.453125 102.902344 L 275.433594 102.871094 L 275.40625 102.824219 L 275.386719 102.792969 L 275.355469 102.75 L 275.339844 102.71875 L 275.292969 102.648438 L 275.265625 102.605469 L 275.242188 102.566406 L 275.21875 102.523438 L 275.164062 102.441406 L 275.144531 102.414062 L 275.097656 102.335938 L 275.085938 102.320312 L 275.046875 102.257812 L 275.03125 102.230469 L 274.996094 102.179688 L 274.980469 102.152344 L 274.941406 102.085938 L 274.929688 102.074219 L 274.882812 101.996094 L 274.867188 101.976562 L 274.828125 101.910156 L 274.816406 101.894531 L 274.773438 101.824219 L 274.765625 101.8125 L 274.660156 101.652344 L 274.652344 101.636719 L 274.609375 101.566406 L 274.597656 101.554688 L 274.550781 101.480469 L 274.546875 101.472656 L 274.441406 101.308594 L 274.429688 101.292969 L 274.386719 101.222656 L 274.378906 101.210938 C 274.324219 101.128906 274.269531 101.046875 274.214844 100.960938 L 274.210938 100.957031 C 273.09375 99.253906 271.929688 97.582031 270.71875 95.949219 C 268.21875 92.574219 264.265625 90.582031 260.0625 90.589844 Z M 260.0625 90.589844 " style=" stroke:none;fill-rule:nonzero;fill:rgb(0%,65.490196%,53.72549%);fill-opacity:1;" />
</g>
</svg>