<?xml version="1.0" standalone="no"?>
<!DOCTYPE svg PUBLIC "-//W3C//DTD SVG 20010904//EN"
 "http://www.w3.org/TR/2001/REC-SVG-20010904/DTD/svg10.dtd">
<svg version="1.0" xmlns="http://www.w3.org/2000/svg"
 width="162.000000pt" height="87.000000pt" viewBox="0 0 162.000000 87.000000"
 preserveAspectRatio="xMidYMid meet">
<metadata>
Created by potrace 1.10, written by Peter Selinger 2001-2011
</metadata>
<g transform="translate(0.000000,87.000000) scale(0.100000,-0.100000)"
fill="#cdcdcd" fill-rule="evenodd" stroke="none">
<path d="M103 715 c-23 -22 -23 -26 -23 -287 l0 -264 28 -27 28 -27 634 0 634
0 28 27 28 27 0 261 0 261 -28 27 -28 27 -640 -1 -639 -1 -22 -23z m1301 -37
c13 -25 16 -72 16 -260 0 -215 -1 -229 -20 -248 -20 -20 -33 -20 -623 -20
-529 0 -608 2 -635 16 l-32 15 0 239 0 239 25 26 26 25 614 0 614 0 15 -32z"/>
<path d="M434 587 c-2 -7 -3 -76 -2 -153 l3 -139 93 -3 c74 -2 92 0 92 12 0
19 -22 26 -86 26 l-54 0 6 93 c2 50 7 107 9 124 3 25 -1 36 -15 43 -25 14 -40
13 -46 -3z"/>
<path d="M644 586 c-9 -24 4 -48 23 -44 12 2 18 12 18 28 0 29 -32 41 -41 16z"/>
<path d="M744 594 c-8 -3 -11 -50 -8 -152 3 -134 5 -147 21 -147 13 0 17 7 16
23 -4 31 14 62 35 62 15 0 28 -20 46 -72 5 -17 56 -26 56 -10 0 4 -16 33 -35
65 -33 55 -34 59 -19 82 8 13 22 26 30 29 19 7 18 25 -2 33 -16 6 -47 -23 -81
-74 -25 -38 -34 -16 -31 74 3 83 -2 98 -28 87z"/>
<path d="M978 490 c-55 -42 -61 -123 -13 -174 20 -21 33 -26 74 -26 41 0 52 4
62 21 16 30 -1 43 -36 25 -36 -19 -85 -2 -85 30 0 11 17 14 70 14 82 0 92 10
66 65 -31 64 -90 84 -138 45z m87 -50 c0 -22 -5 -25 -42 -28 -37 -3 -43 -1
-43 17 0 25 27 42 60 38 19 -1 25 -8 25 -27z"/>
<path d="M645 487 c-3 -7 -5 -54 -3 -103 3 -81 5 -89 23 -89 18 0 19 7 19 100
-1 85 -3 100 -17 103 -10 2 -19 -3 -22 -11z"/>
</g>
</svg>
