<?xml version="1.0" standalone="no"?>
<!DOCTYPE svg PUBLIC "-//W3C//DTD SVG 20010904//EN"
 "http://www.w3.org/TR/2001/REC-SVG-20010904/DTD/svg10.dtd">
<svg version="1.0" xmlns="http://www.w3.org/2000/svg"
 width="207.000000pt" height="102.000000pt" viewBox="0 0 207.000000 102.000000"
 preserveAspectRatio="xMidYMid meet">
<metadata>
Created by potrace 1.10, written by Peter Selinger 2001-2011
</metadata>
<g transform="translate(0.000000,102.000000) scale(0.100000,-0.100000)"
fill="#cdcdcd" fill-rule="evenodd" stroke="none">
<path d="M330 834 c-14 -7 -32 -14 -41 -14 -20 0 -65 -47 -89 -95 -24 -46 -26
-130 -6 -172 8 -15 23 -46 33 -68 10 -22 24 -44 31 -48 6 -4 12 -14 12 -21 0
-15 136 -156 197 -203 22 -18 48 -33 58 -33 18 0 118 74 170 125 68 68 155
194 155 223 0 11 7 25 15 32 20 17 20 118 0 144 -8 11 -15 27 -15 36 0 22 -62
80 -86 80 -11 0 -30 7 -42 16 -21 14 -26 14 -56 0 -19 -9 -39 -16 -44 -16 -10
0 -57 -51 -64 -69 -6 -20 -51 -17 -62 4 -19 34 -50 65 -66 65 -9 0 -25 7 -36
15 -23 17 -31 17 -64 -1z"/>
<path d="M1202 657 c-31 -16 -42 -27 -40 -42 2 -14 11 -20 28 -20 25 0 25 0
28 -107 l3 -107 -28 -3 c-22 -2 -28 -8 -28 -28 0 -25 1 -25 85 -25 84 0 85 0
85 25 0 17 -7 26 -25 30 -25 6 -25 6 -30 150 -6 163 -6 163 -78 127z"/>
<path d="M1543 658 c-11 -13 -48 -60 -82 -106 -47 -62 -62 -89 -59 -110 3 -26
5 -27 76 -30 l72 -3 0 -39 c0 -44 10 -55 46 -46 20 5 24 13 24 41 0 29 5 37
25 45 14 5 25 16 25 25 0 8 -11 21 -25 27 -24 11 -25 14 -25 109 0 79 -3 98
-16 103 -27 10 -40 7 -61 -16z m5 -139 l-3 -54 -38 -3 c-26 -2 -39 1 -43 12
-7 18 67 119 79 107 4 -4 7 -32 5 -62z"/>
<path d="M1818 568 c-3 -41 -5 -43 -41 -49 -44 -7 -52 -13 -44 -34 4 -10 20
-15 46 -15 40 0 40 0 43 -42 4 -59 32 -60 36 -1 3 40 4 42 40 45 29 2 37 7 37
23 0 15 -8 21 -35 25 -25 4 -36 11 -38 25 -7 50 -13 65 -27 65 -9 0 -15 -14
-17 -42z"/>
</g>
</svg>
