<?xml version="1.0" encoding="iso-8859-1"?>
<!-- Generator: Adobe Illustrator 19.1.0, SVG Export Plug-In . SVG Version: 6.00 Build 0)  -->
<svg xmlns="http://www.w3.org/2000/svg" xmlns:xlink="http://www.w3.org/1999/xlink" version="1.1" id="Capa_1" x="0px" y="0px" viewBox="0 0 333.829 333.829" style="enable-background:new 0 0 333.829 333.829;" xml:space="preserve" width="28px" height="28px">
<g>
	<path d="M166.911,333.826C74.879,333.826,0,258.953,0,166.915S74.879,0.003,166.911,0.003c92.045,0,166.918,74.879,166.918,166.918   S258.956,333.826,166.911,333.826z M166.911,12.857c-84.95,0-154.058,69.108-154.058,154.064   c0,84.943,69.108,154.058,154.058,154.058s154.064-69.114,154.064-154.058C320.975,81.965,251.868,12.857,166.911,12.857z    M158.691,213.927v23.233c0,15.63,15.187,28.291,33.927,28.291c18.753,0,33.94-12.667,33.94-28.291v-23.233H158.691z    M252.215,210.566c0-5.321-4.319-9.64-9.64-9.64H91.261c-5.321,0-9.64,4.319-9.64,9.64c0,5.321,4.319,9.64,9.64,9.64h151.313   C247.896,220.206,252.215,215.887,252.215,210.566z M147.271,149.44c3.766-3.76,3.766-9.872,0-13.631l-44.12-44.12   c-3.766-3.766-9.865-3.766-13.631,0c-3.766,3.76-3.766,9.872,0,13.631l44.12,44.12c1.883,1.883,4.351,2.821,6.819,2.821   S145.388,151.323,147.271,149.44z M103.144,149.434l44.12-44.114c3.766-3.76,3.766-9.865,0-13.631   c-3.766-3.766-9.865-3.766-13.631,0l-44.12,44.114c-3.766,3.76-3.766,9.865,0,13.631c1.883,1.883,4.351,2.821,6.819,2.821   S101.261,151.317,103.144,149.434z M244.323,149.44c3.766-3.76,3.766-9.872,0-13.631l-44.12-44.12   c-3.766-3.766-9.865-3.766-13.631,0c-3.766,3.76-3.766,9.872,0,13.631l44.12,44.12c1.883,1.883,4.357,2.821,6.819,2.821   C239.978,152.268,242.439,151.323,244.323,149.44z M200.196,149.434l44.12-44.114c3.766-3.76,3.766-9.865,0-13.631   c-3.766-3.766-9.865-3.766-13.631,0l-44.12,44.114c-3.766,3.76-3.766,9.865,0,13.631c1.883,1.883,4.357,2.821,6.819,2.821   C195.858,152.261,198.313,151.317,200.196,149.434z" fill="#FFFFFF"/>
</g>
<g>
</g>
<g>
</g>
<g>
</g>
<g>
</g>
<g>
</g>
<g>
</g>
<g>
</g>
<g>
</g>
<g>
</g>
<g>
</g>
<g>
</g>
<g>
</g>
<g>
</g>
<g>
</g>
<g>
</g>
</svg>
