<svg width="256" height="256" viewBox="0 0 256 256" fill="none" xmlns="http://www.w3.org/2000/svg">
<path d="M73 0H183C223.3 0 256 32.7 256 73V183C256 223.3 223.3 256 183 256H73C32.7 256 0 223.3 0 183V73C0 32.7 32.7 0 73 0Z" fill="url(#paint0_linear)"/>
<path d="M213.343 85.4191C201.843 73.9191 183.243 73.9191 171.843 85.4191L160.143 97.1191L170.643 107.619L182.043 96.1191C184.743 93.4191 188.343 91.8191 192.143 91.6191C196.243 91.5191 200.243 93.1191 203.043 96.1191C208.543 102.019 208.343 111.119 202.543 116.719L195.043 124.219C191.543 127.719 185.943 127.719 182.443 124.219C175.643 117.419 143.443 85.2191 143.443 85.2191C137.943 79.7191 130.543 76.6191 122.643 76.6191C114.843 76.6191 107.443 79.7191 101.843 85.2191C99.5427 87.5191 97.5426 90.2191 96.1426 93.2191L95.5426 94.5191L107.643 106.619L108.443 102.919C110.143 95.0191 117.843 90.0191 125.743 91.7191C128.543 92.3191 131.043 93.6191 133.043 95.6191L178.043 140.619L157.443 161.219L127.243 131.119C126.643 130.519 124.143 127.919 111.143 114.819L80.2426 83.9191C68.7426 72.4191 50.1426 72.4191 38.7426 83.9191C27.2426 95.4191 27.2426 114.019 38.7426 125.419L84.8426 171.519C87.3426 174.019 90.7426 175.419 94.2426 175.419C97.8426 175.419 101.143 174.019 103.743 171.519L122.943 152.319L112.443 141.819L94.3427 159.919L49.3426 114.919C43.7426 109.119 43.9426 99.9191 49.7426 94.3191C55.3426 88.9191 64.2426 88.9191 69.8426 94.3191L100.343 124.819C100.843 125.419 101.443 126.119 102.043 126.719L148.043 172.719C150.543 175.319 153.943 176.819 157.643 176.819C157.743 176.819 157.843 176.819 157.843 176.819C161.443 176.819 164.743 175.419 167.343 172.919L213.343 126.919C224.843 115.519 224.843 96.8191 213.343 85.4191Z" fill="#FFEAEA"/>
<defs>
<linearGradient id="paint0_linear" x1="11.2525" y1="15.4603" x2="267.258" y2="262.247" gradientUnits="userSpaceOnUse">
<stop stop-color="#FF6D6F"/>
<stop offset="1" stop-color="#FF6D6F"/>
</linearGradient>
</defs>
</svg>
