<?xml version="1.0" encoding="utf-8"?>
<!-- Generator: Adobe Illustrator 22.1.0, SVG Export Plug-In . SVG Version: 6.00 Build 0)  -->
<svg version="1.1" id="Layer_1" xmlns="http://www.w3.org/2000/svg" xmlns:xlink="http://www.w3.org/1999/xlink" x="0px" y="0px"
	 viewBox="0 0 256 256" style="enable-background:new 0 0 256 256;" xml:space="preserve">
<style type="text/css">
	.st0{fill:url(#Path_196_1_);}
	.st1{fill:#F4F9FE;}
</style>
<linearGradient id="Path_196_1_" gradientUnits="userSpaceOnUse" x1="-827.8392" y1="667.0813" x2="-825.1705" y2="664.5087" gradientTransform="matrix(95.929 0 0 -95.929 79425.0391 64007.9023)">
	<stop  offset="0" style="stop-color:#FF6D6F"/>
	<stop  offset="1" style="stop-color:#F5A98E"/>
</linearGradient>
<path id="Path_196" class="st0" d="M73,0H183c40.3,0,73,32.7,73,73V183c0,40.3-32.7,73-73,73H73c-40.3,0-73-32.7-73-73V73
	C0,32.7,32.7,0,73,0z"/>
<path class="st1" d="M215.3,87.3L215.3,87.3c-11.5-11.5-30.1-11.5-41.5,0L162.1,99l10.5,10.5L184,98c2.7-2.7,6.3-4.3,10.1-4.5
	c4.1-0.1,8.1,1.5,10.9,4.5c5.5,5.9,5.3,15-0.5,20.6l-7.5,7.5c-3.5,3.5-9.1,3.5-12.6,0c-6.8-6.8-39-39-39-39
	c-5.5-5.5-12.9-8.6-20.8-8.6c0,0,0,0,0,0c-7.8,0-15.2,3.1-20.8,8.6c-2.3,2.3-4.3,5-5.7,8l-0.6,1.3l12.1,12.1l0.8-3.7
	c1.7-7.9,9.4-12.9,17.3-11.2c2.8,0.6,5.3,1.9,7.3,3.9l45,45l-20.6,20.6L129.2,133h0c-0.6-0.6-3.1-3.2-16.1-16.3L82.2,85.8
	c-11.5-11.5-30.1-11.5-41.5,0c-11.5,11.5-11.5,30.1,0,41.5l46.1,46.1c2.5,2.5,5.9,3.9,9.4,3.9c0,0,0,0,0,0c3.6,0,6.9-1.4,9.5-3.9
	l19.2-19.2l-10.5-10.5l-18.1,18.1l-45-45c-5.6-5.8-5.4-15,0.4-20.6c5.6-5.4,14.5-5.4,20.1,0l30.5,30.5c0.5,0.6,1.1,1.3,1.7,1.9
	l46,46c2.5,2.6,5.9,4.1,9.6,4.1c0.1,0,0.2,0,0.2,0c3.6,0,6.9-1.4,9.5-3.9l46-46C226.8,117.4,226.8,98.7,215.3,87.3z"/>
</svg>
