<svg width="512" height="512" viewBox="0 0 512 512" fill="none" xmlns="http://www.w3.org/2000/svg">
<g clip-path="url(#clip0_7_2)">
<path d="M146 0H366C446.6 0 512 65.4 512 146V366C512 446.6 446.6 512 366 512H146C65.4 512 0 446.6 0 366V146C0 65.4 65.4 0 146 0Z" fill="#EE5E60"/>
<path d="M430.45 174.25C407.45 151.25 370.25 151.25 347.45 174.25L324.05 197.65L345.05 218.65L367.85 195.65C373.25 190.25 380.45 187.05 388.05 186.65C396.25 186.45 404.25 189.65 409.85 195.65C420.85 207.45 420.45 225.65 408.85 236.85L393.85 251.85C386.85 258.85 375.65 258.85 368.65 251.85C355.05 238.25 290.65 173.85 290.65 173.85C279.65 162.85 264.85 156.65 249.05 156.65C233.45 156.65 218.65 162.85 207.45 173.85C202.85 178.45 198.85 183.85 196.05 189.85L194.85 192.45L219.05 216.65L220.65 209.25C224.05 193.45 239.45 183.45 255.25 186.85C260.85 188.05 265.85 190.65 269.85 194.65L359.85 284.65L318.65 325.85L258.25 265.65C257.05 264.45 252.05 259.25 226.05 233.05L164.25 171.25C141.25 148.25 104.05 148.25 81.25 171.25C58.25 194.25 58.25 231.45 81.25 254.25L173.45 346.45C178.45 351.45 185.25 354.25 192.25 354.25C199.45 354.25 206.05 351.45 211.25 346.45L249.65 308.05L228.65 287.05L192.45 323.25L102.45 233.25C91.25 221.65 91.65 203.25 103.25 192.05C114.45 181.25 132.25 181.25 143.45 192.05L204.45 253.05C205.45 254.25 206.65 255.65 207.85 256.85L299.85 348.85C304.85 354.05 311.65 357.05 319.05 357.05C319.25 357.05 319.45 357.05 319.45 357.05C326.65 357.05 333.25 354.25 338.45 349.25L430.45 257.25C453.45 234.45 453.45 197.05 430.45 174.25Z" fill="#FFEAEA"/>
</g>
<defs>
<clipPath id="clip0_7_2">
<rect width="512" height="512" fill="white"/>
</clipPath>
</defs>
</svg>
