<svg width="215" height="85" viewBox="0 0 215 85" fill="none" xmlns="http://www.w3.org/2000/svg">
<g clip-path="url(#clip0_4_7)">
<path d="M24.2383 0H60.7617C74.1426 0 85 10.8574 85 24.2383V60.7617C85 74.1426 74.1426 85 60.7617 85H24.2383C10.8574 85 0 74.1426 0 60.7617V24.2383C0 10.8574 10.8574 0 24.2383 0Z" fill="#EE5E60"/>
<path d="M71.8364 29.3618C68.0181 25.5435 61.8423 25.5435 58.0571 29.3618L54.1724 33.2466L57.6587 36.7329L61.4439 32.9146C62.3403 32.0181 63.5357 31.4868 64.7974 31.4204C66.1587 31.3872 67.4868 31.9185 68.4165 32.9146C70.2427 34.8735 70.1763 37.895 68.2505 39.7544L65.7603 42.2446C64.5982 43.4067 62.7388 43.4067 61.5767 42.2446C59.3189 39.9868 48.6275 29.2954 48.6275 29.2954C46.8013 27.4692 44.3442 26.4399 41.7212 26.4399C39.1314 26.4399 36.6743 27.4692 34.815 29.2954C34.0513 30.0591 33.3872 30.9556 32.9224 31.9517L32.7232 32.3833L36.7407 36.4009L37.0064 35.1724C37.5708 32.5493 40.1275 30.8892 42.7505 31.4536C43.6802 31.6528 44.5103 32.0845 45.1743 32.7485L60.1157 47.6899L53.2759 54.5298L43.2485 44.5357C43.0493 44.3364 42.2192 43.4732 37.9028 39.1235L27.6431 28.8638C23.8247 25.0454 17.6489 25.0454 13.8638 28.8638C10.0454 32.6821 10.0454 38.8579 13.8638 42.6431L29.1704 57.9497C30.0005 58.7798 31.1294 59.2446 32.2915 59.2446C33.4868 59.2446 34.5825 58.7798 35.4458 57.9497L41.8208 51.5747L38.3345 48.0884L32.3247 54.0982L17.3833 39.1567C15.5239 37.231 15.5903 34.1763 17.5161 32.3169C19.3755 30.5239 22.3306 30.5239 24.19 32.3169L34.3169 42.4439C34.4829 42.6431 34.6821 42.8755 34.8814 43.0747L50.1548 58.3482C50.9849 59.2114 52.1138 59.7095 53.3423 59.7095C53.3755 59.7095 53.4087 59.7095 53.4087 59.7095C54.604 59.7095 55.6997 59.2446 56.563 58.4146L71.8364 43.1411C75.6548 39.356 75.6548 33.147 71.8364 29.3618Z" fill="#FFEAEA"/>
</g>
<path d="M116.497 28.9091H122.648V47.8011C122.648 49.9223 122.141 51.7784 121.128 53.3693C120.124 54.9602 118.718 56.2008 116.909 57.0909C115.1 57.9716 112.993 58.4119 110.588 58.4119C108.173 58.4119 106.062 57.9716 104.253 57.0909C102.444 56.2008 101.038 54.9602 100.034 53.3693C99.0303 51.7784 98.5284 49.9223 98.5284 47.8011V28.9091H104.679V47.2756C104.679 48.3835 104.92 49.3684 105.403 50.2301C105.896 51.0919 106.587 51.7689 107.477 52.2614C108.367 52.7538 109.404 53 110.588 53C111.781 53 112.818 52.7538 113.699 52.2614C114.589 51.7689 115.276 51.0919 115.759 50.2301C116.251 49.3684 116.497 48.3835 116.497 47.2756V28.9091ZM128.508 58V28.9091H134.659V52.929H147.13V58H128.508ZM158.154 28.9091V58H152.003V28.9091H158.154ZM164.014 58V28.9091H170.165V41.7358H170.548L181.017 28.9091H188.389L177.594 41.9347L188.517 58H181.159L173.19 46.0398L170.165 49.733V58H164.014ZM192.392 58V28.9091H211.995V33.9801H198.543V40.9119H210.986V45.983H198.543V52.929H212.052V58H192.392Z" fill="#2A2826"/>
<defs>
<clipPath id="clip0_4_7">
<rect width="85" height="85" fill="white"/>
</clipPath>
</defs>
</svg>
