<svg xmlns="http://www.w3.org/2000/svg" viewBox="0 0 25 25">
	<path fill="#000" d="M23.9,7.1c-1.5-1.5-3.9-1.5-5.4,0l-1.5,1.5l1.4,1.4l1.5-1.5c0.4-0.4,0.8-0.6,1.3-0.6c0.5,0,1.1,0.2,1.4,0.6c0.7,0.8,0.7,2-0.1,2.7l-1,1c-0.5,0.5-1.2,0.5-1.6,0c-0.9-0.9-5.1-5.1-5.1-5.1c-0.7-0.7-1.7-1.1-2.7-1.1c-1,0-2,0.4-2.7,1.1C9,7.4,8.8,7.7,8.6,8.1L8.5,8.3l1.6,1.6l0.1-0.5c0.2-1,1.2-1.7,2.3-1.5c0.4,0.1,0.7,0.2,1,0.5l5.9,5.9L16.6,17L12.7,13c-0.1-0.1-0.4-0.4-2.1-2.1l-4-4C5,5.4,2.6,5.4,1.1,6.9c-1.5,1.5-1.5,3.9,0,5.4l6,6c0.3,0.3,0.8,0.5,1.2,0.5c0.5,0,0.9-0.2,1.2-0.5l2.5-2.5l-1.4-1.4l-2.4,2.4l-5.9-5.9c-0.7-0.8-0.7-2,0.1-2.7c0.7-0.7,1.9-0.7,2.6,0l4,4c0.1,0.1,0.1,0.2,0.2,0.2l6,6c0.3,0.3,0.8,0.5,1.3,0.5c0.5,0,0.9-0.2,1.2-0.5l6-6C25.4,11,25.4,8.6,23.9,7.1z"/>
</svg>
