<?xml version="1.0" encoding="utf-8"?>
<!-- Generator: Adobe Illustrator 22.1.0, SVG Export Plug-In . SVG Version: 6.00 Build 0)  -->
<svg version="1.1" id="Layer_1" xmlns="http://www.w3.org/2000/svg" xmlns:xlink="http://www.w3.org/1999/xlink" x="0px" y="0px"
	 viewBox="0 0 256 256" style="enable-background:new 0 0 256 256;" xml:space="preserve">
<style type="text/css">
	.st0{fill:#FFFFFF;}
</style>
<path class="st0" d="M244.5,73.7L244.5,73.7c-15.3-15.3-40.2-15.3-55.4,0l-15.6,15.6l14,14L202.7,88c3.6-3.6,8.4-5.7,13.5-6
	c5.5-0.1,10.8,2,14.5,6c7.3,7.9,7.1,20-0.7,27.5l-10,10c-4.7,4.7-12.1,4.7-16.8,0c-9.1-9.1-52-52-52-52C143.9,66.1,134,62,123.5,62
	l0,0c-10.4,0-20.3,4.1-27.8,11.5c-3.1,3.1-5.7,6.7-7.6,10.7l-0.8,1.7l16.1,16.1l1.1-4.9c2.3-10.5,12.5-17.2,23.1-14.9
	c3.7,0.8,7.1,2.5,9.7,5.2l60,60l-27.5,27.5l-40.3-40.2l0,0c-0.8-0.8-4.1-4.3-21.5-21.8L66.9,71.7c-15.3-15.3-40.2-15.3-55.4,0
	c-15.3,15.3-15.3,40.2,0,55.4L73,188.6c3.3,3.3,7.9,5.2,12.5,5.2l0,0c4.8,0,9.2-1.9,12.7-5.2l25.6-25.6l-14-14l-24.2,24.2l-60-60
	c-7.5-7.7-7.2-20,0.5-27.5c7.5-7.2,19.3-7.2,26.8,0l40.7,40.7c0.7,0.8,1.5,1.7,2.3,2.5l61.4,61.4c3.3,3.5,7.9,5.5,12.8,5.5
	c0.1,0,0.3,0,0.3,0c4.8,0,9.2-1.9,12.7-5.2l61.4-61.4C259.8,113.9,259.8,88.9,244.5,73.7z"/>
</svg>
