<svg width="1200" height="484" viewBox="0 0 1200 484" fill="none" xmlns="http://www.w3.org/2000/svg">
<g clip-path="url(#clip0_311_2)">
<path d="M137.848 0H345.564C421.664 0 483.412 61.7021 483.412 137.745V345.306C483.412 421.349 421.664 483.051 345.564 483.051H137.848C61.7482 483.051 0 421.349 0 345.306V137.745C0 61.7021 61.7482 0 137.848 0Z" fill="url(#paint0_linear_311_2)"/>
<path d="M402.861 161.179C381.146 139.479 346.023 139.479 324.495 161.179L302.402 183.256L322.23 203.068L343.756 181.369C348.855 176.274 355.653 173.255 362.829 172.878C370.571 172.689 378.124 175.708 383.411 181.369C393.797 192.501 393.42 209.672 382.467 220.239L368.305 234.391C361.695 240.995 351.121 240.995 344.512 234.391C331.671 221.56 270.867 160.801 270.867 160.801C260.481 150.423 246.507 144.574 231.59 144.574C216.86 144.574 202.887 150.423 192.312 160.801C187.969 165.141 184.193 170.236 181.549 175.897L180.416 178.35L203.265 201.182L204.775 194.2C207.986 179.293 222.525 169.859 237.444 173.066C242.731 174.198 247.452 176.652 251.228 180.425L336.203 265.336L297.304 304.207L240.276 247.411C239.143 246.279 234.422 241.373 209.874 216.654L151.525 158.349C129.809 136.649 94.6857 136.649 73.159 158.349C51.4431 180.048 51.4431 215.145 73.159 236.656L160.211 323.642C164.932 328.36 171.352 331.001 177.961 331.001C184.759 331.001 190.991 328.36 195.9 323.642L232.156 287.414L212.329 267.601L178.15 301.754L93.1752 216.843C82.6004 205.899 82.978 188.539 93.9304 177.972C104.505 167.783 121.311 167.783 131.886 177.972L189.48 235.523C190.424 236.656 191.557 237.976 192.69 239.108L279.553 325.906C284.274 330.812 290.695 333.643 297.681 333.643C297.87 333.643 298.059 333.643 298.059 333.643C304.857 333.643 311.088 331.001 315.998 326.284L402.861 239.486C424.577 217.975 424.577 182.69 402.861 161.179Z" fill="#FFEAEA"/>
<path d="M631.28 327.338C620.514 327.338 611.261 325.822 603.526 322.792C595.791 319.609 589.348 315.215 584.19 309.607C579.185 304 575.471 297.408 573.043 289.831C570.614 282.253 569.403 273.918 569.403 264.826V166.397H598.294V262.098C598.294 269.22 599.05 275.358 600.569 280.511C602.235 285.512 604.51 289.603 607.393 292.786C610.425 295.968 613.917 298.317 617.858 299.833C621.953 301.348 626.502 302.106 631.507 302.106C636.512 302.106 641.062 301.348 645.156 299.833C649.251 298.317 652.737 295.968 655.621 292.786C658.652 289.603 660.927 285.512 662.445 280.511C664.112 275.358 664.948 269.22 664.948 262.098V166.397H693.839V264.826C693.839 273.918 692.548 282.253 689.972 289.831C687.543 297.408 683.755 304 678.597 309.607C673.592 315.215 667.149 319.609 659.261 322.792C651.372 325.822 642.045 327.338 631.28 327.338ZM834.682 299.151V323.928H735.043V166.397H763.706V299.151H834.682ZM861.111 166.397H889.774V323.928H861.111V166.397ZM1026.27 323.928C1022.33 317.866 1017.78 311.501 1012.62 304.834C1007.46 298.166 1002 291.725 996.239 285.512C990.626 279.298 984.79 273.388 978.722 267.781C972.654 262.173 966.665 257.324 960.751 253.232V323.928H932.087V166.397H960.751V231.41C965.755 226.409 970.988 221.105 976.447 215.498C981.907 209.739 987.293 203.98 992.599 198.221C998.059 192.311 1003.22 186.628 1008.07 181.173C1012.92 175.717 1017.32 170.791 1021.26 166.397H1055.61C1050.61 172.155 1045.3 178.142 1039.69 184.355C1034.08 190.568 1028.31 196.857 1022.4 203.222C1016.49 209.436 1010.5 215.649 1004.43 221.862C998.514 228.076 992.673 233.986 986.912 239.593C993.281 244.443 999.725 250.125 1006.25 256.642C1012.92 263.007 1019.44 269.902 1025.81 277.328C1032.18 284.602 1038.25 292.255 1044.01 300.287C1049.93 308.168 1055.31 316.048 1060.16 323.928H1026.27ZM1084.82 323.928V166.397H1186.05V190.72H1113.48V229.591H1178.09V253.46H1113.48V299.605H1191.51V323.928H1084.82Z" fill="#2C2D49"/>
</g>
<defs>
<linearGradient id="paint0_linear_311_2" x1="21.2484" y1="29.1722" x2="504.323" y2="495.2" gradientUnits="userSpaceOnUse">
<stop stop-color="#FF6D6F"/>
<stop offset="1" stop-color="#FF6D6F"/>
</linearGradient>
<clipPath id="clip0_311_2">
<rect width="1200" height="483.051" fill="white"/>
</clipPath>
</defs>
</svg>
