<svg xmlns="http://www.w3.org/2000/svg" width="107" height="43" viewBox="0 0 107 43"><defs><style>.a,.c{fill:#cdcdcd;}.b{fill:#fff;}.c{font-size:17px;font-weight:600;font-family: -apple-system,BlinkMacSystemFont,"Segoe UI",Roboto,Oxygen-Sans,Ubuntu,Cantarell,"Helvetica Neue",sans-serif}</style></defs><g transform="translate(-1254 -505)"><g transform="translate(270)"><g transform="translate(-1)"><circle class="a" cx="21.5" cy="21.5" r="21.5" transform="translate(985 505)"/><path class="b" d="M21.6,7.826c-.316-3.477-2.777-6-5.856-6A5.821,5.821,0,0,0,10.76,4.7,5.61,5.61,0,0,0,5.892,1.826c-3.079,0-5.541,2.522-5.856,6A6.186,6.186,0,0,0,.22,10.1a9.779,9.779,0,0,0,3,5l7.539,6.841L18.424,15.1a9.78,9.78,0,0,0,3-5A6.2,6.2,0,0,0,21.6,7.826Z" transform="translate(996 516.174)"/></g></g><text class="c" transform="translate(1310 536)"><tspan x="0" y="0">321+</tspan></text></g></svg>