<svg xmlns="http://www.w3.org/2000/svg" width="25" height="45" viewBox="0 0 25 45"><defs><style>.a{fill:#fff;stroke:#cdcdcd;stroke-miterlimit:10;}.b{fill:#f3f3f3;}.c,.d{fill:#cdcdcd;}.d{font-size:10px;font-family:SegoeUI-Semibold, Segoe UI;}</style></defs><g transform="translate(0.5 0.5)"><rect class="a" width="24" height="44" rx="4"/><rect class="b" width="20" height="10" rx="2" transform="translate(2 2)"/><rect class="b" width="20" height="10" rx="2" transform="translate(2 32)"/><g transform="translate(9 5)"><path class="c" d="M2.772.266a.3.3,0,0,1,.456,0L5.576,3a.3.3,0,0,1-.228.5H.652A.3.3,0,0,1,.424,3Z"/></g><g transform="translate(9 39)"><path class="c" d="M2.772-.266a.3.3,0,0,0,.456,0L5.576-3a.3.3,0,0,0-.228-.5H.652A.3.3,0,0,0,.424-3Z"/></g><text class="d" transform="translate(12 25)"><tspan x="-2.815" y="0">5</tspan></text></g></svg>