<svg xmlns="http://www.w3.org/2000/svg" width="92.824" height="37.5" viewBox="0 0 92.824 37.5"><defs><style>.a{fill:#fff;}.b{fill:#cdcdcd;}</style></defs><g transform="translate(-1040.49 -161)"><g transform="translate(270)"><g transform="translate(625 -43)"><g transform="translate(-70.081 73.683)"><path class="a" d="M266.574,176.571V158.378H253.516v18.193a2.643,2.643,0,0,0,.007.962l-.007,0v12.586l6.529-2.9,6.529,2.9V177.529l-.058.033A2.24,2.24,0,0,0,266.574,176.571Z" transform="translate(-31.468 -23.296)"/><path class="b" d="M254.8,181.975h-.329l-6.195-3.183a.011.011,0,0,0-.01,0l-6.195,3.183h-.329a2.451,2.451,0,0,1-2.448-2.448V150.147a2.451,2.451,0,0,1,2.448-2.448H254.8a2.451,2.451,0,0,1,2.448,2.448v29.379A2.451,2.451,0,0,1,254.8,181.975Zm-6.529-5.9a2.73,2.73,0,0,1,1.248.3l5.008,2.574V150.419H242.016v28.526l5.008-2.574A2.733,2.733,0,0,1,248.273,176.07Z" transform="translate(-19.696 -14.431)"/><path class="a" d="M244.146,139.022a6.533,6.533,0,0,1,1.763,9.068,13.01,13.01,0,0,1-3.961,3.184,54.93,54.93,0,0,1-6.529,3.156,54.916,54.916,0,0,1-6.529-3.156,13.01,13.01,0,0,1-3.961-3.184,6.533,6.533,0,0,1,1.763-9.068,7.36,7.36,0,0,1,2.2-1.037c2.278-.624,4.541.2,6.529,2.662,1.988-2.467,4.251-3.286,6.529-2.662A7.357,7.357,0,0,1,244.146,139.022Z" transform="translate(-6.843 -6.199)"/><path class="b" d="M241.414,136.74a8.05,8.05,0,0,0-3.139-4.988,7.148,7.148,0,0,0-5.2-1.372,7.6,7.6,0,0,0-4.516,2.454,7.6,7.6,0,0,0-4.516-2.454,7.149,7.149,0,0,0-5.2,1.372,8.05,8.05,0,0,0-3.139,4.988,8.449,8.449,0,0,0,1.611,6.567c.294.412,1.189,1.668,6.172,4.164,1.952.978,3.744,1.755,4.351,2.013a1.363,1.363,0,0,0,.7.2h.037a1.364,1.364,0,0,0,.7-.2c.607-.259,2.4-1.036,4.351-2.014,4.983-2.5,5.878-3.752,6.172-4.164A8.449,8.449,0,0,0,241.414,136.74Zm-3.827,4.988c-.89,1.249-5.633,3.649-9.029,5.107-3.4-1.458-8.138-3.857-9.029-5.107-2.186-3.069-1.193-6.237.918-7.78,1.676-1.225,4.431-1.592,6.679,1.406a2,2,0,0,0,1.451.725,1.766,1.766,0,0,0,1.413-.725c2.249-3,5-2.631,6.679-1.406C238.78,135.491,239.774,138.659,237.587,141.728Z"/><g transform="translate(219.963 134.266)"><path class="b" d="M245.058,153.573a3.631,3.631,0,0,0-3.627,3.627,1.451,1.451,0,0,0,2.9,0,.727.727,0,0,1,.725-.725,1.451,1.451,0,1,0,0-2.9Z" transform="translate(-241.431 -153.573)"/></g></g></g><g transform="translate(571 -43)"><g transform="translate(-326.069 75.139)"><path class="a" d="M643.488,157.627V139.541h-12.98v18.086a2.626,2.626,0,0,0,.007.956l-.007,0v12.512l6.49-2.885,6.49,2.885V158.579l-.057.033A2.227,2.227,0,0,0,643.488,157.627Z" transform="translate(-31.506 -8.877)"/><path class="b" d="M631.7,162.935h-.327l-6.158-3.165a.01.01,0,0,0-.01,0l-6.158,3.165h-.327a2.437,2.437,0,0,1-2.434-2.434V131.295a2.437,2.437,0,0,1,2.434-2.434H631.7a2.437,2.437,0,0,1,2.434,2.434V160.5A2.437,2.437,0,0,1,631.7,162.935Zm-6.49-5.869a2.715,2.715,0,0,1,1.241.3l4.979,2.559V131.565h-12.44v28.358l4.979-2.559A2.714,2.714,0,0,1,625.211,157.066Z" transform="translate(-19.719)"/><path class="a" d="M621.019,245.662a6.5,6.5,0,0,1,1.752,9.014,12.935,12.935,0,0,1-3.938,3.166,54.578,54.578,0,0,1-6.49,3.137,54.578,54.578,0,0,1-6.49-3.137,12.935,12.935,0,0,1-3.938-3.166,6.5,6.5,0,0,1,1.753-9.014,7.319,7.319,0,0,1,2.185-1.031c2.264-.62,4.514.195,6.49,2.647,1.976-2.452,4.226-3.267,6.49-2.647A7.32,7.32,0,0,1,621.019,245.662Z" transform="translate(-6.851 -96.061)"/><path class="b" d="M618.254,243.351a8,8,0,0,0-3.121-4.959,7.107,7.107,0,0,0-5.17-1.364,7.559,7.559,0,0,0-4.489,2.44,7.559,7.559,0,0,0-4.489-2.44,7.107,7.107,0,0,0-5.17,1.364,8,8,0,0,0-3.121,4.959,8.4,8.4,0,0,0,1.6,6.528c.292.41,1.181,1.658,6.135,4.14,1.941.972,3.722,1.745,4.326,2a1.356,1.356,0,0,0,.7.2h.036a1.356,1.356,0,0,0,.7-.2c.6-.257,2.385-1.03,4.326-2,4.954-2.481,5.843-3.729,6.136-4.14A8.4,8.4,0,0,0,618.254,243.351Zm-3.8,4.959c-.885,1.242-5.6,3.627-8.976,5.077-3.375-1.449-8.09-3.834-8.976-5.077-2.174-3.051-1.186-6.2.913-7.735,1.666-1.218,4.4-1.583,6.64,1.4a1.989,1.989,0,0,0,1.442.721,1.756,1.756,0,0,0,1.4-.721c2.235-2.981,4.974-2.616,6.64-1.4C615.636,242.109,616.623,245.259,614.449,248.309Z" transform="translate(0 -89.855)"/><g transform="translate(596.929 151.036)"><path class="b" d="M622.029,260.221a3.61,3.61,0,0,0-3.606,3.606,1.442,1.442,0,1,0,2.885,0,.722.722,0,0,1,.721-.721,1.442,1.442,0,1,0,0-2.885Z" transform="translate(-618.423 -260.221)"/></g></g></g></g></g></svg>