<svg xmlns="http://www.w3.org/2000/svg" width="106.09" height="34.456" viewBox="0 0 106.09 34.456"><defs><style>.a{fill:#cdcdcd;}</style></defs><g transform="translate(-1032.41 -283)"><g transform="translate(270)"><g transform="translate(762.41 283)"><path class="a" d="M260.365,745.392a1.118,1.118,0,0,1-.6-.174,91.374,91.374,0,0,1-9.682-7.241c-6.59-5.691-9.938-10.594-9.938-14.576a12.343,12.343,0,0,1,12.182-12.464,11.9,11.9,0,0,1,8.036,3.1,11.9,11.9,0,0,1,8.038-3.1A12.344,12.344,0,0,1,280.585,723.4c0,3.981-3.344,8.885-9.938,14.576a91.379,91.379,0,0,1-9.682,7.241A1.124,1.124,0,0,1,260.365,745.392Zm-8.036-32.218a10.1,10.1,0,0,0-9.943,10.227c0,3.254,3.168,7.707,9.161,12.879a91.682,91.682,0,0,0,8.821,6.665c5.534-3.609,17.976-13.091,17.976-19.536a10.1,10.1,0,0,0-9.943-10.227,9.727,9.727,0,0,0-7.217,3.19,1.12,1.12,0,0,1-1.583.064c-.022-.021-.044-.042-.065-.064a9.728,9.728,0,0,0-7.21-3.2Z" transform="translate(-240.144 -710.936)"/><path class="a" d="M310.535,732.082a1.12,1.12,0,0,1-1.12-1.12,5.322,5.322,0,0,0-5.168-5.454,5.025,5.025,0,0,0-.86.074,1.12,1.12,0,1,1-.386-2.207,7.228,7.228,0,0,1,1.246-.108,7.564,7.564,0,0,1,7.409,7.688,1.12,1.12,0,0,1-1.113,1.128Zm-10.816-4.563a1.121,1.121,0,0,1-.816-1.883v-.008a1.12,1.12,0,1,1,1.648,1.519h0l-.024.025a1.117,1.117,0,0,1-.808.347Z" transform="translate(-275.989 -718.496)"/></g><g transform="translate(828.059 283)"><path class="a" d="M644.365,745.392a1.119,1.119,0,0,1-.6-.174,91.4,91.4,0,0,1-9.682-7.241c-6.59-5.691-9.938-10.594-9.938-14.576a12.344,12.344,0,0,1,12.182-12.464,11.9,11.9,0,0,1,8.036,3.1,11.9,11.9,0,0,1,8.038-3.1A12.344,12.344,0,0,1,664.585,723.4c0,3.981-3.343,8.885-9.938,14.576a91.393,91.393,0,0,1-9.682,7.241A1.124,1.124,0,0,1,644.365,745.392Zm-8.036-32.218a10.1,10.1,0,0,0-9.943,10.227c0,3.254,3.168,7.707,9.161,12.879a91.689,91.689,0,0,0,8.821,6.665c5.534-3.609,17.976-13.091,17.976-19.536a10.1,10.1,0,0,0-9.943-10.227,9.727,9.727,0,0,0-7.218,3.19,1.12,1.12,0,0,1-1.583.064c-.022-.021-.044-.042-.065-.064a9.727,9.727,0,0,0-7.21-3.2Z" transform="translate(-624.144 -710.936)"/><path class="a" d="M672.506,750.627h-2.321V739.179a1.588,1.588,0,0,1,.382-1.032l.174-.2,2.268-.988-4.094-2.544-.114-.13a1.59,1.59,0,0,1,.071-2.167l.115-.115,3.921-2.185-2.167-.935-.175-.2a1.588,1.588,0,0,1-.382-1.032V722h2.321v5.115l3.158,1.364.175.2a1.593,1.593,0,0,1-.083,2.154l-.114.115-4.165,2.321,4.255,2.644.114.13a1.6,1.6,0,0,1,.01,2.076l-.174.2-3.176,1.382Z" transform="translate(-651.285 -717.72)"/></g></g></g></svg>