<svg xmlns="http://www.w3.org/2000/svg" width="107.085" height="41.31" viewBox="0 0 107.085 41.31"><defs><style>.a{fill:#fff;}.b{fill:#cdcdcd;}</style></defs><g transform="translate(-1252.581 -159.698)"><g transform="translate(270)"><path class="a" d="M260.025,958a1.441,1.441,0,0,1-1.022-.424l-6.65-6.651,2.044-2.045,5.628,5.628,11.8-11.8,2.044,2.044-12.819,12.819A1.441,1.441,0,0,1,260.025,958Z" transform="translate(740.882 -769.686)"/><g transform="translate(982.581 159.698)"><circle class="a" cx="19.812" cy="19.812" r="19.812" transform="translate(0.843 1.345)"/><path class="b" d="M251.414,907.05a20.655,20.655,0,1,0,6.05,14.605A20.52,20.52,0,0,0,251.414,907.05Zm-14.605,33.574a18.969,18.969,0,1,1,18.969-18.969A18.991,18.991,0,0,1,236.808,940.624Z" transform="translate(-216.153 -901)"/><path class="b" d="M259.148,955.5l-5.968-5.968a.843.843,0,0,0-1.192,0l-2.384,2.385a.843.843,0,0,0,0,1.192l7.756,7.756a2.529,2.529,0,0,0,3.577,0l14.95-14.95a.843.843,0,0,0,0-1.192l-2.385-2.384a.843.843,0,0,0-1.192,0Zm13.758-11.373,1.192,1.192-14.354,14.354a.843.843,0,0,1-1.192,0l-7.16-7.16,1.192-1.192,5.968,5.968a.844.844,0,0,0,1.192,0Z" transform="translate(-240.01 -930.525)"/></g><g transform="translate(1049.199 161.044)"><circle class="a" cx="19.812" cy="19.812" r="19.812"/><path class="a" d="M652.028,930.29l-2.385-2.385L639.51,938.04l-10.134-10.134-2.384,2.385,10.134,10.134-10.134,10.134,2.384,2.385,10.134-10.134,10.134,10.134,2.385-2.385-10.134-10.134Z" transform="translate(-619.697 -921.179)"/></g><g transform="translate(1048.356 159.698)"><path class="b" d="M633.346,905.05a20.655,20.655,0,1,0,6.05,14.605A20.52,20.52,0,0,0,633.346,905.05ZM618.74,938.624a18.969,18.969,0,1,1,18.969-18.969A18.99,18.99,0,0,1,618.74,938.624Z" transform="translate(-598.085 -899)"/><path class="b" d="M650.472,927.542l-2.384-2.385a.844.844,0,0,0-1.192,0l-9.538,9.539-9.538-9.538a.843.843,0,0,0-1.192,0l-2.385,2.384a.843.843,0,0,0,0,1.192l9.538,9.538-9.538,9.538a.843.843,0,0,0,0,1.193l2.384,2.385a.843.843,0,0,0,1.192,0l9.538-9.538,9.538,9.538a.843.843,0,0,0,1.192,0L650.472,949a.843.843,0,0,0,0-1.193l-9.538-9.538,9.538-9.538A.843.843,0,0,0,650.472,927.542Zm-11.326,10.134a.843.843,0,0,0,0,1.192l9.538,9.538-1.192,1.192-9.538-9.538a.843.843,0,0,0-1.192,0l-9.538,9.538-1.192-1.192,9.538-9.538a.843.843,0,0,0,0-1.192l-9.538-9.538,1.192-1.192,9.538,9.538a.843.843,0,0,0,1.192,0l9.538-9.538,1.192,1.192Z" transform="translate(-616.702 -917.617)"/></g></g></g></svg>