<svg xmlns="http://www.w3.org/2000/svg" width="101.676" height="41.165" viewBox="0 0 101.676 41.165"><defs><style>.a{fill:none;stroke:#cdcdcd;stroke-width:2px;}.b{fill:#cdcdcd;}</style></defs><g transform="translate(-1035.324 -388.818)"><g transform="translate(270)"><g transform="translate(766.324 390.38)"><path class="a" d="M19.132,0A19.132,19.132,0,1,1,0,19.132,19.132,19.132,0,0,1,19.132,0Z"/><g transform="translate(6.017 9.566)"><path class="b" d="M1228.733,187.828a2.264,2.264,0,0,1,0,3.143l-1.753,1.753a2.263,2.263,0,0,1-3.144,0l-7.677-7.737a2.263,2.263,0,0,1,0-3.143l1.753-1.753a2.263,2.263,0,0,1,3.143,0Z" transform="translate(-1215.525 -173.834)"/><path class="b" d="M1252.257,158.674a2.263,2.263,0,0,1,3.143,0l1.753,1.753a2.263,2.263,0,0,1,0,3.143l-13.3,13.239a2.263,2.263,0,0,1-3.143,0l-1.753-1.753a2.263,2.263,0,0,1,0-3.143Z" transform="translate(-1232.339 -158.039)"/></g></g><g transform="translate(826.835 389.818)"><ellipse class="a" cx="19.582" cy="19.582" rx="19.582" ry="19.582"/><path class="b" d="M1641.01,170.894a2.313,2.313,0,0,1,0,3.212l-1.73,1.73a2.313,2.313,0,0,1-3.212,0l-13.59-13.59a2.313,2.313,0,0,1,0-3.212l1.791-1.792a2.313,2.313,0,0,1,3.212,0Z" transform="translate(-1612.162 -146.988)"/><path class="b" d="M1653.543,183.539l-5,5,7.228,7.166a2.313,2.313,0,0,0,3.212,0l1.792-1.792a2.313,2.313,0,0,0,0-3.212Z" transform="translate(-1631.86 -166.86)"/><path class="b" d="M1636.068,157.478a2.313,2.313,0,0,1,3.212,0l1.792,1.792a2.313,2.313,0,0,1,0,3.212L1627.42,176.01a2.313,2.313,0,0,1-3.212,0l-1.73-1.73a2.313,2.313,0,0,1,0-3.212Z" transform="translate(-1612.162 -147.162)"/></g></g></g></svg>