<svg width="99" height="51" viewBox="0 0 99 51" fill="none" xmlns="http://www.w3.org/2000/svg">
<circle cx="25.5" cy="25.5" r="25" stroke="#CDCDCD"/>
<path d="M63.2622 23.8945H64.5405C65.1493 23.8945 65.6003 23.7424 65.8936 23.438C66.1868 23.1336 66.3335 22.7297 66.3335 22.2261C66.3335 21.7391 66.1868 21.36 65.8936 21.0889C65.6058 20.8177 65.2074 20.6821 64.6982 20.6821C64.2389 20.6821 63.8543 20.8094 63.5444 21.064C63.2345 21.313 63.0796 21.6395 63.0796 22.0435H60.6807C60.6807 21.4126 60.8494 20.8481 61.187 20.3501C61.5301 19.8465 62.006 19.4536 62.6147 19.1714C63.229 18.8892 63.9041 18.748 64.6401 18.748C65.9185 18.748 66.9201 19.0552 67.645 19.6694C68.37 20.2782 68.7324 21.1193 68.7324 22.1929C68.7324 22.7463 68.5636 23.2554 68.2261 23.7202C67.8885 24.1851 67.4458 24.542 66.8979 24.791C67.5786 25.0345 68.085 25.3997 68.417 25.8867C68.7546 26.3737 68.9233 26.9492 68.9233 27.6133C68.9233 28.6868 68.5304 29.5474 67.7446 30.1948C66.9644 30.8423 65.9295 31.166 64.6401 31.166C63.4338 31.166 62.446 30.8478 61.6768 30.2114C60.9131 29.575 60.5312 28.7339 60.5312 27.688H62.9302C62.9302 28.1418 63.099 28.5125 63.4365 28.8003C63.7796 29.0881 64.2002 29.2319 64.6982 29.2319C65.2682 29.2319 65.7137 29.0825 66.0347 28.7837C66.3612 28.4793 66.5244 28.0781 66.5244 27.5801C66.5244 26.3737 65.8604 25.7705 64.5322 25.7705H63.2622V23.8945ZM78.8677 31H70.5835V29.3564L74.4932 25.1895C75.0299 24.6029 75.4256 24.091 75.6802 23.6538C75.9403 23.2166 76.0703 22.8016 76.0703 22.4087C76.0703 21.8719 75.9347 21.4513 75.6636 21.147C75.3924 20.8371 75.005 20.6821 74.5015 20.6821C73.9591 20.6821 73.5303 20.8703 73.2148 21.2466C72.9049 21.6174 72.75 22.1071 72.75 22.7158H70.3428C70.3428 21.9798 70.5171 21.3075 70.8657 20.6987C71.2199 20.09 71.7179 19.6141 72.3599 19.271C73.0018 18.9224 73.7295 18.748 74.543 18.748C75.7881 18.748 76.7537 19.0469 77.4399 19.6445C78.1317 20.2422 78.4775 21.0861 78.4775 22.1763C78.4775 22.7739 78.3226 23.3826 78.0127 24.0024C77.7028 24.6222 77.1715 25.3444 76.4189 26.1689L73.6714 29.0659H78.8677V31ZM86.1724 31H83.7734V21.7529L80.9097 22.6411V20.6904L85.915 18.8975H86.1724V31ZM95.0459 24.2349H98.0425V26.4014H95.0459V29.7881H92.7632V26.4014H89.7583V24.2349H92.7632V20.9893H95.0459V24.2349Z" fill="#CDCDCD"/>
<path d="M33.5395 15.2944C33.8871 15.6112 34.0899 16.0432 34.2058 16.4752C34.3217 16.3888 34.4376 16.3312 34.5534 16.2736C34.8432 15.7264 34.7562 15.0352 34.2637 14.5744C33.6843 14.0272 32.7573 14.0272 32.1778 14.6032L32.1199 14.6608C32.6414 14.6896 33.1628 14.92 33.5395 15.2944V15.2944ZM25.1958 19.3264C25.3117 19.5856 25.3986 19.8736 25.4276 20.2192L30.2078 15.352C30.3816 15.1792 30.6134 15.0352 30.8162 14.92C31.1059 14.3728 31.019 13.6528 30.5555 13.192C29.976 12.6448 29.049 12.6448 28.4695 13.2208L23.979 17.8C24.6454 18.4336 24.8771 18.664 25.1958 19.3264V19.3264ZM13.9261 30.76C13.8971 28.1968 14.8532 25.8064 16.6494 23.9632L22.038 18.4912C22.2408 17.9152 22.1828 17.3104 22.009 16.9648C21.7772 16.4464 21.6324 16.3024 20.966 15.6688L14.9111 21.832C11.8402 24.9424 11.6663 29.7808 14.2448 33.1504C14.0709 32.4016 13.955 31.5952 13.9261 30.76V30.76Z" fill="#CDCDCD"/>
<path d="M17.3157 24.5968L23.3706 18.4336C24.008 19.0672 24.1528 19.1824 24.3846 19.7296C24.6164 20.248 24.6743 21.2848 23.9211 22.0336L20.5025 25.5472C20.3576 25.6912 20.3866 25.8928 20.5025 26.0368C20.6473 26.1808 20.8501 26.1808 20.995 26.0368L30.8452 15.9568C31.3956 15.3808 32.3517 15.352 32.9311 15.928C33.5105 16.4752 33.5105 17.4256 32.96 18.0016L25.8042 25.288C25.6593 25.432 25.6883 25.6336 25.8042 25.7776C25.9491 25.9216 26.1518 25.9216 26.2967 25.7776L34.5534 17.3392C35.1329 16.7632 36.0599 16.7632 36.6104 17.3104C37.1898 17.8576 37.1898 18.7792 36.6394 19.3552L28.3826 27.7936C28.2378 27.9376 28.2667 28.1392 28.3826 28.2832C28.5275 28.4272 28.7303 28.3984 28.8751 28.2832L36.031 20.9968C36.5814 20.4208 37.5085 20.392 38.0879 20.968C38.6673 21.5152 38.6673 22.4656 38.1169 23.0416L30.961 30.328C30.8162 30.472 30.8452 30.6736 30.961 30.8176C31.1059 30.9616 31.3087 30.9616 31.4535 30.8176L35.6833 26.4976C36.2627 25.9216 37.1898 25.9216 37.7692 26.4688C38.3487 27.0448 38.3776 27.9664 37.7982 28.5424L29.8022 36.7216C26.4416 40.1488 20.9371 40.2352 17.4895 36.8944C14.013 33.5248 13.955 28.024 17.3157 24.5968V24.5968ZM22.5594 10.6576L22.3566 12.0688L21.7193 10.8016L22.5594 10.6576ZM23.9211 11.0608L22.8491 12.04L23.1968 10.6576L23.9211 11.0608ZM24.7902 12.0112L23.3996 12.472L24.2977 11.3488" fill="#CDCDCD"/>
</svg>
