<svg width="93" height="43" viewBox="0 0 93 43" fill="none" xmlns="http://www.w3.org/2000/svg">
<path d="M57.2622 18.8945H58.5405C59.1493 18.8945 59.6003 18.7424 59.8936 18.438C60.1868 18.1336 60.3335 17.7297 60.3335 17.2261C60.3335 16.7391 60.1868 16.36 59.8936 16.0889C59.6058 15.8177 59.2074 15.6821 58.6982 15.6821C58.2389 15.6821 57.8543 15.8094 57.5444 16.064C57.2345 16.313 57.0796 16.6395 57.0796 17.0435H54.6807C54.6807 16.4126 54.8494 15.8481 55.187 15.3501C55.5301 14.8465 56.006 14.4536 56.6147 14.1714C57.229 13.8892 57.9041 13.748 58.6401 13.748C59.9185 13.748 60.9201 14.0552 61.645 14.6694C62.37 15.2782 62.7324 16.1193 62.7324 17.1929C62.7324 17.7463 62.5636 18.2554 62.2261 18.7202C61.8885 19.1851 61.4458 19.542 60.8979 19.791C61.5786 20.0345 62.085 20.3997 62.417 20.8867C62.7546 21.3737 62.9233 21.9492 62.9233 22.6133C62.9233 23.6868 62.5304 24.5474 61.7446 25.1948C60.9644 25.8423 59.9295 26.166 58.6401 26.166C57.4338 26.166 56.446 25.8478 55.6768 25.2114C54.9131 24.575 54.5312 23.7339 54.5312 22.688H56.9302C56.9302 23.1418 57.099 23.5125 57.4365 23.8003C57.7796 24.0881 58.2002 24.2319 58.6982 24.2319C59.2682 24.2319 59.7137 24.0825 60.0347 23.7837C60.3612 23.4793 60.5244 23.0781 60.5244 22.5801C60.5244 21.3737 59.8604 20.7705 58.5322 20.7705H57.2622V18.8945ZM72.8677 26H64.5835V24.3564L68.4932 20.1895C69.0299 19.6029 69.4256 19.091 69.6802 18.6538C69.9403 18.2166 70.0703 17.8016 70.0703 17.4087C70.0703 16.8719 69.9347 16.4513 69.6636 16.147C69.3924 15.8371 69.005 15.6821 68.5015 15.6821C67.9591 15.6821 67.5303 15.8703 67.2148 16.2466C66.9049 16.6174 66.75 17.1071 66.75 17.7158H64.3428C64.3428 16.9798 64.5171 16.3075 64.8657 15.6987C65.2199 15.09 65.7179 14.6141 66.3599 14.271C67.0018 13.9224 67.7295 13.748 68.543 13.748C69.7881 13.748 70.7537 14.0469 71.4399 14.6445C72.1317 15.2422 72.4775 16.0861 72.4775 17.1763C72.4775 17.7739 72.3226 18.3826 72.0127 19.0024C71.7028 19.6222 71.1715 20.3444 70.4189 21.1689L67.6714 24.0659H72.8677V26ZM80.1724 26H77.7734V16.7529L74.9097 17.6411V15.6904L79.915 13.8975H80.1724V26ZM89.0459 19.2349H92.0425V21.4014H89.0459V24.7881H86.7632V21.4014H83.7583V19.2349H86.7632V15.9893H89.0459V19.2349Z" fill="#CDCDCD"/>
<path d="M38.0206 12.8955L26.7884 11.8071L22.3266 0.982633C22.0142 0.224692 20.9857 0.224692 20.6733 0.982633L16.2116 11.807L4.97939 12.8955C4.19288 12.9717 3.87508 13.9937 4.46843 14.5384L12.9431 22.3166L10.463 33.8137C10.2893 34.6188 11.1215 35.2504 11.8006 34.8291L21.5 28.8119L31.1994 34.8291C31.8785 35.2505 32.7106 34.6188 32.537 33.8137L30.0568 22.3166L38.5315 14.5384C39.1249 13.9937 38.807 12.9717 38.0206 12.8955Z" fill="#CDCDCD"/>
<path d="M10.0175 0.609972C10.5901 1.44092 12.2063 5.0095 13.1303 7.08923C13.2756 7.41617 12.883 7.71152 12.6323 7.46382C11.0377 5.88862 8.3111 3.15519 7.7385 2.32416C7.2854 1.66668 7.42826 0.749925 8.05764 0.276541C8.68694 -0.196843 9.56441 -0.0475014 10.0175 0.609972Z" fill="#CDCDCD"/>
<path d="M32.9825 0.609972C32.4099 1.44092 30.7937 5.0095 29.8697 7.08923C29.7245 7.41617 30.1171 7.71152 30.3678 7.46382C31.9624 5.88862 34.6889 3.1551 35.2616 2.32416C35.7147 1.66668 35.5718 0.749925 34.9424 0.276541C34.3131 -0.196843 33.4356 -0.0475014 32.9825 0.609972Z" fill="#CDCDCD"/>
<path d="M42.0309 24.9773C41.0992 24.6598 37.3539 24.1354 35.1768 23.8476C34.8346 23.8023 34.6846 24.2829 34.9865 24.4571C36.9075 25.5658 40.2285 27.4491 41.1602 27.7666C41.8974 28.0178 42.69 27.5971 42.9304 26.8268C43.1709 26.0564 42.7682 25.2285 42.0309 24.9773Z" fill="#CDCDCD"/>
<path d="M0.969059 24.9773C1.90078 24.6598 5.64607 24.1354 7.8232 23.8476C8.16544 23.8023 8.31544 24.2829 8.01351 24.4571C6.09254 25.5658 2.77154 27.4491 1.83981 27.7666C1.10259 28.0178 0.310033 27.5971 0.0695851 26.8268C-0.170863 26.0564 0.231843 25.2285 0.969059 24.9773Z" fill="#CDCDCD"/>
<path d="M20.1389 41.5331C20.1389 40.5092 20.823 36.6265 21.2362 34.3747C21.3011 34.0207 21.7849 34.0207 21.8498 34.3747C22.2631 36.6265 22.9471 40.5092 22.9471 41.5331C22.9471 42.3432 22.3185 43 21.5431 43C20.7675 43.0001 20.1389 42.3432 20.1389 41.5331Z" fill="#CDCDCD"/>
<path d="M23.9491 4.91887L22.3266 0.982633C22.0141 0.224692 20.9856 0.224692 20.6732 0.982633L16.2115 11.807L4.97939 12.8955C4.19288 12.9717 3.87508 13.9937 4.46843 14.5384L12.9431 22.3166L10.463 33.8137C10.2893 34.6188 11.1215 35.2504 11.8006 34.8291L13.0915 34.0283C15.2079 19.7153 21.1575 9.20855 23.9491 4.91887Z" fill="#CDCDCD"/>
</svg>
