<svg xmlns="http://www.w3.org/2000/svg" width="96.389" height="53.46" viewBox="0 0 96.389 53.46">
  <g id="Group_128" data-name="Group 128" transform="translate(-1252.95 -732)">
    <g id="feedback" transform="translate(1252.95 732)">
      <g id="Group_127" data-name="Group 127" transform="translate(0)">
        <path id="Path_129" data-name="Path 129" d="M393.354,25.61a.781.781,0,0,0,.554-.229L395.69,23.6a.783.783,0,0,0-1.108-1.107L392.8,24.273a.783.783,0,0,0,.554,1.337Z" transform="translate(-358.379 -19.938)" fill="#cdcdcd"/>
        <path id="Path_130" data-name="Path 130" d="M363.52,4.35a.783.783,0,0,0,.783-.783V.783a.783.783,0,0,0-1.566,0V3.567A.783.783,0,0,0,363.52,4.35Z" transform="translate(-331.66)" fill="#cdcdcd"/>
        <path id="Path_131" data-name="Path 131" d="M408.8,69.157h-2.784a.783.783,0,0,0,0,1.566H408.8a.783.783,0,0,0,0-1.566Z" transform="translate(-369.716 -61.936)" fill="#cdcdcd"/>
        <path id="Path_132" data-name="Path 132" d="M100.1,49.2a10.688,10.688,0,1,0-13.95,10.178v1.113a2.983,2.983,0,0,0-1.418-.383h-.052a3.062,3.062,0,0,0-3.061,3.063,8.118,8.118,0,0,1-1.346,4.183,6.338,6.338,0,0,1-1.408,1.628c-.188.143-.29.058-1.423.083a1.822,1.822,0,0,0-1.187-.438H72.832a1.948,1.948,0,0,0-1.906-1.56H65.888a.783.783,0,0,0-.783.783V71.02a.783.783,0,0,0,1.566,0V68.634h4.255a.379.379,0,0,1,.378.378v17a.379.379,0,0,1-.378.378H66.671V74.152a.783.783,0,1,0-1.566,0V87.169a.783.783,0,0,0,.783.783h5.038a1.948,1.948,0,0,0,1.906-1.56H76.26a1.833,1.833,0,0,0,1.678-1.1h4.908a21.341,21.341,0,0,0,5.262.948h.043a.783.783,0,0,0,.041-1.565,19.811,19.811,0,0,1-4.99-.914.783.783,0,0,0-.237-.037H78.09V70.632h.542a1.971,1.971,0,0,0,1.186-.4A7.854,7.854,0,0,0,81.6,68.2a9.717,9.717,0,0,0,1.592-5.025,1.5,1.5,0,0,1,1.522-1.5,1.518,1.518,0,0,1,1.443,1.257v.982a12.873,12.873,0,0,1-1.487,4.964,1.2,1.2,0,0,0,1.059,1.754h9.309a1.135,1.135,0,0,1,1.146,1.04,1.1,1.1,0,0,1-1.094,1.149.783.783,0,1,0,0,1.566,1.095,1.095,0,1,1,0,2.19.783.783,0,1,0,0,1.566,1.094,1.094,0,1,1,0,2.189.783.783,0,0,0,0,1.566,1.075,1.075,0,0,1,.2,2.134,34.469,34.469,0,0,1-4.076.6.783.783,0,0,0,.062,1.564l.063,0a36.026,36.026,0,0,0,4.26-.624,2.631,2.631,0,0,0,1.4-4.431l-.022-.022a2.656,2.656,0,0,0,0-3.754,2.656,2.656,0,0,0,0-3.755l.041-.042a2.641,2.641,0,0,0,.733-1.965,2.685,2.685,0,0,0-2.711-2.532H92.68V59.379A10.707,10.707,0,0,0,100.1,49.2ZM76.524,84.562a.265.265,0,0,1-.264.264H72.871V70.194H76.26a.265.265,0,0,1,.264.264ZM80.3,49.2a9.121,9.121,0,1,1,9.121,9.121A9.132,9.132,0,0,1,80.3,49.2ZM91.114,69.065H87.721V59.754a10.767,10.767,0,0,0,3.393,0Z" transform="translate(-65.105 -34.492)" fill="#cdcdcd"/>
        <path id="Path_133" data-name="Path 133" d="M255.726,106.236v-.656a.783.783,0,1,0-1.566,0v.656a.783.783,0,1,0,1.566,0Z" transform="translate(-234.42 -93.855)" fill="#cdcdcd"/>
        <path id="Path_134" data-name="Path 134" d="M327.515,107.02a.783.783,0,0,0,.783-.783v-.656a.783.783,0,1,0-1.566,0v.656A.783.783,0,0,0,327.515,107.02Z" transform="translate(-299.414 -93.855)" fill="#cdcdcd"/>
        <path id="Path_135" data-name="Path 135" d="M265.542,152.665a.783.783,0,0,0-1.566,0,2.71,2.71,0,1,1-5.421,0,.783.783,0,0,0-1.566,0,4.277,4.277,0,1,0,8.553,0Z" transform="translate(-236.953 -136.023)" fill="#cdcdcd"/>
      </g>
    </g>
    <g id="feedback-2" data-name="feedback" transform="translate(1309.475 732)">
      <g id="Group_127-2" data-name="Group 127" transform="translate(0)">
        <path id="Path_129-2" data-name="Path 129" d="M393.354,25.61a.781.781,0,0,0,.554-.229L395.69,23.6a.783.783,0,0,0-1.108-1.107L392.8,24.273a.783.783,0,0,0,.554,1.337Z" transform="translate(-358.379 -19.938)" fill="#cdcdcd"/>
        <path id="Path_130-2" data-name="Path 130" d="M363.52,4.35a.783.783,0,0,0,.783-.783V.783a.783.783,0,0,0-1.566,0V3.567A.783.783,0,0,0,363.52,4.35Z" transform="translate(-331.66)" fill="#cdcdcd"/>
        <path id="Path_131-2" data-name="Path 131" d="M408.8,69.157h-2.784a.783.783,0,0,0,0,1.566H408.8a.783.783,0,0,0,0-1.566Z" transform="translate(-369.716 -61.936)" fill="#cdcdcd"/>
        <path id="Path_132-2" data-name="Path 132" d="M100.1,49.2a10.688,10.688,0,1,0-13.95,10.178v1.113a2.983,2.983,0,0,0-1.418-.383h-.052a3.062,3.062,0,0,0-3.061,3.063,8.118,8.118,0,0,1-1.346,4.183,6.338,6.338,0,0,1-1.408,1.628c-.188.143-.29.058-1.423.083a1.822,1.822,0,0,0-1.187-.438H72.832a1.948,1.948,0,0,0-1.906-1.56H65.888a.783.783,0,0,0-.783.783V71.02a.783.783,0,0,0,1.566,0V68.634h4.255a.379.379,0,0,1,.378.378v17a.379.379,0,0,1-.378.378H66.671V74.152a.783.783,0,1,0-1.566,0V87.169a.783.783,0,0,0,.783.783h5.038a1.948,1.948,0,0,0,1.906-1.56H76.26a1.833,1.833,0,0,0,1.678-1.1h4.908a21.341,21.341,0,0,0,5.262.948h.043a.783.783,0,0,0,.041-1.565,19.811,19.811,0,0,1-4.99-.914.783.783,0,0,0-.237-.037H78.09V70.632h.542a1.971,1.971,0,0,0,1.186-.4A7.854,7.854,0,0,0,81.6,68.2a9.717,9.717,0,0,0,1.592-5.025,1.5,1.5,0,0,1,1.522-1.5,1.518,1.518,0,0,1,1.443,1.257v.982a12.873,12.873,0,0,1-1.487,4.964,1.2,1.2,0,0,0,1.059,1.754h9.309a1.135,1.135,0,0,1,1.146,1.04,1.1,1.1,0,0,1-1.094,1.149.783.783,0,1,0,0,1.566,1.095,1.095,0,1,1,0,2.19.783.783,0,1,0,0,1.566,1.094,1.094,0,1,1,0,2.189.783.783,0,0,0,0,1.566,1.075,1.075,0,0,1,.2,2.134,34.469,34.469,0,0,1-4.076.6.783.783,0,0,0,.062,1.564l.063,0a36.026,36.026,0,0,0,4.26-.624,2.631,2.631,0,0,0,1.4-4.431l-.022-.022a2.656,2.656,0,0,0,0-3.754,2.656,2.656,0,0,0,0-3.755l.041-.042a2.641,2.641,0,0,0,.733-1.965,2.685,2.685,0,0,0-2.711-2.532H92.68V59.379A10.707,10.707,0,0,0,100.1,49.2ZM76.524,84.562a.265.265,0,0,1-.264.264H72.871V70.194H76.26a.265.265,0,0,1,.264.264ZM80.3,49.2a9.121,9.121,0,1,1,9.121,9.121A9.132,9.132,0,0,1,80.3,49.2ZM91.114,69.065H87.721V59.754a10.767,10.767,0,0,0,3.393,0Z" transform="translate(-65.105 -34.492)" fill="#cdcdcd"/>
        <path id="Path_133-2" data-name="Path 133" d="M255.726,106.236v-.656a.783.783,0,1,0-1.566,0v.656a.783.783,0,1,0,1.566,0Z" transform="translate(-234.42 -93.855)" fill="#cdcdcd"/>
        <path id="Path_134-2" data-name="Path 134" d="M327.515,107.02a.783.783,0,0,0,.783-.783v-.656a.783.783,0,1,0-1.566,0v.656A.783.783,0,0,0,327.515,107.02Z" transform="translate(-299.414 -93.855)" fill="#cdcdcd"/>
        <path id="Path_135-2" data-name="Path 135" d="M8.553.783a.783.783,0,0,0-1.566,0,2.71,2.71,0,0,1-5.421,0A.783.783,0,0,0,0,.783a4.277,4.277,0,1,0,8.553,0Z" transform="translate(28.589 20.918) rotate(180)" fill="#cdcdcd"/>
      </g>
    </g>
  </g>
</svg>
