<svg xmlns="http://www.w3.org/2000/svg" width="132.13" height="54.713" viewBox="0 0 132.13 54.713">
  <g id="Group_356" data-name="Group 356" transform="translate(-1007.62 -1169.065)">
    <g id="Group_353" data-name="Group 353" transform="translate(1007.62 1186.894)">
      <g id="Electric_Car" data-name="Electric Car" transform="translate(0 0)">
        <path id="Path_646" data-name="Path 646" d="M812.406,155.26v1.876a1.882,1.882,0,0,1-1.876,1.876h-3.753a5.629,5.629,0,1,0-11.258,0h-7.506V144h18.764a5.611,5.611,0,0,1,5.3,3.753h-4.363a.938.938,0,0,0-.938.938v1.876a.938.938,0,0,0,.938.938h4.691Z" transform="translate(-757.052 -129.929)" fill="#fff"/>
        <path id="Path_647" data-name="Path 647" d="M543.272,54.519a5.629,5.629,0,0,0-5.629,5.629h-3.753a1.882,1.882,0,0,1-1.876-1.876V50.156a15.135,15.135,0,0,1,1.257-6.023l3.837-8.753A5.613,5.613,0,0,1,542.258,32h23.474a3.745,3.745,0,0,1,3.058,1.576l1.557,2.177H541.226a.938.938,0,0,0-.919.751l-1.5,7.506a.938.938,0,0,0,.919,1.126h22.311V60.148H548.9A5.629,5.629,0,0,0,543.272,54.519Z" transform="translate(-531.075 -31.064)" fill="#fff"/>
        <g id="Group_278" data-name="Group 278">
          <path id="Path_648" data-name="Path 648" d="M573.738,37.137h-3.27l-7.979-11.17A4.7,4.7,0,0,0,558.671,24H535.2a6.567,6.567,0,0,0-6.017,3.935L525.35,36.7a15.849,15.849,0,0,0-1.337,6.393V51.21a2.815,2.815,0,0,0,2.815,2.815h2.89a6.559,6.559,0,0,0,12.985,0h18.914a6.559,6.559,0,0,0,12.985,0h2.89a2.815,2.815,0,0,0,2.815-2.815V43.7A6.575,6.575,0,0,0,573.738,37.137Zm4.691,6.567v.938h-3.753V42.766h3.659A4.68,4.68,0,0,1,578.429,43.7ZM555.912,29.631H562.8l5.362,7.506h-12.25Zm-1.877,7.506H532.663l1.5-7.506h19.871ZM525.889,51.21v-.938H528.7V48.4h-2.815v-5.3a14,14,0,0,1,1.179-5.641l3.833-8.757a4.691,4.691,0,0,1,4.3-2.815h23.471a2.819,2.819,0,0,1,2.29,1.178l.5.7h-27.3a1.876,1.876,0,0,0-1.84,1.508l-1.5,7.506a1.876,1.876,0,0,0,1.84,2.245h21.372V52.148H542.7a6.559,6.559,0,0,0-12.985,0h-2.89a.938.938,0,0,1-.938-.938Zm10.32,6.567a4.691,4.691,0,1,1,4.691-4.691A4.691,4.691,0,0,1,536.21,57.778Zm31.9,0a4.691,4.691,0,1,1,4.691-4.691A4.691,4.691,0,0,1,568.109,57.778Zm9.382-5.629H574.6a6.559,6.559,0,0,0-12.985,0h-5.7V39.013h17.826a4.669,4.669,0,0,1,3.728,1.876h-2.79a1.876,1.876,0,0,0-1.876,1.876v1.876a1.876,1.876,0,0,0,1.876,1.876h3.753V48.4h-2.815v1.876h2.815v.938A.938.938,0,0,1,577.491,52.148Z" transform="translate(-524.013 -24.002)" fill="#cdcdcd"/>
          <path id="Path_649" data-name="Path 649" d="M812.013,168h3.753v1.876h-3.753Z" transform="translate(-778.238 -151.114)" fill="#cdcdcd"/>
          <path id="Path_650" data-name="Path 650" d="M604.013,168h3.753v1.876h-3.753Z" transform="translate(-594.631 -151.114)" fill="#cdcdcd"/>
          <path id="Path_651" data-name="Path 651" d="M620.013,264h1.876v1.876h-1.876Z" transform="translate(-608.755 -235.856)" fill="#cdcdcd"/>
          <path id="Path_652" data-name="Path 652" d="M892.013,264h1.876v1.876h-1.876Z" transform="translate(-848.855 -235.856)" fill="#cdcdcd"/>
        </g>
      </g>
    </g>
    <g id="Group_352" data-name="Group 352" transform="translate(1084.647 1169.065)">
      <g id="Breakdown-2" transform="translate(0 0)">
        <path id="Path_669" data-name="Path 669" d="M901.493-265.512a5.452,5.452,0,0,0-3.853,6.679h0l-3.508.936a1.806,1.806,0,0,1-2.221-1.262l-.005-.019-.473-1.754-2.172-8.105a1.811,1.811,0,0,1,1.072-2.154l5.3-2.163,3.053-11.168a1.808,1.808,0,0,1,1.281-1.281l14.73-3.944a1.818,1.818,0,0,1,1.663.391l2.408,2.117-.191.218-7.269,1.945-9.005,2.417a.873.873,0,0,0-.663.845l-.7,5.834a.909.909,0,0,0,.879.937.909.909,0,0,0,.257-.029l11.113-2.98,3.762,14.039-8.778,2.353a5.452,5.452,0,0,0-6.679-3.853Z" transform="translate(-888.292 308.601)" fill="#fff"/>
        <path id="Path_670" data-name="Path 670" d="M1119.769-220.708a.909.909,0,0,0-.645,1.109l.473,1.754a.909.909,0,0,0,1.11.647l.008,0,4.389-1.172.936,3.508.473,1.754a1.817,1.817,0,0,1-1.286,2.225h0l-3.507.945a5.452,5.452,0,0,0-6.594-4,5.452,5.452,0,0,0-4,6.594c.018.073.037.146.058.218l-7.024,1.881-3.762-14.039,12.285-3.289,9.478-.927a1.817,1.817,0,0,1,1.926,1.345l.073.264Z" transform="translate(-1075.5 249.83)" fill="#fff"/>
        <ellipse id="Ellipse_58" data-name="Ellipse 58" cx="1.817" cy="1.817" rx="1.817" ry="1.817" transform="translate(49.648 0.917)" fill="#fff"/>
        <g id="Group_282" data-name="Group 282">
          <path id="Path_671" data-name="Path 671" d="M1129.874-176.727l3.511-.941.471,1.756-3.511.941Z" transform="translate(-1101.63 209.199)" fill="#cdcdcd"/>
          <path id="Path_672" data-name="Path 672" d="M1013.957-145.642l3.511-.941.471,1.756-3.511.941Z" transform="translate(-998.879 181.645)" fill="#cdcdcd"/>
          <path id="Path_673" data-name="Path 673" d="M1000.187-38.874l1.755-.471.471,1.756-1.756.471Z" transform="translate(-986.673 86.588)" fill="#cdcdcd"/>
          <path id="Path_674" data-name="Path 674" d="M1232.016-101.044l1.755-.471.471,1.756-1.755.471Z" transform="translate(-1192.17 141.696)" fill="#cdcdcd"/>
          <path id="Path_675" data-name="Path 675" d="M934.067-447.719a.853.853,0,0,1-.48-.8v-1.454a2.726,2.726,0,0,0,1.661-3.479,2.726,2.726,0,0,0-3.479-1.662,2.726,2.726,0,0,0-1.661,3.479,2.726,2.726,0,0,0,1.661,1.661v1.454a2.65,2.65,0,0,0,1.6,2.482,1.817,1.817,0,0,1,.985,2.374,1.817,1.817,0,0,1-2.374.985,1.817,1.817,0,0,1-1.123-1.679h-1.817a3.589,3.589,0,0,0,2.726,3.5v17.1l-1.09-4.08a2.708,2.708,0,0,0-2.9-2.008l-7.713.748,6-10.386,1.391-.374-.47-1.756-1.756.471a.909.909,0,0,0-.552.423l-6.516,11.281-8.281-7.277a2.716,2.716,0,0,0-2.505-.585l-14.729,3.946a2.735,2.735,0,0,0-1.925,1.915L887.8-420.691l-4.884,1.986a2.726,2.726,0,0,0-1.607,3.231l2.642,9.86a2.718,2.718,0,0,0,3.323,1.931l.014,0,2.708-.727a6.35,6.35,0,0,0,8.334,3.344,6.35,6.35,0,0,0,3.809-6.6l14.184-3.8a6.353,6.353,0,0,0,5.829,3.858,6.384,6.384,0,0,0,5.519-3.18,6.3,6.3,0,0,0,.8-3.931l2.7-.727a2.732,2.732,0,0,0,.6-.249v1.321a.914.914,0,0,1-.909.909h-1.817v1.817h1.817a2.733,2.733,0,0,0,2.726-2.726v-26.476a3.628,3.628,0,0,0,2.615-4.415,3.628,3.628,0,0,0-2.135-2.455Zm-1.388-5.725a.909.909,0,0,1,.909.909.909.909,0,0,1-.909.909.909.909,0,0,1-.909-.909A.909.909,0,0,1,932.679-453.443Zm-3.453,27.231.471,1.755-3.511.941-.468-1.758Zm-25.643-4.418,1.422,5.307-10.242,2.775.7-5.906Zm1.755-.471,6.259-1.677,4.926,4.33-9.762,2.649Zm-8.333,28.574a4.543,4.543,0,0,1-5.564-3.213,4.543,4.543,0,0,1,3.213-5.564,4.543,4.543,0,0,1,5.564,3.213A4.549,4.549,0,0,1,897.005-402.526Zm-2.822-10.533a6.365,6.365,0,0,0-4.666,6.894l-2.7.727a.909.909,0,0,1-1.112-.644h0l-.235-.878,2.635-.706-.47-1.756-2.635.706-1.93-7.228a.909.909,0,0,1,.536-1.077l5.3-2.155a.909.909,0,0,0,.534-.6l3.043-11.171a.914.914,0,0,1,.642-.636l14.73-3.946a.9.9,0,0,1,.834.194l1.278,1.119-14.974,4.012a1.811,1.811,0,0,0-1.339,1.655l-.7,5.863a1.792,1.792,0,0,0,.677,1.488,1.822,1.822,0,0,0,1.6.336l10.234-2.742,3.292,12.288-7.088,1.9a6.361,6.361,0,0,0-7.489-3.638ZM926.1-411.7a4.543,4.543,0,0,1-6.207,1.663,4.544,4.544,0,0,1-1.662-6.207,4.544,4.544,0,0,1,2.759-2.117,4.589,4.589,0,0,1,1.181-.156,4.544,4.544,0,0,1,4.535,4.552,4.546,4.546,0,0,1-.609,2.263Zm5.16-5.925a.909.909,0,0,1-.552.423l-2.7.727a6.353,6.353,0,0,0-8.337-3.347,6.352,6.352,0,0,0-3.812,6.6l-5.336,1.43-3.293-12.294,11.339-3.038,9.395-.909a.909.909,0,0,1,.545.129l-3.252.871a1.817,1.817,0,0,0-1.285,2.226h0l.47,1.756a1.817,1.817,0,0,0,2.226,1.285h0l3.51-.941.471,1.756-2.635.706.471,1.756,2.635-.706.235.878a.909.909,0,0,1-.092.688Z" transform="translate(-881.213 455.269)" fill="#cdcdcd"/>
          <path id="Path_676" data-name="Path 676" d="M1184.716-382.108h1.817a1.236,1.236,0,0,1,.422-.928,3.019,3.019,0,0,0,0-4.2,1.234,1.234,0,0,1-.12-1.741,1.241,1.241,0,0,1,.12-.12,2.99,2.99,0,0,0,.85-2.1h-1.817a1.238,1.238,0,0,1-.423.93,3.022,3.022,0,0,0,0,4.2,1.233,1.233,0,0,1,.12,1.738,1.269,1.269,0,0,1-.12.12,2.98,2.98,0,0,0-.849,2.1Z" transform="translate(-1150.242 398.473)" fill="#cdcdcd"/>
          <path id="Path_677" data-name="Path 677" d="M1232.716-398.108h1.817a1.236,1.236,0,0,1,.422-.928,3.019,3.019,0,0,0,0-4.2,1.234,1.234,0,0,1-.12-1.741,1.255,1.255,0,0,1,.12-.12,2.989,2.989,0,0,0,.85-2.1h-1.817a1.237,1.237,0,0,1-.423.93,3.022,3.022,0,0,0,0,4.2,1.232,1.232,0,0,1,.12,1.738,1.224,1.224,0,0,1-.12.12,2.981,2.981,0,0,0-.849,2.1Z" transform="translate(-1192.79 412.655)" fill="#cdcdcd"/>
        </g>
      </g>
    </g>
  </g>
</svg>
