<svg xmlns="http://www.w3.org/2000/svg" width="72" height="24" viewBox="0 0 72 24"><defs><style>.a{fill:#fff;stroke:#cdcdcd;stroke-miterlimit:10;stroke-width:0.5px;}.b{fill:#f3f3f3;}.c,.d{fill:#cdcdcd;}.d{font-size:10px;font-family:SegoeUI-Semibold, Segoe UI;}.e{stroke:none;}.f{fill:none;}</style></defs><g class="a"><rect class="e" width="72" height="24" rx="12"/><rect class="f" x="0.25" y="0.25" width="71.5" height="23.5" rx="11.75"/></g><g transform="translate(3 3)"><circle class="b" cx="9" cy="9" r="9"/><g transform="translate(5 5)"><path class="c" d="M7.412,3.511H4.291V.39a.39.39,0,0,0-.78,0V3.511H.39a.39.39,0,0,0,0,.78H3.511V7.412a.39.39,0,1,0,.78,0V4.291H7.412a.39.39,0,1,0,0-.78Z" transform="translate(0)"/></g></g><g transform="translate(51 3)"><circle class="b" cx="9" cy="9" r="9"/><g transform="translate(5 8)"><path class="c" d="M7.412.11H.39a.39.39,0,0,0,0,.78H7.412a.39.39,0,1,0,0-.78Z" transform="translate(0 0.401)"/></g></g><text class="d" transform="translate(36 16)"><tspan x="-5.35" y="0">33</tspan></text></svg>