<svg xmlns="http://www.w3.org/2000/svg" width="149" height="37" viewBox="0 0 149 37"><defs><style>.a{fill:#f3f3f3;}.b,.c{fill:#cdcdcd;}.b{font-size:14px;font-family:GoogleSans-Medium, Google Sans;font-weight:500;letter-spacing:0.043em;}.d{fill:none;}.e{fill:#979797;}</style></defs><path class="a" d="M27,32H6a6,6,0,0,1-6-6V6A6,6,0,0,1,6,0H58a6,6,0,0,1,6,6V26a6,6,0,0,1-6,6H37l-5,5Z"/><text class="b" transform="translate(30 21)"><tspan x="0" y="0">129</tspan></text><g transform="translate(11 9)"><path class="c" d="M3.579,10.269,3.23,9.987C1.228,8.32,0,6.513,0,4.59A4.493,4.493,0,0,1,4.283,0,3.858,3.858,0,0,1,6.668.786L6.75.851,6.832.786A3.827,3.827,0,0,1,8.964.007L9.217,0A4.493,4.493,0,0,1,13.5,4.59c0,1.923-1.228,3.73-3.23,5.4a11.876,11.876,0,0,1-3.52,2.18A10.784,10.784,0,0,1,3.579,10.269Z" transform="translate(0.25 0.917)"/></g><g transform="translate(79)"><path class="a" d="M30,32H6a6,6,0,0,1-6-6V6A6,6,0,0,1,6,0H64a6,6,0,0,1,6,6V26a6,6,0,0,1-6,6H40l-5,5Z"/><text class="b" transform="translate(30 21)"><tspan x="0" y="0">-129</tspan></text><g transform="translate(10 8)"><path class="d" d="M0,0H16V16H0Z"/><path class="c" d="M3.579,10.269,3.23,9.987C1.228,8.32,0,6.513,0,4.59A4.493,4.493,0,0,1,4.283,0,3.858,3.858,0,0,1,6.668.786L6.75.851,6.832.786A3.827,3.827,0,0,1,8.964.007L9.217,0A4.493,4.493,0,0,1,13.5,4.59c0,1.923-1.228,3.73-3.23,5.4a11.876,11.876,0,0,1-3.52,2.18A10.784,10.784,0,0,1,3.579,10.269Z" transform="translate(1.25 1.917)"/><path class="e" d="M2.4.235a.5.5,0,0,1,.889.45l-.041.08L1.452,3.628l3.4,1.552L1.813,10.692a.5.5,0,0,1-.912-.4l.036-.083L3.453,5.641,0,4.064Z" transform="translate(5.583 2.589)"/></g></g></svg>