<svg xmlns="http://www.w3.org/2000/svg" width="104.602" height="40.289" viewBox="0 0 104.602 40.289"><defs><style>.a{fill:#fff;}.b{fill:#cdcdcd;}</style></defs><g transform="translate(-1254.731 -389)"><g transform="translate(270)"><path class="a" d="M1199.27,892.912a19.358,19.358,0,1,1-19.358-19.357A19.358,19.358,0,0,1,1199.27,892.912Z" transform="translate(-175.823 -483.555)"/><path class="a" d="M1218.683,916.889h-8.5v-8.5h-6.3v8.5h-8.5v6.3h8.5v8.5h6.3v-8.5h8.5Z" transform="translate(-202.826 -511.391)"/><path class="b" d="M1207.417,929.7h-6.3a.787.787,0,0,1-.787-.787V921.2h-7.712a.787.787,0,0,1-.787-.787v-6.3a.787.787,0,0,1,.787-.787h7.712v-7.712a.787.787,0,0,1,.787-.787h6.3a.787.787,0,0,1,.787.787v7.712h7.711a.787.787,0,0,1,.787.787v6.3a.787.787,0,0,1-.787.787H1208.2v7.712A.787.787,0,0,1,1207.417,929.7Zm-5.508-1.574h4.721v-7.712a.787.787,0,0,1,.787-.787h7.711v-4.721h-7.711a.787.787,0,0,1-.787-.787V906.41h-4.721v7.711a.787.787,0,0,1-.787.787h-7.711v4.721h7.711a.787.787,0,0,1,.787.787Z" transform="translate(-199.27 -507.836)"/><path class="b" d="M1177.14,910.289q-.771,0-1.544-.059a20.14,20.14,0,1,1,17.921-8.344.787.787,0,1,1-1.278-.919,18.571,18.571,0,1,0-4.272,4.272.787.787,0,0,1,.919,1.278A20.143,20.143,0,0,1,1177.14,910.289Z" transform="translate(-172.268 -481)"/><g transform="translate(1049.93 389)"><path class="a" d="M1619.342,892.409a18.932,18.932,0,1,1-18.932-18.932A18.933,18.933,0,0,1,1619.342,892.409Z" transform="translate(-1580.707 -872.707)"/><path class="a" d="M1615.547,945.094h22.78v6.157h-22.78Z" transform="translate(-1607.235 -928.471)"/><path class="b" d="M1635.62,949.313h-22.78a.77.77,0,0,1-.77-.77v-6.157a.77.77,0,0,1,.77-.77h22.78a.77.77,0,0,1,.769.77v6.157A.769.769,0,0,1,1635.62,949.313Zm-22.011-1.539h21.241v-4.618h-21.241Z" transform="translate(-1604.528 -925.763)"/><path class="b" d="M1597.7,909.4q-.754,0-1.51-.058a19.7,19.7,0,1,1,17.528-8.16.77.77,0,1,1-1.25-.9,18.162,18.162,0,1,0-4.178,4.178.77.77,0,0,1,.9,1.25A19.7,19.7,0,0,1,1597.7,909.4Z" transform="translate(-1578 -870)"/></g></g></g></svg>