<svg xmlns="http://www.w3.org/2000/svg" width="221.898" height="68.981" viewBox="0 0 221.898 68.981"><defs><style>.a{fill:#fff;}.b,.d{fill:#d9d9d9;}.c,.d{isolation:isolate;}.d{font-size:12px;font-family:SegoeUI-Semibold, Segoe UI;font-weight:600;}.e{fill:#eceaec;}</style></defs><g transform="translate(-1488.479 -872.427)"><g transform="translate(380 -517)"><path class="a" d="M0,0H54V23H0Z" transform="translate(1154.177 1425.402)"/><path class="b" d="M177.777,242.04h-51.45v-2h49.45v-20.6H131.335v-2h46.442Z" transform="translate(1031.599 1207.962)"/><g transform="translate(1031.599 1207.962)"><path class="a" d="M126.01,238.705a12.654,12.654,0,0,0-4.809-7.987H109.458a12.654,12.654,0,0,0-4.809,7.987,14.6,14.6,0,0,0-.263,2.744h21.891A14.608,14.608,0,0,0,126.01,238.705Z"/><path class="a" d="M113.021,230.718h-3.563a12.654,12.654,0,0,0-4.809,7.987,14.6,14.6,0,0,0-.263,2.744h3.566a14.6,14.6,0,0,1,.263-2.744A12.653,12.653,0,0,1,113.021,230.718Z"/><circle class="a" cx="3.116" cy="3.116" r="3.116" transform="translate(109.096 228.88)"/><circle class="a" cx="3.116" cy="3.116" r="3.116" transform="translate(115.327 228.88)"/><circle class="a" cx="5.367" cy="5.367" r="5.367" transform="translate(109.961 182.367)"/><path class="a" d="M138.126,214.748a22.75,22.75,0,0,0,.223-3.172,22.358,22.358,0,0,0-6.759-16.051,23.272,23.272,0,0,0-32.526,0,22.358,22.358,0,0,0-6.759,16.051,22.749,22.749,0,0,0,.223,3.172Z"/><path class="a" d="M103.82,195.525a23,23,0,0,1,13.885-6.506,23.607,23.607,0,0,0-2.378-.12,23.049,23.049,0,0,0-16.263,6.626,22.358,22.358,0,0,0-6.759,16.051,22.749,22.749,0,0,0,.223,3.172h4.755a22.75,22.75,0,0,1-.223-3.172A22.359,22.359,0,0,1,103.82,195.525Z"/><circle class="a" cx="4.076" cy="4.076" r="4.076" transform="translate(131.535 210.632)"/><path class="a" d="M135.659,211.487a3.956,3.956,0,0,0-.418-1.744c-1.552-3.108-7.69-13.207-18.47-4.462a2.3,2.3,0,0,1-2.9,0c-10.884-8.827-17.016,1.585-18.486,4.588a3.892,3.892,0,0,0-.4,1.643v.064a20.339,20.339,0,0,0,40.672,0C135.659,211.544,135.659,211.516,135.659,211.487Z"/><path class="a" d="M98.558,211.575v-.064c.007-.384.072-4,.191-6.476a19.1,19.1,0,0,0-3.357,4.833,3.952,3.952,0,0,0-.281.766h-.067a4.076,4.076,0,0,0-.128,8.151h.128a3.422,3.422,0,0,0,1.227-.214,20.331,20.331,0,0,0,19.055,13c.6,0,1.2-.027,1.783-.077A20.129,20.129,0,0,1,98.558,211.575Z"/><path class="b" d="M125.673,211.32a.892.892,0,0,0-.892.892V214a.892.892,0,1,0,1.783.06q0-.03,0-.06v-1.788A.893.893,0,0,0,125.673,211.32Z"/><path class="b" d="M104.982,214.892a.892.892,0,0,0,.892-.892v-1.788a.892.892,0,0,0-1.783-.06.6.6,0,0,0,0,.06V214A.893.893,0,0,0,104.982,214.892Z"/><path class="b" d="M115.069,219.734a4.869,4.869,0,0,0,3.679-1.639,1.3,1.3,0,1,0-1.958-1.712h0a2.348,2.348,0,0,1-3.318.122c-.042-.039-.083-.08-.122-.122a1.3,1.3,0,0,0-1.959,1.712h0A4.87,4.87,0,0,0,115.069,219.734Z"/><path class="b" d="M91.416,211.32a4.963,4.963,0,0,0,4.324,8.3,21.187,21.187,0,0,0,11.925,11.424,14.093,14.093,0,0,0-3.9,7.487,15.472,15.472,0,0,0-.279,2.912.892.892,0,0,0,.892.892h21.9a.892.892,0,0,0,.892-.892,15.453,15.453,0,0,0-.279-2.911,14.089,14.089,0,0,0-3.9-7.488,21.191,21.191,0,0,0,11.927-11.424,4.964,4.964,0,0,0,4.325-8.3,23.3,23.3,0,0,0-6.213-15.6.892.892,0,0,0-1.31,1.21,21.525,21.525,0,0,1,5.691,13.145,4.993,4.993,0,0,0-1.173-.3,4.645,4.645,0,0,0-.191-.434c-.273-.546-.57-1.088-.893-1.6a17.277,17.277,0,0,0-3.743-4.4,10.154,10.154,0,0,0-7.209-2.4h-.028a14.658,14.658,0,0,0-7.638,3.4,2.96,2.96,0,0,1-.655.454,1.418,1.418,0,0,1-1.1,0,3.041,3.041,0,0,1-.653-.454,14.623,14.623,0,0,0-7.63-3.388,10.676,10.676,0,0,0-8.373,3.463,17.323,17.323,0,0,0-3.647,5.343l-.011.025-.056.008a5,5,0,0,0-1.154.292,21.477,21.477,0,0,1,6.442-13.916,22.09,22.09,0,0,1,10.753-5.85,23.169,23.169,0,0,1,9.843.014A21.95,21.95,0,0,1,129.2,194.6a.893.893,0,0,0,1.11-1.4h0a23.708,23.708,0,0,0-8.814-4.415,6.258,6.258,0,1,0-12.334.007,23.858,23.858,0,0,0-10.721,6.093A23.24,23.24,0,0,0,91.416,211.32Zm3.673,6.571h-.045a3.187,3.187,0,0,1-3.184-3.184,3.24,3.24,0,0,1,1.958-2.938c.085-.035.273-.1.281-.1a20.12,20.12,0,0,0,.169,2.549v.029A20.482,20.482,0,0,0,95.089,217.891Zm19.3,14.546a2.227,2.227,0,0,1-2.18,1.783,2.26,2.26,0,0,1-2.221-2.3c0-.044,0-.087.006-.13.341.087.686.171,1.036.236a24.358,24.358,0,0,0,3.362.409Zm1.935,0a21.414,21.414,0,0,0,4.069-.582c.088-.021.176-.041.263-.063.006.067.009.133.009.2a2.225,2.225,0,0,1-4.4.442.251.251,0,0,0,.061,0Zm8.81,6.438a13.825,13.825,0,0,1,.218,1.684H105.3a13.825,13.825,0,0,1,.218-1.684,12.592,12.592,0,0,1,2.8-5.925,4,4,0,0,0,7.009,1.565,4,4,0,0,0,7.009-1.565A12.6,12.6,0,0,1,125.134,238.875Zm-4.391-8.953a19.831,19.831,0,0,1-10.831,0,19.257,19.257,0,0,1-13.871-15.9,6.635,6.635,0,0,1,.348-4.148c1.458-2.837,3.7-5.637,6.8-6.738a8.214,8.214,0,0,1,5.648.189c1.836.687,3.249,2.021,4.938,2.958a3.234,3.234,0,0,0,2.857.126h0a9.14,9.14,0,0,0,1.571-1.09,11.857,11.857,0,0,1,6.662-2.624c4.388-.06,7.635,3.658,9.486,7.261a6.723,6.723,0,0,1,.261,4.068,19.257,19.257,0,0,1-13.87,15.9Zm14.867-12.031h-.045a20.473,20.473,0,0,0,.817-3.644,20.952,20.952,0,0,0,.166-2.153c0-.142.006-.284.006-.426.005,0,.169.057.245.087a3.184,3.184,0,0,1-1.189,6.137ZM110.9,188.407a4.475,4.475,0,1,1,8.849,0,24.688,24.688,0,0,0-4.425-.4q-1.119,0-2.221.1H113.1C112.91,188.126,110.9,188.362,110.9,188.407Z"/></g><g transform="translate(1031.599 1207.962)"><path class="a" d="M97.716,225.2a8.04,8.04,0,0,0-5.926,2.617,8.042,8.042,0,0,0-5.927-2.617c-.161,0-4.419,1.318-4.577,1.333-1.3,1.662-3.369,3.773-3.363,5.885,0,5.146,9.313,13.16,13.868,16.455,4.154-3.167,14.084-11.162,14.084-15.3a8.264,8.264,0,0,0-8.159-8.368Z"/><path class="b" d="M91.79,249.783a.822.822,0,0,1-.442-.128,67.386,67.386,0,0,1-7.14-5.339c-4.859-4.2-7.328-7.812-7.328-10.749a9.1,9.1,0,0,1,8.983-9.191,8.774,8.774,0,0,1,5.926,2.283,8.776,8.776,0,0,1,5.927-2.283,9.1,9.1,0,0,1,8.984,9.195c0,2.935-2.465,6.552-7.328,10.749a67.366,67.366,0,0,1-7.14,5.34A.831.831,0,0,1,91.79,249.783Zm-5.926-23.758a7.447,7.447,0,0,0-7.332,7.541c0,2.4,2.336,5.683,6.756,9.5a67.464,67.464,0,0,0,6.5,4.915c4.081-2.661,13.256-9.653,13.256-14.406a7.447,7.447,0,0,0-7.332-7.541,7.171,7.171,0,0,0-5.322,2.352.826.826,0,0,1-1.167.047c-.017-.015-.033-.031-.048-.047a7.175,7.175,0,0,0-5.316-2.358Z"/><path class="b" d="M102.351,234.393a.826.826,0,0,1-.826-.826,3.924,3.924,0,0,0-3.811-4.022,3.734,3.734,0,0,0-.634.054.826.826,0,1,1-.285-1.628,5.339,5.339,0,0,1,.919-.08,5.578,5.578,0,0,1,5.463,5.669.826.826,0,0,1-.82.832h-.006Zm-7.975-3.364a.826.826,0,0,1-.6-1.389v-.006a.826.826,0,0,1,1.215,1.12h0l-.017.019a.823.823,0,0,1-.6.256Z"/></g></g><g class="c" transform="translate(1411.599 690.962)"><text class="d" transform="translate(141.577 235.44)"><tspan x="0" y="0">322+</tspan></text></g><g transform="translate(380 -517)"><rect class="a" width="54" height="23" transform="translate(1275.177 1425.402)"/><path class="b" d="M298.777,242.04H255.41v-2h41.367v-20.6H252.335v-2h46.442Z" transform="translate(1031.599 1207.962)"/><g transform="translate(1031.599 1207.962)"><path class="a" d="M255.01,238.705a12.654,12.654,0,0,0-4.809-7.987H238.458a12.654,12.654,0,0,0-4.809,7.987,14.6,14.6,0,0,0-.263,2.744h21.891A14.607,14.607,0,0,0,255.01,238.705Z"/><path class="a" d="M242.021,230.718h-3.563a12.654,12.654,0,0,0-4.809,7.987,14.6,14.6,0,0,0-.263,2.744h3.566a14.6,14.6,0,0,1,.263-2.744A12.653,12.653,0,0,1,242.021,230.718Z"/><circle class="e" cx="3.116" cy="3.116" r="3.116" transform="translate(238.096 228.88)"/><circle class="e" cx="3.116" cy="3.116" r="3.116" transform="translate(244.327 228.88)"/><path class="a" d="M5.367,0A5.367,5.367,0,1,1,0,5.367,5.367,5.367,0,0,1,5.367,0Z" transform="translate(238.961 182.367)"/><path class="a" d="M267.126,214.748a22.752,22.752,0,0,0,.223-3.172,22.358,22.358,0,0,0-6.759-16.051,23.272,23.272,0,0,0-32.526,0,22.358,22.358,0,0,0-6.759,16.051,22.75,22.75,0,0,0,.223,3.172Z"/><path class="a" d="M232.82,195.525a23,23,0,0,1,13.885-6.506,23.607,23.607,0,0,0-2.378-.12,23.049,23.049,0,0,0-16.263,6.626,22.358,22.358,0,0,0-6.759,16.051,22.75,22.75,0,0,0,.223,3.172h4.755a22.748,22.748,0,0,1-.223-3.172A22.359,22.359,0,0,1,232.82,195.525Z"/><circle class="a" cx="4.076" cy="4.076" r="4.076" transform="translate(260.535 210.632)"/><path class="a" d="M264.659,211.487a3.956,3.956,0,0,0-.418-1.744c-1.552-3.108-7.69-13.207-18.47-4.462a2.3,2.3,0,0,1-2.9,0c-10.884-8.827-17.016,1.585-18.486,4.588a3.892,3.892,0,0,0-.4,1.643v.064a20.339,20.339,0,0,0,40.672,0C264.659,211.544,264.659,211.516,264.659,211.487Z"/><path class="a" d="M227.558,211.575v-.064c.007-.384.072-4,.191-6.476a19.1,19.1,0,0,0-3.357,4.833,3.953,3.953,0,0,0-.281.766h-.067a4.076,4.076,0,0,0-.128,8.151h.128a3.422,3.422,0,0,0,1.227-.214,20.331,20.331,0,0,0,19.055,13c.6,0,1.2-.027,1.783-.077A20.129,20.129,0,0,1,227.558,211.575Z"/><path class="b" d="M254.673,211.32a.892.892,0,0,0-.892.892V214a.892.892,0,1,0,1.783.06.6.6,0,0,0,0-.06v-1.788A.893.893,0,0,0,254.673,211.32Z"/><path class="b" d="M233.982,214.892a.892.892,0,0,0,.892-.892v-1.788a.892.892,0,0,0-1.783-.06.6.6,0,0,0,0,.06V214A.893.893,0,0,0,233.982,214.892Z"/><path class="b" d="M244.327,216.427a5.149,5.149,0,0,0-3.889,1.733,1.375,1.375,0,0,0,2.07,1.81,2.483,2.483,0,0,1,3.509-.128c.044.041.087.084.128.128a1.375,1.375,0,1,0,2.071-1.81A5.15,5.15,0,0,0,244.327,216.427Z"/><path class="b" d="M220.416,211.32a4.963,4.963,0,0,0,4.324,8.3,21.187,21.187,0,0,0,11.925,11.424,14.093,14.093,0,0,0-3.9,7.487,15.473,15.473,0,0,0-.279,2.912.892.892,0,0,0,.892.892h21.895a.892.892,0,0,0,.892-.892,15.453,15.453,0,0,0-.279-2.911,14.089,14.089,0,0,0-3.9-7.488,21.191,21.191,0,0,0,11.927-11.424,4.964,4.964,0,0,0,4.325-8.3,23.3,23.3,0,0,0-6.213-15.6.892.892,0,0,0-1.31,1.21,21.525,21.525,0,0,1,5.691,13.145,4.993,4.993,0,0,0-1.173-.3,4.641,4.641,0,0,0-.191-.434c-.273-.546-.57-1.088-.893-1.6a17.276,17.276,0,0,0-3.743-4.4,10.154,10.154,0,0,0-7.209-2.4h-.028a14.658,14.658,0,0,0-7.638,3.4,2.961,2.961,0,0,1-.655.454,1.418,1.418,0,0,1-1.1,0,3.041,3.041,0,0,1-.653-.454,14.623,14.623,0,0,0-7.63-3.388,10.676,10.676,0,0,0-8.373,3.463,17.323,17.323,0,0,0-3.647,5.343l-.011.025-.056.008a5,5,0,0,0-1.154.292,21.477,21.477,0,0,1,6.442-13.916,22.09,22.09,0,0,1,10.753-5.85,23.168,23.168,0,0,1,9.843.014A21.95,21.95,0,0,1,258.2,194.6a.893.893,0,1,0,1.11-1.4h0a23.707,23.707,0,0,0-8.814-4.415,6.258,6.258,0,1,0-12.334.007,23.858,23.858,0,0,0-10.721,6.093A23.24,23.24,0,0,0,220.416,211.32Zm3.673,6.571h-.045a3.187,3.187,0,0,1-3.184-3.184,3.24,3.24,0,0,1,1.958-2.938c.085-.035.273-.1.281-.1a20.12,20.12,0,0,0,.169,2.549v.029A20.48,20.48,0,0,0,224.089,217.891Zm19.3,14.546a2.227,2.227,0,0,1-2.18,1.783,2.26,2.26,0,0,1-2.221-2.3c0-.044,0-.087.006-.13.341.087.686.171,1.036.236a24.358,24.358,0,0,0,3.362.409Zm1.935,0a21.414,21.414,0,0,0,4.069-.582c.088-.021.176-.041.263-.063.006.067.009.133.009.2a2.225,2.225,0,0,1-4.4.442.251.251,0,0,0,.061,0Zm8.81,6.438a13.828,13.828,0,0,1,.218,1.684H234.3a13.828,13.828,0,0,1,.218-1.684,12.592,12.592,0,0,1,2.8-5.925,4,4,0,0,0,7.009,1.565,4,4,0,0,0,7.009-1.565A12.6,12.6,0,0,1,254.134,238.875Zm-4.391-8.953a19.831,19.831,0,0,1-10.831,0,19.257,19.257,0,0,1-13.871-15.9,6.635,6.635,0,0,1,.348-4.148c1.458-2.837,3.7-5.637,6.8-6.738a8.214,8.214,0,0,1,5.648.189c1.836.687,3.249,2.021,4.938,2.958a3.234,3.234,0,0,0,2.857.126h0a9.141,9.141,0,0,0,1.571-1.09,11.857,11.857,0,0,1,6.662-2.624c4.388-.06,7.635,3.658,9.486,7.261a6.723,6.723,0,0,1,.261,4.068,19.257,19.257,0,0,1-13.87,15.9Zm14.867-12.031h-.045a20.47,20.47,0,0,0,.817-3.644,20.948,20.948,0,0,0,.166-2.153c0-.142.006-.284.006-.426.005,0,.169.057.245.087a3.184,3.184,0,0,1-1.189,6.137ZM239.9,188.407a4.475,4.475,0,1,1,8.849,0,24.688,24.688,0,0,0-4.425-.4q-1.119,0-2.221.1H242.1C241.91,188.126,239.9,188.362,239.9,188.407Z"/></g><g transform="translate(1031.599 1207.962)"><path class="a" d="M216.075,244.031l2.824-3.647-3.675-5.9,3.052-7.428a8.388,8.388,0,0,0-5.436-2.01,8.785,8.785,0,0,0-8.616,8.945c0,7.041,10.633,13.883,13.919,15.846Z"/><path class="a" d="M225.357,225.045a8.389,8.389,0,0,0-1.642.163l-3.5,8.661,3.536,4.676L220.5,243.5l.516,3.661-.953,2.677c3.293-1.967,13.912-8.806,13.912-15.842A8.785,8.785,0,0,0,225.357,225.045Z"/><path class="b" d="M224.878,226.828a.6.6,0,1,0,0,1.209h0a.6.6,0,0,0,0-1.209Z"/><path class="b" d="M227.368,227.295a.6.6,0,1,0-.438,1.127,6.162,6.162,0,0,1,3.838,5.75.6.6,0,1,0,1.209,0A7.379,7.379,0,0,0,227.368,227.295Z"/><path class="b" d="M219.412,240.065l-3.507-5.639,2.934-7.141a.6.6,0,0,0-.169-.691,9.043,9.043,0,0,0-5.831-2.154,9.4,9.4,0,0,0-9.22,9.549c0,3.185,1.992,6.64,5.921,10.271a52.294,52.294,0,0,0,8.292,6.094.6.6,0,0,0,.88-.722l-1.957-5.492,2.621-3.385A.6.6,0,0,0,219.412,240.065Zm-3.815,3.6a.6.6,0,0,0-.092.573l1.489,4.18a48.776,48.776,0,0,1-6.633-5.041c-3.671-3.393-5.533-6.55-5.533-9.383a8.19,8.19,0,0,1,8.011-8.34,7.815,7.815,0,0,1,4.71,1.586l-2.88,7.009a.6.6,0,0,0,.046.549l3.448,5.545Z"/><path class="b" d="M225.357,224.44a8.962,8.962,0,0,0-1.76.175.6.6,0,0,0-.442.366l-3.5,8.661a.6.6,0,0,0,.078.591l3.275,4.335-3.016,4.594a.6.6,0,0,0-.093.416l.5,3.513-.9,2.537a.6.6,0,0,0,.88.722,52.277,52.277,0,0,0,8.291-6.1c3.925-3.629,5.916-7.083,5.916-10.266A9.4,9.4,0,0,0,225.357,224.44Zm2.484,18.927a48.7,48.7,0,0,1-6.633,5.042l.374-1.052a.6.6,0,0,0,.029-.287l-.485-3.435,3.125-4.76a.6.6,0,0,0-.023-.7l-3.325-4.4,3.243-8.035a7.729,7.729,0,0,1,1.206-.094,8.19,8.19,0,0,1,8.011,8.34c0,2.835-1.855,5.991-5.523,9.381Z"/></g></g><g class="c" transform="translate(1411.599 690.962)"><text class="d" transform="translate(265.577 234.44)"><tspan x="0" y="0">322+</tspan></text></g></g></svg>