<svg xmlns="http://www.w3.org/2000/svg" width="221.377" height="66.409" viewBox="0 0 221.377 66.409"><defs><style>.a{fill:#fff;}.b,.d{fill:#d9d9d9;}.c,.d{isolation:isolate;}.d{font-size:12px;font-family:SegoeUI-Semibold, Segoe UI;font-weight:600;}</style></defs><g transform="translate(-1488 -785)"><g transform="translate(0 -133)"><g transform="translate(372 -239)"><path class="a" d="M0,0H54V23H0Z" transform="translate(1161.177 1190.402)"/><path class="b" d="M184.777,6.04H135.015v-2h47.762v-20.6H138.335v-2h46.442Z" transform="translate(1031.599 1207.962)"/><g transform="translate(1031.599 1207.962)"><path class="a" d="M117.368-5.618H116.7a13.19,13.19,0,0,0-5.016,8.33,15.181,15.181,0,0,0-.275,2.861h5.963L119.582.417Z"/><path class="a" d="M133.965,2.712a13.19,13.19,0,0,0-5.016-8.33h-.672v.311l-2.1,5.724,2.1,4.891v.265h5.963A15.181,15.181,0,0,0,133.965,2.712Z"/><path class="a" d="M141.075-48.565a1.306,1.306,0,0,0-1.118-.462,49.627,49.627,0,0,1-18.8-.628c-11.54-2.6-26.4,5.622-20.967,25.711l1.482,1.63h42.3l1.993-3.755S149.1-38.936,141.075-48.565Z"/><path class="a" d="M118.6-50.049c-11.035-.948-23.455,7.471-18.413,26.1l1.481,1.636h3.362l-1.482-1.632C99.014-40.7,108.6-49.194,118.6-50.049Z"/><path class="a" d="M117.368-5.618V5.573h3.621l1.888-1.135,1.774,1.135h3.621V-5.618Z"/><path class="a" d="M124.653,5.573l-.77-7.307h-2.124l-.77,7.307Z"/><path class="a" d="M124.411-5.894h-3.069l-.187,3.134a1.039,1.039,0,0,0,.444.914l.8.556a.837.837,0,0,0,.956,0l.8-.556a1.039,1.039,0,0,0,.444-.914Z"/><circle class="a" cx="4.25" cy="4.25" r="4.25" transform="translate(139.724 -26.565)"/><path class="a" d="M139.853-38.007a2.925,2.925,0,0,0-3.14-1.037,22.9,22.9,0,0,1-13.892-.374c-9.834-3.4-18.4,1.2-20.606,8.889a20.55,20.55,0,0,0-.524,3.165c-.014.264-.023.53-.023.8l-.03-.045c-.017.341-.025.684-.026,1.029A21.212,21.212,0,0,0,123.178-4.728,21.211,21.211,0,0,0,144.03-25.58,20.517,20.517,0,0,0,139.853-38.007Z"/><path class="a" d="M104.974-25.582a18.186,18.186,0,0,1,.6-4.947,13.983,13.983,0,0,1,12.462-9.942c-7.728-.725-13.989,3.535-15.823,9.942a16.869,16.869,0,0,0-.583,3.964A4.251,4.251,0,0,0,97.4-22.3a4.251,4.251,0,0,0,4.269,4.231,3.22,3.22,0,0,0,1.275-.238,21.2,21.2,0,0,0,19.883,13.57q.849,0,1.681-.065A21,21,0,0,1,104.974-25.582Z"/><path class="b" d="M133.611-26.656a.84.84,0,0,0-.84.84v1.865a.841.841,0,0,0,.841.841.841.841,0,0,0,.84-.841v-1.865A.841.841,0,0,0,133.611-26.656Z"/><path class="b" d="M112.031-23.11a.84.84,0,0,0,.84-.84v-1.865a.84.84,0,0,0-.84-.84.84.84,0,0,0-.841.84h0v1.865A.841.841,0,0,0,112.031-23.11Z"/><path class="b" d="M123.369-17.417a4.9,4.9,0,0,0,3.7-1.648,1.214,1.214,0,0,0-.115-1.712,1.228,1.228,0,0,0-1.712.115,2.554,2.554,0,0,1-3.608.138q-.072-.066-.138-.138a1.215,1.215,0,0,0-1.714-.113,1.214,1.214,0,0,0-.113,1.713h0A4.9,4.9,0,0,0,123.369-17.417Z"/><path class="b" d="M134.237,6.413a.84.84,0,0,0,.84-.84h0a16.106,16.106,0,0,0-.292-3.02,14.571,14.571,0,0,0-4.139-7.86,22.01,22.01,0,0,0,12.546-11.978A5.087,5.087,0,0,0,149-21.525a5.087,5.087,0,0,0-2.094-4.943,31.611,31.611,0,0,0,.461-7.281,25.917,25.917,0,0,0-5.65-15.355,2.149,2.149,0,0,0-1.836-.762c-.3.026-.666.074-1.133.134a47.075,47.075,0,0,1-17.414-.745,20.305,20.305,0,0,0-13.471,1.648A.843.843,0,0,0,107.5-47.7a.842.842,0,0,0,1.132.368,18.6,18.6,0,0,1,12.339-1.508,48.636,48.636,0,0,0,18,.772c.447-.058.8-.1,1.063-.127a.469.469,0,0,1,.4.163,24.234,24.234,0,0,1,5.253,14.311,30.747,30.747,0,0,1-.354,6.5l-.025-.006c-.066-.018-.133-.034-.2-.05l-.051-.012c-.086-.019-.173-.035-.26-.05a21.2,21.2,0,0,0-3.175-9.576,11.132,11.132,0,0,0-1.418-1.964,3.724,3.724,0,0,0-2.936-1.111,9.275,9.275,0,0,0-1.563.343A22.23,22.23,0,0,1,124-39.918l-.019-.006a28.644,28.644,0,0,0-6.131-1.4,16.532,16.532,0,0,0-11.514,3.25,14.134,14.134,0,0,0-5.14,8.263,22.227,22.227,0,0,0-.342,2.381.6.6,0,0,1,0,.1c-.088.014-.537.112-.536.118-1.382-7.882.577-14.369,5.571-18.348a.841.841,0,0,0,.133-1.181.841.841,0,0,0-1.181-.133c-5.6,4.463-7.747,11.693-6.088,20.4a5.088,5.088,0,0,0-1.234,7.089,5.09,5.09,0,0,0,4.943,2.1A22.008,22.008,0,0,0,115-5.307a14.558,14.558,0,0,0-4.139,7.86,16.021,16.021,0,0,0-.29,3.02.84.84,0,0,0,.84.84h22.831Zm-32.4-25.323h-.169a3.409,3.409,0,0,1-3.413-3.407,3.409,3.409,0,0,1,2.513-3.293v.023a21.518,21.518,0,0,0,.18,2.779A21.249,21.249,0,0,0,101.837-18.91ZM112.506,2.869a12.678,12.678,0,0,1,4.022-7.294V4.732h-4.256A14.591,14.591,0,0,1,112.506,2.869Zm5.7-7.239c.72.151,1.449.264,2.18.344l-.073,1.216a1.89,1.89,0,0,0,.559,1.45l-.642,6.092h-2.021v-9.1Zm7.6.277q.817-.108,1.625-.277v9.1h-2.022l-.632-6a1.889,1.889,0,0,0,.66-1.543l-.073-1.228c.147-.013.3-.03.445-.053Zm-2.932,2.112-.8-.555a.2.2,0,0,1-.084-.174l.071-1.2h1.622l.072,1.2a.2.2,0,0,1-.084.174Zm-.953,6.713.536-5.084a1.5,1.5,0,0,0,.378.051,1.7,1.7,0,0,0,.349-.027l.533,5.06h-1.8ZM133.137,2.87a14.576,14.576,0,0,1,.234,1.862h-4.257V-4.425A12.676,12.676,0,0,1,133.137,2.87ZM127.91-6.207a20.8,20.8,0,0,1-10.178,0,20.187,20.187,0,0,1-15.113-16.814.138.138,0,0,0-.007-.053,18.35,18.35,0,0,1,.414-7.239v-.012a13.181,13.181,0,0,1,9.2-8.85c3.873-1.054,7.516-.227,11.27.858h.007a23.466,23.466,0,0,0,12.6.3,5.967,5.967,0,0,1,1.416-.3,2.092,2.092,0,0,1,1.666.83,19.75,19.75,0,0,1,3.83,14.466A20.189,20.189,0,0,1,127.91-6.207Zm16.065-12.7h-.169a21.259,21.259,0,0,0,.885-3.9v-.035c.022-.17.042-.34.06-.511v-.021q.052-.519.081-1.041a.822.822,0,0,1,.007-.131c.006-.129.011-.257.015-.386v-.142c0-.169.007-.338.007-.508V-25.6h0a3.409,3.409,0,0,1,2.393,4.187,3.408,3.408,0,0,1-3.293,2.513Z"/></g><g transform="translate(1031.599 1207.962)"><path class="a" d="M105.237-10.8a8.04,8.04,0,0,0-5.926,2.617A8.042,8.042,0,0,0,93.384-10.8c-.161,0-4.419,1.318-4.577,1.333-1.3,1.662-3.369,3.773-3.363,5.885,0,5.146,9.313,13.16,13.868,16.455C103.466,9.707,113.4,1.712,113.4-2.431a8.264,8.264,0,0,0-8.159-8.368Z"/><path class="b" d="M99.311,13.783a.822.822,0,0,1-.442-.128,67.388,67.388,0,0,1-7.14-5.339C86.87,4.116,84.4.5,84.4-2.433a9.1,9.1,0,0,1,8.983-9.191A8.774,8.774,0,0,1,99.31-9.341a8.776,8.776,0,0,1,5.927-2.283,9.1,9.1,0,0,1,8.984,9.195c0,2.935-2.465,6.552-7.328,10.749a67.362,67.362,0,0,1-7.14,5.34A.831.831,0,0,1,99.311,13.783ZM93.385-9.975a7.447,7.447,0,0,0-7.332,7.541c0,2.4,2.336,5.683,6.756,9.5a67.466,67.466,0,0,0,6.5,4.915c4.081-2.661,13.256-9.653,13.256-14.406a7.447,7.447,0,0,0-7.332-7.541,7.171,7.171,0,0,0-5.322,2.352.826.826,0,0,1-1.167.047c-.017-.015-.033-.031-.048-.047A7.175,7.175,0,0,0,93.38-9.972Z"/><path class="b" d="M109.872-1.607a.826.826,0,0,1-.826-.826,3.924,3.924,0,0,0-3.811-4.022,3.734,3.734,0,0,0-.634.054.827.827,0,0,1-.957-.671.827.827,0,0,1,.672-.957,5.338,5.338,0,0,1,.919-.08A5.578,5.578,0,0,1,110.7-2.44a.826.826,0,0,1-.82.832h-.006ZM101.9-4.971a.826.826,0,0,1-.822-.83.833.833,0,0,1,.222-.559v-.006a.825.825,0,0,1,1.167-.047.825.825,0,0,1,.048,1.167h0l-.017.019a.823.823,0,0,1-.6.256Z"/></g></g><g class="c" transform="translate(1403.599 968.962)"><text class="d" transform="translate(148.577 -1.56)"><tspan x="0" y="0">322+</tspan></text></g></g><g transform="translate(0 -133)"><g transform="translate(372 -239)"><rect class="a" width="54" height="23" transform="translate(1282.177 1190.402)"/><path class="b" d="M305.777,6.04H256.015v-2h47.763v-20.6H259.335v-2h46.442Z" transform="translate(1031.599 1207.962)"/><g transform="translate(1031.599 1207.962)"><path class="a" d="M242.368-5.618H241.7a13.19,13.19,0,0,0-5.016,8.33,15.182,15.182,0,0,0-.275,2.861h5.963L244.582.417Z"/><path class="a" d="M258.965,2.712a13.19,13.19,0,0,0-5.016-8.33h-.672v.311l-2.1,5.724,2.1,4.891v.265h5.963A15.178,15.178,0,0,0,258.965,2.712Z"/><path class="a" d="M266.075-48.565a1.306,1.306,0,0,0-1.118-.462,49.628,49.628,0,0,1-18.8-.628c-11.54-2.6-26.4,5.622-20.967,25.711l1.482,1.63h42.3l1.993-3.755S274.1-38.936,266.075-48.565Z"/><path class="a" d="M243.6-50.049c-11.035-.948-23.455,7.471-18.413,26.1l1.481,1.636h3.362l-1.482-1.632C224.014-40.7,233.6-49.194,243.6-50.049Z"/><path class="a" d="M242.368-5.618V5.573h3.621l1.888-1.135,1.774,1.135h3.621V-5.618Z"/><path class="a" d="M249.653,5.573l-.77-7.307h-2.124l-.77,7.307Z"/><path class="a" d="M249.411-5.894h-3.069l-.187,3.134a1.039,1.039,0,0,0,.444.914l.8.556a.837.837,0,0,0,.956,0l.8-.556a1.039,1.039,0,0,0,.444-.914Z"/><circle class="a" cx="4.25" cy="4.25" r="4.25" transform="translate(264.724 -26.565)"/><path class="a" d="M264.853-38.007a2.925,2.925,0,0,0-3.14-1.037,22.9,22.9,0,0,1-13.892-.374c-9.834-3.4-18.4,1.2-20.606,8.889a20.551,20.551,0,0,0-.524,3.165c-.014.264-.023.53-.023.8l-.03-.045c-.017.341-.025.684-.026,1.029A21.212,21.212,0,0,0,248.178-4.728,21.211,21.211,0,0,0,269.03-25.58,20.517,20.517,0,0,0,264.853-38.007Z"/><path class="a" d="M229.974-25.582a18.186,18.186,0,0,1,.6-4.947,13.983,13.983,0,0,1,12.462-9.942c-7.728-.725-13.989,3.535-15.823,9.942a16.869,16.869,0,0,0-.583,3.964A4.251,4.251,0,0,0,222.4-22.3a4.251,4.251,0,0,0,4.269,4.231,3.22,3.22,0,0,0,1.275-.238,21.2,21.2,0,0,0,19.883,13.57q.849,0,1.681-.065A21,21,0,0,1,229.974-25.582Z"/><path class="b" d="M258.611-26.656a.84.84,0,0,0-.84.84v1.865a.841.841,0,0,0,.841.841.841.841,0,0,0,.84-.841v-1.865A.841.841,0,0,0,258.611-26.656Z"/><path class="b" d="M237.031-23.11a.84.84,0,0,0,.84-.84v-1.865a.84.84,0,0,0-.84-.84.84.84,0,0,0-.841.84h0v1.865A.841.841,0,0,0,237.031-23.11Z"/><path class="b" d="M248.066-21.046a4.9,4.9,0,0,0-3.7,1.648,1.213,1.213,0,0,0,.115,1.712h0a1.228,1.228,0,0,0,1.712-.115,2.554,2.554,0,0,1,3.608-.138q.072.066.138.138a1.215,1.215,0,0,0,1.714.114,1.215,1.215,0,0,0,.113-1.714h0A4.9,4.9,0,0,0,248.066-21.046Z"/><path class="b" d="M259.237,6.413a.84.84,0,0,0,.84-.84h0a16.106,16.106,0,0,0-.292-3.02,14.571,14.571,0,0,0-4.139-7.86,22.01,22.01,0,0,0,12.546-11.978A5.087,5.087,0,0,0,274-21.525a5.087,5.087,0,0,0-2.094-4.943,31.611,31.611,0,0,0,.461-7.281,25.917,25.917,0,0,0-5.65-15.355,2.149,2.149,0,0,0-1.836-.762c-.3.026-.666.074-1.133.134a47.075,47.075,0,0,1-17.414-.745,20.305,20.305,0,0,0-13.471,1.648A.843.843,0,0,0,232.5-47.7a.842.842,0,0,0,1.132.368,18.6,18.6,0,0,1,12.339-1.508,48.636,48.636,0,0,0,18,.772c.447-.058.8-.1,1.063-.127a.469.469,0,0,1,.4.163,24.234,24.234,0,0,1,5.253,14.311,30.748,30.748,0,0,1-.354,6.5l-.025-.006c-.066-.018-.133-.034-.2-.05l-.051-.012c-.086-.019-.173-.035-.26-.05a21.2,21.2,0,0,0-3.175-9.576,11.132,11.132,0,0,0-1.418-1.964,3.724,3.724,0,0,0-2.936-1.111,9.275,9.275,0,0,0-1.563.343,22.23,22.23,0,0,1-11.708-.274l-.019-.006a28.644,28.644,0,0,0-6.131-1.4,16.532,16.532,0,0,0-11.514,3.25,14.134,14.134,0,0,0-5.14,8.263,22.229,22.229,0,0,0-.342,2.381.6.6,0,0,1-.005.1c-.088.014-.537.112-.536.118-1.382-7.882.577-14.369,5.571-18.348a.841.841,0,0,0,.133-1.181.841.841,0,0,0-1.181-.133c-5.6,4.463-7.747,11.693-6.088,20.4a5.088,5.088,0,0,0-1.234,7.089,5.09,5.09,0,0,0,4.943,2.1A22.008,22.008,0,0,0,239.995-5.307a14.558,14.558,0,0,0-4.139,7.86,16.021,16.021,0,0,0-.29,3.02.84.84,0,0,0,.84.84h22.831Zm-32.4-25.323h-.169a3.409,3.409,0,0,1-3.413-3.407,3.409,3.409,0,0,1,2.513-3.293v.023a21.518,21.518,0,0,0,.18,2.779A21.249,21.249,0,0,0,226.837-18.91ZM237.506,2.869a12.678,12.678,0,0,1,4.022-7.294V4.732h-4.256A14.591,14.591,0,0,1,237.506,2.869Zm5.7-7.239c.72.151,1.449.264,2.18.344l-.073,1.216a1.89,1.89,0,0,0,.559,1.45l-.642,6.092h-2.021v-9.1Zm7.6.277q.817-.108,1.625-.277v9.1h-2.022l-.632-6a1.889,1.889,0,0,0,.66-1.543l-.073-1.228c.147-.013.3-.03.445-.053Zm-2.932,2.112-.8-.555a.2.2,0,0,1-.084-.174l.071-1.2h1.622l.072,1.2a.2.2,0,0,1-.084.174Zm-.953,6.713.536-5.084a1.5,1.5,0,0,0,.378.051,1.7,1.7,0,0,0,.349-.027l.533,5.06h-1.8ZM258.137,2.87a14.573,14.573,0,0,1,.234,1.862h-4.257V-4.425A12.676,12.676,0,0,1,258.137,2.87ZM252.91-6.207a20.8,20.8,0,0,1-10.178,0,20.187,20.187,0,0,1-15.113-16.814.138.138,0,0,0-.007-.053,18.351,18.351,0,0,1,.414-7.239v-.012a13.181,13.181,0,0,1,9.2-8.85c3.873-1.054,7.516-.227,11.27.858h.007a23.466,23.466,0,0,0,12.6.3,5.966,5.966,0,0,1,1.416-.3,2.092,2.092,0,0,1,1.666.83,19.75,19.75,0,0,1,3.83,14.466A20.189,20.189,0,0,1,252.91-6.207Zm16.065-12.7h-.169a21.26,21.26,0,0,0,.885-3.9v-.035c.022-.17.042-.34.06-.511v-.021q.053-.519.081-1.041a.823.823,0,0,1,.007-.131c.006-.129.011-.257.015-.386v-.142c0-.169.007-.338.007-.508V-25.6h0a3.409,3.409,0,0,1,2.393,4.187,3.408,3.408,0,0,1-3.293,2.513Z"/></g><g transform="translate(1031.599 1207.962)"><path class="a" d="M220.554,9.031l2.824-3.647L219.7-.517l3.052-7.428a8.388,8.388,0,0,0-5.436-2.01A8.785,8.785,0,0,0,208.7-1.01c0,7.041,10.633,13.883,13.919,15.846Z"/><path class="a" d="M229.836-9.955a8.388,8.388,0,0,0-1.642.163l-3.5,8.661,3.536,4.676L224.98,8.5l.516,3.661-.953,2.677c3.293-1.967,13.912-8.806,13.912-15.842A8.785,8.785,0,0,0,229.836-9.955Z"/><path class="b" d="M229.357-8.172a.605.605,0,0,0-.6.605.6.6,0,0,0,.6.6h0a.6.6,0,0,0,.6-.6A.6.6,0,0,0,229.357-8.172Z"/><path class="b" d="M231.847-7.7a.6.6,0,0,0-.783.345.605.605,0,0,0,.345.782,6.162,6.162,0,0,1,3.838,5.75.605.605,0,0,0,.605.605.6.6,0,0,0,.6-.605A7.379,7.379,0,0,0,231.847-7.7Z"/><path class="b" d="M223.891,5.065,220.384-.574l2.934-7.141a.6.6,0,0,0-.169-.691,9.043,9.043,0,0,0-5.831-2.154,9.4,9.4,0,0,0-9.22,9.549c0,3.185,1.992,6.64,5.921,10.271a52.294,52.294,0,0,0,8.292,6.094.6.6,0,0,0,.88-.722L221.234,9.14l2.621-3.385A.6.6,0,0,0,223.891,5.065Zm-3.815,3.6a.6.6,0,0,0-.092.573l1.489,4.18a48.774,48.774,0,0,1-6.633-5.041c-3.671-3.393-5.533-6.55-5.533-9.383a8.19,8.19,0,0,1,8.011-8.34,7.816,7.816,0,0,1,4.71,1.586l-2.88,7.009a.6.6,0,0,0,.046.549l3.448,5.545Z"/><path class="b" d="M229.836-10.56a8.963,8.963,0,0,0-1.76.175.6.6,0,0,0-.442.366l-3.5,8.661a.6.6,0,0,0,.078.591l3.275,4.335-3.016,4.594a.6.6,0,0,0-.093.416l.5,3.513-.9,2.537a.6.6,0,0,0,.88.722,52.277,52.277,0,0,0,8.291-6.1c3.925-3.629,5.916-7.083,5.916-10.266A9.4,9.4,0,0,0,229.836-10.56ZM232.32,8.367a48.7,48.7,0,0,1-6.633,5.042l.374-1.052a.6.6,0,0,0,.029-.287L225.6,8.635l3.125-4.76a.6.6,0,0,0-.023-.7l-3.325-4.4,3.243-8.035a7.73,7.73,0,0,1,1.206-.094,8.19,8.19,0,0,1,8.011,8.34c.005,2.835-1.855,5.991-5.523,9.381Z"/></g></g><g class="c" transform="translate(1403.599 968.962)"><text class="d" transform="translate(269.577 -1.56)"><tspan x="0" y="0">322+</tspan></text></g></g></g></svg>