<svg xmlns="http://www.w3.org/2000/svg" width="105.167" height="48.288" viewBox="0 0 105.167 48.288"><defs><style>.a{fill:#d9d9d9;}.b{fill:#fff;}</style></defs><g transform="translate(-1511 -707.712)"><g transform="translate(1511 707.712)"><path class="a" d="M39.234,48.288H9.054A9.053,9.053,0,0,1,0,39.234V9.054A9.053,9.053,0,0,1,9.054,0h30.18a9.053,9.053,0,0,1,9.054,9.054v30.18A9.053,9.053,0,0,1,39.234,48.288Z"/><path class="b" d="M20.072,8A12.072,12.072,0,1,0,32.144,20.072,12.082,12.082,0,0,0,20.072,8ZM13.03,17.054a2.012,2.012,0,1,1,2.013,2.012A2.018,2.018,0,0,1,13.03,17.054ZM25.814,26.03a8.12,8.12,0,0,1-11.484,0,1.006,1.006,0,1,1,1.423-1.423,6.108,6.108,0,0,0,8.638,0,1.007,1.007,0,0,1,1.423,1.425ZM25.1,19.066a2.012,2.012,0,1,1,2.012-2.012A2.018,2.018,0,0,1,25.1,19.066Z" transform="translate(4.072 4.072)"/></g><g transform="translate(1567.879 707.712)"><path class="a" d="M39.234,48.288H9.054A9.053,9.053,0,0,1,0,39.234V9.054A9.053,9.053,0,0,1,9.054,0h30.18a9.053,9.053,0,0,1,9.054,9.054v30.18A9.053,9.053,0,0,1,39.234,48.288Z"/><path class="b" d="M20.072,8A12.072,12.072,0,1,0,32.144,20.072,12.082,12.082,0,0,0,20.072,8ZM13.03,16.552a.755.755,0,0,1,1.509,0,1.007,1.007,0,1,0,2.013,0,.755.755,0,0,1,1.509,0,2.516,2.516,0,1,1-5.031,0ZM25.868,27.668a1.005,1.005,0,0,1-1.421,0,6.191,6.191,0,0,0-8.746,0,1.006,1.006,0,0,1-1.423-1.423,8.2,8.2,0,0,1,11.591,0A1.007,1.007,0,0,1,25.868,27.668Zm-1.269-8.6a2.517,2.517,0,0,1-2.516-2.516.755.755,0,1,1,1.509,0,1.007,1.007,0,1,0,2.013,0,.755.755,0,1,1,1.509,0A2.516,2.516,0,0,1,24.6,19.066Z" transform="translate(4.072 4.072)"/></g></g></svg>