<svg xmlns="http://www.w3.org/2000/svg" width="97" height="34.934" viewBox="0 0 97 34.934"><defs><style>.a{fill:#cdcdcd;}</style></defs><g transform="translate(-767 -747)"><g transform="translate(767 746.154)"><g transform="translate(0 0.846)"><g transform="translate(0 13.253)"><path class="a" d="M8.258,43.565H2.241A2.442,2.442,0,0,1,0,40.969V24.479a2.44,2.44,0,0,1,2.241-2.595H8.258A2.44,2.44,0,0,1,10.5,24.479V40.969A2.442,2.442,0,0,1,8.258,43.565ZM2.241,23.774c-.12,0-.352.275-.352.7V40.969c0,.431.231.706.352.706H8.258c.12,0,.352-.276.352-.706V24.479c0-.431-.231-.7-.352-.7Z" transform="translate(0 -21.884)"/></g><g transform="translate(11.309)"><path class="a" d="M39.2,35.78H20.637a2.688,2.688,0,0,1-2.685-2.686V16.627A2.674,2.674,0,0,1,20.5,13.951a1.055,1.055,0,0,1,.141-.01h.26a.878.878,0,0,0,.513-.294c.07-.135.144-.282.22-.434.874-1.772,2.243-5.192,1.586-8.2a.954.954,0,0,1,0-.382c-.011-.115-.017-.229-.017-.343a3.432,3.432,0,0,1,6.157-2.094l.011.011a12.456,12.456,0,0,1,1.9,11.74h7.942a3.436,3.436,0,0,1,2.363,5.932,3.434,3.434,0,0,1,0,4.988,3.432,3.432,0,0,1-.069,5.05,3.426,3.426,0,0,1-2.067,5.84A.945.945,0,0,1,39.2,35.78ZM20.687,15.831a.752.752,0,0,1-.092.006.789.789,0,0,0-.753.79V33.095a.8.8,0,0,0,.795.8H39.045a.807.807,0,0,1,.111-.013,1.539,1.539,0,0,0,0-3.074.944.944,0,0,1-.9-.944.956.956,0,0,1,.945-.958,1.548,1.548,0,1,0,0-3.1.945.945,0,0,1,0-1.89,1.549,1.549,0,0,0,0-3.1.945.945,0,0,1,0-1.89,1.548,1.548,0,1,0,0-3.1h-9.3a.944.944,0,0,1-.871-1.312A10.882,10.882,0,0,0,27.977,3.494a.952.952,0,0,1-.1-.112,1.531,1.531,0,0,0-1.25-.646A1.545,1.545,0,0,0,25.118,4.6a.942.942,0,0,1,.01.333c.593,3.3-.641,6.757-1.8,9.113-.1.2-.193.385-.282.556a1.014,1.014,0,0,1-.077.122,2.753,2.753,0,0,1-1.878,1.1.944.944,0,0,1-.119.008h-.281Z" transform="translate(-17.952 -0.846)"/></g></g></g><g transform="translate(828 747)"><g transform="translate(0 0)"><path class="a" d="M8.258,21.884H2.241A2.442,2.442,0,0,0,0,24.48V40.971a2.44,2.44,0,0,0,2.241,2.595H8.258A2.44,2.44,0,0,0,10.5,40.971V24.48A2.442,2.442,0,0,0,8.258,21.884ZM2.241,41.676c-.12,0-.352-.275-.352-.7V24.48c0-.431.231-.706.352-.706H8.258c.12,0,.352.276.352.706V40.971c0,.431-.231.7-.352.7Z" transform="translate(0 -21.884)"/></g><g transform="translate(11.309 0)"><path class="a" d="M39.2.846H20.637a2.688,2.688,0,0,0-2.685,2.686V20A2.674,2.674,0,0,0,20.5,22.675a1.056,1.056,0,0,0,.141.01h.26a.878.878,0,0,1,.513.294c.07.135.144.282.22.434.874,1.772,2.243,5.192,1.586,8.2a.954.954,0,0,0,0,.382c-.011.115-.017.229-.017.343a3.432,3.432,0,0,0,6.157,2.094l.011-.011a12.456,12.456,0,0,0,1.9-11.74h7.942a3.436,3.436,0,0,0,2.363-5.932,3.434,3.434,0,0,0,0-4.988,3.432,3.432,0,0,0-.069-5.05A3.426,3.426,0,0,0,39.434.874.945.945,0,0,0,39.2.846ZM20.687,20.8a.752.752,0,0,0-.092-.006.789.789,0,0,1-.753-.79V3.531a.8.8,0,0,1,.795-.8H39.045a.807.807,0,0,0,.111.013,1.539,1.539,0,0,1,0,3.074.944.944,0,0,0-.9.944.956.956,0,0,0,.945.958,1.548,1.548,0,1,1,0,3.1.945.945,0,0,0,0,1.89,1.549,1.549,0,0,1,0,3.1.945.945,0,0,0,0,1.89,1.548,1.548,0,1,1,0,3.1h-9.3a.944.944,0,0,0-.871,1.312,10.882,10.882,0,0,1-1.058,11.027.952.952,0,0,0-.1.112,1.531,1.531,0,0,1-1.25.646,1.545,1.545,0,0,1-1.514-1.868.942.942,0,0,0,.01-.333c.593-3.3-.641-6.757-1.8-9.113-.1-.2-.193-.385-.282-.556a1.014,1.014,0,0,0-.077-.122,2.753,2.753,0,0,0-1.878-1.1.944.944,0,0,0-.119-.008h-.281Z" transform="translate(-17.952 -0.846)"/></g></g></g></svg>