<svg xmlns="http://www.w3.org/2000/svg" width="143" height="44" viewBox="0 0 143 44"><defs><style>.a,.c,.d,.f{fill:#cdcdcd;}.a{opacity:0.3;}.b{fill:none;}.c{font-size:18px;font-weight:600;font-family: -apple-system,BlinkMacSystemFont,"Segoe UI",Roboto,Oxygen-Sans,Ubuntu,Cantarell,"Helvetica Neue",sans-serif}.e,.f{stroke:none;}</style></defs><g transform="translate(-1018 -624)"><rect class="a" width="60" height="44" rx="6" transform="translate(1018 624)"/><g class="b" transform="translate(1036.445 616)"><path class="e" d="M59.555,52a6,6,0,0,1-6-6V33.754L45,29.012l8.555-5.334V14a6,6,0,0,1,6-6h59a6,6,0,0,1,6,6V46a6,6,0,0,1-6,6Z"/><path class="f" d="M 118.5543060302734 51.00020599365234 C 121.3114852905273 51.00020599365234 123.5546112060547 48.75708389282227 123.5546112060547 45.99990463256836 L 123.5546112060547 14.00040626525879 C 123.5546112060547 11.24322891235352 121.3114852905273 9.000105857849121 118.5543060302734 9.000105857849121 L 59.5547981262207 9.000105857849121 C 56.7976188659668 9.000105857849121 54.55449676513672 11.24322891235352 54.55449676513672 14.00040626525879 L 54.55449676513672 23.67716217041016 L 54.55449676513672 24.23208427429199 L 54.08362197875977 24.52570533752441 L 46.97117233276367 28.9608268737793 L 54.03932189941406 32.87892913818359 L 54.55449676513672 33.16450500488281 L 54.55449676513672 33.7535400390625 L 54.55449676513672 45.99990463256836 C 54.55449676513672 48.75708389282227 56.7976188659668 51.00020599365234 59.5547981262207 51.00020599365234 L 118.5543060302734 51.00020599365234 M 118.5543060302734 52.00020599365234 L 59.5547981262207 52.00020599365234 C 56.24099731445313 52.00020599365234 53.55449676513672 49.31370544433594 53.55449676513672 45.99990463256836 L 53.55449676513672 33.7535400390625 L 44.99999618530273 29.01150703430176 L 53.55449676513672 23.67716217041016 L 53.55449676513672 14.00040626525879 C 53.55449676513672 10.68660640716553 56.24099731445313 8.000105857849121 59.5547981262207 8.000105857849121 L 118.5543060302734 8.000105857849121 C 121.8681106567383 8.000105857849121 124.5546112060547 10.68660640716553 124.5546112060547 14.00040626525879 L 124.5546112060547 45.99990463256836 C 124.5546112060547 49.31370544433594 121.8681106567383 52.00020599365234 118.5543060302734 52.00020599365234 Z"/></g><text class="c" transform="translate(1102 654)"><tspan x="0" y="0">321+</tspan></text><path class="d" d="M7.67,10.758h5.967V24.673H7.67Zm22.916,1.465L28.114,9.752H23.365L24.5,6.876l.321-.816-.03-.235-.7-5.558L20.668,0,19.412,4.334,16.067,9.759V24.673H28.429Z" transform="translate(1028.872 632.333)"/></g></svg>