<svg xmlns="http://www.w3.org/2000/svg" width="103" height="24" viewBox="0 0 103 24"><defs><style>.a{fill:#f3f3f3;}.b{fill:#fff;}.c{fill:#cdcdcd;}</style></defs><rect class="a" width="44" height="24" rx="12"/><circle class="b" cx="9" cy="9" r="9" transform="translate(3 3)"/><g transform="translate(6 9)"><path class="c" d="M.02,4.667a.437.437,0,0,1,.835-.258A4.374,4.374,0,0,0,5.1,7.292,4.373,4.373,0,0,0,9.353,4.409a.438.438,0,0,1,.836.258A5.253,5.253,0,0,1,5.1,8.167,5.252,5.252,0,0,1,.02,4.667Zm6.835-3.5A1.167,1.167,0,1,1,8.021,2.334,1.167,1.167,0,0,1,6.854,1.166Zm.875,0A.292.292,0,1,0,8.021.875.292.292,0,0,0,7.729,1.166Zm-6.709,0A1.167,1.167,0,1,1,2.187,2.334,1.168,1.168,0,0,1,1.021,1.166Zm.875,0A.292.292,0,1,0,2.187.875.292.292,0,0,0,1.9,1.166Z" transform="translate(0.896 0.083)"/></g><g transform="translate(59)"><rect class="a" width="44" height="24" rx="12"/><circle class="b" cx="9" cy="9" r="9" transform="translate(3 3)"/><g transform="translate(7 9)"><path class="c" d="M7.682,7.749a4.268,4.268,0,0,0-6.031,0,.5.5,0,0,1-.707-.707,5.27,5.27,0,0,1,7.445,0,.5.5,0,1,1-.706.707ZM6,.5a.5.5,0,1,1,1,0A.666.666,0,0,0,8.333.5a.5.5,0,1,1,1,0A1.666,1.666,0,0,1,6,.5ZM0,.5a.5.5,0,1,1,1,0A.667.667,0,0,0,2.334.5a.5.5,0,1,1,1,0A1.667,1.667,0,0,1,0,.5Z" transform="translate(0.333 0.167)"/></g></g></svg>