<svg xmlns="http://www.w3.org/2000/svg" width="179.605" height="60.067" viewBox="0 0 179.605 60.067">
  <g id="Group_361" data-name="Group 361" transform="translate(-1188.729 -1185.217)">
    <g id="Group_359" data-name="Group 359" transform="translate(1188.729 1185.217)">
      <path id="Path_590" data-name="Path 590" d="M617.449,403.906c0-.53.024-1.055.067-1.574a6.506,6.506,0,0,0-3.439,5.739c0,.22.012.438.034.653a6.509,6.509,0,0,1,4.117.507A18.475,18.475,0,0,1,617.449,403.906Z" transform="translate(-606.808 -355.131)" fill="#fff"/>
      <g id="Group_261" data-name="Group 261" transform="translate(10.641 10.511)">
        <path id="Path_591" data-name="Path 591" d="M703.3,108.858A14.58,14.58,0,0,0,698.985,89.6H682.357a14.58,14.58,0,0,0-4.311,19.262Z" transform="translate(-672.19 -89.596)" fill="#fff"/>
        <path id="Path_592" data-name="Path 592" d="M674.393,304.63a.58.58,0,0,1-.148.021H666.31l5.062,5.062a.588.588,0,0,1,0,.83l-3.4,3.4a.588.588,0,0,1-.83,0l-9.3-9.3h-9.5a.581.581,0,0,1-.148-.021,18.5,18.5,0,0,0-4.6,18.362,6.512,6.512,0,0,1,3.645,5.087h25.119a6.507,6.507,0,0,1,6.459-5.727c.12,0,.238,0,.356.01a18.5,18.5,0,0,0-4.781-17.732Z" transform="translate(-642.814 -279.402)" fill="#fff"/>
      </g>
      <g id="Group_262" data-name="Group 262" transform="translate(10.641 10.511)" opacity="0.1">
        <path id="Path_593" data-name="Path 593" d="M681.737,108.858A14.581,14.581,0,0,1,686.048,89.6h-3.691a14.58,14.58,0,0,0-4.311,19.262Z" transform="translate(-672.189 -89.596)" fill="#fff"/>
        <path id="Path_594" data-name="Path 594" d="M651.867,304.651h-3.522a.581.581,0,0,1-.148-.021,18.5,18.5,0,0,0-4.6,18.362,6.512,6.512,0,0,1,3.645,5.087h2.478a18.479,18.479,0,0,1,2.152-23.427Z" transform="translate(-642.812 -279.402)" fill="#fff"/>
      </g>
      <path id="Path_595" data-name="Path 595" d="M711.962,304.813H710.6l-6.3,6.3a.588.588,0,0,0,0,.83l3.4,3.4a.588.588,0,0,0,.83,0l6.983-6.983Z" transform="translate(-686.292 -269.053)" fill="#fff"/>
      <rect id="Rectangle_50" data-name="Rectangle 50" width="3.717" height="5.987" transform="translate(20.315 39.75) rotate(-45)" fill="#fff"/>
      <ellipse id="Ellipse_48" data-name="Ellipse 48" cx="1.544" cy="1.544" rx="1.544" ry="1.544" transform="translate(27.351 21.958) rotate(-80.783)" fill="#fff"/>
      <g id="Group_263" data-name="Group 263" transform="translate(15.587 29.773)">
        <path id="Path_596" data-name="Path 596" d="M689.481,254.2c-.228-.228-.151-.415.172-.415h-4.1a.588.588,0,0,0-.587.587v4.814a.588.588,0,0,0,.587.587h9.5Z" transform="translate(-684.97 -253.781)" fill="#fff"/>
        <path id="Path_597" data-name="Path 597" d="M801.563,253.782H787.055a1.632,1.632,0,0,1,1,.415l5.572,5.572h7.935a.588.588,0,0,0,.587-.587v-4.814A.589.589,0,0,0,801.563,253.782Z" transform="translate(-775.078 -253.782)" fill="#fff"/>
      </g>
      <g id="Group_264" data-name="Group 264" transform="translate(19.752 29.773)">
        <path id="Path_598" data-name="Path 598" d="M793.628,259.769h4.356v-5.987h-10.93a1.632,1.632,0,0,1,1,.415Z" transform="translate(-779.242 -253.782)" fill="#fff"/>
        <path id="Path_599" data-name="Path 599" d="M720.816,254.2c-.228-.228-.151-.415.172-.415h-.518v5.987h5.918Z" transform="translate(-720.47 -253.781)" fill="#fff"/>
      </g>
      <path id="Path_600" data-name="Path 600" d="M793.233,259.373v-5.592h-6.179a1.632,1.632,0,0,1,1,.415Z" transform="translate(-759.491 -224.008)" fill="#fff"/>
      <g id="Group_265" data-name="Group 265" transform="translate(27.579 45.166)">
        <ellipse id="Ellipse_49" data-name="Ellipse 49" cx="1.544" cy="1.544" rx="1.544" ry="1.544" fill="#fff"/>
        <ellipse id="Ellipse_50" data-name="Ellipse 50" cx="1.544" cy="1.544" rx="1.544" ry="1.544" transform="translate(0 6.768)" fill="#fff"/>
      </g>
      <path id="Path_601" data-name="Path 601" d="M583.337,461.414a6.506,6.506,0,0,0-12.918,0Z" transform="translate(-568.271 -402.226)" fill="#fff"/>
      <g id="Group_266" data-name="Group 266" transform="translate(2.148 53.461)" opacity="0.1">
        <path id="Path_602" data-name="Path 602" d="M578.743,455.961a6.508,6.508,0,0,0-8.325,5.454h3.732A6.513,6.513,0,0,1,578.743,455.961Z" transform="translate(-570.418 -455.688)" fill="#fff"/>
      </g>
      <path id="Path_603" data-name="Path 603" d="M907.559,461.414a6.506,6.506,0,0,0-12.918,0Z" transform="translate(-854.456 -402.226)" fill="#fff"/>
      <g id="Group_267" data-name="Group 267" transform="translate(40.185 53.461)" opacity="0.1">
        <path id="Path_604" data-name="Path 604" d="M902.953,455.956a6.508,6.508,0,0,0-8.312,5.458h3.706A6.513,6.513,0,0,1,902.953,455.956Z" transform="translate(-894.641 -455.687)" fill="#fff"/>
      </g>
      <path id="Path_605" data-name="Path 605" d="M749.824,14.528V11.665A4.165,4.165,0,0,0,745.659,7.5H738.5a4.165,4.165,0,0,0-4.165,4.165v2.863Z" transform="translate(-712.957 -6.62)" fill="#fff"/>
      <path id="Path_606" data-name="Path 606" d="M737.974,14.528V11.665A4.165,4.165,0,0,1,742.139,7.5H738.5a4.165,4.165,0,0,0-4.165,4.165v2.863Z" transform="translate(-712.957 -6.62)" fill="#fff" opacity="0.1" style="isolation: isolate"/>
      <path id="Path_607" data-name="Path 607" d="M730.3,69.423a.588.588,0,0,1-.587.587h-20.3a.588.588,0,0,1-.587-.587v-1.43a.588.588,0,0,1,.587-.587h20.3a.588.588,0,0,1,.587.587v1.43Z" transform="translate(-690.437 -59.499)" fill="#fff"/>
      <g id="Group_268" data-name="Group 268" transform="translate(18.385 7.908)" opacity="0.1">
        <path id="Path_608" data-name="Path 608" d="M712.514,69.423v-1.43a.588.588,0,0,1,.587-.587h-3.693a.588.588,0,0,0-.587.587v1.43a.588.588,0,0,0,.587.587H713.1A.588.588,0,0,1,712.514,69.423Z" transform="translate(-708.821 -67.407)" fill="#fff"/>
      </g>
      <path id="Path_609" data-name="Path 609" d="M737.3,269.064a.588.588,0,0,0,.83,0l3.4-3.4a.588.588,0,0,0,0-.83L730.9,254.2a1.632,1.632,0,0,0-1-.415H722.6c-.323,0-.4.187-.172.415Z" transform="translate(-702.335 -224.009)" fill="#fff"/>
      <g id="Group_269" data-name="Group 269" transform="translate(24.365 30.222)">
        <rect id="Rectangle_51" data-name="Rectangle 51" width="5.987" height="3.717" transform="translate(5.662 9.894) rotate(-45)" fill="#fff"/>
        <rect id="Rectangle_52" data-name="Rectangle 52" width="5.987" height="3.717" transform="translate(0 4.233) rotate(-45)" fill="#fff"/>
      </g>
      <g id="Group_270" data-name="Group 270" transform="translate(2.791 8.089)">
        <path id="Path_776" data-name="Path 776" d="M1.993,0A1.992,1.992,0,1,1,0,1.992,1.993,1.993,0,0,1,1.993,0Z" transform="translate(49.978 22.426)" fill="#fff"/>
        <path id="Path_777" data-name="Path 777" d="M1.993,0A1.992,1.992,0,1,1,0,1.992,1.993,1.993,0,0,1,1.993,0Z" transform="translate(3.946 11.193)" fill="#fff"/>
        <ellipse id="Ellipse_53" data-name="Ellipse 53" cx="1.994" cy="1.992" rx="1.994" ry="1.992" transform="translate(41.736)" fill="#fff"/>
        <ellipse id="Ellipse_54" data-name="Ellipse 54" cx="1.993" cy="1.992" rx="1.993" ry="1.992" transform="translate(0 26.681)" fill="#e4e4e4"/>
      </g>
      <path id="Path_610" data-name="Path 610" d="M782.107,160.463a2.424,2.424,0,1,0-2.424-2.424A2.427,2.427,0,0,0,782.107,160.463Zm0-3.088a.664.664,0,1,1-.664.664A.665.665,0,0,1,782.107,157.375Z" transform="translate(-752.984 -137.358)" fill="#cdcdcd"/>
      <path id="Path_611" data-name="Path 611" d="M839.429,198.066v.024a.88.88,0,0,0,.845.913h.035a.88.88,0,0,0,.879-.846q0-.046,0-.092a.88.88,0,0,0-1.76,0Z" transform="translate(-805.72 -174.052)" fill="#cdcdcd"/>
      <path id="Path_612" data-name="Path 612" d="M793.315,221.048h-.129a.88.88,0,0,0,0,1.76h.138a.88.88,0,0,0,0-1.76Z" transform="translate(-764.127 -195.115)" fill="#cdcdcd"/>
      <path id="Path_613" data-name="Path 613" d="M765.039,217.817l.134.051a.88.88,0,0,0,.614-1.649l-.106-.04a.88.88,0,0,0-.642,1.639Z" transform="translate(-739.564 -190.763)" fill="#cdcdcd"/>
      <path id="Path_614" data-name="Path 614" d="M820.256,217.344a.879.879,0,0,0,1.131.518l.135-.052a.88.88,0,1,0-.644-1.638l-.1.04A.88.88,0,0,0,820.256,217.344Z" transform="translate(-788.749 -190.757)" fill="#cdcdcd"/>
      <path id="Path_615" data-name="Path 615" d="M747.13,199h.035a.88.88,0,0,0,.845-.913v-.024a.88.88,0,0,0-1.76,0c0,.031,0,.061,0,.092A.88.88,0,0,0,747.13,199Z" transform="translate(-723.474 -174.053)" fill="#cdcdcd"/>
      <path id="Path_616" data-name="Path 616" d="M750.454,147.09a.881.881,0,1,0-.622-.258A.886.886,0,0,0,750.454,147.09Z" transform="translate(-726.408 -128.28)" fill="#cdcdcd"/>
      <path id="Path_617" data-name="Path 617" d="M836.994,147.09a.879.879,0,1,0-.623-.258A.885.885,0,0,0,836.994,147.09Z" transform="translate(-802.795 -128.28)" fill="#cdcdcd"/>
      <path id="Path_618" data-name="Path 618" d="M635.765,58.307H605.95a7.314,7.314,0,0,0-.683-1.824.88.88,0,1,0-1.551.831,5.577,5.577,0,0,1,.415.993H593.376a5.632,5.632,0,0,1,7.674-3.478.88.88,0,1,0,.719-1.606,7.321,7.321,0,0,0-1.582-.5,19.385,19.385,0,0,0-4.648-17,1.457,1.457,0,0,0,.108-.55V30.36a1.463,1.463,0,0,0-.521-1.119,15.416,15.416,0,0,0-3.24-17.941,1.468,1.468,0,0,0,.962-1.375V8.495a1.468,1.468,0,0,0-1.466-1.466h-1.527V5.045A5.05,5.05,0,0,0,584.811,0h-7.158a5.05,5.05,0,0,0-5.045,5.045V7.028h-1.527a1.468,1.468,0,0,0-1.466,1.466v1.43a1.468,1.468,0,0,0,.962,1.375,15.417,15.417,0,0,0-3.24,17.941,1.463,1.463,0,0,0-.521,1.119v4.814a1.457,1.457,0,0,0,.108.55,19.238,19.238,0,0,0-4.94,10.948,7.387,7.387,0,0,0-3.485,6.25,7.39,7.39,0,0,0-4.98,5.385h-.531a.88.88,0,0,0,0,1.76h82.776a.88.88,0,1,0,0-1.76Zm-60.712-19.94,2.989,2.989-1.384,1.384-2.989-2.989Zm4.234,1.745L576.3,37.123l.483-.483h.634l2.672,2.672ZM568.576,34.88V30.653h2.405V34.88Zm21.147,0h-2.992V30.653h2.992Zm-6.343,5.236,2.989-2.989,1.384,1.384L584.764,41.5Zm-1.245-1.244-1.789-1.789,2.989-2.989,1.789,1.789Zm-9.394-6.906,2.914,2.914h-2.914Zm12.231,1.275-2.588-2.588h2.588Zm-7.253,1.214,2.989-2.989,1.384,1.384L579.1,35.839Zm-1.245-1.244-2.557-2.557h5.114ZM589,39.756l1.481,1.481-2.989,2.989-1.481-1.481Zm2.486-9.1h2.405V34.88h-2.405ZM574.368,5.045a3.289,3.289,0,0,1,3.285-3.285h7.158A3.289,3.289,0,0,1,588.1,5.045V7.028H574.368Zm-1.156,6.346h8.959a.88.88,0,0,0,0-1.76h-10.8V8.788h19.715v.843h-4.461a.88.88,0,0,0,0,1.76h2.624a13.668,13.668,0,0,1,4.078,17.5h-24.2a13.668,13.668,0,0,1,4.078-17.5ZM568.479,36.64h5.813l-4.8,4.8a1.468,1.468,0,0,0,0,2.074l.206.206a.88.88,0,0,0,1.245-1.243L572.425,41l2.989,2.989-1.481,1.481-.216-.216a.88.88,0,1,0-1.244,1.244l.424.424a1.468,1.468,0,0,0,2.074,0l6.361-6.361,5.121,5.121a1.468,1.468,0,0,0,2.074,0l3.4-3.4a1.468,1.468,0,0,0,0-2.074l-3.56-3.56h5.614a17.6,17.6,0,0,1,4.43,15.949,7.388,7.388,0,0,0-6.857,5.719H567.913a7.383,7.383,0,0,0-3.641-4.815,17.623,17.623,0,0,1,4.207-16.853ZM561.874,49a19.422,19.422,0,0,0,.408,3.748,7.387,7.387,0,0,0-1.565-.169c-.15,0-.3.006-.446.015A5.607,5.607,0,0,1,561.874,49Zm-6.535,9.305a5.628,5.628,0,0,1,10.755,0Z" transform="translate(-552.109 0)" fill="#cdcdcd"/>
      <path id="Path_619" data-name="Path 619" d="M782.107,382.338a2.424,2.424,0,1,0-2.424-2.424A2.427,2.427,0,0,0,782.107,382.338Zm0-3.088a.664.664,0,1,1-.664.664A.665.665,0,0,1,782.107,379.25Z" transform="translate(-752.984 -333.203)" fill="#cdcdcd"/>
      <path id="Path_620" data-name="Path 620" d="M782.107,440.025a2.424,2.424,0,1,0-2.424-2.424A2.427,2.427,0,0,0,782.107,440.025Zm0-3.088a.664.664,0,1,1-.664.664A.665.665,0,0,1,782.107,436.937Z" transform="translate(-752.984 -384.122)" fill="#cdcdcd"/>
      <path id="Path_621" data-name="Path 621" d="M927.029,67.2a2.872,2.872,0,1,0-2.873-2.872A2.876,2.876,0,0,0,927.029,67.2Zm0-3.983a1.112,1.112,0,1,1-1.114,1.112A1.114,1.114,0,0,1,927.029,63.212Z" transform="translate(-880.508 -54.243)" fill="#cdcdcd"/>
      <path id="Path_622" data-name="Path 622" d="M997.271,258.344a2.872,2.872,0,1,0-2.873-2.872A2.876,2.876,0,0,0,997.271,258.344Zm0-3.983a1.112,1.112,0,1,1-1.114,1.112A1.114,1.114,0,0,1,997.271,254.361Z" transform="translate(-942.509 -222.966)" fill="#cdcdcd"/>
      <path id="Path_623" data-name="Path 623" d="M604.9,162.6a2.872,2.872,0,1,0-2.873-2.872A2.876,2.876,0,0,0,604.9,162.6Zm0-3.984a1.112,1.112,0,1,1-1.114,1.112A1.114,1.114,0,0,1,604.9,158.619Z" transform="translate(-596.174 -138.456)" fill="#cdcdcd"/>
    </g>
    <g id="Group_360" data-name="Group 360" transform="translate(1289.355 1222.314)">
      <path id="Path_624" data-name="Path 624" d="M38.954,461.4a6.486,6.486,0,0,0-12.879,0Z" transform="translate(-23.934 -439.917)" fill="#fff"/>
      <g id="Group_273" data-name="Group 273" transform="translate(2.141 15.77)" opacity="0.1">
        <path id="Path_625" data-name="Path 625" d="M34.374,455.96a6.488,6.488,0,0,0-8.3,5.437h3.721A6.493,6.493,0,0,1,34.374,455.96Z" transform="translate(-26.074 -455.688)" fill="#fff"/>
      </g>
      <path id="Path_626" data-name="Path 626" d="M363.176,461.4a6.486,6.486,0,0,0-12.879,0Z" transform="translate(-310.235 -439.917)" fill="#fff"/>
      <g id="Group_274" data-name="Group 274" transform="translate(40.062 15.77)" opacity="0.1">
        <path id="Path_627" data-name="Path 627" d="M358.584,455.955A6.488,6.488,0,0,0,350.3,461.4h3.695A6.493,6.493,0,0,1,358.584,455.955Z" transform="translate(-350.297 -455.687)" fill="#fff"/>
      </g>
      <g id="Group_275" data-name="Group 275" transform="translate(0 7.735)">
        <path id="Path_628" data-name="Path 628" d="M160.715,420.169l1.4-1.865-2.079-5.883L155.22,409h-6.476l-8.926,1.923-3.171,3.661-.459,4.925Z" transform="translate(-121.169 -406.425)" fill="#fff"/>
        <path id="Path_629" data-name="Path 629" d="M128.518,400.067a12.095,12.095,0,0,1,24.163,0h1.552a13.646,13.646,0,0,0-27.268,0Z" transform="translate(-113.025 -386.982)" fill="#cdcdcd"/>
        <path id="Path_630" data-name="Path 630" d="M85.866,453.957H61.44a7.294,7.294,0,0,0-.681-1.818.877.877,0,0,0-1.546.829,5.555,5.555,0,0,1,.414.99H48.905a5.614,5.614,0,0,1,7.651-3.468.877.877,0,0,0,.717-1.6,7.3,7.3,0,0,0-1.578-.5v0l-1.769-.129a7.365,7.365,0,0,0-6.836,5.7H23.52a7.361,7.361,0,0,0-3.63-4.8l-.64-.4c-.958-.689-5.2-.316-5.115-.171a7.367,7.367,0,0,0-4.964,5.369H8.642a.877.877,0,1,0,0,1.754H85.866a.877.877,0,1,0,0-1.754Zm-74.881,0a5.611,5.611,0,0,1,10.722,0Z" transform="translate(-7.765 -441.09)" fill="#cdcdcd"/>
      </g>
      <path id="Path_631" data-name="Path 631" d="M180.114,334.728,179.7,331.9a4.152,4.152,0,0,0-4.707-3.51l-7.062,1.028a4.152,4.152,0,0,0-3.51,4.707l.411,2.825Z" transform="translate(-146.063 -327.472)" fill="#fff"/>
      <path id="Path_632" data-name="Path 632" d="M165.088,381.794a.586.586,0,0,1-.494.663l-20.028,2.916a.586.586,0,0,1-.663-.494l-.205-1.411a.587.587,0,0,1,.495-.663l20.028-2.916a.587.587,0,0,1,.663.494l.205,1.411Z" transform="translate(-127.794 -372.978)" fill="#fff"/>
      <path id="Path_633" data-name="Path 633" d="M137.556,334.095l11.821-1.721a.877.877,0,0,0-.623-1.59l-10.65,1.551-.121-.832,19.449-2.832.121.832-4.4.641a.877.877,0,0,0-.144,1.7l5.571-.811a1.463,1.463,0,0,0,.752-1.495l-.205-1.41a1.464,1.464,0,0,0-1.657-1.236l-1.506.219-.285-1.957a5.035,5.035,0,0,0-5.7-4.252l-7.062,1.028a5.035,5.035,0,0,0-4.252,5.7l.285,1.957-1.506.219a1.464,1.464,0,0,0-1.236,1.657l.206,1.411A1.463,1.463,0,0,0,137.556,334.095Zm2.842-6.715a3.278,3.278,0,0,1,2.769-3.712l7.062-1.028a3.278,3.278,0,0,1,3.713,2.769l.285,1.957-13.543,1.972Z" transform="translate(-121.168 -320.85)" fill="#cdcdcd"/>
    </g>
  </g>
</svg>
