<svg xmlns="http://www.w3.org/2000/svg" width="118.625" height="60.75" viewBox="0 0 118.625 60.75">
  <g id="Group_355" data-name="Group 355" transform="translate(-1014.125 -1086)">
    <g id="thumbs-up" transform="translate(1014.125 1086)">
      <path id="Path_490" data-name="Path 490" d="M228.676,224.65l1.684-8.488a8.165,8.165,0,0,0,.068-2.909c-.29-1.768-1.118-3.074-3.1-3.074h0l-.519,3.051a24.21,24.21,0,0,1-.864,3.527c-.947,2.87-2.192,4.729-4.793,5.841-1.356.58-2.362,1.043-2.362,1.043H214.57v14.31h4.221l1.915,1.551a7.242,7.242,0,0,0,4.557,1.613h5.2V224.65Z" transform="translate(-194.361 -188.074)" fill="#fff"/>
      <rect id="Rectangle_40" data-name="Rectangle 40" width="13.28" height="20.177" transform="translate(0.79 32.502)" fill="#fff"/>
      <rect id="Rectangle_41" data-name="Rectangle 41" width="13.28" height="2.24" transform="translate(0.79 50.438)" fill="#fff"/>
      <rect id="Rectangle_42" data-name="Rectangle 42" width="6.138" height="16.891" transform="translate(14.071 34.144)" fill="#fff"/>
      <rect id="Rectangle_43" data-name="Rectangle 43" width="6.138" height="2.358" transform="translate(14.071 48.678)" fill="#fff"/>
      <path id="Path_491" data-name="Path 491" d="M345.34,348.677v-.443a1.857,1.857,0,0,1,1.857-1.857h8.23a1.857,1.857,0,0,1,1.857,1.857v.443a1.857,1.857,0,0,1-1.857,1.857H347.2A1.857,1.857,0,0,1,345.34,348.677Z" transform="translate(-311.378 -309.949)" fill="#fff"/>
      <path id="Path_492" data-name="Path 492" d="M355.206,358.926h-7.787a2.077,2.077,0,0,1-1.879-1.194,2.066,2.066,0,0,0-.2.884h0a2.079,2.079,0,0,0,2.079,2.079h7.787a2.079,2.079,0,0,0,2.078-2.079h0a2.067,2.067,0,0,0-.2-.884A2.076,2.076,0,0,1,355.206,358.926Z" transform="translate(-311.378 -320.11)" fill="#fff"/>
      <path id="Path_493" data-name="Path 493" d="M345.34,427.511h0a2.079,2.079,0,0,1,2.079-2.079h7.787a2.078,2.078,0,0,1,2.078,2.079h0a2.079,2.079,0,0,1-2.078,2.079h-7.787A2.078,2.078,0,0,1,345.34,427.511Z" transform="translate(-311.378 -380.69)" fill="#fff"/>
      <path id="Path_494" data-name="Path 494" d="M355.206,437.982h-7.787a2.077,2.077,0,0,1-1.879-1.194,2.075,2.075,0,0,0,1.879,2.963h7.787a2.075,2.075,0,0,0,1.879-2.963A2.076,2.076,0,0,1,355.206,437.982Z" transform="translate(-311.378 -390.852)" fill="#fff"/>
      <path id="Path_495" data-name="Path 495" d="M345.34,467.039h0a2.079,2.079,0,0,1,2.079-2.079h5.643a2.079,2.079,0,0,1,2.079,2.079h0a2.079,2.079,0,0,1-2.079,2.079h-5.643A2.078,2.078,0,0,1,345.34,467.039Z" transform="translate(-311.378 -416.061)" fill="#fff"/>
      <path id="Path_496" data-name="Path 496" d="M353.062,477.509h-5.643a2.077,2.077,0,0,1-1.879-1.194,2.075,2.075,0,0,0,1.879,2.963h5.643a2.075,2.075,0,0,0,1.879-2.963A2.077,2.077,0,0,1,353.062,477.509Z" transform="translate(-311.378 -426.222)" fill="#fff"/>
      <path id="Path_497" data-name="Path 497" d="M345.34,388.2v-.443A1.857,1.857,0,0,1,347.2,385.9h9.191a1.857,1.857,0,0,1,1.857,1.857v.443a1.857,1.857,0,0,1-1.857,1.857H347.2A1.857,1.857,0,0,1,345.34,388.2Z" transform="translate(-311.378 -345.319)" fill="#fff"/>
      <path id="Path_498" data-name="Path 498" d="M356.166,398.453h-8.748a2.077,2.077,0,0,1-1.879-1.194,2.066,2.066,0,0,0-.2.884h0a2.079,2.079,0,0,0,2.079,2.078h8.748a2.079,2.079,0,0,0,2.079-2.078h0a2.066,2.066,0,0,0-.2-.884A2.076,2.076,0,0,1,356.166,398.453Z" transform="translate(-311.378 -355.48)" fill="#fff"/>
      <path id="Path_499" data-name="Path 499" d="M325.276,360.927a2.078,2.078,0,0,1,2.079-2.079,2.079,2.079,0,0,1,0-4.157,2.078,2.078,0,1,1,0-4.157,2.079,2.079,0,0,1,0-4.157H325a2.079,2.079,0,0,0,0,4.157,2.078,2.078,0,0,0,0,4.157,2.079,2.079,0,0,0,0,4.157,2.079,2.079,0,0,0,0,4.157h2.358A2.078,2.078,0,0,1,325.276,360.927Z" transform="translate(-291.315 -309.949)" fill="#fff"/>
      <path id="SVGCleanerId_0" d="M40.8,62.985l1.63,3.3a.688.688,0,0,0,.518.376l3.646.53a.688.688,0,0,1,.381,1.173l-2.638,2.571a.687.687,0,0,0-.2.609l.623,3.631a.688.688,0,0,1-1,.725L40.5,74.189a.687.687,0,0,0-.64,0L36.6,75.9a.688.688,0,0,1-1-.725l.623-3.631a.688.688,0,0,0-.2-.609l-2.638-2.571a.688.688,0,0,1,.381-1.173l3.646-.53a.688.688,0,0,0,.518-.376l1.63-3.3A.688.688,0,0,1,40.8,62.985Z" transform="translate(-32.051 -56.018)" fill="#f7cb4f"/>
      <g id="Group_253" data-name="Group 253" transform="translate(1.133 6.584)">
        <path id="SVGCleanerId_0_1_" d="M40.8,62.985l1.63,3.3a.688.688,0,0,0,.518.376l3.646.53a.688.688,0,0,1,.381,1.173l-2.638,2.571a.687.687,0,0,0-.2.609l.623,3.631a.688.688,0,0,1-1,.725L40.5,74.189a.687.687,0,0,0-.64,0L36.6,75.9a.688.688,0,0,1-1-.725l.623-3.631a.688.688,0,0,0-.2-.609l-2.638-2.571a.688.688,0,0,1,.381-1.173l3.646-.53a.688.688,0,0,0,.518-.376l1.63-3.3A.688.688,0,0,1,40.8,62.985Z" transform="translate(-33.184 -62.602)" fill="#fff"/>
      </g>
      <path id="Path_500" data-name="Path 500" d="M124.533,106.662a.688.688,0,0,0-.381-1.173l-.634-.092-3.394,3.308a.886.886,0,0,0-.255.784l.744,4.337.709.373a.688.688,0,0,0,1-.725l-.623-3.631a.688.688,0,0,1,.2-.609Z" transform="translate(-109.608 -94.313)" fill="#fff"/>
      <path id="SVGCleanerId_1" d="M198.83,7.9l1.63,3.3a.688.688,0,0,0,.518.376l3.646.53a.688.688,0,0,1,.381,1.173l-2.638,2.571a.687.687,0,0,0-.2.609l.623,3.631a.688.688,0,0,1-1,.725L198.534,19.1a.687.687,0,0,0-.64,0l-3.261,1.714a.688.688,0,0,1-1-.725l.623-3.631a.688.688,0,0,0-.2-.609l-2.638-2.571A.688.688,0,0,1,191.8,12.1l3.646-.53a.688.688,0,0,0,.518-.376l1.63-3.3A.688.688,0,0,1,198.83,7.9Z" transform="translate(-173.461 -6.722)" fill="#f7cb4f"/>
      <g id="Group_254" data-name="Group 254" transform="translate(17.752 0.79)">
        <path id="SVGCleanerId_1_1_" d="M198.83,7.9l1.63,3.3a.688.688,0,0,0,.518.376l3.646.53a.688.688,0,0,1,.381,1.173l-2.638,2.571a.687.687,0,0,0-.2.609l.623,3.631a.688.688,0,0,1-1,.725L198.534,19.1a.687.687,0,0,0-.64,0l-3.261,1.714a.688.688,0,0,1-1-.725l.623-3.631a.688.688,0,0,0-.2-.609l-2.638-2.571A.688.688,0,0,1,191.8,12.1l3.646-.53a.688.688,0,0,0,.518-.376l1.63-3.3A.688.688,0,0,1,198.83,7.9Z" transform="translate(-191.214 -7.512)" fill="#fff"/>
      </g>
      <path id="Path_501" data-name="Path 501" d="M282.561,51.572a.688.688,0,0,0-.381-1.173l-.634-.092-3.394,3.308a.885.885,0,0,0-.255.784l.744,4.337.709.373a.688.688,0,0,0,1-.725l-.623-3.631a.688.688,0,0,1,.2-.609Z" transform="translate(-251.017 -45.016)" fill="#fff"/>
      <path id="SVGCleanerId_2" d="M356.567,62.985l1.63,3.3a.688.688,0,0,0,.518.376l3.646.53a.688.688,0,0,1,.381,1.173L360.1,70.939a.687.687,0,0,0-.2.609l.623,3.631a.688.688,0,0,1-1,.725l-3.261-1.714a.688.688,0,0,0-.64,0L352.369,75.9a.688.688,0,0,1-1-.725l.623-3.631a.688.688,0,0,0-.2-.609l-2.638-2.571a.688.688,0,0,1,.381-1.173l3.646-.53a.688.688,0,0,0,.518-.376l1.63-3.3A.688.688,0,0,1,356.567,62.985Z" transform="translate(-314.609 -56.018)" fill="#f7cb4f"/>
      <g id="Group_255" data-name="Group 255" transform="translate(34.341 6.584)">
        <path id="SVGCleanerId_2_1_" d="M356.567,62.985l1.63,3.3a.688.688,0,0,0,.518.376l3.646.53a.688.688,0,0,1,.381,1.173L360.1,70.939a.687.687,0,0,0-.2.609l.623,3.631a.688.688,0,0,1-1,.725l-3.261-1.714a.688.688,0,0,0-.64,0L352.369,75.9a.688.688,0,0,1-1-.725l.623-3.631a.688.688,0,0,0-.2-.609l-2.638-2.571a.688.688,0,0,1,.381-1.173l3.646-.53a.688.688,0,0,0,.518-.376l1.63-3.3A.688.688,0,0,1,356.567,62.985Z" transform="translate(-348.95 -62.602)" fill="#fff"/>
      </g>
      <path id="Path_502" data-name="Path 502" d="M440.3,106.662a.688.688,0,0,0-.381-1.173l-.634-.092-3.394,3.308a.886.886,0,0,0-.255.784l.744,4.337.709.373a.688.688,0,0,0,1-.725l-.623-3.631a.688.688,0,0,1,.2-.609Z" transform="translate(-392.164 -94.313)" fill="#fff"/>
      <ellipse id="Ellipse_35" data-name="Ellipse 35" cx="1.258" cy="1.258" rx="1.258" ry="1.258" transform="translate(8.618 47.36)" fill="#cdcdcd"/>
      <path id="Path_503" data-name="Path 503" d="M68.706,221.479a2.631,2.631,0,0,0,.4-1.4v-.443a2.65,2.65,0,0,0-2.647-2.647h-8.23a2.64,2.64,0,0,0-.522.052l1.478-7.448a8.929,8.929,0,0,0,.073-3.191c-.28-1.7-1.18-3.736-3.881-3.736a.79.79,0,0,0-.779.658l-.518,3.051a23.526,23.526,0,0,1-.835,3.412c-.967,2.933-2.188,4.436-4.353,5.362-1.04.445-1.885.825-2.223.979H43.412V215.5a.79.79,0,0,0-.79-.79H37.273v-.852a.79.79,0,0,0-.79-.79H23.2a.79.79,0,0,0-.79.79v4.688a.79.79,0,1,0,1.58,0v-3.9h11.7v18.6h-11.7V221.175a.79.79,0,1,0-1.58,0V234.03a.79.79,0,0,0,.79.79H36.484a.79.79,0,0,0,.79-.79v-.852h5.348a.79.79,0,0,0,.79-.79v-.37h3.151l1.7,1.374a8.057,8.057,0,0,0,5.054,1.789h4.83a2.913,2.913,0,0,0,.309.017H64.1a2.867,2.867,0,0,0,2.547-4.186,2.866,2.866,0,0,0,1.988-4.422,2.649,2.649,0,0,0,1.438-2.354v-.443A2.648,2.648,0,0,0,68.706,221.479ZM67.422,225.3H58.231a1.068,1.068,0,0,1-1.067-1.067v-.443a1.068,1.068,0,0,1,1.067-1.067h9.191a1.068,1.068,0,0,1,1.067,1.067v.443A1.068,1.068,0,0,1,67.422,225.3Zm-.961-6.734a1.068,1.068,0,0,1,1.067,1.067v.443a1.068,1.068,0,0,1-1.067,1.067h-8.23a1.068,1.068,0,0,1-1.067-1.067v-.425c.052-.192.1-.372.135-.537a1.067,1.067,0,0,1,.932-.549ZM49.255,232.164l-1.915-1.551a.79.79,0,0,0-.5-.176H43.412v-2.266a.79.79,0,0,0-1.58,0V231.6H37.274V216.286h4.558v9.252h0a.79.79,0,0,0,1.58,0h0v-7.831h3.431a.789.789,0,0,0,.33-.072c.01,0,1.013-.465,2.342-1.034,2.6-1.113,4.119-2.944,5.232-6.32a25.114,25.114,0,0,0,.892-3.642l.4-2.324c.927.216,1.438.951,1.667,2.343a7.355,7.355,0,0,1-.064,2.628l-1.684,8.488c0,.016-.006.032-.008.048s-.045.311-.149.779a2.626,2.626,0,0,0-.2.791c-.626,2.234-2.237,6.063-5.924,6.063a.79.79,0,1,0,0,1.58,6.821,6.821,0,0,0,5.946-3.662,2.664,2.664,0,0,0-.034.42v.443a2.639,2.639,0,0,0,.829,1.921,2.862,2.862,0,0,0,.066,4.093,2.861,2.861,0,0,0-.6,3.351H53.314A6.474,6.474,0,0,1,49.255,232.164ZM64.1,233.617H58.453a1.288,1.288,0,0,1,0-2.577H64.1a1.288,1.288,0,1,1,0,2.577Zm2.144-4.157H58.453a1.288,1.288,0,0,1,0-2.577H66.24a1.288,1.288,0,1,1,0,2.577Z" transform="translate(-22.413 -181.351)" fill="#cdcdcd"/>
      <path id="Path_504" data-name="Path 504" d="M28.716,64.743,28.1,68.32a1.476,1.476,0,0,0,2.144,1.558l3.213-1.689,3.213,1.689a1.478,1.478,0,0,0,2.144-1.558L38.2,64.743l2.6-2.534a1.478,1.478,0,0,0-.819-2.521l-3.592-.522-1.607-3.255a1.478,1.478,0,0,0-2.65,0l-1.606,3.255-3.592.522a1.478,1.478,0,0,0-.819,2.521Zm2.092-4.02a1.477,1.477,0,0,0,1.113-.808L33.46,56.8,35,59.913a1.477,1.477,0,0,0,1.113.809l3.44.5-2.489,2.427a1.477,1.477,0,0,0-.425,1.308l.588,3.426-3.077-1.618a1.477,1.477,0,0,0-1.375,0l-3.077,1.618.588-3.426a1.478,1.478,0,0,0-.425-1.308l-2.49-2.427Z" transform="translate(-25.327 -49.294)" fill="#cdcdcd"/>
      <path id="Path_505" data-name="Path 505" d="M186.743,9.655l-.614,3.578a1.478,1.478,0,0,0,2.144,1.558l3.213-1.689,3.213,1.689a1.478,1.478,0,0,0,2.144-1.558l-.614-3.578,2.6-2.534a1.478,1.478,0,0,0-.819-2.521l-3.592-.522L192.812.824a1.478,1.478,0,0,0-2.65,0l-1.607,3.255-3.592.522a1.478,1.478,0,0,0-.819,2.521Zm2.092-4.021a1.477,1.477,0,0,0,1.113-.808l1.539-3.117,1.538,3.118a1.477,1.477,0,0,0,1.113.808l3.44.5-2.489,2.427a1.478,1.478,0,0,0-.425,1.308l.588,3.426-3.077-1.618a1.478,1.478,0,0,0-1.375,0L187.722,13.3l.588-3.426a1.478,1.478,0,0,0-.425-1.308L185.4,6.135Z" transform="translate(-166.734 0)" fill="#cdcdcd"/>
      <path id="Path_506" data-name="Path 506" d="M356.941,60.7a1.469,1.469,0,0,0-1.193-1.006l-3.592-.522-1.606-3.255a1.478,1.478,0,0,0-2.65,0l-1.607,3.255-3.592.522a1.478,1.478,0,0,0-.819,2.521l2.6,2.534-.614,3.578a1.478,1.478,0,0,0,2.144,1.558l3.213-1.689,3.213,1.689a1.478,1.478,0,0,0,2.144-1.558l-.614-3.578,2.6-2.534A1.469,1.469,0,0,0,356.941,60.7Zm-4.115,2.955a1.478,1.478,0,0,0-.425,1.308l.588,3.426-3.077-1.618a1.478,1.478,0,0,0-1.375,0l-3.077,1.618.588-3.426a1.477,1.477,0,0,0-.425-1.308l-2.489-2.427,3.44-.5a1.477,1.477,0,0,0,1.113-.808l1.539-3.117,1.538,3.118a1.477,1.477,0,0,0,1.113.808l3.44.5Z" transform="translate(-307.883 -49.296)" fill="#cdcdcd"/>
    </g>
    <g id="Group_351" data-name="Group 351" transform="translate(1083.618 1086)">
      <path id="Path_574" data-name="Path 574" d="M228.676,226.642l1.684,8.488a8.164,8.164,0,0,1,.068,2.909c-.29,1.768-1.118,3.074-3.1,3.074h0l-.519-3.051a24.21,24.21,0,0,0-.864-3.527c-.947-2.87-2.192-4.729-4.793-5.841-1.356-.58-2.362-1.043-2.362-1.043H214.57v-14.31h4.221l1.915-1.551a7.242,7.242,0,0,1,4.557-1.613h5.2v16.464Z" transform="translate(-194.361 -181.154)" fill="#fff"/>
      <rect id="Rectangle_46" data-name="Rectangle 46" width="13.28" height="20.177" transform="translate(0.79 29.385)" fill="#fff"/>
      <rect id="Rectangle_49" data-name="Rectangle 49" width="13.28" height="2.24" transform="translate(0.79 29.385)" fill="#fff"/>
      <rect id="Rectangle_47" data-name="Rectangle 47" width="6.138" height="16.891" transform="translate(14.071 31.028)" fill="#fff"/>
      <rect id="Rectangle_48" data-name="Rectangle 48" width="6.138" height="2.358" transform="translate(14.071 31.028)" fill="#fff"/>
      <path id="Path_576" data-name="Path 576" d="M345.34,348.234v.443a1.857,1.857,0,0,0,1.857,1.857h8.23a1.857,1.857,0,0,0,1.857-1.857v-.443a1.857,1.857,0,0,0-1.857-1.857H347.2A1.857,1.857,0,0,0,345.34,348.234Z" transform="translate(-311.378 -304.898)" fill="#fff"/>
      <path id="Path_577" data-name="Path 577" d="M355.206,359.5h-7.787a2.077,2.077,0,0,0-1.879,1.194,2.066,2.066,0,0,1-.2-.884h0a2.079,2.079,0,0,1,2.079-2.079h7.787a2.079,2.079,0,0,1,2.078,2.079h0a2.067,2.067,0,0,1-.2.884A2.076,2.076,0,0,0,355.206,359.5Z" transform="translate(-311.378 -316.253)" fill="#fff"/>
      <path id="Path_578" data-name="Path 578" d="M345.34,427.511h0a2.079,2.079,0,0,0,2.079,2.078h7.787a2.078,2.078,0,0,0,2.078-2.078h0a2.079,2.079,0,0,0-2.078-2.079h-7.787A2.078,2.078,0,0,0,345.34,427.511Z" transform="translate(-311.378 -392.267)" fill="#fff"/>
      <path id="Path_579" data-name="Path 579" d="M355.206,438.557h-7.787a2.077,2.077,0,0,0-1.879,1.194,2.075,2.075,0,0,1,1.879-2.963h7.787a2.075,2.075,0,0,1,1.879,2.963A2.076,2.076,0,0,0,355.206,438.557Z" transform="translate(-311.378 -403.623)" fill="#fff"/>
      <path id="Path_580" data-name="Path 580" d="M345.34,467.039h0a2.079,2.079,0,0,0,2.079,2.079h5.643a2.079,2.079,0,0,0,2.079-2.079h0a2.079,2.079,0,0,0-2.079-2.079h-5.643A2.078,2.078,0,0,0,345.34,467.039Z" transform="translate(-311.378 -435.952)" fill="#fff"/>
      <path id="Path_581" data-name="Path 581" d="M353.062,478.084h-5.643a2.077,2.077,0,0,0-1.879,1.194,2.075,2.075,0,0,1,1.879-2.963h5.643a2.075,2.075,0,0,1,1.879,2.963A2.077,2.077,0,0,0,353.062,478.084Z" transform="translate(-311.378 -447.308)" fill="#fff"/>
      <path id="Path_582" data-name="Path 582" d="M345.34,387.761v.443a1.857,1.857,0,0,0,1.857,1.857h9.191a1.857,1.857,0,0,0,1.857-1.857v-.443a1.857,1.857,0,0,0-1.857-1.857H347.2A1.857,1.857,0,0,0,345.34,387.761Z" transform="translate(-311.378 -348.582)" fill="#fff"/>
      <path id="Path_583" data-name="Path 583" d="M356.166,399.027h-8.748a2.077,2.077,0,0,0-1.879,1.194,2.066,2.066,0,0,1-.2-.884h0a2.079,2.079,0,0,1,2.079-2.078h8.748a2.079,2.079,0,0,1,2.079,2.078h0a2.066,2.066,0,0,1-.2.884A2.076,2.076,0,0,0,356.166,399.027Z" transform="translate(-311.378 -359.937)" fill="#fff"/>
      <path id="Path_575" data-name="Path 575" d="M325.276,348.456a2.078,2.078,0,0,0,2.079,2.079,2.079,2.079,0,1,0,0,4.157,2.078,2.078,0,1,0,0,4.157,2.079,2.079,0,1,0,0,4.157H325a2.079,2.079,0,0,1,0-4.157,2.078,2.078,0,0,1,0-4.157,2.079,2.079,0,0,1,0-4.157,2.079,2.079,0,0,1,0-4.157h2.358A2.078,2.078,0,0,0,325.276,348.456Z" transform="translate(-291.315 -317.369)" fill="#fff"/>
      <path id="SVGCleanerId_0-2" data-name="SVGCleanerId_0" d="M40.8,62.985l1.63,3.3a.688.688,0,0,0,.518.376l3.646.53a.688.688,0,0,1,.381,1.173l-2.638,2.571a.687.687,0,0,0-.2.609l.623,3.631a.688.688,0,0,1-1,.725L40.5,74.189a.687.687,0,0,0-.64,0L36.6,75.9a.688.688,0,0,1-1-.725l.623-3.631a.688.688,0,0,0-.2-.609l-2.638-2.571a.688.688,0,0,1,.381-1.173l3.646-.53a.688.688,0,0,0,.518-.376l1.63-3.3A.688.688,0,0,1,40.8,62.985Z" transform="translate(-32.051 -56.018)" fill="#f7cb4f"/>
      <g id="Group_258" data-name="Group 258" transform="translate(1.133 6.584)">
        <path id="SVGCleanerId_0_1_2" data-name="SVGCleanerId_0_1_" d="M40.8,62.985l1.63,3.3a.688.688,0,0,0,.518.376l3.646.53a.688.688,0,0,1,.381,1.173l-2.638,2.571a.687.687,0,0,0-.2.609l.623,3.631a.688.688,0,0,1-1,.725L40.5,74.189a.687.687,0,0,0-.64,0L36.6,75.9a.688.688,0,0,1-1-.725l.623-3.631a.688.688,0,0,0-.2-.609l-2.638-2.571a.688.688,0,0,1,.381-1.173l3.646-.53a.688.688,0,0,0,.518-.376l1.63-3.3A.688.688,0,0,1,40.8,62.985Z" transform="translate(-33.184 -62.602)" fill="#fff"/>
      </g>
      <path id="Path_586" data-name="Path 586" d="M124.533,106.662a.688.688,0,0,0-.381-1.173l-.634-.092-3.394,3.308a.886.886,0,0,0-.255.784l.744,4.337.709.373a.688.688,0,0,0,1-.725l-.623-3.631a.688.688,0,0,1,.2-.609Z" transform="translate(-109.608 -94.313)" fill="#fff"/>
      <path id="SVGCleanerId_1-2" data-name="SVGCleanerId_1" d="M198.83,7.9l1.63,3.3a.688.688,0,0,0,.518.376l3.646.53a.688.688,0,0,1,.381,1.173l-2.638,2.571a.687.687,0,0,0-.2.609l.623,3.631a.688.688,0,0,1-1,.725L198.534,19.1a.687.687,0,0,0-.64,0l-3.261,1.714a.688.688,0,0,1-1-.725l.623-3.631a.688.688,0,0,0-.2-.609l-2.638-2.571A.688.688,0,0,1,191.8,12.1l3.646-.53a.688.688,0,0,0,.518-.376l1.63-3.3A.688.688,0,0,1,198.83,7.9Z" transform="translate(-173.461 -6.722)" fill="#f7cb4f"/>
      <g id="Group_260" data-name="Group 260" transform="translate(17.752 0.79)">
        <path id="SVGCleanerId_1_1_2" data-name="SVGCleanerId_1_1_" d="M198.83,7.9l1.63,3.3a.688.688,0,0,0,.518.376l3.646.53a.688.688,0,0,1,.381,1.173l-2.638,2.571a.687.687,0,0,0-.2.609l.623,3.631a.688.688,0,0,1-1,.725L198.534,19.1a.687.687,0,0,0-.64,0l-3.261,1.714a.688.688,0,0,1-1-.725l.623-3.631a.688.688,0,0,0-.2-.609l-2.638-2.571A.688.688,0,0,1,191.8,12.1l3.646-.53a.688.688,0,0,0,.518-.376l1.63-3.3A.688.688,0,0,1,198.83,7.9Z" transform="translate(-191.214 -7.512)" fill="#fff"/>
      </g>
      <path id="Path_587" data-name="Path 587" d="M282.561,51.572a.688.688,0,0,0-.381-1.173l-.634-.092-3.394,3.308a.885.885,0,0,0-.255.784l.744,4.337.709.373a.688.688,0,0,0,1-.725l-.623-3.631a.688.688,0,0,1,.2-.609Z" transform="translate(-251.017 -45.016)" fill="#fff"/>
      <path id="SVGCleanerId_2-2" data-name="SVGCleanerId_2" d="M356.567,62.985l1.63,3.3a.688.688,0,0,0,.518.376l3.646.53a.688.688,0,0,1,.381,1.173L360.1,70.939a.687.687,0,0,0-.2.609l.623,3.631a.688.688,0,0,1-1,.725l-3.261-1.714a.688.688,0,0,0-.64,0L352.369,75.9a.688.688,0,0,1-1-.725l.623-3.631a.688.688,0,0,0-.2-.609l-2.638-2.571a.688.688,0,0,1,.381-1.173l3.646-.53a.688.688,0,0,0,.518-.376l1.63-3.3A.688.688,0,0,1,356.567,62.985Z" transform="translate(-314.609 -56.018)" fill="#f7cb4f"/>
      <g id="Group_259" data-name="Group 259" transform="translate(34.341 6.584)">
        <path id="SVGCleanerId_2_1_2" data-name="SVGCleanerId_2_1_" d="M356.567,62.985l1.63,3.3a.688.688,0,0,0,.518.376l3.646.53a.688.688,0,0,1,.381,1.173L360.1,70.939a.687.687,0,0,0-.2.609l.623,3.631a.688.688,0,0,1-1,.725l-3.261-1.714a.688.688,0,0,0-.64,0L352.369,75.9a.688.688,0,0,1-1-.725l.623-3.631a.688.688,0,0,0-.2-.609l-2.638-2.571a.688.688,0,0,1,.381-1.173l3.646-.53a.688.688,0,0,0,.518-.376l1.63-3.3A.688.688,0,0,1,356.567,62.985Z" transform="translate(-348.95 -62.602)" fill="#fff"/>
      </g>
      <path id="Path_589" data-name="Path 589" d="M440.3,106.662a.688.688,0,0,0-.381-1.173l-.634-.092-3.394,3.308a.886.886,0,0,0-.255.784l.744,4.337.709.373a.688.688,0,0,0,1-.725l-.623-3.631a.688.688,0,0,1,.2-.609Z" transform="translate(-392.164 -94.313)" fill="#fff"/>
      <ellipse id="Ellipse_47" data-name="Ellipse 47" cx="1.258" cy="1.258" rx="1.258" ry="1.258" transform="translate(8.618 32.188)" fill="#cdcdcd"/>
      <path id="Path_573" data-name="Path 573" d="M68.707,216.383a2.631,2.631,0,0,1,.4,1.4v.443a2.65,2.65,0,0,1-2.647,2.647h-8.23a2.64,2.64,0,0,1-.522-.052l1.478,7.448a8.929,8.929,0,0,1,.073,3.191c-.28,1.7-1.18,3.736-3.881,3.736a.79.79,0,0,1-.779-.658l-.518-3.051a23.525,23.525,0,0,0-.835-3.412c-.967-2.933-2.188-4.436-4.353-5.362-1.04-.445-1.885-.825-2.223-.979H43.412v.632a.79.79,0,0,1-.79.79H37.273v.852a.79.79,0,0,1-.79.79H23.2a.79.79,0,0,1-.79-.79v-4.688a.79.79,0,0,1,1.58,0v3.9h11.7v-18.6h-11.7v12.065a.79.79,0,0,1-1.58,0V203.832a.79.79,0,0,1,.79-.79H36.484a.79.79,0,0,1,.79.79v.852h5.348a.79.79,0,0,1,.79.79v.37h3.151l1.7-1.374a8.057,8.057,0,0,1,5.054-1.789h4.83a2.913,2.913,0,0,1,.309-.017H64.1a2.867,2.867,0,0,1,2.547,4.186,2.866,2.866,0,0,1,1.988,4.422,2.649,2.649,0,0,1,1.438,2.354v.443A2.648,2.648,0,0,1,68.707,216.383Zm-1.284-3.824H58.231a1.068,1.068,0,0,0-1.067,1.067v.443a1.068,1.068,0,0,0,1.067,1.067h9.191a1.068,1.068,0,0,0,1.067-1.067v-.443A1.068,1.068,0,0,0,67.422,212.559Zm-.961,6.734a1.068,1.068,0,0,0,1.067-1.067v-.443a1.068,1.068,0,0,0-1.067-1.067h-8.23a1.068,1.068,0,0,0-1.067,1.067v.425c.052.192.1.372.135.537a1.067,1.067,0,0,0,.932.549ZM49.255,205.7l-1.915,1.551a.79.79,0,0,1-.5.176H43.412v2.266a.79.79,0,1,1-1.58,0v-3.426H37.274v15.312h4.558v-9.252h0a.79.79,0,0,1,1.58,0h0v7.831h3.431a.789.789,0,0,1,.33.072c.01,0,1.013.465,2.342,1.034,2.6,1.113,4.119,2.944,5.232,6.32a25.114,25.114,0,0,1,.892,3.642l.4,2.324c.927-.216,1.438-.951,1.667-2.343a7.355,7.355,0,0,0-.064-2.628l-1.684-8.488c0-.016-.006-.032-.008-.048s-.045-.311-.149-.779a2.626,2.626,0,0,1-.2-.791c-.626-2.234-2.237-6.063-5.924-6.063a.79.79,0,1,1,0-1.58,6.821,6.821,0,0,1,5.946,3.662,2.664,2.664,0,0,1-.034-.42v-.443a2.639,2.639,0,0,1,.829-1.921,2.862,2.862,0,0,1,.066-4.093,2.861,2.861,0,0,1-.6-3.351H53.314A6.474,6.474,0,0,0,49.255,205.7ZM64.1,204.245H58.453a1.288,1.288,0,0,0,0,2.577H64.1a1.288,1.288,0,1,0,0-2.577ZM66.24,208.4H58.453a1.288,1.288,0,0,0,0,2.577H66.24a1.288,1.288,0,1,0,0-2.577Z" transform="translate(-22.413 -174.447)" fill="#cdcdcd"/>
      <path id="Path_584" data-name="Path 584" d="M28.716,64.743,28.1,68.32a1.476,1.476,0,0,0,2.144,1.558l3.213-1.689,3.213,1.689a1.478,1.478,0,0,0,2.144-1.558L38.2,64.743l2.6-2.534a1.478,1.478,0,0,0-.819-2.521l-3.592-.522-1.607-3.255a1.478,1.478,0,0,0-2.65,0l-1.606,3.255-3.592.522a1.478,1.478,0,0,0-.819,2.521Zm2.092-4.02a1.477,1.477,0,0,0,1.113-.808L33.46,56.8,35,59.913a1.477,1.477,0,0,0,1.113.809l3.44.5-2.489,2.427a1.477,1.477,0,0,0-.425,1.308l.588,3.426-3.077-1.618a1.477,1.477,0,0,0-1.375,0l-3.077,1.618.588-3.426a1.478,1.478,0,0,0-.425-1.308l-2.49-2.427Z" transform="translate(-25.327 -49.294)" fill="#cdcdcd"/>
      <path id="Path_588" data-name="Path 588" d="M186.743,9.655l-.614,3.578a1.478,1.478,0,0,0,2.144,1.558l3.213-1.689,3.213,1.689a1.478,1.478,0,0,0,2.144-1.558l-.614-3.578,2.6-2.534a1.478,1.478,0,0,0-.819-2.521l-3.592-.522L192.812.824a1.478,1.478,0,0,0-2.65,0l-1.607,3.255-3.592.522a1.478,1.478,0,0,0-.819,2.521Zm2.092-4.021a1.477,1.477,0,0,0,1.113-.808l1.539-3.117,1.538,3.118a1.477,1.477,0,0,0,1.113.808l3.44.5-2.489,2.427a1.478,1.478,0,0,0-.425,1.308l.588,3.426-3.077-1.618a1.478,1.478,0,0,0-1.375,0L187.722,13.3l.588-3.426a1.478,1.478,0,0,0-.425-1.308L185.4,6.135Z" transform="translate(-166.734 0)" fill="#cdcdcd"/>
      <path id="Path_585" data-name="Path 585" d="M356.941,60.7a1.469,1.469,0,0,0-1.193-1.006l-3.592-.522-1.606-3.255a1.478,1.478,0,0,0-2.65,0l-1.607,3.255-3.592.522a1.478,1.478,0,0,0-.819,2.521l2.6,2.534-.614,3.578a1.478,1.478,0,0,0,2.144,1.558l3.213-1.689,3.213,1.689a1.478,1.478,0,0,0,2.144-1.558l-.614-3.578,2.6-2.534A1.469,1.469,0,0,0,356.941,60.7Zm-4.115,2.955a1.478,1.478,0,0,0-.425,1.308l.588,3.426-3.077-1.618a1.478,1.478,0,0,0-1.375,0l-3.077,1.618.588-3.426a1.477,1.477,0,0,0-.425-1.308l-2.489-2.427,3.44-.5a1.477,1.477,0,0,0,1.113-.808l1.539-3.117,1.538,3.118a1.477,1.477,0,0,0,1.113.808l3.44.5Z" transform="translate(-307.883 -49.296)" fill="#cdcdcd"/>
    </g>
  </g>
</svg>
