<svg xmlns="http://www.w3.org/2000/svg" width="108" height="38" viewBox="0 0 108 38">
  <g id="Group_126" data-name="Group 126" transform="translate(-1253 -628)">
    <text id="_321_" data-name="321+" transform="translate(1310 654)" fill="#cdcdcd" font-size="17" font-family="-apple-system,BlinkMacSystemFont,'Segoe UI',Roboto,Oxygen-Sans,Ubuntu,Cantarell,'Helvetica Neue',sans-serif" font-weight="600"><tspan x="0" y="0">321+</tspan></text>
    <g id="Group_125" data-name="Group 125">
      <g id="Group_75" data-name="Group 75" transform="translate(203.698 116)">
        <path id="like_11_" data-name="like (11)" d="M30.194,10.211c-.441-4.859-3.881-8.384-8.185-8.384a8.136,8.136,0,0,0-6.971,4.016,7.841,7.841,0,0,0-6.8-4.017c-4.3,0-7.744,3.525-8.184,8.384A8.646,8.646,0,0,0,.308,13.4,13.667,13.667,0,0,0,4.5,20.384l10.537,9.562,10.717-9.561A13.668,13.668,0,0,0,29.937,13.4,8.665,8.665,0,0,0,30.194,10.211Z" transform="translate(1057 516.174)" fill="#cdcdcd"/>
      </g>
      <circle id="Ellipse_11" data-name="Ellipse 11" cx="2.5" cy="2.5" r="2.5" transform="translate(1259 628)" fill="#cdcdcd"/>
      <circle id="Ellipse_13" data-name="Ellipse 13" cx="2.5" cy="2.5" r="2.5" transform="translate(1289 654)" fill="#cdcdcd"/>
      <circle id="Ellipse_16" data-name="Ellipse 16" cx="2" cy="2" r="2" transform="translate(1255 652)" fill="#cdcdcd"/>
      <circle id="Ellipse_14" data-name="Ellipse 14" cx="1.5" cy="1.5" r="1.5" transform="translate(1266 663)" fill="#cdcdcd"/>
      <circle id="Ellipse_15" data-name="Ellipse 15" cx="2" cy="2" r="2" transform="translate(1291 631)" fill="#cdcdcd"/>
      <circle id="Ellipse_12" data-name="Ellipse 12" cx="1.5" cy="1.5" r="1.5" transform="translate(1253 639)" fill="#cdcdcd"/>
      <circle id="Ellipse_17" data-name="Ellipse 17" cx="1.5" cy="1.5" r="1.5" transform="translate(1295 646)" fill="#cdcdcd"/>
    </g>
  </g>
</svg>
