<svg xmlns="http://www.w3.org/2000/svg" width="106.669" height="48.079" viewBox="0 0 106.669 48.079"><defs><style>.a{fill:#fff;}.b{fill:#cdcdcd;}</style></defs><g transform="translate(-1252.664 -274.119)"><g transform="translate(270)"><g transform="translate(982.664 274.119)"><path class="a" d="M1420.617,431.663a20.439,20.439,0,1,1-20.439-20.44A20.439,20.439,0,0,1,1420.617,431.663Z" transform="translate(-1379.011 -406.034)"/><path class="a" d="M1461.044,419.68l-11.672,7.729a3.974,3.974,0,0,1-2.823.612,3.987,3.987,0,0,0-2.83.61l-1.562,1.035-8.747-12.894,2.146-9.271a9.674,9.674,0,0,0-1.359-7.525,2.314,2.314,0,0,1,3.54-2.939l1.39,1.347a14.857,14.857,0,0,1,3.587,5.5l.754,2.03,7.763-5.129a2.647,2.647,0,0,1,3.709.808,2.682,2.682,0,0,1-.831,3.637.029.029,0,0,0-.011.037.03.03,0,0,0,.038.015,2.622,2.622,0,0,1,.946-.176,2.646,2.646,0,0,1,2.6,3.161,2.707,2.707,0,0,1-1.11,1.677.057.057,0,0,0-.015.079l0,0a.056.056,0,0,0,.075.014,2.72,2.72,0,0,1,.642-.076,2.79,2.79,0,0,1,1.493.433,2.6,2.6,0,0,1,.772.758,2.646,2.646,0,0,1-.746,3.668l-.09.06a.042.042,0,0,0-.014.052.023.023,0,0,0,.01.009.042.042,0,0,0,.052,0,2.592,2.592,0,0,1,2.246.289,2.689,2.689,0,0,1,.79.784A2.648,2.648,0,0,1,1461.044,419.68Z" transform="translate(-1416.887 -395.563)"/><path class="a" d="M1404.854,476.755l-4.923,3.261-7.109,4.708a20.461,20.461,0,0,1-12.43-16.081l8.25-5.463,5.022-3.326a1.256,1.256,0,0,1,1.741.355l9.8,14.8A1.257,1.257,0,0,1,1404.854,476.755Z" transform="translate(-1379.472 -440.205)"/><path class="a" d="M1424.636,476.755l-4.923,3.261-11.289-16.836,5.022-3.326a1.256,1.256,0,0,1,1.741.355l9.8,14.8A1.257,1.257,0,0,1,1424.636,476.755Z" transform="translate(-1399.254 -440.205)"/><path class="b" d="M1422.776,413.637a3.354,3.354,0,0,0-2.076-1.429,3.371,3.371,0,0,0-2.248-4.859,3.38,3.38,0,0,0-.175-3.434,3.349,3.349,0,0,0-2.076-1.429,3.375,3.375,0,0,0-4.851-4.383l-3.359,2.225a21.008,21.008,0,0,0-5.672-1.92,15.58,15.58,0,0,0-2.165-2.618l-1.39-1.347a3.041,3.041,0,0,0-4.652,3.862c.036.055.072.111.108.167a21.168,21.168,0,1,0,24.127,27.936.727.727,0,1,0-1.368-.494,19.738,19.738,0,0,1-24.77,12.013l5.92-3.921h0l4.92-3.258h0a1.985,1.985,0,0,0,.559-2.75l-.065-.1.956-.633a3.242,3.242,0,0,1,2.309-.5,4.692,4.692,0,0,0,3.344-.723l7.927-5.25a19.823,19.823,0,0,1-.268,2.043.728.728,0,0,0,.582.848.714.714,0,0,0,.134.012.728.728,0,0,0,.715-.6,21.279,21.279,0,0,0,.348-3.309l2.234-1.479a3.375,3.375,0,0,0,.951-4.677Zm-16.2-12.373-2.223,1.472-.438-1.179a15.618,15.618,0,0,0-.624-1.446A19.558,19.558,0,0,1,1406.579,401.264Zm-23.041,5.044a19.715,19.715,0,0,1,11.378-6.487,8.991,8.991,0,0,1,.453,5.444l-1.774,7.664a1.981,1.981,0,0,0-2.54-.3l-5.025,3.327h0l-7.247,4.8c-.04-.511-.06-1.027-.06-1.541A19.707,19.707,0,0,1,1383.538,406.309Zm18.936,22.889a.526.526,0,0,1-.227.336h0l-4.321,2.862-8.021-11.961a.728.728,0,0,0-1.209.811l8.016,11.954-6.169,4.085a19.773,19.773,0,0,1-11.571-14.932l7.256-4.79.835,1.246a.728.728,0,1,0,1.209-.811l-.829-1.237,4.416-2.915a.523.523,0,0,1,.4-.077.528.528,0,0,1,.336.227l9.8,14.8A.524.524,0,0,1,1402.474,429.2Zm19.369-13.315a1.907,1.907,0,0,1-.821,1.219l-2.554,1.691h0l-9.115,6.037a3.242,3.242,0,0,1-2.31.5,4.694,4.694,0,0,0-3.343.723l-.956.633-8.03-12.125,2.076-8.966a10.453,10.453,0,0,0-.765-6.863c-.009-.022-.019-.044-.031-.065a10.331,10.331,0,0,0-.666-1.164,1.586,1.586,0,0,1,2.426-2.014l1.39,1.347a14.221,14.221,0,0,1,3.412,5.229l.757,2.039,0,.011.006.014c.005.012.01.024.015.034a.753.753,0,0,0,.05.09.727.727,0,0,0,1.008.205l7.76-5.139a1.92,1.92,0,1,1,2.12,3.2l-.674.446h0l-1.5,1-.006,0-.023.017a.727.727,0,0,0,.833,1.192l1.5-1a1.92,1.92,0,0,1,2.119,3.2l-2.177,1.442a.727.727,0,1,0,.8,1.213l.337-.223,1.166-.772a1.92,1.92,0,0,1,2.12,3.2l-1.088.72-.017.011-1.073.71a.728.728,0,1,0,.8,1.213l.337-.223h0l1.166-.772a1.919,1.919,0,0,1,2.941,1.982Z" transform="translate(-1377.267 -393.591)"/></g><g transform="translate(1042.448 274.119)"><path class="a" d="M1830.661,414.771a20.824,20.824,0,1,1-12.871-19.262c.043.018.087.036.13.055a20.861,20.861,0,0,1,12.546,16.343s0,.006,0,.009A20.918,20.918,0,0,1,1830.661,414.771Z" transform="translate(-1784.517 -393.189)"/><path class="a" d="M1777.543,446.351l11.84-7.939a3.992,3.992,0,0,1,2.864-.629,4,4,0,0,0,2.871-.627l1.584-1.063,8.874,13.245-2.177,9.523a10.052,10.052,0,0,0,1.379,7.73,2.4,2.4,0,0,1-.662,3.294,2.323,2.323,0,0,1-2.929-.275l-1.41-1.383a15.282,15.282,0,0,1-3.639-5.647l-.765-2.085-7.875,5.269a2.666,2.666,0,0,1-3.763-.83,2.776,2.776,0,0,1,.844-3.735.03.03,0,0,0,.011-.038.029.029,0,0,0-.038-.015,2.641,2.641,0,0,1-.959.18,2.673,2.673,0,0,1-2.242-1.218,2.737,2.737,0,0,1-.394-2.029,2.778,2.778,0,0,1,1.126-1.722.059.059,0,0,0,.015-.081l0,0a.056.056,0,0,0-.076-.015,2.732,2.732,0,0,1-.652.078,2.8,2.8,0,0,1-1.515-.444,2.657,2.657,0,0,1-.783-.778,2.74,2.74,0,0,1,.757-3.768l.092-.062a.042.042,0,0,0,.014-.053.022.022,0,0,0-.01-.01.043.043,0,0,0-.053,0,2.6,2.6,0,0,1-2.278-.3,2.751,2.751,0,0,1-.047-4.575Z" transform="translate(-1775.599 -422.942)"/><path class="a" d="M1843.772,419.522l4.994-3.35,11.452,17.295-5.094,3.416a1.266,1.266,0,0,1-1.767-.365l-9.946-15.207A1.3,1.3,0,0,1,1843.772,419.522Z" transform="translate(-1822.781 -408.884)"/><path class="b" d="M1820.58,410.662a.736.736,0,0,0,.016-.278,21.5,21.5,0,0,0-.506-2.537l-.006-.026,0-.005v-.009h0a21.693,21.693,0,0,0-7.544-11.725,21.583,21.583,0,0,0-34.994,16.748l-2.179,1.443a3.438,3.438,0,0,0,1.148,6.224,3.436,3.436,0,0,0,2.294,4.956,3.434,3.434,0,0,0,2.293,4.956,3.443,3.443,0,0,0,2.361,4.976,3.5,3.5,0,0,0,.693.07,3.416,3.416,0,0,0,1.893-.573l3.7-2.447c.372.18.751.351,1.13.507a21.4,21.4,0,0,0,4.136,1.24,15.887,15.887,0,0,0,2.456,3.059l1.417,1.374a3.1,3.1,0,0,0,4.744-3.937c-.109-.166-.212-.336-.311-.509a21.539,21.539,0,0,0,15.32-11.926.742.742,0,0,0-1.341-.637,20.057,20.057,0,0,1-14.625,11.176,9.184,9.184,0,0,1-.326-5.2l1.809-7.815a2.005,2.005,0,0,0,1.07.6,2.069,2.069,0,0,0,.408.042,2.007,2.007,0,0,0,1.112-.337l12.451-8.246q.034.585.034,1.173a20.159,20.159,0,0,1-.75,5.46.742.742,0,1,0,1.428.4,21.659,21.659,0,0,0,.679-8.194Zm-8.925,4.368-10.685-15.936,6.293-4.167a20.22,20.22,0,0,1,11.378,13.242v.006s0,.009,0,.014a19.607,19.607,0,0,1,.377,1.962ZM1791.2,431.468l1.98-1.311.446,1.2q.206.554.454,1.093a19.89,19.89,0,0,1-2.641-.883Zm9.7-4.224a10.677,10.677,0,0,0,.625,6.664h0l.005.011a10.712,10.712,0,0,0,.861,1.575,1.617,1.617,0,0,1-2.475,2.053l-1.416-1.373a14.39,14.39,0,0,1-2.388-3.037l-.018-.029a14.549,14.549,0,0,1-1.074-2.266l-.771-2.08a.742.742,0,0,0-.953-.437l-.023.01a.425.425,0,0,0-.1.052l-.015.009-.01.006-7.913,5.241a1.958,1.958,0,1,1-2.162-3.264l.676-.447h0l.011-.008,1.532-1.015a.742.742,0,0,0-.819-1.237l-1.543,1.022a1.957,1.957,0,0,1-2.151-3.271l2.22-1.47a.742.742,0,0,0-.818-1.238l-1.542,1.021a1.958,1.958,0,0,1-2.153-3.27L1780.7,419a.742.742,0,1,0-.818-1.238l-1.534,1.015a1.957,1.957,0,1,1-2.161-3.264l5.387-3.568a.742.742,0,1,0-.819-1.237l-1.692,1.12a20.131,20.131,0,0,1,26.833-17.77l-11.387,7.54a2.028,2.028,0,0,0-.569,2.8l.066.1-.973.646a3.311,3.311,0,0,1-2.356.509,4.785,4.785,0,0,0-3.409.737l-3.865,2.56a.742.742,0,0,0,.819,1.237l3.865-2.56a3.306,3.306,0,0,1,2.353-.509,4.8,4.8,0,0,0,3.411-.737l.974-.645,8.189,12.364Zm5.025-8.415a.54.54,0,0,1-.747-.153l-9.521-14.375,0,0,0,0-.474-.715a.542.542,0,0,1,.152-.749l4.407-2.918,10.685,15.936Z" transform="translate(-1773.821 -391.409)"/></g></g></g></svg>